<svg id="Layer_1" xmlns="http://www.w3.org/2000/svg" viewBox="0 0 193.2 31.1"><style>.st0{fill:#00377b}</style><path class="st0" d="M37 10.4h-3.3l-.5 2.8H36s2.3-.2 2.3-1.5c0-1.6-1.3-1.3-1.3-1.3M57.2 18h2l-.4-3.1zM125.2 10.3h-3.1l-.6 2.8h2.8c.4 0 1.8.2 2.3-1.3.5-1.4-1.4-1.5-1.4-1.5M142.7 18.3v1.5c0 2.3 2 1.8 2.5 1.8s2.3 0 2.3-1.2c-.1-1-1.4-.8-4.8-2.1M146.9 9.4c-3.1 0-2.4 1.8.5 2.1.4 0 .9.1 1.3.3V11c0-1.8-1.8-1.6-1.8-1.6"/><path class="st0" d="M157.3 4.2C154.4.7 150.1 0 146.4 0s-6.7 1.7-6.7 1.7c-1.9.9-3.4 2.7-3.4 2.7s-.6-.8-1-1.2c-.4-.4-.8-.7-1.2-1-.4-.2-1.3-.9-3.1-1.2-2-.4-3.8-.4-3.8-.4h-11.9c-1 0-1.8.6-1.8.6s-.4-.3-.8-.4c-.4-.1-1-.2-1-.2H92.5c-.2 0-.8.1-.8.1s-.2 0-.3-.1c-.2 0-.5-.1-.5-.1h-7.5c-1.8 0-2.7 1.7-2.7 1.7l-1.1 2.5-.1-1.4c-.2-1.1-.9-1.8-.9-1.8-1-1-2.2-1-2.2-1h-7.2c-1.3 0-2.3 1.1-2.3 1.1s-.3-.3-.9-.6c-.6-.3-1.4-.4-1.4-.4h-7.1c-1.9 0-2.8 1.6-2.8 1.6l-5.3 9.2s.2-1.3 0-2.6c-.1-1.2-.2-1.7-.7-2.9-.4-1.2-1.3-2.4-2.4-3.2-1.1-.9-1.8-1.1-2.6-1.4-.6-.3-1.7-.5-2.6-.6C40.2.6 39 .6 39 .6H26.9c-.6 0-1.2.3-1.2.3s-.2-.1-.5-.2c-.2-.1-.4-.1-.4-.1H4.2c-2 0-2.8 2.2-2.8 2.2L.1 9c-.1.6-.3 1.5.5 2.8.8 1.3 2.6 1.4 2.6 1.4h2.5s-2.5 12.1-2.6 13c-.2.8-.5 1.8.4 3.1s2.6 1.3 2.6 1.3h7c1.1 0 1.7-.3 2.4-.9.7-.7.9-1.7.9-1.7l3-14.9h2.4s-2.5 12.4-2.7 13.3c-.2.9-.3 1.9.6 3 .9 1.1 2.3 1.2 2.3 1.2h7.2c2.6 0 3.1-2.7 3.1-2.7l1.1-5.5s-.7 4.3.4 6.4c1 1.9 2.7 1.8 2.7 1.8h14.7c1.8 0 2.7-1.4 2.7-1.4l1-2h2.8s-.1 1.3.9 2.3c1 1 2.1 1 2.1 1h7.4c.8 0 1.4-.4 1.4-.4s.3.2.7.3c.4.1.9.1.9.1H79c2.5 0 3.2-1.9 3.2-1.9l3.4-6.9-.9 4.5c-.3 1.5.2 2.3.2 2.3.9 2.1 2.9 1.9 2.9 1.9h19.6c.9 0 1.5-.5 1.5-.5s.3.2.6.3c.3.1 1 .2 1 .2h6.7c3.4 0 3.6-2.9 3.6-2.9l1.1-5.3s-.4 2.1-.1 4.6c.4 3.3 3 3.6 3 3.6h7.4c2.4-.1 2.9-2.6 2.9-2.6s1.3 1.1 2.3 1.5c.9.4 3.4 1.5 6.8 1.5 7.9 0 12.4-3.8 13.8-8.6 1.4-4.8-1.2-8.3-1.2-8.3s.7 0 1.4-.6c.6-.5 1.2-1.7 1.2-1.7 0-.3.4-4.3-2.1-7.4M17.6 10.7L14 28.2H5.1l3.5-17.5H2.1l1.7-7.8h21.7l-1.6 7.8h-6.3zm42.7 17.5l-.4-3.4h-6.2L52 28.2H36.3s-.4-.8-.5-1.4c-.2-.6-.1-3 .3-5.1.3-2.1-2.1-1.7-2.1-1.7h-2.2L30 28.2h-8.8l5.1-25.3s9.1.1 13.4.1c4.3 0 6.1 2 6.9 3.9.9 1.9.9 4.9-.4 7.2-1.2 2.1-3.2 2.7-3.2 2.7s.8 1 1 2.1c.3 1.6.2 6.4.2 6.4L57 2.9h8.3l4 25.3h-9zm47.6 0H86.7l4.9-23.8-11.7 23.8h-9.4L68.4 3h8.8l.8 11 5-11.1h29.9l-1.6 7.8h-12l-.3 1.1h11l-1.4 7.4H97.5l-.2 1.1h12.2l-1.6 7.9zm24.2-10.3c.4.7.4 1.5.5 1.9.1.4 0 1.7 0 4.7s.9 3.7.9 3.7h-8.8s-.4-.9-.5-1.7c-.2-.8.1-2.9.3-4.7.2-1.8-1.7-1.7-1.7-1.7h-2.6l-1.7 8.2h-8.8L114.8 3s7.7.1 13.1.1c5.4 0 7.8 2.4 7.8 7.3s-4.2 6.5-4.2 6.5.2.3.6 1m25-6h-7.9c1.1.4 2.3 1 3.9 1.9 2.5 1.5 3 4.6 3 6.3 0 1.6-1.6 8.7-10.9 8.7-13.1 0-11-10.2-11-10.2h8.6v-.2c-.6-.2-1.2-.5-2-.8-4.9-2.2-4.3-6.9-4.3-6.9 0-2.6 2.7-8.3 10.2-8.3 12.2 0 10.4 9.5 10.4 9.5M163.6 21.2h-1.3l.6-4h-1.1l.2-1.1h3.5l-.1 1.1h-1.1zM171 18.5c-.3 1.7-1.6 2.8-3.3 2.8-1.6 0-2.6-1.2-2.4-2.8.2-1.6 1.8-2.7 3.2-2.7 1.6.1 2.7 1.2 2.5 2.7m-4.3.1c-.1.9.4 1.5 1.2 1.5.8 0 1.5-.7 1.7-1.5.1-.7-.4-1.4-1.2-1.4-.8 0-1.5.6-1.7 1.4M177 18.5c-.3 1.7-1.6 2.8-3.3 2.8-1.6 0-2.6-1.2-2.4-2.8.2-1.6 1.8-2.7 3.2-2.7 1.6.1 2.7 1.2 2.5 2.7m-4.3.1c-.1.9.4 1.5 1.2 1.5.8 0 1.5-.7 1.7-1.5.1-.7-.4-1.4-1.2-1.4-.8 0-1.6.6-1.7 1.4M178.7 20.1h1.6l-.2 1.1h-2.9l.8-5.1h1.3zM165.8 25.1c-.2-.4-.6-.6-1.1-.6-.8 0-1.5.6-1.6 1.4-.1.8.3 1.4 1.2 1.4.4 0 .9-.2 1.2-.5l-.3 1.6c-.5.1-.8.2-1.2.2-.7 0-1.3-.3-1.8-.8s-.6-1.2-.5-2c.1-.7.5-1.4 1-1.9.6-.5 1.4-.8 2.1-.8.4 0 .8.1 1.2.3l-.2 1.7zM171.9 25.9c-.3 1.7-1.6 2.8-3.3 2.8-1.6 0-2.6-1.2-2.4-2.8.2-1.6 1.8-2.7 3.2-2.7 1.5 0 2.7 1.1 2.5 2.7m-4.3 0c-.1.9.4 1.5 1.2 1.5.8 0 1.5-.7 1.7-1.5.1-.7-.4-1.4-1.2-1.4-.8 0-1.6.7-1.7 1.4M173.7 27.9c-.1.4-.5.8-.9.8s-.7-.4-.7-.8c.1-.4.5-.8.9-.8s.7.4.7.8M176.3 27.3l-1.6 2.2h-.8l1.3-2.2zM180.3 28.6H179l.8-5.2h1.3zM182 23.4h1.3l1.9 3.2h.1l.5-3.2h1.3l-.8 5.2h-1.4l-1.9-3.2-.5 3.2h-1.3zM191.3 25.1c-.2-.4-.6-.6-1.1-.6-.8 0-1.5.6-1.6 1.4-.1.8.3 1.4 1.2 1.4.4 0 .9-.2 1.2-.5l-.2 1.6c-.5.1-.8.2-1.2.2-.7 0-1.3-.3-1.8-.8s-.6-1.2-.5-2c.1-.7.5-1.4 1-1.9.6-.5 1.4-.8 2.1-.8.4 0 .8.1 1.2.3l-.3 1.7zM193.2 27.9c-.1.4-.5.8-.9.8s-.7-.4-.7-.8c.1-.4.5-.8.9-.8.5 0 .8.4.7.8"/><path class="st0" d="M4.8 4.4h18.9l-.9 4.9h-6.5l-3.6 17.5h-6l3.5-17.5H3.8zM37.1 26.8s-.7-.2.1-4.6c.7-3.6-3.2-3.7-3.2-3.7h-3.7l-1.6 8.2h-6l4.6-22.4h11.8s6.8-.5 6.7 5.7c-.1 5.4-5.5 5.9-5.5 5.9v1s2.3-.3 2.5 4.5c0 1.3-.4 5 .1 5.3h-5.8zM32.4 8.9l-1.2 5.7h5s3.3.1 3.3-3.1C39.5 9 37.2 9 37.2 9h-4.8zM50.9 26.7h-6L57.7 4.4h6.1l3.5 22.4h-5.9l-.4-3.4h-8.4l-1.7 3.3zm7.9-15.4l-4.2 8.2h6l-1-8.2h-.8zM69.8 4.4h5.9l1 13.7h.9l6.1-13.7h6.2L78.8 26.7h-7.2zM92.8 4.4h18.1l-.9 4.9H98l-.8 4h11.1l-.9 4.5H96.2l-.8 4h12.1l-1 5H88.2zM125.5 26.8s-.7-.2.1-4.6c.7-3.6-3.2-3.7-3.2-3.7h-3.7l-1.6 8.2h-6l4.6-22.4h11.8s6.8-.5 6.7 5.7c-.1 5.4-5.5 6.1-5.5 6.1v.6s2.3-.1 2.5 4.8c0 1.3-.4 5 .1 5.3h-5.8zm-4.7-17.9l-1.2 5.7h5s3.3.1 3.3-3.1c0-2.5-2.3-2.5-2.3-2.5h-4.8zM148.8 20.5c.1-2.5-4.1-3-4.1-3-8.4-1.8-7.1-6.7-7.1-6.7s-.3-6.5 8.7-7c9.6-.6 9.3 6.7 9.3 6.7h-5.7s-.1-2.3-3-2.3c0 0-3-.5-3.4 2.2-.4 2.6 3.6 2.5 6 3.3 6.2 2.2 5.1 6.5 5.1 6.5s-.1 7.1-9.9 7.3c-9.8.2-9.3-7.5-9.3-7.5h5.9s-.5 3.5 3.9 3.3c1.3-.1 3.1-.3 3.6-2.8M162 2.2c.3.3.4.7.4 1.1 0 .4-.1.8-.4 1.1-.3.3-.6.4-1.1.4-.4 0-.8-.1-1.1-.4-.3-.3-.4-.7-.4-1.1 0-.4.1-.8.4-1.1.3-.3.6-.4 1.1-.4s.9.1 1.1.4m.2-.2c-.3-.3-.7-.5-1.2-.5s-.9.2-1.2.5c-.3.3-.5.8-.5 1.2 0 .5.2.9.5 1.2.3.3.7.5 1.2.5s.9-.2 1.2-.5c.3-.3.5-.8.5-1.2 0-.4-.1-.8-.5-1.2m-1 1.2h-.6v-.7h.3c.2 0 .3 0 .4.1.1 0 .1.1.1.3 0 .1 0 .2-.2.3m-.9 1h.3v-.7h.3c.2 0 .3 0 .4.1.1.1.2.2.2.4V4.3h.3v-.1-.4c0-.1 0-.2-.1-.3-.1-.1-.2-.2-.3-.2.1 0 .2 0 .3-.1.1-.1.2-.2.2-.4s-.1-.4-.3-.5c-.1 0-.3-.1-.5-.1h-.7v2z"/></svg>