<svg width="50" height="50" xmlns="http://www.w3.org/2000/svg">

 <g>
  <title>background</title>
  <rect fill="none" id="canvas_background" height="52" width="52" y="-1" x="-1"/>
 </g>
 <g>
  <title>Layer 1</title>
  <path stroke="null" fill="#333333" id="svg_1" d="m24.214905,30.191183c-3.849701,-3.165513 -6.420177,-7.071608 -7.771554,-9.294184l-1.008038,-1.900386c0.352461,-0.37817 3.040285,-3.256323 4.205065,-4.817932c1.463749,-1.960926 -0.65848,-3.731938 -0.65848,-3.731938s-5.971515,-5.972345 -7.332429,-7.157028c-1.360913,-1.186342 -2.927498,-0.527447 -2.927498,-0.527447c-2.860323,1.848139 -5.825555,3.454945 -6.003444,11.182545c-0.006635,7.234984 5.485534,14.697201 11.424706,20.474241c5.948709,6.524257 14.116263,13.063442 22.012629,13.055978c7.72677,-0.17623 9.333162,-3.141048 11.181301,-6.001371c0,0 0.659309,-1.565341 -0.525789,-2.927498c-1.185927,-1.361743 -7.159101,-7.334502 -7.159101,-7.334502s-1.769768,-2.122643 -3.731109,-0.65765c-1.461676,1.092629 -4.086472,3.522949 -4.718828,4.112181c0.001244,0.002073 -4.389588,-2.338681 -6.987432,-4.475008z"/>
 </g>
</svg>