<svg id="Capa_1" xmlns="http://www.w3.org/2000/svg" viewBox="0 0 430.2 424.6"><style>.st0{fill:none}</style><circle class="st0" cx="364" cy="372" r="29.5"/><circle class="st0" cx="166.6" cy="372" r="29.5"/><path class="st0" d="M377.1 242.4c16.6 0 30.1-13.6 30.1-30.3V107.3H96.7s-.9 116.3-1.9 158.9l282.3-23.8z"/><path d="M376.9 265.4c29.5 0 53.3-23.8 53.3-53.2V94.5l-.1-.2v-.4c0-.2-.1-.3-.1-.6 0-.1 0-.2-.1-.3-.1-.2-.1-.3-.1-.4v-.1c-.1-.2-.1-.4-.2-.5-.1-.2-.2-.5-.2-.6-.1-.2-.2-.4-.3-.7l-.1-.1-.4-.9c-.1-.2-.2-.3-.3-.4v-.1c-.1-.2-.2-.3-.3-.5l-.4-.4c-.1-.1-.2-.3-.4-.5-.1-.1-.2-.2-.3-.4l-.2-.2-.4-.4c-.1-.1-.3-.2-.3-.3-.1-.1-.3-.2-.4-.3h-.1c-.2-.1-.3-.2-.4-.2-.2-.1-.5-.3-.9-.5l-1.5-.7c-.2 0-.4-.1-.7-.2-.2 0-.4-.1-.6-.1h-.1l-.3-.1h-.2c-.3 0-.5 0-.7-.1l-323.3-.2V34.7v-1.1l-.1-.2v-.5-.1c0-.1 0-.3-.1-.4 0-.1-.1-.2-.1-.4v-.2l-.1-.4c0-.1 0-.2-.1-.3l-.4-1.1v-.1s0-.1-.1-.1c-.2-.2-.3-.4-.3-.6v-.1s0-.1-.1-.1l-.2-.2-.2-.3c-.1-.2-.2-.3-.3-.5-.1-.2-.2-.3-.3-.4v-.1c-.1-.1-.1-.2-.2-.3l-1-1-.4-.4-.2-.2c-.2-.1-.4-.3-.5-.4H92l-.3-.3c-.2-.1-.3-.2-.4-.3l-.3-.2s-.1 0-.1-.1c-.1-.1-.3-.1-.4-.2l-.6-.3L16 .9C10.1-1.6 3.4 1.2.9 7c-1.2 2.8-1.2 6-.1 8.8 1.1 2.8 3.3 5 6.1 6.2l66.7 20v251.3c0 25.6 18.6 45.1 46.4 48.7l3 .4-1.6 2.6c-4.9 8.2-7.5 17.6-7.5 27 0 28.3 22.5 51.4 50.6 52.5 28.1 1 51.8-19.8 54.2-47.8 1-11.1-1.5-22-7-31.1l-1.8-3h110.4l-1.8 3c-4.7 8-7.2 17.1-7.2 26.5 0 30.3 25.8 54.7 56.5 52.3 25.7-1.9 46.4-22.6 48.3-48.3 2.3-30.8-22.1-56.5-52.3-56.5h-237c-18.1 0-30.2-10.5-30.2-26.2V289l280.3-23.6zM364 342.5c16.3 0 29.5 13.2 29.5 29.5s-13.2 29.5-29.5 29.5-29.5-13.2-29.5-29.5 13.2-29.5 29.5-29.5zm-197.4 0c16.3 0 29.5 13.2 29.5 29.5s-13.2 29.5-29.5 29.5-29.5-13.2-29.5-29.5 13.2-29.5 29.5-29.5zM96.7 107.3h310.5v104.8c0 16.7-13.5 30.3-30.1 30.3L94.8 266.2c.9-42.7 1.9-158.9 1.9-158.9z"/></svg>