<?xml version="1.0" encoding="utf-8"?>
<svg version="1.1" id="Capa_1" xmlns="http://www.w3.org/2000/svg" xmlns:xlink="http://www.w3.org/1999/xlink" x="0px" y="0px"
	 viewBox="0 0 430.2 424.6" style="enable-background:new 0 0 430.2 424.6;" xml:space="preserve">
<path d="M376.9,265.4L376.9,265.4c29.5,0,53.3-23.8,53.3-53.2V94.5l-0.1-0.2v-0.4c0-0.2-0.1-0.3-0.1-0.6c0-0.1,0-0.2-0.1-0.3
	c-0.1-0.2-0.1-0.3-0.1-0.4v-0.1c-0.1-0.2-0.1-0.4-0.2-0.5c-0.1-0.2-0.2-0.5-0.2-0.6c-0.1-0.2-0.2-0.4-0.3-0.7l-0.1-0.1l-0.4-0.9
	c-0.1-0.2-0.2-0.3-0.3-0.4v-0.1c-0.1-0.2-0.2-0.3-0.3-0.5l-0.4-0.4c-0.1-0.1-0.2-0.3-0.4-0.5c-0.1-0.1-0.2-0.2-0.3-0.4
	c-0.1-0.1-0.1-0.1-0.2-0.2l-0.4-0.4c-0.1-0.1-0.3-0.2-0.3-0.3c-0.1-0.1-0.3-0.2-0.4-0.3h-0.1c-0.2-0.1-0.3-0.2-0.4-0.2
	c-0.2-0.1-0.5-0.3-0.9-0.5l-1.5-0.7c-0.2,0-0.4-0.1-0.7-0.2c-0.2,0-0.4-0.1-0.6-0.1h-0.1l-0.3-0.1c0,0-0.1,0-0.2,0
	c-0.3,0-0.5,0-0.7-0.1L96.8,84.1V34.7c0-0.3,0-0.8,0-0.9v-0.2l-0.1-0.2v-0.5v-0.1c0-0.1,0-0.3-0.1-0.4c0-0.1-0.1-0.2-0.1-0.4
	c0,0,0-0.1,0-0.2l-0.1-0.4c0-0.1,0-0.2-0.1-0.3L95.9,30v-0.1c0,0,0-0.1-0.1-0.1c-0.2-0.2-0.3-0.4-0.3-0.6v-0.1c0,0,0-0.1-0.1-0.1
	l-0.2-0.2L95,28.5c-0.1-0.2-0.2-0.3-0.3-0.5c-0.1-0.2-0.2-0.3-0.3-0.4v-0.1c-0.1-0.1-0.1-0.2-0.2-0.3l-1-1c-0.2-0.2-0.3-0.3-0.4-0.4
	l-0.2-0.2c-0.2-0.1-0.4-0.3-0.5-0.4H92c-0.1-0.1-0.2-0.2-0.3-0.3c-0.2-0.1-0.3-0.2-0.4-0.3L91,24.4c0,0-0.1,0-0.1-0.1
	c-0.1-0.1-0.3-0.1-0.4-0.2c-0.2-0.1-0.4-0.2-0.6-0.3L16,0.9C10.1-1.6,3.4,1.2,0.9,7c-1.2,2.8-1.2,6-0.1,8.8s3.3,5,6.1,6.2l66.7,20
	v251.3c0,25.6,18.6,45.1,46.4,48.7l3,0.4l-1.6,2.6c-4.9,8.2-7.5,17.6-7.5,27c0,28.3,22.5,51.4,50.6,52.5c28.1,1,51.8-19.8,54.2-47.8
	c1-11.1-1.5-22-7-31.1l-1.8-3h110.4l-1.8,3c-4.7,8-7.2,17.1-7.2,26.5c0,30.3,25.8,54.7,56.5,52.3c25.7-1.9,46.4-22.6,48.3-48.3
	c2.3-30.8-22.1-56.5-52.3-56.5h-237c-18.1,0-30.2-10.5-30.2-26.2V289L376.9,265.4z M364,342.5c16.3,0,29.5,13.2,29.5,29.5
	s-13.2,29.5-29.5,29.5s-29.5-13.2-29.5-29.5S347.7,342.5,364,342.5z M166.6,342.5c16.3,0,29.5,13.2,29.5,29.5s-13.2,29.5-29.5,29.5
	s-29.5-13.2-29.5-29.5S150.3,342.5,166.6,342.5z M96.7,107.3h310.5v104.8c0,16.7-13.5,30.3-30.1,30.3L94.8,266.2
	C95.7,223.5,96.7,107.3,96.7,107.3z"/>
</svg>
