<svg xmlns="http://www.w3.org/2000/svg" viewBox="0 0 19 21"><g fill="none" fill-rule="evenodd"><path d="M-1 0h20.843v20.843H-1z"/><path d="M3.716 2.464h12.339V.941H2.489a.76.76 0 00-.762.76.764.764 0 00.762.763h1.227zm3.218 7.457h7.457v.93H6.934v-.93zm0-2.486h7.457v.93H6.934v-.93zm10.052-4.971h1.09v18.37H3.89c-.83 0-1.565-.607-2.112-1.428-.616-.924-1.011-2.153-1.011-3.027V1.57H.8c.032-.411.214-.784.491-1.06l.002-.003A1.69 1.69 0 012.49.009h14.497v2.455zm-15.288.734V16.38c0 .713.335 1.733.855 2.514.211.316.448.588.698.77V3.394h-.762c-.285 0-.554-.07-.79-.197zm2.484 16.705h12.962V3.395H4.182v16.508z" fill="#0361C1" fill-rule="nonzero"/></g></svg>
