<svg width="50" height="50" xmlns="http://www.w3.org/2000/svg">

 <g>
  <title>background</title>
  <rect fill="none" id="canvas_background" height="52" width="52" y="-1" x="-1"/>
 </g>
 <g>
  <title>Layer 1</title>
  <path stroke="null" fill="#333333" id="svg_1" d="m9.208555,11.938956q1.736912,0 2.973805,1.236892t1.236892,2.973805l0,28.632739q0,1.736912 -1.236892,2.973805t-2.973805,1.236892l-3.368557,0q-1.736912,0 -2.973805,-1.236892t-1.236892,-2.973805l0,-28.632739q0,-1.736912 1.236892,-2.973805t2.973805,-1.236892l3.368557,0zm36.211993,4.289647q1.526378,0.894773 2.447468,2.447468t0.92109,3.368557l0,20.211345q0,2.789587 -1.973764,4.763351t-4.763351,1.973764l-22.737763,0q-1.736912,0 -2.973805,-1.236892t-1.236892,-2.973805l0,-40.42269q0,-1.052674 0.736872,-1.789546t1.789546,-0.736872l17.684927,0q1.052674,0 2.315883,0.526337t2.000081,1.263209l4.000162,4.000162q0.736872,0.736872 1.263209,2.000081t0.526337,2.315883l0,4.289647zm-19.369206,26.02737l0,-3.368557q0,-0.368436 -0.236852,-0.605288t-0.605288,-0.236852l-3.368557,0q-0.368436,0 -0.605288,0.236852t-0.236852,0.605288l0,3.368557q0,0.368436 0.236852,0.605288t0.605288,0.236852l3.368557,0q0.368436,0 0.605288,-0.236852t0.236852,-0.605288zm0,-6.737115l0,-3.368557q0,-0.368436 -0.236852,-0.605288t-0.605288,-0.236852l-3.368557,0q-0.368436,0 -0.605288,0.236852t-0.236852,0.605288l0,3.368557q0,0.368436 0.236852,0.605288t0.605288,0.236852l3.368557,0q0.368436,0 0.605288,-0.236852t0.236852,-0.605288zm0,-6.737115l0,-3.368557q0,-0.368436 -0.236852,-0.605288t-0.605288,-0.236852l-3.368557,0q-0.368436,0 -0.605288,0.236852t-0.236852,0.605288l0,3.368557q0,0.368436 0.236852,0.605288t0.605288,0.236852l3.368557,0q0.368436,0 0.605288,-0.236852t0.236852,-0.605288zm6.737115,13.47423l0,-3.368557q0,-0.368436 -0.236852,-0.605288t-0.605288,-0.236852l-3.368557,0q-0.368436,0 -0.605288,0.236852t-0.236852,0.605288l0,3.368557q0,0.368436 0.236852,0.605288t0.605288,0.236852l3.368557,0q0.368436,0 0.605288,-0.236852t0.236852,-0.605288zm0,-6.737115l0,-3.368557q0,-0.368436 -0.236852,-0.605288t-0.605288,-0.236852l-3.368557,0q-0.368436,0 -0.605288,0.236852t-0.236852,0.605288l0,3.368557q0,0.368436 0.236852,0.605288t0.605288,0.236852l3.368557,0q0.368436,0 0.605288,-0.236852t0.236852,-0.605288zm0,-6.737115l0,-3.368557q0,-0.368436 -0.236852,-0.605288t-0.605288,-0.236852l-3.368557,0q-0.368436,0 -0.605288,0.236852t-0.236852,0.605288l0,3.368557q0,0.368436 0.236852,0.605288t0.605288,0.236852l3.368557,0q0.368436,0 0.605288,-0.236852t0.236852,-0.605288zm6.737115,13.47423l0,-3.368557q0,-0.368436 -0.236852,-0.605288t-0.605288,-0.236852l-3.368557,0q-0.368436,0 -0.605288,0.236852t-0.236852,0.605288l0,3.368557q0,0.368436 0.236852,0.605288t0.605288,0.236852l3.368557,0q0.368436,0 0.605288,-0.236852t0.236852,-0.605288zm0,-6.737115l0,-3.368557q0,-0.368436 -0.236852,-0.605288t-0.605288,-0.236852l-3.368557,0q-0.368436,0 -0.605288,0.236852t-0.236852,0.605288l0,3.368557q0,0.368436 0.236852,0.605288t0.605288,0.236852l3.368557,0q0.368436,0 0.605288,-0.236852t0.236852,-0.605288zm0,-6.737115l0,-3.368557q0,-0.368436 -0.236852,-0.605288t-0.605288,-0.236852l-3.368557,0q-0.368436,0 -0.605288,0.236852t-0.236852,0.605288l0,3.368557q0,0.368436 0.236852,0.605288t0.605288,0.236852l3.368557,0q0.368436,0 0.605288,-0.236852t0.236852,-0.605288zm2.526418,-10.105672l0,-6.737115l-4.210697,0q-1.052674,0 -1.789546,-0.736872t-0.736872,-1.789546l0,-4.210697l-16.842787,0l0,13.47423l23.579902,0z"/>
 </g>
</svg>