<svg version="1.1" xmlns="http://www.w3.org/2000/svg" width="1024" height="1024" viewBox="0 0 1024 1024">
<path fill="#000" d="M900.267 473.6h-64v-64h-64v64h-64v64h64v64h64v-64h64v-64z"></path>
<path fill="#000" d="M657.067 477.867h-243.2v98.133h140.8c-8.533 42.667-46.933 115.2-153.6 115.2-93.867 0-170.667-76.8-170.667-174.933s76.8-174.933 170.667-174.933c51.2 0 89.6 21.333 110.933 42.667l72.533-72.533c-46.933-42.667-110.933-72.533-183.467-72.533-153.6 0-273.067 123.733-273.067 273.067s123.733 273.067 273.067 273.067c187.733 4.267 285.867-153.6 256-307.2z"></path>
</svg>
