<svg version="1.1" xmlns="http://www.w3.org/2000/svg" width="1024" height="1024" viewBox="0 0 1024 1024">
<path fill="#000" d="M516.267 256c85.333 0 93.867 0 128 0s68.267 8.533 93.867 34.133 29.867 59.733 34.133 93.867c0 34.133 0 42.667 0 128s0 93.867 0 128c0 34.133-8.533 68.267-34.133 93.867s-59.733 34.133-93.867 34.133c-34.133 0-42.667 0-128 0s-93.867 0-128 0c-34.133 0-68.267-8.533-93.867-34.133s-29.867-59.733-29.867-93.867c0-34.133 0-42.667 0-128s0-93.867 0-128c0-34.133 8.533-68.267 34.133-93.867s59.733-34.133 93.867-34.133c29.867 0 42.667 0 123.733 0zM516.267 200.533c-85.333 0-93.867 0-128 0-51.2 4.267-93.867 17.067-132.267 51.2s-46.933 81.067-51.2 132.267c0 34.133 0 42.667 0 128s0 93.867 0 128c4.267 51.2 12.8 93.867 51.2 132.267 34.133 34.133 81.067 46.933 132.267 51.2 34.133 0 42.667 0 128 0s93.867 0 128 0c51.2-4.267 93.867-12.8 132.267-51.2 34.133-34.133 46.933-81.067 51.2-132.267 0-34.133 0-42.667 0-128s0-93.867 0-128c-4.267-51.2-12.8-93.867-51.2-132.267s-81.067-46.933-132.267-51.2c-34.133 0-42.667 0-128 0v0z"></path>
<path fill="#000" d="M516.267 349.867c-89.6 0-157.867 72.533-157.867 162.133s72.533 162.133 162.133 162.133 162.133-72.533 162.133-162.133-76.8-162.133-166.4-162.133zM516.267 614.4c-55.467 0-102.4-46.933-102.4-102.4s46.933-102.4 102.4-102.4 102.4 46.933 102.4 102.4-42.667 102.4-102.4 102.4z"></path>
<path fill="#000" d="M721.067 345.6c0 21.208-17.192 38.4-38.4 38.4s-38.4-17.192-38.4-38.4c0-21.208 17.192-38.4 38.4-38.4s38.4 17.192 38.4 38.4z"></path>
</svg>
