<svg version="1.1" xmlns="http://www.w3.org/2000/svg" width="1024" height="1024" viewBox="0 0 1024 1024">
<path fill="#000" d="M512 196.267c-174.933 0-315.733 140.8-315.733 315.733 0 132.267 85.333 247.467 200.533 294.4-4.267-25.6-4.267-64 0-89.6s38.4-157.867 38.4-157.867-8.533-21.333-8.533-46.933c0-42.667 25.6-76.8 59.733-76.8 25.6 0 38.4 21.333 38.4 42.667 0 25.6-17.067 68.267-25.6 106.667-8.533 29.867 17.067 59.733 46.933 59.733 55.467 0 98.133-59.733 98.133-145.067 0-76.8-55.467-128-132.267-128-89.6 0-140.8 68.267-140.8 136.533 0 25.6 8.533 55.467 25.6 72.533 4.267 4.267 4.267 4.267 4.267 8.533-8.533 8.533-12.8 29.867-12.8 34.133-4.267 4.267-4.267 8.533-8.533 4.267-38.4-17.067-64-76.8-64-119.467 0-98.133 72.533-192 209.067-192 110.933 0 196.267 76.8 196.267 183.467s-68.267 196.267-162.133 196.267c-29.867 0-64-17.067-72.533-38.4 0 0-17.067 59.733-17.067 76.8-8.533 25.6-25.6 59.733-38.4 81.067 25.6 8.533 59.733 12.8 89.6 12.8 174.933 0 315.733-140.8 315.733-315.733s-149.333-315.733-324.267-315.733z"></path>
</svg>
