<svg xmlns="http://www.w3.org/2000/svg" viewBox="0 0 22.9 29.8"><path d="M12.2 0C17.8 0 23 3.9 23 9.8c0 5.6-2.8 11.8-9.2 11.8-1.5 0-3.4-.8-4.1-2.2-1.4 5.4-1.3 6.2-4.3 10.3l-.3.1-.2-.2c-.1-1.1-.3-2.2-.3-3.4 0-3.7 1.7-8.9 2.5-12.5-.4-.9-.6-2-.6-3 0-1.8 1.3-4.1 3.3-4.1 1.5 0 2.3 1.1 2.3 2.6 0 2.3-1.6 4.5-1.6 6.8 0 1.5 1.3 2.6 2.8 2.6 4.1 0 5.4-6 5.4-9.1 0-4.2-3-6.6-7.1-6.6-4.7 0-8.4 3.4-8.4 8.2 0 2.3 1.4 3.5 1.4 4.1 0 .5-.3 2.1-.9 2.1-.1 0-.2 0-.3-.1C.9 16.5 0 13 0 10.7 0 4.1 6.1 0 12.2 0z"/></svg>