<svg xmlns="http://www.w3.org/2000/svg" viewBox="0 0 2500 2500">
  <path d="M2076.5 0h-1653C190.6 0 0 190.6 0 423.5v1653C0 2309.4 190.6 2500 423.5 2500h1653c232.9 0 423.5-190.6 423.5-423.5v-1653C2500 190.6 2309.4 0 2076.5 0zm-146.2 982.1c.9 13.8.9 27.7.9 41.6 0 425.7-324.1 916.6-916.6 916.6v-.3c-175 .2-346.5-49.9-493.8-144.5 25.4 3 51.1 4.6 76.7 4.6 145.1.1 286-48.5 400.1-138.2-137.8-2.6-258.8-92.5-301-223.7 48.3 9.3 98 7.4 145.5-5.5-150.3-30.4-258.4-162.4-258.4-315.8v-4.1c44.8 25 94.9 38.8 146.2 40.3-141.6-94.5-185.2-282.8-99.7-430 163.6 201.2 404.9 323.6 663.9 336.6-26-111.9 9.5-229.1 93.2-307.8 129.7-122 333.8-115.7 455.8 14 72.1-14.2 141.3-40.7 204.6-78.2-24 74.6-74.4 137.9-141.6 178.2 63.9-7.5 126.2-24.6 185-50.7-43.3 64.9-97.7 121.3-160.8 166.9z" fill="#14284b"/>
</svg>