<!-- Generated by IcoMoon.io -->
<svg version="1.1" xmlns="http://www.w3.org/2000/svg" width="1024" height="1024" viewBox="0 0 1024 1024">
<path d="M676.571 322.304c-59.867-28.197-131.255-2.523-159.415 57.307-1.975 4.133-3.657 9.362-5.157 15.397-1.499-6.034-3.182-11.264-5.157-15.397-28.197-59.831-99.547-85.504-159.415-57.307-59.831 28.197-85.504 99.547-57.271 159.378 28.197 59.867 221.806 231.424 221.806 231.424s0-0.219 0.037-0.585c0.037 0.366 0.037 0.585 0.037 0.585s193.646-171.557 221.806-231.424c28.233-59.831 2.597-131.182-57.271-159.378z"></path>
</svg>
