<svg id="Layer_1" xmlns="http://www.w3.org/2000/svg" viewBox="0 0 2500 2500">
  <path class="st0" d="M1127.5 1437.7l329.3-190.1-329.3-190.2z"/>
  <path class="st0" d="M2076.5 0h-1653C190.6 0 0 190.6 0 423.5v1653C0 2309.4 190.6 2500 423.5 2500h1653c232.9 0 423.5-190.6 423.5-423.5v-1653C2500 190.6 2309.4 0 2076.5 0zm-215 1552.6c-14.6 54.5-57.5 97.5-112.1 112.1-98.8 26.5-495.2 26.5-495.2 26.5s-396.3 0-495.2-26.5c-54.5-14.6-97.5-57.5-112.1-112.1-26.5-98.8-26.5-305.1-26.5-305.1s0-206.2 26.5-305.1c14.6-54.5 57.5-97.5 112.1-112.1 99-26.3 495.3-26.3 495.3-26.3s396.3 0 495.2 26.5c54.5 14.5 97.5 57.5 112 112 26.5 98.8 26.5 305.1 26.5 305.1s0 206.2-26.5 305z"/>
</svg>