<?xml version="1.0" encoding="utf-8"?>
<svg version="1.1" xmlns="http://www.w3.org/2000/svg" xmlns:xlink="http://www.w3.org/1999/xlink" x="0px" y="0px"
	 viewBox="0 0 45.1 32.2" style="enable-background:new 0 0 45.1 32.2;" xml:space="preserve">
<g>
	<path d="M44.1,27c-0.5,2.5-2.5,4.3-4.9,4.5c-5.6,0.7-11.2,0.7-16.9,0.7s-11.2,0-16.9-0.7c-2.3-0.2-4.3-2.2-4.8-4.5
		C0,23.5,0,19.7,0,16.1S0,8.7,0.8,5.2c0.5-2.5,2.4-4.3,4.9-4.5C11.3,0,16.8,0,22.5,0s11.2,0,16.9,0.7c2.3,0.2,4.3,2.2,4.9,4.5
		c0.8,3.5,0.8,7.3,0.8,10.9S44.9,23.5,44.1,27z M31.3,14.8l-12.8-8c-0.4-0.4-1.1-0.4-1.5,0c-0.5,0.1-0.9,0.8-0.9,1.3v16.1
		c0,0.5,0.4,1.1,0.8,1.3c0.3,0.1,0.4,0.2,0.8,0.2s0.5-0.1,0.9-0.2l12.8-8c0.4-0.3,0.8-0.8,0.8-1.3C32.2,15.7,31.7,15,31.3,14.8z"/>
</g>
</svg>
