<?xml version="1.0" encoding="utf-8"?>
<!-- Generator: Adobe Illustrator 15.0.0, SVG Export Plug-In . SVG Version: 6.00 Build 0)  -->
<!DOCTYPE svg PUBLIC "-//W3C//DTD SVG 1.1//EN" "http://www.w3.org/Graphics/SVG/1.1/DTD/svg11.dtd">
<svg version="1.1" id="Layer_1" xmlns="http://www.w3.org/2000/svg" xmlns:xlink="http://www.w3.org/1999/xlink" x="0px" y="0px"
	 width="242px" height="39px" viewBox="0 0 242 39" enable-background="new 0 0 242 39" xml:space="preserve">
<polygon fill-rule="evenodd" clip-rule="evenodd" fill="#FFFFFF" points="10.298,28.741 0,28.875 15.783,0.492 26.749,19.102 
	37.716,0.09 43.066,9.596 26.883,37.711 15.916,18.967 10.298,28.741 "/>
<polygon fill-rule="evenodd" clip-rule="evenodd" fill="#F16522" points="53.899,28.875 48.55,19.77 43.2,28.875 53.899,28.875 "/>
<path fill="#F16522" d="M96.249,29.014L93.591,6.865h-5.807l-3.27,11.41c-0.367,1.314-0.643,2.908-0.643,2.908h-0.06
	c0,0-0.276-1.594-0.643-2.908L79.9,6.865h-5.807l-2.659,22.148h4.798l1.283-12.788c0.153-1.437,0.214-3.12,0.214-3.12h0.061
	c0,0,0.307,1.652,0.734,3.12l3.728,12.788h3.179l3.728-12.788c0.427-1.468,0.733-3.12,0.733-3.12h0.062c0,0,0.091,1.683,0.244,3.12
	l1.252,12.788H96.249L96.249,29.014z M112.445,28.188v-9.943c0-4.374-2.262-6.087-6.753-6.087c-2.567,0-5.042,0.611-6.509,1.193
	l1.223,3.365c1.192-0.489,3.086-1.009,4.676-1.009c1.71,0,2.627,0.611,2.627,1.927v0.642c-4.981,0.275-9.443,1.285-9.443,5.66
	c0,3.518,2.567,5.444,7.762,5.444C108.657,29.38,111.193,28.829,112.445,28.188L112.445,28.188z M107.709,25.648
	c-0.336,0.123-1.131,0.245-1.833,0.245c-1.803,0-2.934-0.734-2.934-2.08c0-1.958,2.048-2.263,4.767-2.388V25.648L107.709,25.648z
	 M130.048,28.645V13.351c-1.405-0.672-3.605-1.193-6.11-1.193c-5.471,0-8.742,2.876-8.742,8.351c0,4.896,2.813,7.863,7.028,7.863
	c0.95,0,2.079-0.185,2.842-0.521v0.793c0,1.96-0.945,2.999-3.086,2.999c-1.894,0-3.605-0.396-4.736-0.979l-1.375,3.916
	c1.588,0.766,3.759,1.314,6.659,1.314C127.054,35.896,130.048,33.449,130.048,28.645L130.048,28.645z M125.065,24.271
	c-0.364,0.184-1.1,0.367-1.68,0.367c-1.956,0-3.148-1.407-3.148-4.313c0-2.937,1.253-4.344,3.209-4.344
	c0.673,0,1.254,0.092,1.618,0.215V24.271L125.065,24.271z M148.048,19.896c0-4.526-2.567-7.738-7.365-7.738
	c-4.95,0-7.883,3.549-7.883,8.595c0,4.896,2.811,8.627,8.525,8.627c2.475,0,4.949-0.489,6.447-1.192l-1.405-3.732
	c-1.224,0.611-2.996,1.011-4.646,1.011c-2.048,0-3.606-0.889-4.004-2.694l10.268-1.346
	C148.048,20.906,148.048,20.418,148.048,19.896L148.048,19.896z M143.19,18.918l-5.808,0.733c0.031-2.722,1.405-3.945,3.177-3.945
	C142.18,15.707,143.19,16.837,143.19,18.918L143.19,18.918z"/>
<path fill="#FFFFFF" d="M166.781,17.939c0-7.708-4.188-11.38-9.442-11.38c-2.232,0-4.248,0.428-5.593,1.132v20.496
	c1.13,0.612,3.3,1.132,5.593,1.132C162.594,29.319,166.781,25.648,166.781,17.939L166.781,17.939z M164.887,17.939
	c0,6.792-3.424,9.759-7.518,9.759c-1.622,0-3.087-0.275-3.76-0.612V8.793c0.827-0.367,2.293-0.612,3.76-0.612
	C161.463,8.181,164.887,11.147,164.887,17.939L164.887,17.939z M183.741,19.04c0-4.343-2.537-6.821-6.358-6.821
	c-4.309,0-6.965,3.457-6.965,8.534c0,5.6,2.965,8.566,7.671,8.566c2.077,0,4.032-0.49,5.133-1.132l-0.609-1.406
	c-1.04,0.61-2.813,1.039-4.464,1.039c-3.483,0-5.743-2.049-5.989-6.088l11.551-1.712C183.741,19.651,183.741,19.347,183.741,19.04
	L183.741,19.04z M181.999,18.918l-9.932,1.437c0.092-4.038,2.079-6.699,5.315-6.699C180.136,13.657,181.967,15.339,181.999,18.918
	L181.999,18.918z M189.883,29.014V5h-1.801v24.014H189.883L189.883,29.014z M197.188,7.6c0-0.704-0.55-1.255-1.254-1.255
	c-0.705,0-1.283,0.551-1.283,1.255c0,0.704,0.578,1.254,1.283,1.254C196.639,8.854,197.188,8.303,197.188,7.6L197.188,7.6z
	 M196.821,29.014V12.525h-1.804v16.489H196.821L196.821,29.014z M213.751,29.196V13.351c-1.223-0.672-3.026-1.132-4.922-1.132
	c-4.277,0-7.669,2.448-7.669,8.322c0,5.047,2.935,7.86,7.06,7.86c1.374,0,2.843-0.336,3.759-0.795v1.59
	c0,3.274-1.65,5.141-4.859,5.141c-1.649,0-3.422-0.521-4.46-1.071l-0.646,1.438c1.163,0.612,3.241,1.191,5.197,1.191
	C211.397,35.896,213.751,33.418,213.751,29.196L213.751,29.196z M211.979,26.167c-0.855,0.429-2.291,0.735-3.545,0.735
	c-3.146,0-5.471-2.142-5.471-6.394c0-4.924,2.629-6.791,5.806-6.791c1.315,0,2.566,0.306,3.21,0.612V26.167L211.979,26.167z
	 M230.681,29.014V17.665c0-3.518-2.383-5.415-6.144-5.415c-1.466,0-3.024,0.459-4.155,1.07V5h-1.801v24.014h1.801V14.851
	c1.038-0.643,2.567-1.071,3.911-1.071c2.782,0,4.585,1.284,4.585,3.977v11.257H230.681L230.681,29.014z M241.987,28.983v-1.561
	c-0.245,0.092-0.642,0.153-1.009,0.153c-1.465,0-2.718-0.765-2.718-2.6V13.901h3.727v-1.376h-3.727V7.752l-1.744,0.673v4.099h-2.565
	v1.376h2.565v11.136c0,2.783,1.744,4.13,4.188,4.13C241.283,29.167,241.713,29.105,241.987,28.983L241.987,28.983z"/>
</svg>
