<?xml version="1.0" standalone="no"?>
<!DOCTYPE svg PUBLIC "-//W3C//DTD SVG 1.1//EN" "http://www.w3.org/Graphics/SVG/1.1/DTD/svg11.dtd" >
<svg xmlns="http://www.w3.org/2000/svg" xmlns:xlink="http://www.w3.org/1999/xlink" version="1.1">
<metadata>
Created by FontForge 20190801 at Wed Mar 18 05:51:50 2020
 By Jimmy Wärting
Copyright 2019 The Manrope Project Authors (https://github.com/sharanda/manrope)
</metadata>
<defs>
<font id="Manrope-Bold" horiz-adv-x="1251" >
  <font-face 
    font-family="Manrope"
    font-weight="700"
    font-stretch="normal"
    units-per-em="2000"
    panose-1="0 0 8 0 0 0 0 0 0 0"
    ascent="1600"
    descent="-400"
    x-height="1080"
    cap-height="1440"
    bbox="-305 -610 2504 2395"
    underline-thickness="50"
    underline-position="-100"
    unicode-range="U+000D-FB02"
  />
<missing-glyph horiz-adv-x="1480" 
d="M200 1440h1080v-26h-1080v26zM200 1330h1080v-32h-1080v32zM200 1220h1080v-36h-1080v36zM200 1108h1080v-42h-1080v42zM200 996h1080v-44h-1080v44zM200 886h1080v-48h-1080v48zM200 776h1080v-56h-1080v56zM200 666h1080v-60h-1080v60zM200 556h1080v-66h-1080v66z
M200 444h1080v-70h-1080v70zM200 334h1080v-74h-1080v74zM200 224h1080v-80h-1080v80zM200 114h1080v-114h-1080v114z" />
    <glyph glyph-name="f_f" unicode="ff" horiz-adv-x="1429" 
d="M1182.5 1240q-34.5 -34 -34.5 -91v-69h261v-189h-261v-891h-241v891h-432v-891h-241v891h-174v189h174v17q0 61 3 103.5t18.5 90t49.5 84.5q53 60 118.5 77.5t146.5 17.5h31h135v-196h-125q-67 0 -101.5 -34t-34.5 -91v-69h432v17q0 61 3 103.5t18.5 90t49.5 84.5
q53 60 118.5 77.5t146.5 17.5h31h135v-196h-125q-67 0 -101.5 -34z" />
    <glyph glyph-name="f_f_l" unicode="ffl" horiz-adv-x="2052" 
d="M1892 1470v-1470h-241v891h-503v-891h-241v891h-432v-891h-241v891h-174v189h174v17q0 61 3 103.5t18.5 90t49.5 84.5q53 60 118.5 77.5t146.5 17.5h31h135v-196h-125q-67 0 -101.5 -34t-34.5 -91v-69h432v17q0 61 3 103.5t18.5 90t49.5 84.5q53 60 118.5 77.5
t146.5 17.5h31h135v-196h-125q-67 0 -101.5 -34t-34.5 -91v-69h503v390h241z" />
    <glyph glyph-name="fi" unicode="fi" horiz-adv-x="1347" 
d="M509.5 1240q-34.5 -34 -34.5 -91v-69h261v-189h-261v-891h-241v891h-174v189h174v17q0 61 3 103.5t18.5 90t49.5 84.5q53 60 118.5 77.5t146.5 17.5h31h135v-196h-125q-67 0 -101.5 -34zM946 1465h241v-221h-241v221zM946 1080h241v-1080h-241v1080z" />
    <glyph glyph-name="fl" unicode="fl" horiz-adv-x="1379" 
d="M1219 1470v-1470h-241v891h-503v-891h-241v891h-174v189h174v17q0 61 3 103.5t18.5 90t49.5 84.5q53 60 118.5 77.5t146.5 17.5h31h135v-196h-125q-67 0 -101.5 -34t-34.5 -91v-69h503v390h241z" />
    <glyph glyph-name="t_t.liga" unicode="tt" horiz-adv-x="1613" 
d="M1203 455v-57q0 -52 4 -84t18 -53q23 -38 64.5 -54t102.5 -16q56 0 127 11v-202q-98 -19 -183 -19q-116 0 -203 36.5t-129 115.5q-26 48 -34.5 97.5t-8.5 119.5l1 91v450h-506v-436v-57q0 -52 4 -84t18 -53q23 -38 64.5 -54t102.5 -16q56 0 128 11v-202q-98 -19 -183 -19
q-116 0 -203 36.5t-130 115.5q-26 47 -34 97t-8 119l1 92v450h-196v189h196v300h240v-300h506v300h241v-300h316v-189h-316v-436z" />
    <glyph glyph-name="hyphen_hyphen.liga" unicode="&#x2d;&#x2d;" horiz-adv-x="1080" 
d="M120 725h840v-189h-840v189z" />
    <glyph glyph-name="hyphen_greater.liga" unicode="&#x2d;&#x3e;" horiz-adv-x="2023" 
d="M280 536v189h1138l-270 270l115 115l480 -480l-480 -480l-115 115l271 271h-1139z" />
    <glyph glyph-name="parenleft_greater_parenright.liga" unicode="&#x28;&#x3e;&#x29;" horiz-adv-x="2300" 
d="M1647 -137q227 133 360 360t133 497t-133 497t-360 360t-497 133t-497 -133t-360 -360t-133 -497t133 -497t360 -360t497 -133t497 133zM766.5 58.5q-175.5 102.5 -278 278t-102.5 384.5q0 208 102.5 383t278 277.5t384.5 102.5q208 0 383 -102.5t277.5 -277.5
t102.5 -383q0 -209 -102.5 -384.5t-277.5 -278t-383 -102.5q-209 0 -384.5 102.5zM1430 720l-420 -350v700z" />
    <glyph glyph-name="parenleft_c_parenright.liga" unicode="&#x28;c&#x29;" horiz-adv-x="1973" 
d="M572 -7q-190 111 -301 300.5t-111 414.5t111 414.5t301 300.5t414 111q225 0 415 -111t301 -300.5t111 -414.5t-111 -414.5t-301 -300.5t-415 -111q-224 0 -414 111zM1287 188.5q138 80.5 218.5 218.5t80.5 301t-80.5 301t-218.5 218.5t-301 80.5t-301 -80.5
t-218.5 -218.5t-80.5 -301t80.5 -301t218.5 -218.5t301 -80.5t301 80.5zM829.5 313.5q-71.5 31.5 -127.5 101.5q-98 123 -98 294q0 172 98 291q56 69 130.5 102t178.5 33q59 0 106 -11.5t95 -41.5q56 -35 95 -87t55 -120l-184 -50q-19 60 -66 100q-47 38 -111 38
q-94 0 -152 -73q-50 -63 -50 -181q0 -111 50 -180q52 -74 155 -74q72 0 111 35q22 20 35.5 41t23.5 50l188 -40q-18 -59 -51.5 -108.5t-79.5 -83.5t-100.5 -50.5t-128.5 -16.5q-101 0 -172.5 31.5z" />
    <glyph glyph-name="space_less_three_space.liga" unicode="&#x20;&#x3c;&#x33;&#x20;" horiz-adv-x="2322" 
d="M1087 -14.5q-35 15.5 -62 43.5l-351 370q-58 62 -86.5 137t-28.5 153q0 108 50.5 205t141.5 156.5t205 59.5q107 0 204 -60q99 60 206 60q115 0 205.5 -59.5t141 -156.5t50.5 -205q0 -79 -28.5 -153.5t-86.5 -136.5l-349 -370q-27 -28 -63.5 -43.5t-75.5 -15.5
q-38 0 -73 15.5zM1558.5 603q15.5 41 15.5 84q0 60 -27 114t-74.5 87t-106.5 33q-103 0 -206 -112q-105 112 -204 112q-60 0 -107 -33.5t-73.5 -87t-26.5 -113.5q0 -45 15.5 -85.5t47.5 -72.5l348 -368l351 368q32 33 47.5 74z" />
    <glyph glyph-name="less_hyphen.liga" unicode="&#x3c;&#x2d;" horiz-adv-x="2023" 
d="M875 265l-115 -115l-480 480l480 480l115 -115l-270 -270h1138v-189h-1139z" />
    <glyph glyph-name=".notdef" horiz-adv-x="1480" 
d="M200 1440h1080v-26h-1080v26zM200 1330h1080v-32h-1080v32zM200 1220h1080v-36h-1080v36zM200 1108h1080v-42h-1080v42zM200 996h1080v-44h-1080v44zM200 886h1080v-48h-1080v48zM200 776h1080v-56h-1080v56zM200 666h1080v-60h-1080v60zM200 556h1080v-66h-1080v66z
M200 444h1080v-70h-1080v70zM200 334h1080v-74h-1080v74zM200 224h1080v-80h-1080v80zM200 114h1080v-114h-1080v114z" />
    <glyph glyph-name=".null" horiz-adv-x="1200" 
 />
    <glyph glyph-name="nonmarkingreturn" unicode="&#xd;" horiz-adv-x="1200" 
 />
    <glyph glyph-name="space" unicode=" " horiz-adv-x="400" 
 />
    <glyph glyph-name="A" unicode="A" horiz-adv-x="1341" 
d="M1053 0l-99 312h-568l-98 -312h-248l454 1440h353l454 -1440h-248zM457 537h425l-214 670z" />
    <glyph glyph-name="Aacute" unicode="&#xc1;" horiz-adv-x="1341" 
d="M885 1830l-76 -240h-238l76 240h238zM1053 0l-99 312h-568l-98 -312h-248l454 1440h353l454 -1440h-248zM457 537h425l-214 670z" />
    <glyph glyph-name="Abreve" unicode="&#x102;" horiz-adv-x="1341" 
d="M519.5 1602.5q-69.5 40.5 -110 110t-40.5 152.5h188q0 -48 33.5 -81.5t81.5 -33.5t81.5 33.5t33.5 81.5h188q0 -83 -41 -152.5t-110.5 -110t-151.5 -40.5q-83 0 -152.5 40.5zM1053 0l-99 312h-568l-98 -312h-248l454 1440h353l454 -1440h-248zM457 537h425l-214 670z" />
    <glyph glyph-name="uni1EAE" unicode="&#x1eae;" horiz-adv-x="1341" 
d="M865 2190l-76 -240h-238l76 240h238zM518.5 1602.5q-69.5 40.5 -110 110t-40.5 152.5h188q0 -48 33.5 -81.5t81.5 -33.5t81.5 33.5t33.5 81.5h188q0 -83 -41 -152.5t-110.5 -110t-151.5 -40.5q-83 0 -152.5 40.5zM1053 0l-99 312h-568l-98 -312h-248l454 1440h353
l454 -1440h-248zM457 537h425l-214 670z" />
    <glyph glyph-name="uni1EB6" unicode="&#x1eb6;" horiz-adv-x="1341" 
d="M519.5 1602.5q-69.5 40.5 -110 110t-40.5 152.5h188q0 -48 33.5 -81.5t81.5 -33.5t81.5 33.5t33.5 81.5h188q0 -83 -41 -152.5t-110.5 -110t-151.5 -40.5q-83 0 -152.5 40.5zM1301 0h-248l-99 312h-568l-98 -312h-248l454 1440h353zM457 537h425l-214 670zM547 -388v221
h247v-221h-247z" />
    <glyph glyph-name="uni1EB0" unicode="&#x1eb0;" horiz-adv-x="1341" 
d="M791 1950h-238l-76 240h238zM518.5 1602.5q-69.5 40.5 -110 110t-40.5 152.5h188q0 -48 33.5 -81.5t81.5 -33.5q47 0 81 33.5t34 81.5h188q0 -83 -41 -152.5t-110.5 -110t-151.5 -40.5q-83 0 -152.5 40.5zM1053 0l-99 312h-568l-98 -312h-248l454 1440h353l454 -1440
h-248zM457 537h425l-214 670z" />
    <glyph glyph-name="uni1EB2" unicode="&#x1eb2;" horiz-adv-x="1341" 
d="M600 2242q-24 0 -49.5 -9.5t-47.5 -25.5l-62 119q37 33 84.5 51t95.5 18q64 0 116 -33t79 -98q19 -48 19 -93q0 -60 -31.5 -109t-82 -79.5t-105.5 -37.5l-43 98q47 14 78 43.5t31 67.5q0 21 -10 42q-22 46 -72 46zM518.5 1602.5q-69.5 40.5 -110 110t-40.5 152.5h188
q0 -48 33.5 -81.5t81.5 -33.5t81.5 33.5t33.5 81.5h188q0 -83 -41 -152.5t-110.5 -110t-151.5 -40.5q-83 0 -152.5 40.5zM1053 0l-99 312h-568l-98 -312h-248l454 1440h353l454 -1440h-248zM457 537h425l-214 670z" />
    <glyph glyph-name="uni1EB4" unicode="&#x1eb4;" horiz-adv-x="1341" 
d="M312 1960q-12 48 -12 93q0 89 47.5 142t137.5 53q46 0 89 -21t103 -61q45 -30 71.5 -44t49.5 -14q22 0 35.5 18.5t13.5 49.5q0 22 -7 46h152q12 -49 12 -93q0 -89 -47.5 -142.5t-137.5 -53.5q-47 0 -88.5 20.5t-104.5 61.5q-41 29 -68.5 43.5t-50.5 14.5t-36.5 -18.5
t-13.5 -48.5q0 -18 7 -46h-152zM730.5 1783.5q33.5 33.5 33.5 81.5h188q0 -83 -41 -152.5t-110.5 -110t-151.5 -40.5q-83 0 -152.5 40.5t-110 110t-40.5 152.5h188q0 -48 33.5 -81.5t81.5 -33.5t81.5 33.5zM1053 0l-99 312h-568l-98 -312h-248l454 1440h353l454 -1440h-248z
M457 537h425l-214 670z" />
    <glyph glyph-name="Acircumflex" unicode="&#xc2;" horiz-adv-x="1341" 
d="M672 1710l-254 -138l-87 153l341 187l341 -187l-88 -153zM1053 0l-99 312h-568l-98 -312h-248l454 1440h353l454 -1440h-248zM457 537h425l-214 670z" />
    <glyph glyph-name="uni1EA4" unicode="&#x1ea4;" horiz-adv-x="1341" 
d="M1348 2040l-76 -240h-238l76 240h238zM671 1710l-254 -138l-87 153l341 187l341 -187l-88 -153zM494 1440h353l454 -1440h-248l-99 312h-568l-98 -312h-248zM457 537h425l-214 670z" />
    <glyph glyph-name="uni1EAC" unicode="&#x1eac;" horiz-adv-x="1341" 
d="M672 1710l-254 -138l-87 153l341 187l341 -187l-88 -153zM1301 0h-248l-99 312h-568l-98 -312h-248l454 1440h353zM457 537h425l-214 670zM547 -388v221h247v-221h-247z" />
    <glyph glyph-name="uni1EA6" unicode="&#x1ea6;" horiz-adv-x="1341" 
d="M1267 1800h-238l-76 240h238zM671 1710l-254 -138l-87 153l341 187l341 -187l-88 -153zM1053 0l-99 312h-568l-98 -312h-248l454 1440h353l454 -1440h-248zM457 537h425l-214 670z" />
    <glyph glyph-name="uni1EA8" unicode="&#x1ea8;" horiz-adv-x="1341" 
d="M1102 1909q-23 0 -48.5 -9.5t-47.5 -25.5l-62 119q37 33 84 50.5t95 17.5q64 0 116.5 -32.5t79.5 -97.5q19 -48 19 -93q0 -61 -32 -110t-82.5 -79.5t-104.5 -37.5l-44 99q48 15 79 43.5t31 66.5q0 19 -11 43q-22 46 -72 46zM672 1710l-254 -138l-87 153l341 187l341 -187
l-88 -153zM494 1440h353l454 -1440h-248l-99 312h-568l-98 -312h-248zM457 537h425l-214 670z" />
    <glyph glyph-name="uni1EAA" unicode="&#x1eaa;" horiz-adv-x="1341" 
d="M338 1960q-12 48 -12 93q0 89 47.5 142t137.5 53q47 0 88.5 -20.5t104.5 -61.5q41 -29 68.5 -43.5t50.5 -14.5t36 18.5t13 49.5q0 22 -6 46h152q12 -48 12 -93q0 -89 -48 -142.5t-138 -53.5q-47 0 -90 21t-101 61q-42 29 -69.5 43.5t-51.5 14.5t-36.5 -18t-12.5 -49
q0 -16 7 -46h-152zM329 1725l341 187l341 -187l-88 -153l-253 138l-253 -138zM1053 0l-99 312h-568l-98 -312h-248l454 1440h353l454 -1440h-248zM457 537h425l-214 670z" />
    <glyph glyph-name="Adieresis" unicode="&#xc4;" horiz-adv-x="1341" 
d="M575 1827v-220h-220v220h220zM988 1827v-220h-220v220h220zM1053 0l-99 312h-568l-98 -312h-248l454 1440h353l454 -1440h-248zM457 537h425l-214 670z" />
    <glyph glyph-name="uni1EA0" unicode="&#x1ea0;" horiz-adv-x="1341" 
d="M1301 0h-248l-99 312h-568l-98 -312h-248l454 1440h353zM457 537h425l-214 670zM547 -388v221h247v-221h-247z" />
    <glyph glyph-name="Agrave" unicode="&#xc0;" horiz-adv-x="1341" 
d="M770 1590h-238l-76 240h238zM1053 0l-98 312h-568l-99 -312h-248l454 1440h353l454 -1440h-248zM459 537h425l-211 670z" />
    <glyph glyph-name="uni1EA2" unicode="&#x1ea2;" horiz-adv-x="1341" 
d="M622 1909q-24 0 -49.5 -9.5t-47.5 -25.5l-62 119q37 33 84.5 50.5t95.5 17.5q64 0 116.5 -32.5t78.5 -97.5q19 -48 19 -93q0 -61 -31.5 -110t-82 -79.5t-105.5 -37.5l-43 99q47 14 78 43t31 67q0 22 -10 43q-22 46 -72 46zM1053 0l-99 312h-568l-98 -312h-248l454 1440
h353l454 -1440h-248zM457 537h425l-214 670z" />
    <glyph glyph-name="Amacron" unicode="&#x100;" horiz-adv-x="1341" 
d="M938 1867v-187h-533v187h533zM1053 0l-99 312h-568l-98 -312h-248l454 1440h353l454 -1440h-248zM457 537h425l-214 670z" />
    <glyph glyph-name="Aogonek" unicode="&#x104;" horiz-adv-x="1341" 
d="M1212 -266l86 -113q-35 -47 -86 -73.5t-106 -26.5q-61 0 -110 30.5t-76.5 80.5t-27.5 107q0 72 41 146t113 137l-92 290h-568l-98 -312h-248l454 1440h353l454 -1440q-60 -32 -110.5 -76t-80.5 -88.5t-30 -77.5q0 -25 16.5 -42t41.5 -17q34 0 74 35zM457 537h425
l-214 670z" />
    <glyph glyph-name="Aring" unicode="&#xc5;" horiz-adv-x="1341" 
d="M543.5 1587q-59.5 35 -94.5 94t-35 128q0 70 35 129t94.5 93.5t128.5 34.5q70 0 129 -34.5t93.5 -93.5t34.5 -129q0 -69 -34.5 -128.5t-93.5 -94t-129 -34.5q-69 0 -128.5 35zM587.5 1894q-35.5 -35 -35.5 -85q0 -49 35.5 -84.5t84.5 -35.5q50 0 85 35.5t35 84.5
q0 50 -35 85t-85 35q-49 0 -84.5 -35zM1053 0l-99 312h-568l-98 -312h-248l454 1440h353l454 -1440h-248zM457 537h425l-214 670z" />
    <glyph glyph-name="Atilde" unicode="&#xc3;" horiz-adv-x="1341" 
d="M332 1677q-12 50 -12 93q0 89 47.5 141.5t137.5 52.5q47 0 88.5 -20.5t104.5 -61.5q42 -28 69 -42.5t50 -14.5t36 18t13 48q0 23 -7 47h152q12 -49 12 -93q0 -89 -47.5 -142t-137.5 -53q-47 0 -88.5 20.5t-104.5 61.5q-42 28 -69 42.5t-50 14.5t-36 -18t-13 -48
q0 -22 7 -46h-152zM1053 0l-99 312h-568l-98 -312h-248l454 1440h353l454 -1440h-248zM457 537h425l-214 670z" />
    <glyph glyph-name="AE" unicode="&#xc6;" horiz-adv-x="1877" 
d="M1777 1214h-690v-355h570v-226h-570v-407h690v-226h-930v312h-461l-98 -312h-248l454 1440h1283v-226zM457 537h390v677h-178z" />
    <glyph glyph-name="B" unicode="B" horiz-adv-x="1262" 
d="M1147 627.5q55 -88.5 55 -199.5q0 -129 -49.5 -225.5t-147 -149.5t-236.5 -53h-629v1440h571q138 0 234 -56.5t143 -147t47 -192.5q0 -97 -38 -170.5t-106 -114.5q101 -43 156 -131.5zM384 865h324q80 0 131 46t51 129q0 77 -49 126t-133 49h-324v-350zM852 252.5
q50 25.5 78.5 72.5t28.5 110q0 58 -25.5 105t-73.5 73.5t-114 26.5h-362v-413h355q63 0 113 25.5z" />
    <glyph glyph-name="C" unicode="C" horiz-adv-x="1477" 
d="M381.5 63.5q-155.5 93.5 -238.5 263.5t-83 393t83 393t238.5 263.5t367.5 93.5q163 0 293.5 -55.5t220 -159t134.5 -245.5l-243 -67q-43 144 -145 222t-260 78q-142 0 -239.5 -64.5t-146.5 -182t-50 -276.5q0 -159 49 -276.5t147 -182t240 -64.5q158 0 260 78t145 222
l243 -67q-45 -142 -134.5 -245.5t-220 -159t-293.5 -55.5q-212 0 -367.5 93.5z" />
    <glyph glyph-name="Cacute" unicode="&#x106;" horiz-adv-x="1477" 
d="M648 1590l76 240h238l-76 -240h-238zM381.5 63.5q-155.5 93.5 -238.5 263.5t-83 393t83 393t238.5 263.5t367.5 93.5q163 0 293.5 -55.5t220 -159t134.5 -245.5l-243 -67q-43 144 -145 222t-260 78q-142 0 -239.5 -64.5t-146.5 -182t-50 -276.5q0 -159 49 -276.5
t147 -182t240 -64.5q158 0 260 78t145 222l243 -67q-45 -142 -134.5 -245.5t-220 -159t-293.5 -55.5q-212 0 -367.5 93.5z" />
    <glyph glyph-name="Ccaron" unicode="&#x10c;" horiz-adv-x="1477" 
d="M412 1759l88 153l253 -138l253 138l88 -153l-341 -187zM381.5 63.5q-155.5 93.5 -238.5 263.5t-83 393t83 393t238.5 263.5t367.5 93.5q163 0 293.5 -55.5t220 -159t134.5 -245.5l-243 -67q-43 144 -145 222t-260 78q-142 0 -239.5 -64.5t-146.5 -182t-50 -276.5
q0 -159 49 -276.5t147 -182t240 -64.5q158 0 260 78t145 222l243 -67q-45 -142 -134.5 -245.5t-220 -159t-293.5 -55.5q-212 0 -367.5 93.5z" />
    <glyph glyph-name="Ccedilla" unicode="&#xc7;" horiz-adv-x="1477" 
d="M1009 275q102 78 145 222l243 -67q-62 -195 -206.5 -315t-355.5 -141l-20 -58q122 -60 122 -185q0 -61 -28.5 -110t-76.5 -76.5t-104 -27.5q-70 0 -139 36l53 143q42 -14 65 -14q28 0 45 16.5t17 37.5q0 35 -32 53t-99 37l51 146q-195 13 -337 110t-217 261t-75 377
q0 223 83 393t238.5 263.5t367.5 93.5q163 0 293.5 -55.5t220 -159t134.5 -245.5l-243 -67q-43 144 -145 222t-260 78q-142 0 -239.5 -64.5t-146.5 -182t-50 -276.5q0 -159 49 -276.5t147 -182t240 -64.5q158 0 260 78z" />
    <glyph glyph-name="Ccircumflex" unicode="&#x108;" horiz-adv-x="1477" 
d="M409 1725l341 187l341 -187l-88 -153l-253 138l-254 -138zM381.5 63.5q-155.5 93.5 -238.5 263.5t-83 393t83 393t238.5 263.5t367.5 93.5q163 0 293.5 -55.5t220 -159t134.5 -245.5l-243 -67q-43 144 -145 222t-260 78q-142 0 -239.5 -64.5t-146.5 -182t-50 -276.5
q0 -159 49 -276.5t147 -182t240 -64.5q158 0 260 78t145 222l243 -67q-45 -142 -134.5 -245.5t-220 -159t-293.5 -55.5q-212 0 -367.5 93.5z" />
    <glyph glyph-name="Cdotaccent" unicode="&#x10a;" horiz-adv-x="1477" 
d="M636 1900h247v-247h-247v247zM381.5 63.5q-155.5 93.5 -238.5 263.5t-83 393t83 393t238.5 263.5t367.5 93.5q163 0 293.5 -55.5t220 -159t134.5 -245.5l-243 -67q-43 144 -145 222t-260 78q-142 0 -239.5 -64.5t-146.5 -182t-50 -276.5q0 -159 49 -276.5t147 -182
t240 -64.5q158 0 260 78t145 222l243 -67q-45 -142 -134.5 -245.5t-220 -159t-293.5 -55.5q-212 0 -367.5 93.5z" />
    <glyph glyph-name="D" unicode="D" horiz-adv-x="1401" 
d="M599 1440q108 0 175 -8q167 -21 286.5 -119.5t181.5 -253t62 -339.5q0 -186 -62 -340t-181.5 -252.5t-286.5 -119.5q-66 -8 -175 -8h-459v1440h459zM758 238q98 19 163.5 89t96.5 172.5t31 220.5q0 121 -32 223.5t-97.5 171.5t-161.5 87q-54 11 -159 11h-214v-986h214
q105 0 159 11z" />
    <glyph glyph-name="Eth" unicode="&#xd0;" horiz-adv-x="1404" 
d="M1063.5 1312.5q119.5 -98.5 181.5 -253t62 -339.5q0 -186 -62 -340t-181.5 -252.5t-286.5 -119.5q-66 -8 -175 -8h-459v626h-123v189h123v625h459q108 0 175 -8q167 -21 286.5 -119.5zM924.5 327q65.5 70 96.5 172.5t31 220.5q0 121 -32 223.5t-97.5 171.5t-161.5 87
q-54 11 -159 11h-214v-398h307v-189h-307v-399h214q105 0 159 11q98 19 163.5 89z" />
    <glyph glyph-name="Dcaron" unicode="&#x10e;" horiz-adv-x="1401" 
d="M284 1759l87 153l254 -138l253 138l88 -153l-341 -187zM774 1432q167 -21 286.5 -119.5t181.5 -253t62 -339.5q0 -186 -62 -340t-181.5 -252.5t-286.5 -119.5q-66 -8 -175 -8h-459v1440h459q108 0 175 -8zM758 238q98 19 163.5 89t96.5 172.5t31 220.5q0 121 -32 223.5
t-97.5 171.5t-161.5 87q-54 11 -159 11h-214v-986h214q105 0 159 11z" />
    <glyph glyph-name="Dcroat" unicode="&#x110;" horiz-adv-x="1404" 
d="M1063.5 1312.5q119.5 -98.5 181.5 -253t62 -339.5q0 -186 -62 -340t-181.5 -252.5t-286.5 -119.5q-66 -8 -175 -8h-459v626h-123v189h123v625h459q108 0 175 -8q167 -21 286.5 -119.5zM924.5 327q65.5 70 96.5 172.5t31 220.5q0 121 -32 223.5t-97.5 171.5t-161.5 87
q-54 11 -159 11h-214v-398h307v-189h-307v-399h214q105 0 159 11q98 19 163.5 89z" />
    <glyph glyph-name="E" unicode="E" horiz-adv-x="1170" 
d="M140 1440h930v-226h-689v-355h569v-226h-569v-407h689v-226h-930v1440z" />
    <glyph glyph-name="Eacute" unicode="&#xc9;" horiz-adv-x="1170" 
d="M508 1590l76 240h238l-76 -240h-238zM1070 1440v-226h-689v-355h569v-226h-569v-407h689v-226h-930v1440h930z" />
    <glyph glyph-name="Ecaron" unicode="&#x11a;" horiz-adv-x="1170" 
d="M273 1759l88 153l253 -138l254 138l87 -153l-341 -187zM1070 1440v-226h-689v-355h569v-226h-569v-407h689v-226h-930v1440h930z" />
    <glyph glyph-name="Ecircumflex" unicode="&#xca;" horiz-adv-x="1170" 
d="M254 1725l341 187l341 -187l-88 -153l-253 138l-253 -138zM1070 1440v-226h-689v-355h569v-226h-569v-407h689v-226h-930v1440h930z" />
    <glyph glyph-name="uni1EBE" unicode="&#x1ebe;" horiz-adv-x="1170" 
d="M973 1800l76 240h238l-76 -240h-238zM269 1725l341 187l341 -187l-88 -153l-253 138l-253 -138zM1070 1440v-226h-689v-355h569v-226h-569v-407h689v-226h-930v1440h930z" />
    <glyph glyph-name="uni1EC6" unicode="&#x1ec6;" horiz-adv-x="1170" 
d="M595 1912l341 -187l-88 -153l-253 138l-253 -138l-88 153zM1070 1214h-689v-355h569v-226h-569v-407h689v-226h-930v1440h930v-226zM482 -167h246v-221h-246v221z" />
    <glyph glyph-name="uni1EC0" unicode="&#x1ec0;" horiz-adv-x="1170" 
d="M919 2040h238l76 -240h-238zM296 1725l341 187l341 -187l-88 -153l-253 138l-254 -138zM1070 1440v-226h-689v-355h569v-226h-569v-407h689v-226h-930v1440h930z" />
    <glyph glyph-name="uni1EC2" unicode="&#x1ec2;" horiz-adv-x="1200" 
d="M971.5 2043.5q47.5 17.5 95.5 17.5q64 0 116.5 -32.5t78.5 -97.5q19 -48 19 -93q0 -61 -31.5 -110t-82 -79.5t-105.5 -37.5l-43 99q47 14 78 43t31 67q0 22 -10 43q-22 46 -72 46q-24 0 -49.5 -9.5t-47.5 -25.5l-62 119q37 33 84.5 50.5zM274 1725l341 187l341 -187
l-87 -153l-254 138l-253 -138zM1070 1440v-226h-689v-355h569v-226h-569v-407h689v-226h-930v1440h930z" />
    <glyph glyph-name="uni1EC4" unicode="&#x1ec4;" horiz-adv-x="1170" 
d="M688 1954q-43 21 -101 61q-42 29 -69.5 43.5t-51.5 14.5t-36.5 -18t-12.5 -49q0 -16 7 -46h-152q-12 48 -12 93q0 89 47.5 142t137.5 53q47 0 88.5 -20.5t104.5 -61.5q41 -29 68.5 -43.5t50.5 -14.5t36 18.5t13 49.5q0 22 -6 46h152q12 -48 12 -93q0 -89 -48 -142.5
t-138 -53.5q-47 0 -90 21zM263 1725l341 187l341 -187l-88 -153l-253 138l-253 -138zM1070 1440v-226h-689v-355h569v-226h-569v-407h689v-226h-930v1440h930z" />
    <glyph glyph-name="Edieresis" unicode="&#xcb;" horiz-adv-x="1170" 
d="M282 1827h220v-220h-220v220zM695 1827h220v-220h-220v220zM1070 1440v-226h-689v-355h569v-226h-569v-407h689v-226h-930v1440h930z" />
    <glyph glyph-name="Edotaccent" unicode="&#x116;" horiz-adv-x="1170" 
d="M482 1900h246v-247h-246v247zM1070 1440v-226h-689v-355h569v-226h-569v-407h689v-226h-930v1440h930z" />
    <glyph glyph-name="uni1EB8" unicode="&#x1eb8;" horiz-adv-x="1200" 
d="M1070 1440v-226h-689v-355h569v-226h-569v-407h689v-226h-930v1440h930zM482 -167h246v-221h-246v221z" />
    <glyph glyph-name="Egrave" unicode="&#xc8;" horiz-adv-x="1170" 
d="M436 1830h238l76 -240h-239zM1070 1440v-226h-689v-355h569v-226h-569v-407h689v-226h-930v1440h930z" />
    <glyph glyph-name="uni1EBA" unicode="&#x1eba;" horiz-adv-x="1170" 
d="M509 2043.5q47 17.5 95 17.5q64 0 116.5 -32.5t79.5 -97.5q19 -48 19 -93q0 -61 -31.5 -110t-82 -79.5t-105.5 -37.5l-44 99q48 15 79 44t31 67q0 21 -10 42q-22 46 -72 46q-24 0 -49.5 -9.5t-47.5 -25.5l-62 119q37 33 84 50.5zM1070 1440v-226h-689v-355h569v-226h-569
v-407h689v-226h-930v1440h930z" />
    <glyph glyph-name="Emacron" unicode="&#x112;" horiz-adv-x="1170" 
d="M347 1867h533v-187h-533v187zM1070 1440v-226h-689v-355h569v-226h-569v-407h689v-226h-930v1440h930z" />
    <glyph glyph-name="Eogonek" unicode="&#x118;" horiz-adv-x="1170" 
d="M381 1214v-355h569v-226h-569v-407h689v-226q-60 -32 -111 -76t-81 -88.5t-30 -77.5q0 -25 17 -42t41 -17q34 0 74 35l87 -113q-35 -47 -86 -73.5t-106 -26.5q-61 0 -110.5 30.5t-77 80.5t-27.5 107q0 65 35 133t96 128h-651v1440h930v-226h-689z" />
    <glyph glyph-name="uni1EBC" unicode="&#x1ebc;" horiz-adv-x="1170" 
d="M666.5 1620.5q-41.5 20.5 -104.5 61.5q-42 28 -69 42.5t-50 14.5t-36 -18t-13 -48q0 -22 7 -46h-152q-12 50 -12 93q0 89 47.5 141.5t137.5 52.5q47 0 88.5 -20.5t104.5 -61.5q42 -28 69 -42.5t50 -14.5t36 18t13 48q0 23 -7 47h152q12 -49 12 -93q0 -89 -47.5 -142
t-137.5 -53q-47 0 -88.5 20.5zM1070 1440v-226h-689v-355h569v-226h-569v-407h689v-226h-930v1440h930z" />
    <glyph glyph-name="F" unicode="F" horiz-adv-x="1047" 
d="M140 1440h867v-241h-626v-359h506v-240h-506v-600h-241v1440z" />
    <glyph glyph-name="G" unicode="G" horiz-adv-x="1464" 
d="M391 58.5q-153 88.5 -242 258.5t-89 403q0 231 87 400.5t240.5 259.5t346.5 90q260 0 418 -121.5t214 -348.5l-246 -39q-42 131 -136.5 205.5t-234.5 75.5q-142 2 -239 -62t-145.5 -182t-49.5 -278t48.5 -277.5t149 -181.5t244.5 -64q160 0 259.5 93.5t127.5 275.5h-254
v189h510q2 -21 3 -45.5t1 -38.5q0 -204 -81 -363t-232.5 -248.5t-356.5 -89.5q-190 0 -343 88.5z" />
    <glyph glyph-name="Gbreve" unicode="&#x11e;" horiz-adv-x="1464" 
d="M588.5 1602.5q-69.5 40.5 -110.5 110t-41 152.5h188q0 -48 34 -81.5t81 -33.5q48 0 81.5 33.5t33.5 81.5h188q0 -83 -40.5 -152.5t-110 -110t-152.5 -40.5q-82 0 -151.5 40.5zM391 58.5q-153 88.5 -242 258.5t-89 403q0 231 87 400.5t240.5 259.5t346.5 90
q260 0 418 -121.5t214 -348.5l-246 -39q-42 131 -136.5 205.5t-234.5 75.5q-142 2 -239 -62t-145.5 -182t-49.5 -278t48.5 -277.5t149 -181.5t244.5 -64q160 0 259.5 93.5t127.5 275.5h-254v189h510q2 -21 3 -45.5t1 -38.5q0 -204 -81 -363t-232.5 -248.5t-356.5 -89.5
q-190 0 -343 88.5z" />
    <glyph glyph-name="Gcircumflex" unicode="&#x11c;" horiz-adv-x="1464" 
d="M387 1725l341 187l341 -187l-88 -153l-253 138l-253 -138zM391 58.5q-153 88.5 -242 258.5t-89 403q0 231 87 400.5t240.5 259.5t346.5 90q260 0 418 -121.5t214 -348.5l-246 -39q-42 131 -136.5 205.5t-234.5 75.5q-142 2 -239 -62t-145.5 -182t-49.5 -278t48.5 -277.5
t149 -181.5t244.5 -64q160 0 259.5 93.5t127.5 275.5h-254v189h510q2 -21 3 -45.5t1 -38.5q0 -204 -81 -363t-232.5 -248.5t-356.5 -89.5q-190 0 -343 88.5z" />
    <glyph glyph-name="uni0122" unicode="&#x122;" horiz-adv-x="1464" 
d="M391 58.5q-153 88.5 -242 258.5t-89 403q0 231 87 400.5t240.5 259.5t346.5 90q260 0 418 -121.5t214 -348.5l-246 -39q-42 131 -136.5 205.5t-234.5 75.5q-142 2 -239 -62t-145.5 -182t-49.5 -278t48.5 -277.5t149 -181.5t244.5 -64q160 0 259.5 93.5t127.5 275.5h-254
v189h510q2 -21 3 -45.5t1 -38.5q0 -204 -81 -363t-232.5 -248.5t-356.5 -89.5q-190 0 -343 88.5zM703.5 -497q29.5 8 53 31.5t23.5 65.5h-129v233h234v-233q0 -62 -30 -110t-83.5 -74t-120.5 -26v105q23 0 52.5 8z" />
    <glyph glyph-name="Gdotaccent" unicode="&#x120;" horiz-adv-x="1464" 
d="M633 1900h246v-247h-246v247zM391 58.5q-153 88.5 -242 258.5t-89 403q0 231 87 400.5t240.5 259.5t346.5 90q260 0 418 -121.5t214 -348.5l-246 -39q-42 131 -136.5 205.5t-234.5 75.5q-142 2 -239 -62t-145.5 -182t-49.5 -278t48.5 -277.5t149 -181.5t244.5 -64
q160 0 259.5 93.5t127.5 275.5h-254v189h510q2 -21 3 -45.5t1 -38.5q0 -204 -81 -363t-232.5 -248.5t-356.5 -89.5q-190 0 -343 88.5z" />
    <glyph glyph-name="H" unicode="H" horiz-adv-x="1443" 
d="M140 1440h241v-606h682v606h240v-1440h-240v608h-682v-608h-241v1440z" />
    <glyph glyph-name="Hbar" unicode="&#x126;" horiz-adv-x="1483" 
d="M1463 1215v-226h-140v-989h-240v608h-682v-608h-241v989h-140v226h140v225h241v-225h682v225h240v-225h140zM1083 834v155h-682v-155h682z" />
    <glyph glyph-name="Hcircumflex" unicode="&#x124;" horiz-adv-x="1443" 
d="M381 1725l341 187l341 -187l-88 -153l-253 138l-254 -138zM381 1440v-606h682v606h240v-1440h-240v608h-682v-608h-241v1440h241z" />
    <glyph glyph-name="I" unicode="I" horiz-adv-x="561" 
d="M160 1440h241v-1440h-241v1440z" />
    <glyph glyph-name="Iacute" unicode="&#xcd;" horiz-adv-x="561" 
d="M160 1590l76 240h238l-76 -240h-238zM401 1440v-1440h-241v1440h241z" />
    <glyph glyph-name="Icircumflex" unicode="&#xce;" horiz-adv-x="561" 
d="M-61 1725l341 187l341 -187l-87 -153l-254 138l-253 -138zM401 1440v-1440h-241v1440h241z" />
    <glyph glyph-name="Idieresis" unicode="&#xcf;" horiz-adv-x="561" 
d="M-36 1827h220v-220h-220v220zM377 1827h220v-220h-220v220zM401 1440v-1440h-241v1440h241z" />
    <glyph glyph-name="Idotaccent" unicode="&#x130;" horiz-adv-x="561" 
d="M157 1900h247v-247h-247v247zM401 1440v-1440h-241v1440h241z" />
    <glyph glyph-name="uni1ECA" unicode="&#x1eca;" horiz-adv-x="561" 
d="M401 1440v-1440h-241v1440h241zM157 -167h247v-221h-247v221z" />
    <glyph glyph-name="Igrave" unicode="&#xcc;" horiz-adv-x="561" 
d="M87 1830h238l76 -240h-238zM401 1440v-1440h-241v1440h241z" />
    <glyph glyph-name="uni1EC8" unicode="&#x1ec8;" horiz-adv-x="561" 
d="M145 2043.5q47 17.5 95 17.5q64 0 116.5 -32.5t79.5 -97.5q19 -48 19 -92q0 -61 -32 -110.5t-82.5 -80t-105.5 -37.5l-43 99q48 15 79 43.5t31 66.5q0 19 -11 43q-22 46 -72 46q-24 0 -49.5 -9.5t-46.5 -25.5l-62 119q37 33 84 50.5zM401 1440v-1440h-241v1440h241z" />
    <glyph glyph-name="Imacron" unicode="&#x12a;" horiz-adv-x="561" 
d="M14 1867h533v-187h-533v187zM401 1440v-1440h-241v1440h241z" />
    <glyph glyph-name="Iogonek" unicode="&#x12e;" horiz-adv-x="561" 
d="M290 -76q-51 -44 -81 -88.5t-30 -77.5q0 -25 16.5 -42t41.5 -17q34 0 74 35l87 -113q-36 -48 -87 -74t-106 -26q-61 0 -110 30.5t-76.5 80.5t-27.5 107q0 75 45.5 153t123.5 143v1405h241v-1440q-60 -32 -111 -76z" />
    <glyph glyph-name="Itilde" unicode="&#x128;" horiz-adv-x="561" 
d="M358.5 1620.5q-41.5 20.5 -104.5 61.5q-42 28 -69 42.5t-50 14.5t-36 -18t-13 -48q0 -22 7 -46h-152q-12 50 -12 93q0 89 47.5 141.5t137.5 52.5q47 0 88.5 -20.5t104.5 -61.5q42 -28 69 -42.5t50 -14.5t36 18t13 48q0 23 -7 47h152q12 -49 12 -93q0 -89 -47.5 -142
t-137.5 -53q-47 0 -88.5 20.5zM401 1440v-1440h-241v1440h241z" />
    <glyph glyph-name="J" unicode="J" horiz-adv-x="1001" 
d="M154.5 54.5q-110.5 84.5 -154.5 233.5l238 57q7 -40 34 -74.5t66 -54.5t81 -20q47 0 92 24t67 71q13 29 16 67.5t3 112.5v969h244v-969v-75q0 -78 -9 -127.5t-39 -101.5q-58 -100 -152 -148.5t-213 -48.5q-163 0 -273.5 84.5z" />
    <glyph glyph-name="Jcircumflex" unicode="&#x134;" horiz-adv-x="1001" 
d="M378 1725l341 187l341 -187l-88 -153l-253 138l-253 -138zM154.5 54.5q-110.5 84.5 -154.5 233.5l238 57q7 -40 34 -74.5t66 -54.5t81 -20q47 0 92 24t67 71q13 29 16 67.5t3 112.5v969h244v-969v-75q0 -78 -9 -127.5t-39 -101.5q-58 -100 -152 -148.5t-213 -48.5
q-163 0 -273.5 84.5z" />
    <glyph glyph-name="K" unicode="K" horiz-adv-x="1294" 
d="M140 1440h241v-668l575 668h296l-619 -706l661 -734h-306l-607 672v-672h-241v1440z" />
    <glyph glyph-name="uni0136" unicode="&#x136;" horiz-adv-x="1294" 
d="M381 1440v-668l575 668h296l-619 -706l661 -734h-306l-607 672v-672h-241v1440h241zM661 -482.5q44 22.5 43 82.5h-128v233h233v-233q0 -62 -30 -110t-83 -74t-120 -26v105q41 0 85 22.5z" />
    <glyph glyph-name="L" unicode="L" horiz-adv-x="1067" 
d="M160 1440h241v-1214h636v-226h-877v1440z" />
    <glyph glyph-name="Lacute" unicode="&#x139;" horiz-adv-x="1067" 
d="M160 1590l76 240h238l-76 -240h-238zM401 1440v-1214h636v-226h-877v1440h241z" />
    <glyph glyph-name="Lcaron" unicode="&#x13d;" horiz-adv-x="1067" 
d="M160 1440h241v-1214h636v-226h-877v1440zM753 1064.5q29 32.5 29 90.5q0 10 -2 32h-128v257h247v-267q0 -119 -49.5 -184t-145.5 -65q-28 0 -52 4l14 104q58 -4 87 28.5z" />
    <glyph glyph-name="uni013B" unicode="&#x13b;" horiz-adv-x="1067" 
d="M401 1440v-1214h636v-226h-877v1440h241zM567 -482.5q44 22.5 43 82.5h-128v233h233v-233q0 -62 -30 -110t-83 -74t-120 -26v105q41 0 85 22.5z" />
    <glyph glyph-name="Lslash" unicode="&#x141;" horiz-adv-x="1100" 
d="M434 226h636v-226h-877v417l-130 -74v261l130 75v761h241v-623l317 182v-262l-317 -182v-329z" />
    <glyph glyph-name="M" unicode="M" horiz-adv-x="1710" 
d="M140 1440h217l498 -1020l498 1020h217v-1440h-225v923l-442 -923h-96l-441 923v-923h-226v1440z" />
    <glyph glyph-name="N" unicode="N" horiz-adv-x="1436" 
d="M140 1440h244l668 -1015v1015h244v-1440h-244l-668 1015v-1015h-244v1440z" />
    <glyph glyph-name="Nacute" unicode="&#x143;" horiz-adv-x="1436" 
d="M608 1590l76 240h238l-76 -240h-238zM384 1440l668 -1015v1015h244v-1440h-244l-668 1015v-1015h-244v1440h244z" />
    <glyph glyph-name="Ncaron" unicode="&#x147;" horiz-adv-x="1436" 
d="M399 1759l88 153l253 -138l253 138l88 -153l-341 -187zM384 1440l668 -1015v1015h244v-1440h-244l-668 1015v-1015h-244v1440h244z" />
    <glyph glyph-name="uni0145" unicode="&#x145;" horiz-adv-x="1436" 
d="M384 1440l668 -1015v1015h244v-1440h-244l-668 1015v-1015h-244v1440h244zM674.5 -497q29.5 8 53 31.5t23.5 65.5h-129v233h233v-233q0 -62 -30 -110t-83 -74t-120 -26v105q23 0 52.5 8z" />
    <glyph glyph-name="Eng" unicode="&#x14a;" horiz-adv-x="1436" 
d="M1296 -178q0 -141 -68.5 -210.5t-207.5 -69.5q-81 0 -147 18v181l31 -3q35 -3 49 -3q72 0 107 28t35 87q0 45 -22.5 97t-82.5 148l-606 920v-1015h-244v1440h244l668 -1015v1015h244v-1618z" />
    <glyph glyph-name="Ntilde" unicode="&#xd1;" horiz-adv-x="1436" 
d="M818.5 1620.5q-41.5 20.5 -104.5 61.5q-42 28 -69 42.5t-50 14.5t-36.5 -18.5t-13.5 -48.5q0 -17 7 -45h-152q-12 48 -12 92q0 89 47.5 142t137.5 53q47 0 91 -21.5t101 -60.5q46 -30 72 -43.5t49 -13.5q22 0 35.5 18.5t13.5 48.5q0 24 -7 46h152q12 -49 12 -93
q0 -89 -47.5 -142t-137.5 -53q-47 0 -88.5 20.5zM384 1440l668 -1015v1015h244v-1440h-244l-668 1015v-1015h-244v1440h244z" />
    <glyph glyph-name="O" unicode="O" horiz-adv-x="1499" 
d="M381.5 63.5q-155.5 93.5 -238.5 263.5t-83 393t83 393t238.5 263.5t367.5 93.5q213 0 368.5 -93.5t238.5 -263.5t83 -393t-83 -393t-238.5 -263.5t-368.5 -93.5q-212 0 -367.5 93.5zM988.5 260q97.5 64 146.5 182t49 278q0 159 -49 276t-146.5 181t-239.5 66
q-142 1 -239 -63t-145.5 -182t-49.5 -278q-1 -159 48 -276t146.5 -181t239.5 -66q142 -1 239.5 63z" />
    <glyph glyph-name="Oacute" unicode="&#xd3;" horiz-adv-x="1499" 
d="M636 1590l76 240h238l-76 -240h-238zM381.5 63.5q-155.5 93.5 -238.5 263.5t-83 393t83 393t238.5 263.5t367.5 93.5q213 0 368.5 -93.5t238.5 -263.5t83 -393t-83 -393t-238.5 -263.5t-368.5 -93.5q-212 0 -367.5 93.5zM988.5 260q97.5 64 146.5 182t49 278
q0 159 -49 276t-146.5 181t-239.5 66q-142 1 -239 -63t-145.5 -182t-49.5 -278q-1 -159 48 -276t146.5 -181t239.5 -66q142 -1 239.5 63z" />
    <glyph glyph-name="Ocircumflex" unicode="&#xd4;" horiz-adv-x="1499" 
d="M408 1725l341 187l341 -187l-87 -153l-254 138l-253 -138zM381.5 63.5q-155.5 93.5 -238.5 263.5t-83 393t83 393t238.5 263.5t367.5 93.5q213 0 368.5 -93.5t238.5 -263.5t83 -393t-83 -393t-238.5 -263.5t-368.5 -93.5q-212 0 -367.5 93.5zM988.5 260
q97.5 64 146.5 182t49 278q0 159 -49 276t-146.5 181t-239.5 66q-142 1 -239 -63t-145.5 -182t-49.5 -278q-1 -159 48 -276t146.5 -181t239.5 -66q142 -1 239.5 63z" />
    <glyph glyph-name="uni1ED0" unicode="&#x1ed0;" horiz-adv-x="1499" 
d="M1132 1800l76 240h238l-76 -240h-238zM427 1725l341 187l341 -187l-87 -153l-254 138l-253 -138zM381.5 63.5q-155.5 93.5 -238.5 263.5t-83 393t83 393t238.5 263.5t367.5 93.5q213 0 368.5 -93.5t238.5 -263.5t83 -393t-83 -393t-238.5 -263.5t-368.5 -93.5
q-212 0 -367.5 93.5zM988.5 260q97.5 64 146.5 182t49 278q0 159 -49 276t-146.5 181t-239.5 66q-142 1 -239 -63t-145.5 -182t-49.5 -278q-1 -159 48 -276t146.5 -181t239.5 -66q142 -1 239.5 63z" />
    <glyph glyph-name="uni1ED8" unicode="&#x1ed8;" horiz-adv-x="1499" 
d="M408 1725l341 187l341 -187l-87 -153l-254 138l-253 -138zM381.5 63.5q-155.5 93.5 -238.5 263.5t-83 393t83 393t238.5 263.5t367.5 93.5q213 0 368.5 -93.5t238.5 -263.5t83 -393t-83 -393t-238.5 -263.5t-368.5 -93.5q-212 0 -367.5 93.5zM988.5 260
q97.5 64 146.5 182t49 278q0 159 -49 276t-146.5 181t-239.5 66q-142 1 -239 -63t-145.5 -182t-49.5 -278q-1 -159 48 -276t146.5 -181t239.5 -66q142 -1 239.5 63zM626 -167h247v-221h-247v221z" />
    <glyph glyph-name="uni1ED2" unicode="&#x1ed2;" horiz-adv-x="1499" 
d="M1032 2040h238l76 -240h-238zM409 1725l341 187l341 -187l-88 -153l-253 138l-254 -138zM381.5 63.5q-155.5 93.5 -238.5 263.5t-83 393t83 393t238.5 263.5t367.5 93.5q213 0 368.5 -93.5t238.5 -263.5t83 -393t-83 -393t-238.5 -263.5t-368.5 -93.5q-212 0 -367.5 93.5
zM988.5 260q97.5 64 146.5 182t49 278q0 159 -49 276t-146.5 181t-239.5 66q-142 1 -239 -63t-145.5 -182t-49.5 -278q-1 -159 48 -276t146.5 -181t239.5 -66q142 -1 239.5 63z" />
    <glyph glyph-name="uni1ED4" unicode="&#x1ed4;" horiz-adv-x="1499" 
d="M1111 2043.5q47 17.5 95 17.5q64 0 116.5 -32.5t79.5 -97.5q19 -48 19 -93q0 -61 -32 -110t-82.5 -79.5t-104.5 -37.5l-44 99q48 15 79 43.5t31 66.5q0 19 -11 43q-22 46 -72 46q-23 0 -48.5 -9.5t-47.5 -25.5l-62 119q37 33 84 50.5zM414 1725l341 187l341 -187
l-88 -153l-253 138l-254 -138zM381.5 63.5q-155.5 93.5 -238.5 263.5t-83 393t83 393t238.5 263.5t367.5 93.5q213 0 368.5 -93.5t238.5 -263.5t83 -393t-83 -393t-238.5 -263.5t-368.5 -93.5q-212 0 -367.5 93.5zM988.5 260q97.5 64 146.5 182t49 278q0 159 -49 276
t-146.5 181t-239.5 66q-142 1 -239 -63t-145.5 -182t-49.5 -278q-1 -159 48 -276t146.5 -181t239.5 -66q142 -1 239.5 63z" />
    <glyph glyph-name="uni1ED6" unicode="&#x1ed6;" horiz-adv-x="1499" 
d="M827.5 1953.5q-41.5 20.5 -104.5 61.5q-41 29 -68.5 43.5t-50.5 14.5t-36 -18t-13 -48q0 -23 7 -47h-152q-12 50 -12 93q0 89 47.5 142t137.5 53q47 0 88.5 -20.5t104.5 -61.5q41 -29 68.5 -43.5t50.5 -14.5t36 18.5t13 48.5q0 23 -7 47h152q12 -49 12 -93
q0 -89 -47.5 -142.5t-137.5 -53.5q-47 0 -88.5 20.5zM401 1725l341 187l341 -187l-88 -153l-253 138l-254 -138zM381.5 63.5q-155.5 93.5 -238.5 263.5t-83 393t83 393t238.5 263.5t367.5 93.5q213 0 368.5 -93.5t238.5 -263.5t83 -393t-83 -393t-238.5 -263.5t-368.5 -93.5
q-212 0 -367.5 93.5zM988.5 260q97.5 64 146.5 182t49 278q0 159 -49 276t-146.5 181t-239.5 66q-142 1 -239 -63t-145.5 -182t-49.5 -278q-1 -159 48 -276t146.5 -181t239.5 -66q142 -1 239.5 63z" />
    <glyph glyph-name="Odieresis" unicode="&#xd6;" horiz-adv-x="1499" 
d="M433 1827h220v-220h-220v220zM846 1827h220v-220h-220v220zM381.5 63.5q-155.5 93.5 -238.5 263.5t-83 393t83 393t238.5 263.5t367.5 93.5q213 0 368.5 -93.5t238.5 -263.5t83 -393t-83 -393t-238.5 -263.5t-368.5 -93.5q-212 0 -367.5 93.5zM988.5 260
q97.5 64 146.5 182t49 278q0 159 -49 276t-146.5 181t-239.5 66q-142 1 -239 -63t-145.5 -182t-49.5 -278q-1 -159 48 -276t146.5 -181t239.5 -66q142 -1 239.5 63z" />
    <glyph glyph-name="uni1ECC" unicode="&#x1ecc;" horiz-adv-x="1499" 
d="M381.5 63.5q-155.5 93.5 -238.5 263.5t-83 393t83 393t238.5 263.5t367.5 93.5q213 0 368.5 -93.5t238.5 -263.5t83 -393t-83 -393t-238.5 -263.5t-368.5 -93.5q-212 0 -367.5 93.5zM988.5 260q97.5 64 146.5 182t49 278q0 159 -49 276t-146.5 181t-239.5 66
q-142 1 -239 -63t-145.5 -182t-49.5 -278q-1 -159 48 -276t146.5 -181t239.5 -66q142 -1 239.5 63zM622 -167h247v-221h-247v221z" />
    <glyph glyph-name="Ograve" unicode="&#xd2;" horiz-adv-x="1499" 
d="M537 1830h238l76 -240h-238zM381.5 63.5q-155.5 93.5 -238.5 263.5t-83 393t83 393t238.5 263.5t367.5 93.5q213 0 368.5 -93.5t238.5 -263.5t83 -393t-83 -393t-238.5 -263.5t-368.5 -93.5q-212 0 -367.5 93.5zM988.5 260q97.5 64 146.5 182t49 278q0 159 -49 276
t-146.5 181t-239.5 66q-142 1 -239 -63t-145.5 -182t-49.5 -278q-1 -159 48 -276t146.5 -181t239.5 -66q142 -1 239.5 63z" />
    <glyph glyph-name="uni1ECE" unicode="&#x1ece;" horiz-adv-x="1499" 
d="M673.5 2043.5q47.5 17.5 95.5 17.5q64 0 116.5 -32.5t78.5 -97.5q19 -48 19 -93q0 -61 -31.5 -110t-82 -79.5t-105.5 -37.5l-43 99q47 14 78 43t31 67q0 22 -10 43q-22 46 -72 46q-24 0 -49.5 -9.5t-47.5 -25.5l-62 119q37 33 84.5 50.5zM381.5 63.5
q-155.5 93.5 -238.5 263.5t-83 393t83 393t238.5 263.5t367.5 93.5q213 0 368.5 -93.5t238.5 -263.5t83 -393t-83 -393t-238.5 -263.5t-368.5 -93.5q-212 0 -367.5 93.5zM988.5 260q97.5 64 146.5 182t49 278q0 159 -49 276t-146.5 181t-239.5 66q-142 1 -239 -63
t-145.5 -182t-49.5 -278q-1 -159 48 -276t146.5 -181t239.5 -66q142 -1 239.5 63z" />
    <glyph glyph-name="Ohorn" unicode="&#x1a0;" horiz-adv-x="1499" 
d="M1375.5 1069.5q63.5 -154.5 63.5 -349.5q0 -223 -83 -393t-238.5 -263.5t-368.5 -93.5q-212 0 -367.5 93.5t-238.5 263.5t-83 393t83 393t238.5 263.5t367.5 93.5q95 0 181 -20v1q58 -15 88 -15q26 0 49 10q39 18 52.5 52.5t13.5 86.5l-1 33l182 1q5 -34 5 -76
q0 -158 -106 -211l-20 -9q119 -99 182.5 -253.5zM988.5 260q97.5 64 146.5 182t49 278q0 159 -49 276t-146.5 181t-239.5 66q-142 1 -239 -63t-145.5 -182t-49.5 -278q-1 -159 48 -276t146.5 -181t239.5 -66q142 -1 239.5 63z" />
    <glyph glyph-name="uni1EDA" unicode="&#x1eda;" horiz-adv-x="1499" 
d="M950 1830l-76 -240h-238l76 240h238zM1375.5 1069.5q63.5 -154.5 63.5 -349.5q0 -223 -83 -393t-238.5 -263.5t-368.5 -93.5q-212 0 -367.5 93.5t-238.5 263.5t-83 393t83 393t238.5 263.5t367.5 93.5q95 0 181 -20v1q58 -15 88 -15q26 0 49 10q39 18 52.5 52.5
t13.5 86.5l-1 33l182 1q5 -34 5 -76q0 -158 -106 -211l-20 -9q119 -99 182.5 -253.5zM988.5 260q97.5 64 146.5 182t49 278q0 159 -49 276t-146.5 181t-239.5 66q-142 1 -239 -63t-145.5 -182t-49.5 -278q-1 -159 48 -276t146.5 -181t239.5 -66q142 -1 239.5 63z" />
    <glyph glyph-name="uni1EE2" unicode="&#x1ee2;" horiz-adv-x="1499" 
d="M1375.5 1069.5q63.5 -154.5 63.5 -349.5q0 -223 -83 -393t-238.5 -263.5t-368.5 -93.5q-212 0 -367.5 93.5t-238.5 263.5t-83 393t83 393t238.5 263.5t367.5 93.5q95 0 181 -20v1q58 -15 88 -15q26 0 49 10q39 18 52.5 52.5t13.5 86.5l-1 33l182 1q5 -34 5 -76
q0 -158 -106 -211l-20 -9q119 -99 182.5 -253.5zM988.5 260q97.5 64 146.5 182t49 278q0 159 -49 276t-146.5 181t-239.5 66q-142 1 -239 -63t-145.5 -182t-49.5 -278q-1 -159 48 -276t146.5 -181t239.5 -66q142 -1 239.5 63zM646 -388v221h247v-221h-247z" />
    <glyph glyph-name="uni1EDC" unicode="&#x1edc;" horiz-adv-x="1499" 
d="M851 1590h-238l-76 240h238zM1375.5 1069.5q63.5 -154.5 63.5 -349.5q0 -223 -83 -393t-238.5 -263.5t-368.5 -93.5q-212 0 -367.5 93.5t-238.5 263.5t-83 393t83 393t238.5 263.5t367.5 93.5q95 0 181 -20v1q58 -15 88 -15q26 0 49 10q39 18 52.5 52.5t13.5 86.5l-1 33
l182 1q5 -34 5 -76q0 -158 -106 -211l-20 -9q119 -99 182.5 -253.5zM988.5 260q97.5 64 146.5 182t49 278q0 159 -49 276t-146.5 181t-239.5 66q-142 1 -239 -63t-145.5 -182t-49.5 -278q-1 -159 48 -276t146.5 -181t239.5 -66q142 -1 239.5 63z" />
    <glyph glyph-name="uni1EDE" unicode="&#x1ede;" horiz-adv-x="1499" 
d="M748 1909q-24 0 -49.5 -9.5t-47.5 -25.5l-62 119q37 33 84.5 50.5t95.5 17.5q64 0 116.5 -32.5t78.5 -97.5q19 -48 19 -93q0 -61 -31.5 -110t-82 -79.5t-105.5 -37.5l-43 99q47 14 78 43t31 67q0 22 -10 43q-22 46 -72 46zM1375.5 1069.5q63.5 -154.5 63.5 -349.5
q0 -223 -83 -393t-238.5 -263.5t-368.5 -93.5q-212 0 -367.5 93.5t-238.5 263.5t-83 393t83 393t238.5 263.5t367.5 93.5q95 0 181 -20v1q58 -15 88 -15q26 0 49 10q39 18 52.5 52.5t13.5 86.5l-1 33l182 1q5 -34 5 -76q0 -158 -106 -211l-20 -9q119 -99 182.5 -253.5z
M988.5 260q97.5 64 146.5 182t49 278q0 159 -49 276t-146.5 181t-239.5 66q-142 1 -239 -63t-145.5 -182t-49.5 -278q-1 -159 48 -276t146.5 -181t239.5 -66q142 -1 239.5 63z" />
    <glyph glyph-name="uni1EE0" unicode="&#x1ee0;" horiz-adv-x="1499" 
d="M429 1627q-12 50 -12 93q0 89 47.5 141.5t137.5 52.5q47 0 88.5 -20.5t104.5 -61.5q42 -28 69 -42.5t50 -14.5t36 18t13 48q0 23 -7 47h152q12 -49 12 -93q0 -89 -47.5 -142t-137.5 -53q-47 0 -88.5 20.5t-104.5 61.5q-42 28 -69 42.5t-50 14.5t-36 -18t-13 -48
q0 -22 7 -46h-152zM1375.5 1069.5q63.5 -154.5 63.5 -349.5q0 -223 -83 -393t-238.5 -263.5t-368.5 -93.5q-212 0 -367.5 93.5t-238.5 263.5t-83 393t83 393t238.5 263.5t367.5 93.5q95 0 181 -20v1q58 -15 88 -15q26 0 49 10q39 18 52.5 52.5t13.5 86.5l-1 33l182 1
q5 -34 5 -76q0 -158 -106 -211l-20 -9q119 -99 182.5 -253.5zM988.5 260q97.5 64 146.5 182t49 278q0 159 -49 276t-146.5 181t-239.5 66q-142 1 -239 -63t-145.5 -182t-49.5 -278q-1 -159 48 -276t146.5 -181t239.5 -66q142 -1 239.5 63z" />
    <glyph glyph-name="Ohungarumlaut" unicode="&#x150;" horiz-adv-x="1499" 
d="M427 1592l76 240h238l-76 -240h-238zM838 1592l76 240h238l-76 -240h-238zM381.5 63.5q-155.5 93.5 -238.5 263.5t-83 393t83 393t238.5 263.5t367.5 93.5q213 0 368.5 -93.5t238.5 -263.5t83 -393t-83 -393t-238.5 -263.5t-368.5 -93.5q-212 0 -367.5 93.5zM988.5 260
q97.5 64 146.5 182t49 278q0 159 -49 276t-146.5 181t-239.5 66q-142 1 -239 -63t-145.5 -182t-49.5 -278q-1 -159 48 -276t146.5 -181t239.5 -66q142 -1 239.5 63z" />
    <glyph glyph-name="Omacron" unicode="&#x14c;" horiz-adv-x="1499" 
d="M483 1867h533v-187h-533v187zM381.5 63.5q-155.5 93.5 -238.5 263.5t-83 393t83 393t238.5 263.5t367.5 93.5q213 0 368.5 -93.5t238.5 -263.5t83 -393t-83 -393t-238.5 -263.5t-368.5 -93.5q-212 0 -367.5 93.5zM988.5 260q97.5 64 146.5 182t49 278q0 159 -49 276
t-146.5 181t-239.5 66q-142 1 -239 -63t-145.5 -182t-49.5 -278q-1 -159 48 -276t146.5 -181t239.5 -66q142 -1 239.5 63z" />
    <glyph glyph-name="Oslash" unicode="&#xd8;" horiz-adv-x="1499" 
d="M1323 1173q57 -92 86.5 -206.5t29.5 -246.5q0 -223 -83 -393t-238.5 -263.5t-368.5 -93.5q-233 0 -400 114l-99 -110l-170 151l109 122q-63 94 -96 214t-33 259q0 223 83 393t238.5 263.5t367.5 93.5q247 0 419 -128l110 123l170 -153zM365 439l647 722q-105 81 -263 82
q-142 1 -239 -63t-145.5 -182t-49.5 -278q0 -166 50 -281zM988.5 260q97.5 64 146.5 182t49 278q0 150 -42 259l-637 -713q102 -68 244 -69t239.5 63z" />
    <glyph glyph-name="Otilde" unicode="&#xd5;" horiz-adv-x="1499" 
d="M840.5 1620.5q-41.5 20.5 -104.5 61.5q-42 28 -69 42.5t-50 14.5t-36.5 -18.5t-13.5 -48.5q0 -17 7 -45h-152q-12 48 -12 92q0 89 47.5 142t137.5 53q47 0 91 -21.5t101 -60.5q46 -30 72 -43.5t49 -13.5q22 0 35.5 18.5t13.5 48.5q0 24 -7 46h152q12 -49 12 -93
q0 -89 -47.5 -142t-137.5 -53q-47 0 -88.5 20.5zM381.5 63.5q-155.5 93.5 -238.5 263.5t-83 393t83 393t238.5 263.5t367.5 93.5q213 0 368.5 -93.5t238.5 -263.5t83 -393t-83 -393t-238.5 -263.5t-368.5 -93.5q-212 0 -367.5 93.5zM988.5 260q97.5 64 146.5 182t49 278
q0 159 -49 276t-146.5 181t-239.5 66q-142 1 -239 -63t-145.5 -182t-49.5 -278q-1 -159 48 -276t146.5 -181t239.5 -66q142 -1 239.5 63z" />
    <glyph glyph-name="OE" unicode="&#x152;" horiz-adv-x="2226" 
d="M1437 1214v-355h569v-226h-569v-407h689v-226h-930v119q-87 -72 -200 -110.5t-247 -38.5q-212 0 -367.5 93.5t-238.5 263.5t-83 393t83 393t238.5 263.5t367.5 93.5q134 0 247 -38.5t200 -110.5v119h930v-226h-689zM988.5 260q97.5 64 146.5 182t49 278q0 159 -49 276
t-146.5 181t-239.5 66q-142 1 -239 -63t-145.5 -182t-49.5 -278q-1 -159 48 -276t146.5 -181t239.5 -66q142 -1 239.5 63z" />
    <glyph glyph-name="P" unicode="P" horiz-adv-x="1277" 
d="M735 1440q66 0 115 -8q182 -28 274.5 -151.5t92.5 -309.5q0 -121 -40.5 -218t-123 -160t-203.5 -82q-49 -8 -115 -8h-354v-503h-241v1440h595zM816 738q83 21 120.5 87t37.5 146t-37.5 146.5t-120.5 87.5q-36 9 -91 9h-344v-486h344q56 0 91 10z" />
    <glyph glyph-name="Thorn" unicode="&#xde;" horiz-adv-x="1260" 
d="M384 1440v-251h343q72 0 147 -24q67 -21 125 -61.5t99 -96.5q49 -61 75.5 -138t26.5 -156q0 -73 -26.5 -145t-72.5 -131q-63 -85 -162.5 -134.5t-211.5 -49.5h-343v-253h-244v1440h244zM821.5 504q49.5 25 83.5 69q50 65 50 140q0 47 -15 90.5t-46 76.5
q-31 36 -77.5 58.5t-91.5 22.5h-341v-482h341q47 0 96.5 25z" />
    <glyph glyph-name="Q" unicode="Q" horiz-adv-x="1499" 
d="M1404 453q-35 -123 -102 -218l114 -114l-149 -151l-116 115q-168 -115 -402 -115q-212 0 -367.5 93.5t-238.5 263.5t-83 393t83 393t238.5 263.5t367.5 93.5q213 0 368.5 -93.5t238.5 -263.5t83 -393q0 -144 -35 -267zM981 255l-125 124l151 151l115 -115q62 126 62 305
q0 159 -49 276t-146.5 181t-239.5 66q-142 1 -239 -63t-145.5 -182t-49.5 -278t48.5 -277.5t148.5 -181.5t243 -64q129 0 226 58z" />
    <glyph glyph-name="R" unicode="R" horiz-adv-x="1320" 
d="M967 0l-244 503h-342v-503h-241v1440h595q66 0 115 -8q182 -28 274.5 -151.5t92.5 -309.5q0 -149 -61.5 -260t-181.5 -165l266 -546h-273zM381 728h344q56 0 91 10q83 21 120.5 87t37.5 146t-37.5 146.5t-120.5 87.5q-36 9 -91 9h-344v-486z" />
    <glyph glyph-name="Racute" unicode="&#x154;" horiz-adv-x="1320" 
d="M820 1830l-76 -240h-238l76 240h238zM967 0l-244 503h-342v-503h-241v1440h595q66 0 115 -8q182 -28 274.5 -151.5t92.5 -309.5q0 -149 -61.5 -260t-181.5 -165l266 -546h-273zM381 728h344q56 0 91 10q83 21 120.5 87t37.5 146t-37.5 146.5t-120.5 87.5q-36 9 -91 9
h-344v-486z" />
    <glyph glyph-name="Rcaron" unicode="&#x158;" horiz-adv-x="1320" 
d="M955 1759l-341 -187l-341 187l87 153l254 -138l253 138zM967 0l-244 503h-342v-503h-241v1440h595q66 0 115 -8q182 -28 274.5 -151.5t92.5 -309.5q0 -149 -61.5 -260t-181.5 -165l266 -546h-273zM381 728h344q56 0 91 10q83 21 120.5 87t37.5 146t-37.5 146.5
t-120.5 87.5q-36 9 -91 9h-344v-486z" />
    <glyph glyph-name="uni0156" unicode="&#x156;" horiz-adv-x="1320" 
d="M1240 0h-273l-244 503h-342v-503h-241v1440h595q66 0 115 -8q182 -28 274.5 -151.5t92.5 -309.5q0 -149 -61.5 -260t-181.5 -165zM381 728h344q56 0 91 10q83 21 120.5 87t37.5 146t-37.5 146.5t-120.5 87.5q-36 9 -91 9h-344v-486zM540 -167h233v-233q0 -62 -30 -110
t-83 -74t-120 -26v105q23 0 52.5 8t53 31.5t23.5 65.5h-129v233z" />
    <glyph glyph-name="S" unicode="S" horiz-adv-x="1315" 
d="M389 25q-127 55 -208.5 158t-103.5 243l250 38q21 -84 73 -144.5t126.5 -92t161.5 -31.5q79 0 147 24.5t109.5 71.5t41.5 111q0 60 -39 100.5t-121 65.5l-372 110q-84 24 -153 62t-118.5 113.5t-49.5 192.5q0 135 69 230.5t188.5 143.5t268.5 47q223 -2 371.5 -111.5
t196.5 -309.5l-259 -45q-16 75 -62.5 129.5t-114 83t-143.5 28.5q-71 0 -131 -23.5t-95.5 -65t-35.5 -95.5q0 -72 56.5 -109.5t151.5 -62.5l258 -72q102 -28 182 -65.5t142 -118.5t62 -212q0 -144 -77.5 -245.5t-206.5 -152.5t-281 -51q-157 0 -284 55z" />
    <glyph glyph-name="Sacute" unicode="&#x15a;" horiz-adv-x="1315" 
d="M545 1590l76 240h238l-76 -240h-238zM389 25q-127 55 -208.5 158t-103.5 243l250 38q21 -84 73 -144.5t126.5 -92t161.5 -31.5q79 0 147 24.5t109.5 71.5t41.5 111q0 60 -39 100.5t-121 65.5l-372 110q-84 24 -153 62t-118.5 113.5t-49.5 192.5q0 135 69 230.5
t188.5 143.5t268.5 47q223 -2 371.5 -111.5t196.5 -309.5l-259 -45q-16 75 -62.5 129.5t-114 83t-143.5 28.5q-71 0 -131 -23.5t-95.5 -65t-35.5 -95.5q0 -72 56.5 -109.5t151.5 -62.5l258 -72q102 -28 182 -65.5t142 -118.5t62 -212q0 -144 -77.5 -245.5t-206.5 -152.5
t-281 -51q-157 0 -284 55z" />
    <glyph glyph-name="Scaron" unicode="&#x160;" horiz-adv-x="1315" 
d="M343 1759l88 153l253 -138l254 138l87 -153l-341 -187zM389 25q-127 55 -208.5 158t-103.5 243l250 38q21 -84 73 -144.5t126.5 -92t161.5 -31.5q79 0 147 24.5t109.5 71.5t41.5 111q0 60 -39 100.5t-121 65.5l-372 110q-84 24 -153 62t-118.5 113.5t-49.5 192.5
q0 135 69 230.5t188.5 143.5t268.5 47q223 -2 371.5 -111.5t196.5 -309.5l-259 -45q-16 75 -62.5 129.5t-114 83t-143.5 28.5q-71 0 -131 -23.5t-95.5 -65t-35.5 -95.5q0 -72 56.5 -109.5t151.5 -62.5l258 -72q102 -28 182 -65.5t142 -118.5t62 -212q0 -144 -77.5 -245.5
t-206.5 -152.5t-281 -51q-157 0 -284 55z" />
    <glyph glyph-name="Scedilla" unicode="&#x15e;" horiz-adv-x="1315" 
d="M1177.5 199q-60.5 -94 -163.5 -149.5t-232 -72.5l-21 -61q59 -29 90.5 -75.5t31.5 -109.5q0 -61 -28.5 -110t-77 -76.5t-104.5 -27.5q-71 0 -138 36l53 143q42 -14 64 -14q28 0 45.5 16.5t17.5 37.5q0 24 -17 40.5t-43 26.5t-71 23l50 145q-147 7 -265.5 64t-194.5 157
t-97 234l250 38q21 -84 73 -144.5t126.5 -92t161.5 -31.5q79 0 147 24.5t109.5 71.5t41.5 111q0 60 -39 100.5t-121 65.5l-372 110q-84 24 -153 62t-118.5 113.5t-49.5 192.5q0 135 69 230.5t188.5 143.5t268.5 47q223 -2 371.5 -111.5t196.5 -309.5l-259 -45
q-16 75 -62.5 129.5t-114 83t-143.5 28.5q-71 0 -131 -23.5t-95.5 -65t-35.5 -95.5q0 -72 56.5 -109.5t151.5 -62.5l258 -72q102 -28 182 -65.5t142 -118.5t62 -212q0 -126 -60.5 -220z" />
    <glyph glyph-name="Scircumflex" unicode="&#x15c;" horiz-adv-x="1315" 
d="M336 1725l341 187l341 -187l-88 -153l-253 138l-254 -138zM389 25q-127 55 -208.5 158t-103.5 243l250 38q21 -84 73 -144.5t126.5 -92t161.5 -31.5q79 0 147 24.5t109.5 71.5t41.5 111q0 60 -39 100.5t-121 65.5l-372 110q-84 24 -153 62t-118.5 113.5t-49.5 192.5
q0 135 69 230.5t188.5 143.5t268.5 47q223 -2 371.5 -111.5t196.5 -309.5l-259 -45q-16 75 -62.5 129.5t-114 83t-143.5 28.5q-71 0 -131 -23.5t-95.5 -65t-35.5 -95.5q0 -72 56.5 -109.5t151.5 -62.5l258 -72q102 -28 182 -65.5t142 -118.5t62 -212q0 -144 -77.5 -245.5
t-206.5 -152.5t-281 -51q-157 0 -284 55z" />
    <glyph glyph-name="uni0218" unicode="&#x218;" horiz-adv-x="1315" 
d="M389 25q-127 55 -208.5 158t-103.5 243l250 38q21 -84 73 -144.5t126.5 -92t161.5 -31.5q79 0 147 24.5t109.5 71.5t41.5 111q0 60 -39 100.5t-121 65.5l-372 110q-84 24 -153 62t-118.5 113.5t-49.5 192.5q0 135 69 230.5t188.5 143.5t268.5 47q223 -2 371.5 -111.5
t196.5 -309.5l-259 -45q-16 75 -62.5 129.5t-114 83t-143.5 28.5q-71 0 -131 -23.5t-95.5 -65t-35.5 -95.5q0 -72 56.5 -109.5t151.5 -62.5l258 -72q102 -28 182 -65.5t142 -118.5t62 -212q0 -144 -77.5 -245.5t-206.5 -152.5t-281 -51q-157 0 -284 55zM637.5 -497
q29.5 8 53 31.5t23.5 65.5h-129v233h234v-233q0 -62 -30 -110t-83.5 -74t-120.5 -26v105q23 0 52.5 8z" />
    <glyph glyph-name="uni1E9E" unicode="&#x1e9e;" horiz-adv-x="1500" 
d="M713 0v236q79 -30 177 -30q115 0 185.5 56.5t69.5 168.5q-1 123 -94 182.5t-234 61.5l-42 153l227 368q-101 48 -219 48q-143 0 -241.5 -65t-134.5 -188q-25 -89 -25 -234v-757h-244v816q0 177 38 285q65 186 222 277.5t362 91.5q126 0 224.5 -24.5t166 -58.5t151.5 -86
l-268 -462q97 -20 175.5 -73.5t124.5 -140.5t46 -202q0 -138 -53.5 -240t-156.5 -157.5t-248 -55.5q-132 0 -209 30z" />
    <glyph glyph-name="T" unicode="T" horiz-adv-x="1213" 
d="M486 1214h-466v226h1173v-226h-466v-1214h-241v1214z" />
    <glyph glyph-name="Tbar" unicode="&#x166;" horiz-adv-x="1213" 
d="M1193 1214h-466v-374h350v-240h-350v-600h-241v600h-349v240h349v374h-466v226h1173v-226z" />
    <glyph glyph-name="Tcaron" unicode="&#x164;" horiz-adv-x="1213" 
d="M266 1759l87 153l254 -138l253 138l88 -153l-341 -187zM20 1214v226h1173v-226h-466v-1214h-241v1214h-466z" />
    <glyph glyph-name="uni0162" unicode="&#x162;" horiz-adv-x="1213" 
d="M675 0l-29 -86q58 -29 89.5 -76t31.5 -110q0 -61 -28.5 -110t-76.5 -76t-104 -27q-71 0 -138 36l53 142q42 -13 64 -13q28 0 45 16.5t17 37.5q0 34 -32 52.5t-98 37.5l61 176h-44v1214h-466v226h1173v-226h-466v-1214h-52z" />
    <glyph glyph-name="uni021A" unicode="&#x21a;" horiz-adv-x="1213" 
d="M20 1214v226h1173v-226h-466v-1214h-241v1214h-466zM542.5 -497q29.5 8 53 31.5t23.5 65.5h-129v233h233v-233q0 -62 -30 -110t-83 -74t-120 -26v105q23 0 52.5 8z" />
    <glyph glyph-name="U" unicode="U" horiz-adv-x="1440" 
d="M418 40q-132 70 -205 198t-73 297v903l244 2v-899q0 -105 46.5 -183t123.5 -119.5t166 -41.5q90 0 167 42t123 120t46 182v899h244v-905q0 -169 -73 -297t-205 -198t-302 -70t-302 70z" />
    <glyph glyph-name="Uacute" unicode="&#xda;" horiz-adv-x="1440" 
d="M590 1590l76 240h238l-76 -240h-238zM418 40q-132 70 -205 198t-73 297v903l244 2v-899q0 -105 46.5 -183t123.5 -119.5t166 -41.5q90 0 167 42t123 120t46 182v899h244v-905q0 -169 -73 -297t-205 -198t-302 -70t-302 70z" />
    <glyph glyph-name="Ubreve" unicode="&#x16c;" horiz-adv-x="1440" 
d="M567.5 1602.5q-69.5 40.5 -110 110t-40.5 152.5h188q0 -48 33.5 -81.5t81.5 -33.5t81.5 33.5t33.5 81.5h188q0 -83 -40.5 -152.5t-110 -110t-152.5 -40.5t-152.5 40.5zM418 40q-132 70 -205 198t-73 297v903l244 2v-899q0 -105 46.5 -183t123.5 -119.5t166 -41.5
q90 0 167 42t123 120t46 182v899h244v-905q0 -169 -73 -297t-205 -198t-302 -70t-302 70z" />
    <glyph glyph-name="Ucircumflex" unicode="&#xdb;" horiz-adv-x="1440" 
d="M379 1725l341 187l341 -187l-88 -153l-253 138l-253 -138zM418 40q-132 70 -205 198t-73 297v903l244 2v-899q0 -105 46.5 -183t123.5 -119.5t166 -41.5q90 0 167 42t123 120t46 182v899h244v-905q0 -169 -73 -297t-205 -198t-302 -70t-302 70z" />
    <glyph glyph-name="Udieresis" unicode="&#xdc;" horiz-adv-x="1440" 
d="M403 1827h220v-220h-220v220zM817 1827h220v-220h-220v220zM418 40q-132 70 -205 198t-73 297v903l244 2v-899q0 -105 46.5 -183t123.5 -119.5t166 -41.5q90 0 167 42t123 120t46 182v899h244v-905q0 -169 -73 -297t-205 -198t-302 -70t-302 70z" />
    <glyph glyph-name="uni1EE4" unicode="&#x1ee4;" horiz-adv-x="1440" 
d="M418 40q-132 70 -205 198t-73 297v903l244 2v-899q0 -105 46.5 -183t123.5 -119.5t166 -41.5q90 0 167 42t123 120t46 182v899h244v-905q0 -169 -73 -297t-205 -198t-302 -70t-302 70zM630 -167h247v-221h-247v221z" />
    <glyph glyph-name="Ugrave" unicode="&#xd9;" horiz-adv-x="1440" 
d="M548 1830h238l76 -240h-238zM418 40q-132 70 -205 198t-73 297v903l244 2v-899q0 -105 46.5 -183t123.5 -119.5t166 -41.5q90 0 167 42t123 120t46 182v899h244v-905q0 -169 -73 -297t-205 -198t-302 -70t-302 70z" />
    <glyph glyph-name="uni1EE6" unicode="&#x1ee6;" horiz-adv-x="1440" 
d="M633 2043.5q47 17.5 95 17.5q64 0 116.5 -32.5t79.5 -97.5q19 -48 19 -93q0 -61 -32 -110t-82.5 -79.5t-104.5 -37.5l-44 99q48 15 79 43.5t31 66.5q0 19 -11 43q-22 46 -72 46q-23 0 -48.5 -9.5t-47.5 -25.5l-62 119q37 33 84 50.5zM418 40q-132 70 -205 198t-73 297
v903l244 2v-899q0 -105 46.5 -183t123.5 -119.5t166 -41.5q90 0 167 42t123 120t46 182v899h244v-905q0 -169 -73 -297t-205 -198t-302 -70t-302 70z" />
    <glyph glyph-name="Uhorn" unicode="&#x1af;" horiz-adv-x="1440" 
d="M1548 1550q0 -150 -105 -212q-55 -32 -143 -36v-767q0 -169 -73 -297t-205 -198t-302 -70t-302 70t-205 198t-73 297v903l244 2v-899q0 -105 46.5 -183t123.5 -119.5t166 -41.5q90 0 167 42t123 120t46 182v899h112q56 0 82 5q69 12 90.5 57t19.5 117l183 1q5 -42 5 -70z
" />
    <glyph glyph-name="uni1EE8" unicode="&#x1ee8;" horiz-adv-x="1440" 
d="M904 1830l-76 -240h-238l76 240h238zM1548 1550q0 -150 -105 -212q-55 -32 -143 -36v-767q0 -169 -73 -297t-205 -198t-302 -70t-302 70t-205 198t-73 297v903l244 2v-899q0 -105 46.5 -183t123.5 -119.5t166 -41.5q90 0 167 42t123 120t46 182v899h112q56 0 82 5
q69 12 90.5 57t19.5 117l183 1q5 -42 5 -70z" />
    <glyph glyph-name="uni1EF0" unicode="&#x1ef0;" horiz-adv-x="1440" 
d="M1548 1550q0 -150 -105 -212q-55 -32 -143 -36v-767q0 -169 -73 -297t-205 -198t-302 -70t-302 70t-205 198t-73 297v903l244 2v-899q0 -105 46.5 -183t123.5 -119.5t166 -41.5q90 0 167 42t123 120t46 182v899h112q56 0 82 5q69 12 90.5 57t19.5 117l183 1q5 -42 5 -70z
M599 -388v221h247v-221h-247z" />
    <glyph glyph-name="uni1EEA" unicode="&#x1eea;" horiz-adv-x="1440" 
d="M862 1590h-238l-76 240h238zM1548 1550q0 -150 -105 -212q-55 -32 -143 -36v-767q0 -169 -73 -297t-205 -198t-302 -70t-302 70t-205 198t-73 297v903l244 2v-899q0 -105 46.5 -183t123.5 -119.5t166 -41.5q90 0 167 42t123 120t46 182v899h112q56 0 82 5q69 12 90.5 57
t19.5 117l183 1q5 -42 5 -70z" />
    <glyph glyph-name="uni1EEC" unicode="&#x1eec;" horiz-adv-x="1440" 
d="M707 1909q-23 0 -48.5 -9.5t-47.5 -25.5l-62 119q37 33 84 50.5t95 17.5q64 0 116.5 -32.5t79.5 -97.5q19 -48 19 -93q0 -61 -32 -110t-82.5 -79.5t-104.5 -37.5l-44 99q48 15 79 43.5t31 66.5q0 19 -11 43q-22 46 -72 46zM1548 1550q0 -150 -105 -212q-55 -32 -143 -36
v-767q0 -169 -73 -297t-205 -198t-302 -70t-302 70t-205 198t-73 297v903l244 2v-899q0 -105 46.5 -183t123.5 -119.5t166 -41.5q90 0 167 42t123 120t46 182v899h112q56 0 82 5q69 12 90.5 57t19.5 117l183 1q5 -42 5 -70z" />
    <glyph glyph-name="uni1EEE" unicode="&#x1eee;" horiz-adv-x="1440" 
d="M405 1627q-12 48 -12 92q0 89 47.5 142t137.5 53q47 0 91 -21.5t101 -60.5q46 -30 72 -43.5t49 -13.5q22 0 35.5 18.5t13.5 48.5q0 24 -7 46h152q12 -49 12 -93q0 -89 -47.5 -142t-137.5 -53q-47 0 -88.5 20.5t-104.5 61.5q-42 28 -69 42.5t-50 14.5t-36.5 -18.5
t-13.5 -48.5q0 -17 7 -45h-152zM1548 1550q0 -150 -105 -212q-55 -32 -143 -36v-767q0 -169 -73 -297t-205 -198t-302 -70t-302 70t-205 198t-73 297v903l244 2v-899q0 -105 46.5 -183t123.5 -119.5t166 -41.5q90 0 167 42t123 120t46 182v899h112q56 0 82 5q69 12 90.5 57
t19.5 117l183 1q5 -42 5 -70z" />
    <glyph glyph-name="Uhungarumlaut" unicode="&#x170;" horiz-adv-x="1440" 
d="M391 1592l76 240h238l-76 -240h-238zM802 1592l76 240h238l-76 -240h-238zM418 40q-132 70 -205 198t-73 297v903l244 2v-899q0 -105 46.5 -183t123.5 -119.5t166 -41.5q90 0 167 42t123 120t46 182v899h244v-905q0 -169 -73 -297t-205 -198t-302 -70t-302 70z" />
    <glyph glyph-name="Umacron" unicode="&#x16a;" horiz-adv-x="1440" 
d="M453 1867h534v-187h-534v187zM418 40q-132 70 -205 198t-73 297v903l244 2v-899q0 -105 46.5 -183t123.5 -119.5t166 -41.5q90 0 167 42t123 120t46 182v899h244v-905q0 -169 -73 -297t-205 -198t-302 -70t-302 70z" />
    <glyph glyph-name="Uogonek" unicode="&#x172;" horiz-adv-x="1440" 
d="M1300 1440v-905q0 -172 -76.5 -302.5t-212.5 -198.5q-75 -49 -124 -109t-49 -104q0 -25 16.5 -41.5t41.5 -16.5q35 0 74 34l86 -112q-35 -48 -86 -74.5t-106 -26.5q-61 0 -110 30.5t-76.5 80.5t-27.5 108q0 81 54 167q-166 3 -294 74t-199 197.5t-71 293.5v903l244 2
v-899q0 -105 46.5 -183t123.5 -119.5t166 -41.5q90 0 167 42t123 120t46 182v899h244z" />
    <glyph glyph-name="Uring" unicode="&#x16e;" horiz-adv-x="1440" 
d="M598.5 1587q-59.5 35 -94.5 94t-35 128q0 70 35 129t94.5 93.5t128.5 34.5q70 0 129 -34.5t93.5 -93.5t34.5 -129q0 -69 -34.5 -128.5t-93.5 -94t-129 -34.5q-69 0 -128.5 35zM812 1724.5q35 35.5 35 84.5q0 50 -35 85t-85 35q-49 0 -84.5 -35t-35.5 -85
q0 -49 35.5 -84.5t84.5 -35.5q50 0 85 35.5zM418 40q-132 70 -205 198t-73 297v903l244 2v-899q0 -105 46.5 -183t123.5 -119.5t166 -41.5q90 0 167 42t123 120t46 182v899h244v-905q0 -169 -73 -297t-205 -198t-302 -70t-302 70z" />
    <glyph glyph-name="Utilde" unicode="&#x168;" horiz-adv-x="1440" 
d="M814 1621q-43 21 -102 60q-42 29 -69.5 43.5t-51.5 14.5q-23 0 -36 -18t-13 -48q0 -18 7 -46h-152q-12 48 -12 92q0 89 47.5 142t137.5 53q47 0 88.5 -20.5t104.5 -61.5q42 -28 69 -42.5t50 -14.5t36 18.5t13 49.5q0 21 -6 45h152q12 -48 12 -92q0 -89 -48 -142.5
t-138 -53.5q-46 0 -89 21zM418 40q-132 70 -205 198t-73 297v903l244 2v-899q0 -105 46.5 -183t123.5 -119.5t166 -41.5q90 0 167 42t123 120t46 182v899h244v-905q0 -169 -73 -297t-205 -198t-302 -70t-302 70z" />
    <glyph glyph-name="V" unicode="V" horiz-adv-x="1281" 
d="M10 1440h248l380 -1206l385 1206h248l-454 -1440h-353z" />
    <glyph glyph-name="W" unicode="W" horiz-adv-x="1951" 
d="M23 1440h253l287 -1040l286 1038l253 2l287 -1040l286 1040h253l-420 -1440h-238l-294 1024l-294 -1024h-238z" />
    <glyph glyph-name="Wacute" unicode="&#x1e82;" horiz-adv-x="1951" 
d="M864 1590l76 240h238l-76 -240h-238zM276 1440l287 -1040l286 1038l253 2l287 -1040l286 1040h253l-420 -1440h-238l-294 1024l-294 -1024h-238l-421 1440h253z" />
    <glyph glyph-name="Wcircumflex" unicode="&#x174;" horiz-adv-x="1951" 
d="M636 1725l341 187l341 -187l-88 -153l-253 138l-254 -138zM276 1440l287 -1040l286 1038l253 2l287 -1040l286 1040h253l-420 -1440h-238l-294 1024l-294 -1024h-238l-421 1440h253z" />
    <glyph glyph-name="Wdieresis" unicode="&#x1e84;" horiz-adv-x="1951" 
d="M660 1827h220v-220h-220v220zM1073 1827h220v-220h-220v220zM276 1440l287 -1040l286 1038l253 2l287 -1040l286 1040h253l-420 -1440h-238l-294 1024l-294 -1024h-238l-421 1440h253z" />
    <glyph glyph-name="Wgrave" unicode="&#x1e80;" horiz-adv-x="1951" 
d="M774 1830h238l76 -240h-238zM276 1440l287 -1040l286 1038l253 2l287 -1040l286 1040h253l-420 -1440h-238l-294 1024l-294 -1024h-238l-421 1440h253z" />
    <glyph glyph-name="X" unicode="X" horiz-adv-x="1311" 
d="M508 728l-474 712h295l328 -507l325 507h297l-474 -712l486 -728h-295l-339 523l-340 -523h-297z" />
    <glyph glyph-name="Y" unicode="Y" horiz-adv-x="1223" 
d="M490 590l-490 850h281l331 -574l330 574h281l-489 -850v-590h-244v590z" />
    <glyph glyph-name="Yacute" unicode="&#xdd;" horiz-adv-x="1223" 
d="M482 1590l76 240h238l-76 -240h-238zM0 1440h281l331 -574l330 574h281l-489 -850v-590h-244v590z" />
    <glyph glyph-name="Ycircumflex" unicode="&#x176;" horiz-adv-x="1223" 
d="M271 1725l341 187l341 -187l-88 -153l-253 138l-254 -138zM0 1440h281l331 -574l330 574h281l-489 -850v-590h-244v590z" />
    <glyph glyph-name="Ydieresis" unicode="&#x178;" horiz-adv-x="1223" 
d="M295 1827h220v-220h-220v220zM708 1827h220v-220h-220v220zM0 1440h281l331 -574l330 574h281l-489 -850v-590h-244v590z" />
    <glyph glyph-name="uni1EF4" unicode="&#x1ef4;" horiz-adv-x="1223" 
d="M0 1440h281l331 -574l330 574h281l-489 -850v-590h-244v590zM488 -167h247v-221h-247v221z" />
    <glyph glyph-name="Ygrave" unicode="&#x1ef2;" horiz-adv-x="1223" 
d="M425 1830h238l76 -240h-239zM0 1440h281l331 -574l330 574h281l-489 -850v-590h-244v590z" />
    <glyph glyph-name="uni1EF6" unicode="&#x1ef6;" horiz-adv-x="1223" 
d="M499 2043.5q47 17.5 95 17.5q64 0 116.5 -32.5t79.5 -97.5q19 -48 19 -93q0 -61 -32 -110t-82.5 -79.5t-104.5 -37.5l-44 99q48 15 79 44t31 67q0 21 -10 42q-22 46 -72 46q-24 0 -49.5 -9.5t-47.5 -25.5l-62 119q37 33 84 50.5zM0 1440h281l331 -574l330 574h281
l-489 -850v-590h-244v590z" />
    <glyph glyph-name="uni1EF8" unicode="&#x1ef8;" horiz-adv-x="1223" 
d="M696.5 1620.5q-41.5 20.5 -104.5 61.5q-42 28 -69 42.5t-50 14.5t-36 -18t-13 -48q0 -22 7 -46h-152q-12 50 -12 93q0 89 47.5 141.5t137.5 52.5q47 0 88.5 -20.5t104.5 -61.5q42 -28 69 -42.5t50 -14.5t36 18t13 48q0 23 -7 47h152q12 -49 12 -93q0 -89 -47.5 -142
t-137.5 -53q-47 0 -88.5 20.5zM0 1440h281l331 -574l330 574h281l-489 -850v-590h-244v590z" />
    <glyph glyph-name="Z" unicode="Z" horiz-adv-x="1327" 
d="M100 33l710 1181h-660v226h1077v-34l-706 -1179h689v-227h-1110v33z" />
    <glyph glyph-name="Zacute" unicode="&#x179;" horiz-adv-x="1327" 
d="M547 1590l76 240h238l-76 -240h-238zM810 1214h-660v226h1077v-34l-706 -1179h689v-227h-1110v33z" />
    <glyph glyph-name="Zcaron" unicode="&#x17d;" horiz-adv-x="1327" 
d="M339 1759l88 153l253 -138l254 138l87 -153l-341 -187zM810 1214h-660v226h1077v-34l-706 -1179h689v-227h-1110v33z" />
    <glyph glyph-name="Zdotaccent" unicode="&#x17b;" horiz-adv-x="1327" 
d="M574 1900h247v-247h-247v247zM810 1214h-660v226h1077v-34l-706 -1179h689v-227h-1110v33z" />
    <glyph glyph-name="a" unicode="a" horiz-adv-x="1152" 
d="M1024.5 801.5q7.5 -55.5 7.5 -138.5v-663h-211v145q-69 -91 -160 -133t-219 -42q-114 0 -195.5 43.5t-124 117.5t-42.5 165q0 119 59.5 199t186.5 124q71 23 163.5 39.5t264.5 42.5l42 6q-7 94 -59.5 138t-161.5 44q-80 0 -145.5 -37t-90.5 -114l-220 69
q41 142 156 222.5t300 80.5q150 0 257.5 -49t158.5 -152q26 -52 33.5 -107.5zM793 509q-157 -25 -225.5 -37.5t-120.5 -30.5q-65 -24 -98 -58t-33 -84q0 -61 45.5 -99t128.5 -38q77 0 135.5 27.5t94.5 68.5t49 83q22 53 24 168z" />
    <glyph glyph-name="aacute" unicode="&#xe1;" horiz-adv-x="1152" 
d="M785 1470l-76 -240h-238l76 240h238zM1024.5 801.5q7.5 -55.5 7.5 -138.5v-663h-211v145q-69 -91 -160 -133t-219 -42q-114 0 -195.5 43.5t-124 117.5t-42.5 165q0 119 59.5 199t186.5 124q71 23 163.5 39.5t264.5 42.5l42 6q-7 94 -59.5 138t-161.5 44q-80 0 -145.5 -37
t-90.5 -114l-220 69q41 142 156 222.5t300 80.5q150 0 257.5 -49t158.5 -152q26 -52 33.5 -107.5zM793 509q-157 -25 -225.5 -37.5t-120.5 -30.5q-65 -24 -98 -58t-33 -84q0 -61 45.5 -99t128.5 -38q77 0 135.5 27.5t94.5 68.5t49 83q22 53 24 168z" />
    <glyph glyph-name="abreve" unicode="&#x103;" horiz-adv-x="1152" 
d="M434.5 1242.5q-69.5 40.5 -110 110t-40.5 152.5h188q0 -48 33.5 -81.5t81.5 -33.5t81.5 33.5t33.5 81.5h188q0 -83 -41 -152.5t-110.5 -110t-151.5 -40.5q-83 0 -152.5 40.5zM1024.5 801.5q7.5 -55.5 7.5 -138.5v-663h-211v145q-69 -91 -160 -133t-219 -42
q-114 0 -195.5 43.5t-124 117.5t-42.5 165q0 119 59.5 199t186.5 124q71 23 163.5 39.5t264.5 42.5l42 6q-7 94 -59.5 138t-161.5 44q-80 0 -145.5 -37t-90.5 -114l-220 69q41 142 156 222.5t300 80.5q150 0 257.5 -49t158.5 -152q26 -52 33.5 -107.5zM793 509
q-157 -25 -225.5 -37.5t-120.5 -30.5q-65 -24 -98 -58t-33 -84q0 -61 45.5 -99t128.5 -38q77 0 135.5 27.5t94.5 68.5t49 83q22 53 24 168z" />
    <glyph glyph-name="uni1EAF" unicode="&#x1eaf;" horiz-adv-x="1152" 
d="M778 1830l-76 -240h-238l76 240h238zM431.5 1242.5q-69.5 40.5 -110 110t-40.5 152.5h188q0 -48 33.5 -81.5t81.5 -33.5t81.5 33.5t33.5 81.5h188q0 -83 -40.5 -152.5t-110 -110t-152.5 -40.5t-152.5 40.5zM1024.5 801.5q7.5 -55.5 7.5 -138.5v-663h-211v145
q-69 -91 -160 -133t-219 -42q-114 0 -195.5 43.5t-124 117.5t-42.5 165q0 119 59.5 199t186.5 124q71 23 163.5 39.5t264.5 42.5l42 6q-7 94 -59.5 138t-161.5 44q-80 0 -145.5 -37t-90.5 -114l-220 69q41 142 156 222.5t300 80.5q150 0 257.5 -49t158.5 -152
q26 -52 33.5 -107.5zM793 509q-157 -25 -225.5 -37.5t-120.5 -30.5q-65 -24 -98 -58t-33 -84q0 -61 45.5 -99t128.5 -38q77 0 135.5 27.5t94.5 68.5t49 83q22 53 24 168z" />
    <glyph glyph-name="uni1EB7" unicode="&#x1eb7;" horiz-adv-x="1152" 
d="M434.5 1242.5q-69.5 40.5 -110 110t-40.5 152.5h188q0 -48 33.5 -81.5t81.5 -33.5t81.5 33.5t33.5 81.5h188q0 -83 -41 -152.5t-110.5 -110t-151.5 -40.5q-83 0 -152.5 40.5zM1024.5 801.5q7.5 -55.5 7.5 -138.5v-663h-211v145q-69 -91 -160 -133t-219 -42
q-114 0 -195.5 43.5t-124 117.5t-42.5 165q0 119 59.5 199t186.5 124q71 23 163.5 39.5t264.5 42.5l42 6q-7 94 -59.5 138t-161.5 44q-80 0 -145.5 -37t-90.5 -114l-220 69q41 142 156 222.5t300 80.5q150 0 257.5 -49t158.5 -152q26 -52 33.5 -107.5zM793 509
q-157 -25 -225.5 -37.5t-120.5 -30.5q-65 -24 -98 -58t-33 -84q0 -61 45.5 -99t128.5 -38q77 0 135.5 27.5t94.5 68.5t49 83q22 53 24 168zM462 -388v221h247v-221h-247z" />
    <glyph glyph-name="uni1EB1" unicode="&#x1eb1;" horiz-adv-x="1152" 
d="M709 1590h-238l-76 240h238zM436.5 1242.5q-69.5 40.5 -110 110t-40.5 152.5h188q0 -48 33.5 -81.5t81.5 -33.5q47 0 81 33.5t34 81.5h188q0 -83 -41 -152.5t-110.5 -110t-151.5 -40.5q-83 0 -152.5 40.5zM1024.5 801.5q7.5 -55.5 7.5 -138.5v-663h-211v145
q-69 -91 -160 -133t-219 -42q-114 0 -195.5 43.5t-124 117.5t-42.5 165q0 119 59.5 199t186.5 124q71 23 163.5 39.5t264.5 42.5l42 6q-7 94 -59.5 138t-161.5 44q-80 0 -145.5 -37t-90.5 -114l-220 69q41 142 156 222.5t300 80.5q150 0 257.5 -49t158.5 -152
q26 -52 33.5 -107.5zM793 509q-157 -25 -225.5 -37.5t-120.5 -30.5q-65 -24 -98 -58t-33 -84q0 -61 45.5 -99t128.5 -38q77 0 135.5 27.5t94.5 68.5t49 83q22 53 24 168z" />
    <glyph glyph-name="uni1EB3" unicode="&#x1eb3;" horiz-adv-x="1152" 
d="M544 1882q-24 0 -49.5 -9.5t-47.5 -25.5l-62 119q37 33 84.5 51t95.5 18q64 0 116 -33t79 -98q19 -48 19 -93q0 -60 -31.5 -109t-82 -79.5t-105.5 -37.5l-43 98q47 14 78 43.5t31 67.5q0 21 -10 42q-22 46 -72 46zM462.5 1242.5q-69.5 40.5 -110 110t-40.5 152.5h188
q0 -48 33.5 -81.5t81.5 -33.5t81.5 33.5t33.5 81.5h188q0 -83 -41 -152.5t-110.5 -110t-151.5 -40.5q-83 0 -152.5 40.5zM1024.5 801.5q7.5 -55.5 7.5 -138.5v-663h-211v145q-69 -91 -160 -133t-219 -42q-114 0 -195.5 43.5t-124 117.5t-42.5 165q0 119 59.5 199t186.5 124
q71 23 163.5 39.5t264.5 42.5l42 6q-7 94 -59.5 138t-161.5 44q-80 0 -145.5 -37t-90.5 -114l-220 69q41 142 156 222.5t300 80.5q150 0 257.5 -49t158.5 -152q26 -52 33.5 -107.5zM793 509q-157 -25 -225.5 -37.5t-120.5 -30.5q-65 -24 -98 -58t-33 -84q0 -61 45.5 -99
t128.5 -38q77 0 135.5 27.5t94.5 68.5t49 83q22 53 24 168z" />
    <glyph glyph-name="uni1EB5" unicode="&#x1eb5;" horiz-adv-x="1152" 
d="M245 1600q-12 48 -12 93q0 89 47.5 142t137.5 53q47 0 88.5 -20.5t104.5 -61.5q41 -29 68.5 -43.5t50.5 -14.5t36 18.5t13 49.5q0 22 -6 46h152q12 -48 12 -93q0 -89 -48 -142.5t-138 -53.5q-47 0 -90 21t-101 61q-42 29 -69.5 43.5t-51.5 14.5t-36.5 -18t-12.5 -49
q0 -16 7 -46h-152zM662.5 1423.5q33.5 33.5 33.5 81.5h188q0 -83 -40.5 -152.5t-110 -110t-152.5 -40.5t-152.5 40.5t-110 110t-40.5 152.5h188q0 -48 33.5 -81.5t81.5 -33.5t81.5 33.5zM1024.5 801.5q7.5 -55.5 7.5 -138.5v-663h-211v145q-69 -91 -160 -133t-219 -42
q-114 0 -195.5 43.5t-124 117.5t-42.5 165q0 119 59.5 199t186.5 124q71 23 163.5 39.5t264.5 42.5l42 6q-7 94 -59.5 138t-161.5 44q-80 0 -145.5 -37t-90.5 -114l-220 69q41 142 156 222.5t300 80.5q150 0 257.5 -49t158.5 -152q26 -52 33.5 -107.5zM793 509
q-157 -25 -225.5 -37.5t-120.5 -30.5q-65 -24 -98 -58t-33 -84q0 -61 45.5 -99t128.5 -38q77 0 135.5 27.5t94.5 68.5t49 83q22 53 24 168z" />
    <glyph glyph-name="acircumflex" unicode="&#xe2;" horiz-adv-x="1152" 
d="M593 1350l-253 -138l-88 153l341 187l341 -187l-88 -153zM1024.5 801.5q7.5 -55.5 7.5 -138.5v-663h-211v145q-69 -91 -160 -133t-219 -42q-114 0 -195.5 43.5t-124 117.5t-42.5 165q0 119 59.5 199t186.5 124q71 23 163.5 39.5t264.5 42.5l42 6q-7 94 -59.5 138
t-161.5 44q-80 0 -145.5 -37t-90.5 -114l-220 69q41 142 156 222.5t300 80.5q150 0 257.5 -49t158.5 -152q26 -52 33.5 -107.5zM793 509q-157 -25 -225.5 -37.5t-120.5 -30.5q-65 -24 -98 -58t-33 -84q0 -61 45.5 -99t128.5 -38q77 0 135.5 27.5t94.5 68.5t49 83
q22 53 24 168z" />
    <glyph glyph-name="uni1EA5" unicode="&#x1ea5;" horiz-adv-x="1152" 
d="M1041 1680h238l-76 -240h-238zM602 1350l-254 -138l-87 153l341 187l341 -187l-88 -153zM832.5 1061q107.5 -49 158.5 -152q26 -52 33.5 -107.5t7.5 -138.5v-663h-211v145q-69 -91 -160 -133t-219 -42q-114 0 -195.5 43.5t-124 117.5t-42.5 165q0 119 59.5 199t186.5 124
q71 23 163.5 39.5t264.5 42.5l42 6q-7 94 -59.5 138t-161.5 44q-80 0 -145.5 -37t-90.5 -114l-220 69q41 142 156 222.5t300 80.5q150 0 257.5 -49zM793 509q-157 -25 -225.5 -37.5t-120.5 -30.5q-65 -24 -98 -58t-33 -84q0 -61 45.5 -99t128.5 -38q77 0 135.5 27.5
t94.5 68.5t49 83q22 53 24 168z" />
    <glyph glyph-name="uni1EAD" unicode="&#x1ead;" horiz-adv-x="1152" 
d="M593 1350l-253 -138l-88 153l341 187l341 -187l-88 -153zM1024.5 801.5q7.5 -55.5 7.5 -138.5v-663h-211v145q-69 -91 -160 -133t-219 -42q-114 0 -195.5 43.5t-124 117.5t-42.5 165q0 119 59.5 199t186.5 124q71 23 163.5 39.5t264.5 42.5l42 6q-7 94 -59.5 138
t-161.5 44q-80 0 -145.5 -37t-90.5 -114l-220 69q41 142 156 222.5t300 80.5q150 0 257.5 -49t158.5 -152q26 -52 33.5 -107.5zM793 509q-157 -25 -225.5 -37.5t-120.5 -30.5q-65 -24 -98 -58t-33 -84q0 -61 45.5 -99t128.5 -38q77 0 135.5 27.5t94.5 68.5t49 83
q22 53 24 168zM462 -388v221h247v-221h-247z" />
    <glyph glyph-name="uni1EA7" unicode="&#x1ea7;" horiz-adv-x="1152" 
d="M1193 1440h-238l-76 240h238zM596 1350l-253 -138l-88 153l341 187l341 -187l-88 -153zM832.5 1061q107.5 -49 158.5 -152q26 -52 33.5 -107.5t7.5 -138.5v-663h-211v145q-69 -91 -160 -133t-219 -42q-114 0 -195.5 43.5t-124 117.5t-42.5 165q0 119 59.5 199t186.5 124
q71 23 163.5 39.5t264.5 42.5l42 6q-7 94 -59.5 138t-161.5 44q-80 0 -145.5 -37t-90.5 -114l-220 69q41 142 156 222.5t300 80.5q150 0 257.5 -49zM793 509q-157 -25 -225.5 -37.5t-120.5 -30.5q-65 -24 -98 -58t-33 -84q0 -61 45.5 -99t128.5 -38q77 0 135.5 27.5
t94.5 68.5t49 83q22 53 24 168z" />
    <glyph glyph-name="uni1EA9" unicode="&#x1ea9;" horiz-adv-x="1152" 
d="M1253 1478q0 -61 -32 -110t-82.5 -79.5t-104.5 -37.5l-44 99q48 15 79 44t31 67q0 21 -10 42q-22 46 -72 46q-24 0 -49.5 -9.5t-47.5 -25.5l-62 119q37 33 84 50.5t95 17.5q64 0 116.5 -32.5t79.5 -97.5q19 -48 19 -93zM587 1350l-253 -138l-88 153l341 187l341 -187
l-88 -153zM832.5 1061q107.5 -49 158.5 -152q26 -52 33.5 -107.5t7.5 -138.5v-663h-211v145q-69 -91 -160 -133t-219 -42q-114 0 -195.5 43.5t-124 117.5t-42.5 165q0 119 59.5 199t186.5 124q71 23 163.5 39.5t264.5 42.5l42 6q-7 94 -59.5 138t-161.5 44q-80 0 -145.5 -37
t-90.5 -114l-220 69q41 142 156 222.5t300 80.5q150 0 257.5 -49zM793 509q-157 -25 -225.5 -37.5t-120.5 -30.5q-65 -24 -98 -58t-33 -84q0 -61 45.5 -99t128.5 -38q77 0 135.5 27.5t94.5 68.5t49 83q22 53 24 168z" />
    <glyph glyph-name="uni1EAB" unicode="&#x1eab;" horiz-adv-x="1152" 
d="M248 1600q-12 48 -12 93q0 89 47.5 142t137.5 53q47 0 88.5 -20.5t104.5 -61.5q41 -29 68.5 -43.5t50.5 -14.5t36 18.5t13 49.5q0 22 -6 46h152q12 -48 12 -93q0 -89 -48 -142.5t-138 -53.5q-47 0 -90 21t-101 61q-42 29 -69.5 43.5t-51.5 14.5t-36.5 -18t-12.5 -49
q0 -16 7 -46h-152zM239 1365l341 187l341 -187l-87 -153l-254 138l-253 -138zM1024.5 801.5q7.5 -55.5 7.5 -138.5v-663h-211v145q-69 -91 -160 -133t-219 -42q-114 0 -195.5 43.5t-124 117.5t-42.5 165q0 119 59.5 199t186.5 124q71 23 163.5 39.5t264.5 42.5l42 6
q-7 94 -59.5 138t-161.5 44q-80 0 -145.5 -37t-90.5 -114l-220 69q41 142 156 222.5t300 80.5q150 0 257.5 -49t158.5 -152q26 -52 33.5 -107.5zM793 509q-157 -25 -225.5 -37.5t-120.5 -30.5q-65 -24 -98 -58t-33 -84q0 -61 45.5 -99t128.5 -38q77 0 135.5 27.5t94.5 68.5
t49 83q22 53 24 168z" />
    <glyph glyph-name="adieresis" unicode="&#xe4;" horiz-adv-x="1152" 
d="M498 1467v-220h-220v220h220zM911 1467v-220h-220v220h220zM1024.5 801.5q7.5 -55.5 7.5 -138.5v-663h-211v145q-69 -91 -160 -133t-219 -42q-114 0 -195.5 43.5t-124 117.5t-42.5 165q0 119 59.5 199t186.5 124q71 23 163.5 39.5t264.5 42.5l42 6q-7 94 -59.5 138
t-161.5 44q-80 0 -145.5 -37t-90.5 -114l-220 69q41 142 156 222.5t300 80.5q150 0 257.5 -49t158.5 -152q26 -52 33.5 -107.5zM793 509q-157 -25 -225.5 -37.5t-120.5 -30.5q-65 -24 -98 -58t-33 -84q0 -61 45.5 -99t128.5 -38q77 0 135.5 27.5t94.5 68.5t49 83
q22 53 24 168z" />
    <glyph glyph-name="uni1EA1" unicode="&#x1ea1;" horiz-adv-x="1152" 
d="M1024.5 801.5q7.5 -55.5 7.5 -138.5v-663h-211v145q-69 -91 -160 -133t-219 -42q-114 0 -195.5 43.5t-124 117.5t-42.5 165q0 119 59.5 199t186.5 124q71 23 163.5 39.5t264.5 42.5l42 6q-7 94 -59.5 138t-161.5 44q-80 0 -145.5 -37t-90.5 -114l-220 69
q41 142 156 222.5t300 80.5q150 0 257.5 -49t158.5 -152q26 -52 33.5 -107.5zM793 509q-157 -25 -225.5 -37.5t-120.5 -30.5q-65 -24 -98 -58t-33 -84q0 -61 45.5 -99t128.5 -38q77 0 135.5 27.5t94.5 68.5t49 83q22 53 24 168zM462 -388v221h247v-221h-247z" />
    <glyph glyph-name="agrave" unicode="&#xe0;" horiz-adv-x="1152" 
d="M713 1230h-238l-76 240h238zM1024.5 801.5q7.5 -55.5 7.5 -138.5v-663h-211v145q-69 -91 -160 -133t-219 -42q-114 0 -195.5 43.5t-124 117.5t-42.5 165q0 119 59.5 199t186.5 124q71 23 163.5 39.5t264.5 42.5l42 6q-7 94 -59.5 138t-161.5 44q-80 0 -145.5 -37
t-90.5 -114l-220 69q41 142 156 222.5t300 80.5q150 0 257.5 -49t158.5 -152q26 -52 33.5 -107.5zM793 509q-157 -25 -225.5 -37.5t-120.5 -30.5q-65 -24 -98 -58t-33 -84q0 -61 45.5 -99t128.5 -38q77 0 135.5 27.5t94.5 68.5t49 83q22 53 24 168z" />
    <glyph glyph-name="uni1EA3" unicode="&#x1ea3;" horiz-adv-x="1152" 
d="M562 1556q-46 0 -96 -36l-63 119q37 33 84.5 51t95.5 18q64 0 116 -33t79 -98q19 -48 19 -93q0 -60 -31.5 -109t-82 -79.5t-105.5 -37.5l-43 99q47 14 78 43t31 67q0 21 -10 42q-22 47 -72 47zM1024.5 801.5q7.5 -55.5 7.5 -138.5v-663h-211v145q-69 -91 -160 -133
t-219 -42q-114 0 -195.5 43.5t-124 117.5t-42.5 165q0 119 59.5 199t186.5 124q71 23 163.5 39.5t264.5 42.5l42 6q-7 94 -59.5 138t-161.5 44q-80 0 -145.5 -37t-90.5 -114l-220 69q41 142 156 222.5t300 80.5q150 0 257.5 -49t158.5 -152q26 -52 33.5 -107.5zM793 509
q-157 -25 -225.5 -37.5t-120.5 -30.5q-65 -24 -98 -58t-33 -84q0 -61 45.5 -99t128.5 -38q77 0 135.5 27.5t94.5 68.5t49 83q22 53 24 168z" />
    <glyph glyph-name="amacron" unicode="&#x101;" horiz-adv-x="1152" 
d="M883 1507v-187h-533v187h533zM1024.5 801.5q7.5 -55.5 7.5 -138.5v-663h-211v145q-69 -91 -160 -133t-219 -42q-114 0 -195.5 43.5t-124 117.5t-42.5 165q0 119 59.5 199t186.5 124q71 23 163.5 39.5t264.5 42.5l42 6q-7 94 -59.5 138t-161.5 44q-80 0 -145.5 -37
t-90.5 -114l-220 69q41 142 156 222.5t300 80.5q150 0 257.5 -49t158.5 -152q26 -52 33.5 -107.5zM793 509q-157 -25 -225.5 -37.5t-120.5 -30.5q-65 -24 -98 -58t-33 -84q0 -61 45.5 -99t128.5 -38q77 0 135.5 27.5t94.5 68.5t49 83q22 53 24 168z" />
    <glyph glyph-name="aogonek" unicode="&#x105;" horiz-adv-x="1152" 
d="M921.5 -76q-50.5 -44 -80.5 -88.5t-30 -77.5q0 -25 16.5 -42t41.5 -17q34 0 74 35l86 -113q-35 -47 -86 -73.5t-106 -26.5q-61 0 -110 30.5t-76.5 80.5t-27.5 107q0 83 54 167.5t144 151.5v87q-69 -91 -160 -133t-219 -42q-114 0 -195.5 43.5t-124 117.5t-42.5 165
q0 119 59.5 199t186.5 124q71 23 163.5 39.5t264.5 42.5l42 6q-7 94 -59.5 138t-161.5 44q-80 0 -145.5 -37t-90.5 -114l-220 69q41 142 156 222.5t300 80.5q150 0 257.5 -49t158.5 -152q26 -52 33.5 -107.5t7.5 -138.5v-663q-60 -32 -110.5 -76zM793 509
q-157 -25 -225.5 -37.5t-120.5 -30.5q-65 -24 -98 -58t-33 -84q0 -61 45.5 -99t128.5 -38q77 0 135.5 27.5t94.5 68.5t49 83q22 53 24 168z" />
    <glyph glyph-name="aring" unicode="&#xe5;" horiz-adv-x="1152" 
d="M460.5 1227q-59.5 35 -94.5 94t-35 128q0 70 35 129t94.5 93.5t128.5 34.5q70 0 129 -34.5t93.5 -93.5t34.5 -129q0 -69 -34.5 -128.5t-93.5 -94t-129 -34.5q-69 0 -128.5 35zM504.5 1534q-35.5 -35 -35.5 -85q0 -49 35.5 -84.5t84.5 -35.5q50 0 85 35.5t35 84.5
q0 50 -35 85t-85 35q-49 0 -84.5 -35zM1024.5 801.5q7.5 -55.5 7.5 -138.5v-663h-211v145q-69 -91 -160 -133t-219 -42q-114 0 -195.5 43.5t-124 117.5t-42.5 165q0 119 59.5 199t186.5 124q71 23 163.5 39.5t264.5 42.5l42 6q-7 94 -59.5 138t-161.5 44q-80 0 -145.5 -37
t-90.5 -114l-220 69q41 142 156 222.5t300 80.5q150 0 257.5 -49t158.5 -152q26 -52 33.5 -107.5zM793 509q-157 -25 -225.5 -37.5t-120.5 -30.5q-65 -24 -98 -58t-33 -84q0 -61 45.5 -99t128.5 -38q77 0 135.5 27.5t94.5 68.5t49 83q22 53 24 168z" />
    <glyph glyph-name="atilde" unicode="&#xe3;" horiz-adv-x="1152" 
d="M269 1267q-12 48 -12 92q0 89 47.5 142t137.5 53q47 0 88.5 -20.5t104.5 -61.5q42 -28 69 -42.5t50 -14.5t36 18.5t13 49.5q0 21 -6 45h152q12 -48 12 -92q0 -89 -48 -142.5t-138 -53.5q-46 0 -89 21t-102 60q-42 29 -69.5 43.5t-51.5 14.5q-23 0 -36 -18t-13 -48
q0 -18 7 -46h-152zM1024.5 801.5q7.5 -55.5 7.5 -138.5v-663h-211v145q-69 -91 -160 -133t-219 -42q-114 0 -195.5 43.5t-124 117.5t-42.5 165q0 119 59.5 199t186.5 124q71 23 163.5 39.5t264.5 42.5l42 6q-7 94 -59.5 138t-161.5 44q-80 0 -145.5 -37t-90.5 -114l-220 69
q41 142 156 222.5t300 80.5q150 0 257.5 -49t158.5 -152q26 -52 33.5 -107.5zM793 509q-157 -25 -225.5 -37.5t-120.5 -30.5q-65 -24 -98 -58t-33 -84q0 -61 45.5 -99t128.5 -38q77 0 135.5 27.5t94.5 68.5t49 83q22 53 24 168z" />
    <glyph glyph-name="ae" unicode="&#xe6;" horiz-adv-x="1872" 
d="M1130.5 269q67.5 -73 182.5 -73q80 0 142.5 39t95.5 115l225 -72q-37 -96 -106.5 -165.5t-158.5 -106t-185 -36.5q-142 0 -253 59.5t-178 166.5q-74 -118 -184.5 -172t-255.5 -54q-118 0 -202.5 40.5t-128.5 113t-44 166.5q0 134 81 208t185 101.5t236 42.5l212 21
q2 117 -57.5 171.5t-160.5 54.5q-84 0 -148 -37t-91 -111l-218 66q34 87 99 155.5t158 108t206 39.5q126 0 218.5 -39.5t149.5 -113.5q67 74 159.5 113.5t204.5 39.5q151 0 258.5 -71.5t163 -200.5t55.5 -299q0 -22 -2 -66h-740q14 -131 81.5 -204zM1138.5 836.5
q-62.5 -62.5 -82.5 -174.5h500q-14 118 -70.5 177.5t-172.5 59.5q-112 0 -174.5 -62.5zM649.5 203q72.5 42 105.5 102q39 69 41 189l-167 -16q-127 -12 -220 -48.5t-93 -131.5q0 -62 46.5 -99.5t127.5 -37.5q87 0 159.5 42z" />
    <glyph glyph-name="b" unicode="b" horiz-adv-x="1232" 
d="M914 1036.5q114 -73.5 176 -203t62 -293.5q0 -162 -61 -291.5t-173.5 -204t-258.5 -74.5q-187 0 -308 110v-80h-213v1440h243v-413q113 83 269 83q150 0 264 -73.5zM774.5 232q61.5 46 92 126t30.5 182q0 101 -31 181t-94.5 126.5t-157.5 46.5q-133 0 -198 -94.5
t-65 -259.5t66 -259.5t205 -94.5q91 0 152.5 46z" />
    <glyph glyph-name="c" unicode="c" horiz-adv-x="1151" 
d="M326.5 43.5q-119.5 73.5 -182.5 203t-64 293.5q0 165 65 294.5t185.5 202.5t281.5 73q122 0 221 -42t165.5 -119.5t91.5 -183.5l-240 -65q-27 86 -92.5 135t-148.5 49q-136 0 -204.5 -94t-69.5 -250q1 -159 71 -251.5t203 -92.5q94 0 150 42.5t85 128.5l246 -55
q-50 -165 -175 -253.5t-306 -88.5q-163 0 -282.5 73.5z" />
    <glyph glyph-name="cacute" unicode="&#x107;" horiz-adv-x="1151" 
d="M489 1230l76 240h238l-76 -240h-238zM326.5 43.5q-119.5 73.5 -182.5 203t-64 293.5q0 165 65 294.5t185.5 202.5t281.5 73q122 0 221 -42t165.5 -119.5t91.5 -183.5l-240 -65q-27 86 -92.5 135t-148.5 49q-136 0 -204.5 -94t-69.5 -250q1 -159 71 -251.5t203 -92.5
q94 0 150 42.5t85 128.5l246 -55q-50 -165 -175 -253.5t-306 -88.5q-163 0 -282.5 73.5z" />
    <glyph glyph-name="ccaron" unicode="&#x10d;" horiz-adv-x="1151" 
d="M271 1399l88 153l253 -138l254 138l87 -153l-341 -187zM326.5 43.5q-119.5 73.5 -182.5 203t-64 293.5q0 165 65 294.5t185.5 202.5t281.5 73q122 0 221 -42t165.5 -119.5t91.5 -183.5l-240 -65q-27 86 -92.5 135t-148.5 49q-136 0 -204.5 -94t-69.5 -250
q1 -159 71 -251.5t203 -92.5q94 0 150 42.5t85 128.5l246 -55q-50 -165 -175 -253.5t-306 -88.5q-163 0 -282.5 73.5z" />
    <glyph glyph-name="ccedilla" unicode="&#xe7;" horiz-adv-x="1151" 
d="M759 238.5q56 42.5 85 128.5l246 -55q-45 -147 -150 -234t-258 -104l-20 -58q59 -29 90.5 -75.5t31.5 -109.5q0 -61 -28.5 -110t-77 -76.5t-104.5 -27.5q-71 0 -138 36l53 143q42 -14 64 -14q28 0 45.5 16.5t17.5 37.5q0 24 -17 40.5t-43 26.5t-71 23l51 148
q-142 16 -244.5 92.5t-156.5 199t-55 274.5q0 165 65 294.5t185.5 202.5t281.5 73q122 0 221 -42t165.5 -119.5t91.5 -183.5l-240 -65q-27 86 -92.5 135t-148.5 49q-136 0 -204.5 -94t-69.5 -250q1 -159 71 -251.5t203 -92.5q94 0 150 42.5z" />
    <glyph glyph-name="ccircumflex" unicode="&#x109;" horiz-adv-x="1151" 
d="M278 1365l341 187l341 -187l-88 -153l-253 138l-253 -138zM326.5 43.5q-119.5 73.5 -182.5 203t-64 293.5q0 165 65 294.5t185.5 202.5t281.5 73q122 0 221 -42t165.5 -119.5t91.5 -183.5l-240 -65q-27 86 -92.5 135t-148.5 49q-136 0 -204.5 -94t-69.5 -250
q1 -159 71 -251.5t203 -92.5q94 0 150 42.5t85 128.5l246 -55q-50 -165 -175 -253.5t-306 -88.5q-163 0 -282.5 73.5z" />
    <glyph glyph-name="cdotaccent" unicode="&#x10b;" horiz-adv-x="1151" 
d="M517 1540h247v-247h-247v247zM326.5 43.5q-119.5 73.5 -182.5 203t-64 293.5q0 165 65 294.5t185.5 202.5t281.5 73q122 0 221 -42t165.5 -119.5t91.5 -183.5l-240 -65q-27 86 -92.5 135t-148.5 49q-136 0 -204.5 -94t-69.5 -250q1 -159 71 -251.5t203 -92.5
q94 0 150 42.5t85 128.5l246 -55q-50 -165 -175 -253.5t-306 -88.5q-163 0 -282.5 73.5z" />
    <glyph glyph-name="d" unicode="d" horiz-adv-x="1234" 
d="M1094 1440v-1440h-213v80q-121 -110 -308 -110q-146 0 -258.5 74.5t-173.5 204t-61 291.5q0 164 62 293.5t176 203t264 73.5q156 0 269 -83v413h243zM815 280.5q66 94.5 66 259.5t-65 259.5t-198 94.5q-94 0 -157.5 -46.5t-94.5 -126.5t-31 -181q0 -102 30.5 -182
t92 -126t152.5 -46q139 0 205 94.5z" />
    <glyph glyph-name="eth" unicode="&#xf0;" horiz-adv-x="1193" 
d="M1036 1085.5q40 -105.5 58.5 -245t18.5 -331.5q0 -163 -63 -285t-180 -188t-273 -66q-152 0 -269.5 67t-182.5 188t-65 277q0 157 65 278.5t182.5 188.5t269.5 67q75 1 142.5 -20t143.5 -69q-10 68 -48 131.5t-98 115.5l-103 -119l-134 118l81 94q-84 33 -169 39l36 185
q152 -4 272 -62l101 117l135 -119l-87 -101q33 -31 60 -69q67 -86 107 -191.5zM799 268.5q72 84.5 72 235.5q0 150 -72.5 234.5t-201.5 83.5q-133 1 -204 -82.5t-71 -235.5q0 -153 71.5 -236.5t203.5 -83.5q130 0 202 84.5z" />
    <glyph glyph-name="dcaron" unicode="&#x10f;" horiz-adv-x="1571" 
d="M1094 1440v-1440h-213v80q-121 -110 -308 -110q-146 0 -258.5 74.5t-173.5 204t-61 291.5q0 164 62 293.5t176 203t264 73.5q156 0 269 -83v413h243zM815 280.5q66 94.5 66 259.5t-65 259.5t-198 94.5q-94 0 -157.5 -46.5t-94.5 -126.5t-31 -181q0 -102 30.5 -182
t92 -126t152.5 -46q139 0 205 94.5zM1358 1064.5q29 32.5 29 90.5q0 10 -2 32h-128v257h247v-267q0 -119 -49.5 -184t-145.5 -65q-28 0 -52 4l14 104q58 -4 87 28.5z" />
    <glyph glyph-name="dcroat" unicode="&#x111;" horiz-adv-x="1234" 
d="M1222 1167h-128v-1167h-213v80q-121 -110 -308 -110q-146 0 -258.5 74.5t-173.5 204t-61 291.5q0 164 62 293.5t176 203t264 73.5q156 0 269 -83v140h-163v187h163v86h243v-86h128v-187zM815 280.5q66 94.5 66 259.5t-65 259.5t-198 94.5q-94 0 -157.5 -46.5
t-94.5 -126.5t-31 -181q0 -102 30.5 -182t92 -126t152.5 -46q139 0 205 94.5z" />
    <glyph glyph-name="e" unicode="e" horiz-adv-x="1204" 
d="M423.5 267.5q71.5 -71.5 193.5 -71.5q88 0 153 39.5t100 114.5l238 -72q-41 -96 -113.5 -165.5t-166 -106t-197.5 -36.5q-162 0 -287 71t-194.5 198t-69.5 289q0 175 67.5 306.5t189.5 203.5t280 72q156 0 270 -69t175 -196.5t61 -299.5q0 -34 -3 -72h-782
q14 -134 85.5 -205.5zM344 655h532q-16 126 -76.5 185t-172.5 59q-240 0 -283 -244z" />
    <glyph glyph-name="eacute" unicode="&#xe9;" horiz-adv-x="1204" 
d="M829 1470l-76 -240h-238l76 240h238zM423.5 267.5q71.5 -71.5 193.5 -71.5q88 0 153 39.5t100 114.5l238 -72q-41 -96 -113.5 -165.5t-166 -106t-197.5 -36.5q-162 0 -287 71t-194.5 198t-69.5 289q0 175 67.5 306.5t189.5 203.5t280 72q156 0 270 -69t175 -196.5
t61 -299.5q0 -34 -3 -72h-782q14 -134 85.5 -205.5zM344 655h532q-16 126 -76.5 185t-172.5 59q-240 0 -283 -244z" />
    <glyph glyph-name="ecaron" unicode="&#x11b;" horiz-adv-x="1204" 
d="M958 1399l-341 -187l-341 187l88 153l253 -138l254 138zM423.5 267.5q71.5 -71.5 193.5 -71.5q88 0 153 39.5t100 114.5l238 -72q-41 -96 -113.5 -165.5t-166 -106t-197.5 -36.5q-162 0 -287 71t-194.5 198t-69.5 289q0 175 67.5 306.5t189.5 203.5t280 72q156 0 270 -69
t175 -196.5t61 -299.5q0 -34 -3 -72h-782q14 -134 85.5 -205.5zM344 655h532q-16 126 -76.5 185t-172.5 59q-240 0 -283 -244z" />
    <glyph glyph-name="ecircumflex" unicode="&#xea;" horiz-adv-x="1204" 
d="M617 1350l-253 -138l-88 153l341 187l341 -187l-87 -153zM423.5 267.5q71.5 -71.5 193.5 -71.5q88 0 153 39.5t100 114.5l238 -72q-41 -96 -113.5 -165.5t-166 -106t-197.5 -36.5q-162 0 -287 71t-194.5 198t-69.5 289q0 175 67.5 306.5t189.5 203.5t280 72
q156 0 270 -69t175 -196.5t61 -299.5q0 -34 -3 -72h-782q14 -134 85.5 -205.5zM344 655h532q-16 126 -76.5 185t-172.5 59q-240 0 -283 -244z" />
    <glyph glyph-name="uni1EBF" unicode="&#x1ebf;" horiz-adv-x="1204" 
d="M1066 1680h238l-76 -240h-238zM626 1350l-253 -138l-88 153l341 187l341 -187l-87 -153zM887 1041q114 -69 175 -196.5t61 -299.5q0 -34 -3 -72h-782q14 -134 85.5 -205.5t193.5 -71.5q88 0 153 39.5t100 114.5l238 -72q-41 -96 -113.5 -165.5t-166 -106t-197.5 -36.5
q-162 0 -287 71t-194.5 198t-69.5 289q0 175 67.5 306.5t189.5 203.5t280 72q156 0 270 -69zM344 655h532q-16 126 -76.5 185t-172.5 59q-240 0 -283 -244z" />
    <glyph glyph-name="uni1EC7" unicode="&#x1ec7;" horiz-adv-x="1204" 
d="M617 1350l-253 -138l-88 153l341 187l341 -187l-87 -153zM423.5 267.5q71.5 -71.5 193.5 -71.5q88 0 153 39.5t100 114.5l238 -72q-41 -96 -113.5 -165.5t-166 -106t-197.5 -36.5q-162 0 -287 71t-194.5 198t-69.5 289q0 175 67.5 306.5t189.5 203.5t280 72
q156 0 270 -69t175 -196.5t61 -299.5q0 -34 -3 -72h-782q14 -134 85.5 -205.5zM344 655h532q-16 126 -76.5 185t-172.5 59q-240 0 -283 -244zM478 -388v221h247v-221h-247z" />
    <glyph glyph-name="uni1EC1" unicode="&#x1ec1;" horiz-adv-x="1204" 
d="M1198 1440h-238l-76 240h238zM601 1350l-253 -138l-88 153l341 187l341 -187l-87 -153zM887 1041q114 -69 175 -196.5t61 -299.5q0 -34 -3 -72h-782q14 -134 85.5 -205.5t193.5 -71.5q88 0 153 39.5t100 114.5l238 -72q-41 -96 -113.5 -165.5t-166 -106t-197.5 -36.5
q-162 0 -287 71t-194.5 198t-69.5 289q0 175 67.5 306.5t189.5 203.5t280 72q156 0 270 -69zM344 655h532q-16 126 -76.5 185t-172.5 59q-240 0 -283 -244z" />
    <glyph glyph-name="uni1EC3" unicode="&#x1ec3;" horiz-adv-x="1204" 
d="M1286 1478q0 -61 -31.5 -110t-82 -79.5t-105.5 -37.5l-43 99q47 14 78 43t31 67q0 22 -10 43q-22 46 -72 46q-24 0 -49.5 -9.5t-46.5 -25.5l-63 119q37 33 84.5 50.5t95.5 17.5q64 0 116.5 -32.5t78.5 -97.5q19 -48 19 -93zM621 1350l-254 -138l-87 153l341 187l341 -187
l-88 -153zM887 1041q114 -69 175 -196.5t61 -299.5q0 -34 -3 -72h-782q14 -134 85.5 -205.5t193.5 -71.5q88 0 153 39.5t100 114.5l238 -72q-41 -96 -113.5 -165.5t-166 -106t-197.5 -36.5q-162 0 -287 71t-194.5 198t-69.5 289q0 175 67.5 306.5t189.5 203.5t280 72
q156 0 270 -69zM344 655h532q-16 126 -76.5 185t-172.5 59q-240 0 -283 -244z" />
    <glyph glyph-name="uni1EC5" unicode="&#x1ec5;" horiz-adv-x="1204" 
d="M287 1600q-12 50 -12 93q0 89 47.5 142t137.5 53q47 0 88.5 -20.5t104.5 -61.5q41 -29 68.5 -43.5t50.5 -14.5t36 18.5t13 48.5q0 23 -7 47h152q12 -49 12 -93q0 -89 -47.5 -142.5t-137.5 -53.5q-47 0 -88.5 20.5t-104.5 61.5q-41 29 -68.5 43.5t-50.5 14.5t-36 -18
t-13 -48q0 -23 7 -47h-152zM278 1365l341 187l341 -187l-88 -153l-253 138l-254 -138zM423.5 267.5q71.5 -71.5 193.5 -71.5q88 0 153 39.5t100 114.5l238 -72q-41 -96 -113.5 -165.5t-166 -106t-197.5 -36.5q-162 0 -287 71t-194.5 198t-69.5 289q0 175 67.5 306.5
t189.5 203.5t280 72q156 0 270 -69t175 -196.5t61 -299.5q0 -34 -3 -72h-782q14 -134 85.5 -205.5zM344 655h532q-16 126 -76.5 185t-172.5 59q-240 0 -283 -244z" />
    <glyph glyph-name="edieresis" unicode="&#xeb;" horiz-adv-x="1204" 
d="M521 1467v-220h-220v220h220zM934 1467v-220h-220v220h220zM423.5 267.5q71.5 -71.5 193.5 -71.5q88 0 153 39.5t100 114.5l238 -72q-41 -96 -113.5 -165.5t-166 -106t-197.5 -36.5q-162 0 -287 71t-194.5 198t-69.5 289q0 175 67.5 306.5t189.5 203.5t280 72
q156 0 270 -69t175 -196.5t61 -299.5q0 -34 -3 -72h-782q14 -134 85.5 -205.5zM344 655h532q-16 126 -76.5 185t-172.5 59q-240 0 -283 -244z" />
    <glyph glyph-name="edotaccent" unicode="&#x117;" horiz-adv-x="1204" 
d="M742 1540v-247h-246v247h246zM423.5 267.5q71.5 -71.5 193.5 -71.5q88 0 153 39.5t100 114.5l238 -72q-41 -96 -113.5 -165.5t-166 -106t-197.5 -36.5q-162 0 -287 71t-194.5 198t-69.5 289q0 175 67.5 306.5t189.5 203.5t280 72q156 0 270 -69t175 -196.5t61 -299.5
q0 -34 -3 -72h-782q14 -134 85.5 -205.5zM344 655h532q-16 126 -76.5 185t-172.5 59q-240 0 -283 -244z" />
    <glyph glyph-name="uni1EB9" unicode="&#x1eb9;" horiz-adv-x="1204" 
d="M423.5 267.5q71.5 -71.5 193.5 -71.5q88 0 153 39.5t100 114.5l238 -72q-41 -96 -113.5 -165.5t-166 -106t-197.5 -36.5q-162 0 -287 71t-194.5 198t-69.5 289q0 175 67.5 306.5t189.5 203.5t280 72q156 0 270 -69t175 -196.5t61 -299.5q0 -34 -3 -72h-782
q14 -134 85.5 -205.5zM344 655h532q-16 126 -76.5 185t-172.5 59q-240 0 -283 -244zM513 -388v221h247v-221h-247z" />
    <glyph glyph-name="egrave" unicode="&#xe8;" horiz-adv-x="1204" 
d="M743 1230h-238l-76 240h238zM423.5 267.5q71.5 -71.5 193.5 -71.5q88 0 153 39.5t100 114.5l238 -72q-41 -96 -113.5 -165.5t-166 -106t-197.5 -36.5q-162 0 -287 71t-194.5 198t-69.5 289q0 175 67.5 306.5t189.5 203.5t280 72q156 0 270 -69t175 -196.5t61 -299.5
q0 -34 -3 -72h-782q14 -134 85.5 -205.5zM344 655h532q-16 126 -76.5 185t-172.5 59q-240 0 -283 -244z" />
    <glyph glyph-name="uni1EBB" unicode="&#x1ebb;" horiz-adv-x="1200" 
d="M592 1556q-46 0 -96 -36l-63 119q37 33 84.5 51t95.5 18q64 0 116 -33t79 -98q19 -48 19 -93q0 -60 -31.5 -109t-82 -79.5t-105.5 -37.5l-43 99q47 14 78 43t31 67q0 21 -10 42q-22 47 -72 47zM423.5 267.5q71.5 -71.5 193.5 -71.5q88 0 153 39.5t100 114.5l238 -72
q-41 -96 -113.5 -165.5t-166 -106t-197.5 -36.5q-162 0 -287 71t-194.5 198t-69.5 289q0 175 67.5 306.5t189.5 203.5t280 72q156 0 270 -69t175 -196.5t61 -299.5q0 -34 -3 -72h-782q14 -134 85.5 -205.5zM344 655h532q-16 126 -76.5 185t-172.5 59q-240 0 -283 -244z" />
    <glyph glyph-name="emacron" unicode="&#x113;" horiz-adv-x="1204" 
d="M904 1507v-187h-533v187h533zM423.5 267.5q71.5 -71.5 193.5 -71.5q88 0 153 39.5t100 114.5l238 -72q-41 -96 -113.5 -165.5t-166 -106t-197.5 -36.5q-162 0 -287 71t-194.5 198t-69.5 289q0 175 67.5 306.5t189.5 203.5t280 72q156 0 270 -69t175 -196.5t61 -299.5
q0 -34 -3 -72h-782q14 -134 85.5 -205.5zM344 655h532q-16 126 -76.5 185t-172.5 59q-240 0 -283 -244z" />
    <glyph glyph-name="eogonek" unicode="&#x119;" horiz-adv-x="1204" 
d="M423.5 267.5q71.5 -71.5 193.5 -71.5q88 0 153 39.5t100 114.5l238 -72q-21 -49 -50 -92q-22 -37 -41 -66t-33 -52q-64 -102 -73 -117q-55 -93 -74 -157q-5 -20 -5 -32q0 -27 14 -42q16 -17 42 -17q19 0 39.5 8.5t37.5 22.5l87 -113q-33 -53 -95 -82q-41 -18 -85 -18
q-50 0 -96.5 21.5t-77.5 60.5q-24 30 -37.5 70t-13.5 82q0 54 20 101q20 49 67 123q-50 -9 -103 -9q-162 0 -287 71t-194.5 198t-69.5 289q0 175 67.5 306.5t189.5 203.5t280 72q156 0 270 -69t175 -196.5t61 -299.5q0 -34 -3 -72h-782q14 -134 85.5 -205.5zM344 655h532
q-16 126 -76.5 185t-172.5 59q-240 0 -283 -244z" />
    <glyph glyph-name="uni1EBD" unicode="&#x1ebd;" horiz-adv-x="1204" 
d="M296 1267q-12 50 -12 93q0 89 47.5 141.5t137.5 52.5q47 0 88.5 -20.5t104.5 -61.5q42 -28 69 -42.5t50 -14.5t36 18t13 48q0 23 -7 47h152q12 -49 12 -93q0 -89 -47.5 -142t-137.5 -53q-47 0 -88.5 20.5t-104.5 61.5q-42 28 -69 42.5t-50 14.5t-36 -18t-13 -48
q0 -22 7 -46h-152zM423.5 267.5q71.5 -71.5 193.5 -71.5q88 0 153 39.5t100 114.5l238 -72q-41 -96 -113.5 -165.5t-166 -106t-197.5 -36.5q-162 0 -287 71t-194.5 198t-69.5 289q0 175 67.5 306.5t189.5 203.5t280 72q156 0 270 -69t175 -196.5t61 -299.5q0 -34 -3 -72
h-782q14 -134 85.5 -205.5zM344 655h532q-16 126 -76.5 185t-172.5 59q-240 0 -283 -244z" />
    <glyph glyph-name="uni0259" unicode="&#x259;" horiz-adv-x="1205" 
d="M860 1039q125 -71 194.5 -198t69.5 -289q0 -175 -67.5 -306.5t-189.5 -203.5t-280 -72q-156 0 -269.5 69t-174.5 197t-61 301q0 46 2 70h782q-14 134 -85.5 205.5t-193.5 71.5q-88 0 -153 -39.5t-100 -114.5l-238 72q41 96 113.5 165.5t166 106t198.5 36.5q161 0 286 -71
zM860 425h-531q16 -126 76 -185t172 -59q240 0 283 244z" />
    <glyph glyph-name="f" unicode="f" horiz-adv-x="756" 
d="M509.5 1240q-34.5 -34 -34.5 -91v-69h261v-189h-261v-891h-241v891h-174v189h174v17q0 61 3 103.5t18.5 90t49.5 84.5q53 60 118.5 77.5t146.5 17.5h31h135v-196h-125q-67 0 -101.5 -34z" />
    <glyph glyph-name="g" unicode="g" horiz-adv-x="1232" 
d="M1092 1080v-1132q0 -87 -15 -152q-36 -152 -164.5 -229t-318.5 -77q-136 0 -251 62.5t-178 172.5l222 110q29 -56 85 -86t123 -30q117 0 187.5 60.5t68.5 172.5v103q-115 -85 -278 -85q-146 0 -258.5 74.5t-173.5 204t-61 291.5q0 164 62 293.5t176 203t264 73.5
q180 0 299 -108v78h211zM815 280.5q66 94.5 66 259.5t-65 259.5t-198 94.5q-94 0 -157.5 -46.5t-94.5 -126.5t-31 -181q0 -102 30.5 -182t92 -126t152.5 -46q139 0 205 94.5z" />
    <glyph glyph-name="gbreve" unicode="&#x11f;" horiz-adv-x="1232" 
d="M523.5 1242.5q-69.5 40.5 -110 110t-40.5 152.5h188q0 -48 33.5 -81.5t81.5 -33.5t81.5 33.5t33.5 81.5h188q0 -83 -41 -152.5t-110.5 -110t-151.5 -40.5q-83 0 -152.5 40.5zM1092 1080v-1132q0 -87 -15 -152q-36 -152 -164.5 -229t-318.5 -77q-136 0 -251 62.5
t-178 172.5l222 110q29 -56 85 -86t123 -30q117 0 187.5 60.5t68.5 172.5v103q-115 -85 -278 -85q-146 0 -258.5 74.5t-173.5 204t-61 291.5q0 164 62 293.5t176 203t264 73.5q180 0 299 -108v78h211zM815 280.5q66 94.5 66 259.5t-65 259.5t-198 94.5q-94 0 -157.5 -46.5
t-94.5 -126.5t-31 -181q0 -102 30.5 -182t92 -126t152.5 -46q139 0 205 94.5z" />
    <glyph glyph-name="gcircumflex" unicode="&#x11d;" horiz-adv-x="1232" 
d="M624 1350l-254 -138l-87 153l341 187l341 -187l-88 -153zM1092 1080v-1132q0 -87 -15 -152q-36 -152 -164.5 -229t-318.5 -77q-136 0 -251 62.5t-178 172.5l222 110q29 -56 85 -86t123 -30q117 0 187.5 60.5t68.5 172.5v103q-115 -85 -278 -85q-146 0 -258.5 74.5
t-173.5 204t-61 291.5q0 164 62 293.5t176 203t264 73.5q180 0 299 -108v78h211zM815 280.5q66 94.5 66 259.5t-65 259.5t-198 94.5q-94 0 -157.5 -46.5t-94.5 -126.5t-31 -181q0 -102 30.5 -182t92 -126t152.5 -46q139 0 205 94.5z" />
    <glyph glyph-name="uni0123" unicode="&#x123;" horiz-adv-x="1232" 
d="M753 1293h-234v234q0 62 30 109.5t83.5 73.5t120.5 26v-105q-42 0 -86 -22t-43 -82h129v-234zM1092 1080v-1132q0 -87 -15 -152q-36 -152 -164.5 -229t-318.5 -77q-136 0 -251 62.5t-178 172.5l222 110q29 -56 85 -86t123 -30q117 0 187.5 60.5t68.5 172.5v103
q-115 -85 -278 -85q-146 0 -258.5 74.5t-173.5 204t-61 291.5q0 164 62 293.5t176 203t264 73.5q180 0 299 -108v78h211zM815 280.5q66 94.5 66 259.5t-65 259.5t-198 94.5q-94 0 -157.5 -46.5t-94.5 -126.5t-31 -181q0 -102 30.5 -182t92 -126t152.5 -46q139 0 205 94.5z
" />
    <glyph glyph-name="gdotaccent" unicode="&#x121;" horiz-adv-x="1232" 
d="M784 1540v-247h-246v247h246zM1092 1080v-1132q0 -87 -15 -152q-36 -152 -164.5 -229t-318.5 -77q-136 0 -251 62.5t-178 172.5l222 110q29 -56 85 -86t123 -30q117 0 187.5 60.5t68.5 172.5v103q-115 -85 -278 -85q-146 0 -258.5 74.5t-173.5 204t-61 291.5
q0 164 62 293.5t176 203t264 73.5q180 0 299 -108v78h211zM815 280.5q66 94.5 66 259.5t-65 259.5t-198 94.5q-94 0 -157.5 -46.5t-94.5 -126.5t-31 -181q0 -102 30.5 -182t92 -126t152.5 -46q139 0 205 94.5z" />
    <glyph glyph-name="h" unicode="h" 
d="M981 1019.5q94 -91.5 122 -203.5t28 -213v-603h-244v520q0 364 -252 364q-109 0 -181 -74.5t-72 -254.5v-555h-244v1440h215v-480q61 72 150 111.5t203 39.5q181 0 275 -91.5z" />
    <glyph glyph-name="hbar" unicode="&#x127;" 
d="M981 1019.5q94 -91.5 122 -203.5t28 -213v-603h-244v520q0 364 -252 364q-109 0 -181 -74.5t-72 -254.5v-555h-244v1167h-108v187h108v86h215v-86h210v-187h-210v-207q61 72 150 111.5t203 39.5q181 0 275 -91.5z" />
    <glyph glyph-name="hcircumflex" unicode="&#x125;" 
d="M499 1572l-253 138l-254 -138l-87 153l341 187l341 -187zM981 1019.5q94 -91.5 122 -203.5t28 -213v-603h-244v520q0 364 -252 364q-109 0 -181 -74.5t-72 -254.5v-555h-244v1440h215v-480q61 72 150 111.5t203 39.5q181 0 275 -91.5z" />
    <glyph glyph-name="i" unicode="i" horiz-adv-x="561" 
d="M160 1465h241v-221h-241v221zM160 1080h241v-1080h-241v1080z" />
    <glyph glyph-name="dotlessi" unicode="&#x131;" horiz-adv-x="561" 
d="M160 1080h241v-1080h-241v1080z" />
    <glyph glyph-name="iacute" unicode="&#xed;" horiz-adv-x="561" 
d="M160 1230l76 240h238l-76 -240h-238zM401 1080v-1080h-241v1080h241z" />
    <glyph glyph-name="icircumflex" unicode="&#xee;" horiz-adv-x="561" 
d="M-44 1365l341 187l341 -187l-88 -153l-253 138l-253 -138zM401 1080v-1080h-241v1080h241z" />
    <glyph glyph-name="idieresis" unicode="&#xef;" horiz-adv-x="561" 
d="M-36 1467h220v-220h-220v220zM377 1467h220v-220h-220v220zM401 1080v-1080h-241v1080h241z" />
    <glyph glyph-name="i.loclTRK" horiz-adv-x="561" 
d="M160 1465h241v-221h-241v221zM160 1080h241v-1080h-241v1080z" />
    <glyph glyph-name="uni1ECB" unicode="&#x1ecb;" horiz-adv-x="561" 
d="M401 1465v-221h-241v221h241zM401 1080v-1080h-241v1080h241zM157 -167h247v-221h-247v221z" />
    <glyph glyph-name="igrave" unicode="&#xec;" horiz-adv-x="561" 
d="M87 1470h238l76 -240h-238zM401 1080v-1080h-241v1080h241z" />
    <glyph glyph-name="uni1EC9" unicode="&#x1ec9;" horiz-adv-x="561" 
d="M149 1690q47 18 95 18q64 0 116.5 -33t79.5 -98q19 -48 19 -93q0 -60 -32 -109t-82.5 -79.5t-104.5 -37.5l-44 99q48 15 79 43.5t31 66.5q0 21 -10 42q-22 47 -72 47q-24 0 -49.5 -10t-47.5 -26l-62 119q37 33 84 51zM401 1080v-1080h-241v1080h241z" />
    <glyph glyph-name="imacron" unicode="&#x12b;" horiz-adv-x="561" 
d="M14 1507h533v-187h-533v187zM401 1080v-1080h-241v1080h241z" />
    <glyph glyph-name="iogonek" unicode="&#x12f;" horiz-adv-x="561" 
d="M160 1465h241v-221h-241v221zM160 1080h241v-1080q-60 -32 -111 -76t-81 -88.5t-30 -77.5q0 -25 16.5 -42t41.5 -17q34 0 74 35l87 -113q-36 -48 -87 -74t-106 -26q-61 0 -110 30.5t-76.5 80.5t-27.5 107q0 75 45.5 153t123.5 143v1045z" />
    <glyph glyph-name="itilde" unicode="&#x129;" horiz-adv-x="561" 
d="M358.5 1260.5q-41.5 20.5 -104.5 61.5q-42 28 -69 42.5t-50 14.5t-36 -18t-13 -48q0 -22 7 -46h-152q-12 50 -12 93q0 89 47.5 141.5t137.5 52.5q47 0 88.5 -20.5t104.5 -61.5q42 -28 69 -42.5t50 -14.5t36 18t13 48q0 23 -7 47h152q12 -49 12 -93q0 -89 -47.5 -142
t-137.5 -53q-47 0 -88.5 20.5zM401 1080v-1080h-241v1080h241z" />
    <glyph glyph-name="j" unicode="j" horiz-adv-x="577" 
d="M193 1465h240v-221h-240v221zM31 -254q86 0 124 40t38 122v1172h240v-1280q0 -131 -77 -205.5t-212 -74.5h-164v226h51z" />
    <glyph glyph-name="jcircumflex" unicode="&#x135;" horiz-adv-x="577" 
d="M-29 1365l341 187l341 -187l-88 -153l-253 138l-253 -138zM31 -254q86 0 124 40t38 122v1172h240v-1280q0 -131 -77 -205.5t-212 -74.5h-164v226h51z" />
    <glyph glyph-name="k" unicode="k" horiz-adv-x="1076" 
d="M140 1440h244v-880l395 520h301l-419 -540l455 -540h-319l-413 520v-520h-246z" />
    <glyph glyph-name="uni0137" unicode="&#x137;" horiz-adv-x="1076" 
d="M384 1440v-880l395 520h301l-419 -540l455 -540h-319l-413 520v-520h-246l2 1440h244zM533.5 -497q29.5 8 53 31.5t23.5 65.5h-129v233h234v-233q0 -62 -30 -110t-83.5 -74t-120.5 -26v105q23 0 52.5 8z" />
    <glyph glyph-name="l" unicode="l" horiz-adv-x="561" 
d="M160 1470h241v-1470h-241v1470z" />
    <glyph glyph-name="lacute" unicode="&#x13a;" horiz-adv-x="561" 
d="M160 1590l76 240h238l-76 -240h-238zM401 1470v-1470h-241v1470h241z" />
    <glyph glyph-name="lcaron" unicode="&#x13e;" horiz-adv-x="877" 
d="M160 1470h241v-1470h-241v1470zM663 1064.5q29 32.5 29 90.5q0 10 -2 32h-128v257h247v-267q0 -119 -49.5 -184t-145.5 -65q-28 0 -52 4l14 104q58 -4 87 28.5z" />
    <glyph glyph-name="uni013C" unicode="&#x13c;" horiz-adv-x="561" 
d="M401 1470v-1470h-241v1470h241zM249 -482.5q44 22.5 43 82.5h-128v233h233v-233q0 -62 -30 -110t-83 -74t-120 -26v105q41 0 85 22.5z" />
    <glyph glyph-name="lslash" unicode="&#x142;" horiz-adv-x="797" 
d="M742 1063v-262l-223 -128v-673h-241v535l-223 -128v261l223 128v674h241v-535z" />
    <glyph glyph-name="m" unicode="m" horiz-adv-x="1798" 
d="M1508.5 1058.5q83.5 -48.5 126.5 -136t43 -205.5v-717h-241v656q0 110 -55 173t-149 63q-58 0 -104.5 -27t-73 -78.5t-26.5 -121.5v-665h-240v653q0 112 -55 175.5t-150 63.5q-61 0 -107 -28.5t-71 -80t-25 -118.5v-665h-243v1080h213v-117q54 68 135.5 106t177.5 38
q111 0 191 -45.5t124 -126.5q50 81 137 126.5t192 45.5q117 0 200.5 -48.5z" />
    <glyph glyph-name="n" unicode="n" 
d="M981 1019.5q94 -91.5 122 -203.5t28 -213v-603h-244v520q0 364 -252 364q-109 0 -181 -74.5t-72 -254.5v-555h-244v1080h215v-120q61 72 150 111.5t203 39.5q181 0 275 -91.5z" />
    <glyph glyph-name="nacute" unicode="&#x144;" 
d="M827 1470l-76 -240h-238l76 240h238zM981 1019.5q94 -91.5 122 -203.5t28 -213v-603h-244v520q0 364 -252 364q-109 0 -181 -74.5t-72 -254.5v-555h-244v1080h215v-120q61 72 150 111.5t203 39.5q181 0 275 -91.5z" />
    <glyph glyph-name="ncaron" unicode="&#x148;" 
d="M968 1399l-341 -187l-341 187l87 153l254 -138l253 138zM981 1019.5q94 -91.5 122 -203.5t28 -213v-603h-244v520q0 364 -252 364q-109 0 -181 -74.5t-72 -254.5v-555h-244v1080h215v-120q61 72 150 111.5t203 39.5q181 0 275 -91.5z" />
    <glyph glyph-name="uni0146" unicode="&#x146;" 
d="M981 1019.5q94 -91.5 122 -203.5t28 -213v-603h-244v520q0 364 -252 364q-109 0 -181 -74.5t-72 -254.5v-555h-244v1080h215v-120q61 72 150 111.5t203 39.5q181 0 275 -91.5zM524 -167h233v-233q0 -62 -30 -110t-83 -74t-120 -26v105q23 0 52.5 8t53 31.5t23.5 65.5
h-129v233z" />
    <glyph glyph-name="eng" unicode="&#x14b;" 
d="M981 1019.5q94 -91.5 122 -203.5t28 -213v-781q0 -112 -50.5 -183t-141.5 -88q-42 -9 -93 -9q-61 0 -137 18v172q8 -1 24.5 -2t28.5 -1q56 0 90.5 29.5t34.5 113.5v648q0 364 -252 364q-109 0 -181 -74.5t-72 -254.5v-555h-244v1080h215v-120q61 72 150 111.5t203 39.5
q181 0 275 -91.5z" />
    <glyph glyph-name="ntilde" unicode="&#xf1;" 
d="M287 1267q-12 48 -12 92q0 89 47.5 142t137.5 53q47 0 91 -21.5t101 -60.5q46 -30 72 -43.5t49 -13.5q22 0 35.5 18.5t13.5 48.5q0 24 -7 46h152q12 -49 12 -93q0 -89 -47.5 -142t-137.5 -53q-47 0 -88.5 20.5t-104.5 61.5q-42 28 -69 42.5t-50 14.5t-36.5 -18.5
t-13.5 -48.5q0 -17 7 -45h-152zM981 1019.5q94 -91.5 122 -203.5t28 -213v-603h-244v520q0 364 -252 364q-109 0 -181 -74.5t-72 -254.5v-555h-244v1080h215v-120q61 72 150 111.5t203 39.5q181 0 275 -91.5z" />
    <glyph glyph-name="o" unicode="o" horiz-adv-x="1236" 
d="M335 42.5q-122 72.5 -188.5 202t-66.5 295.5q0 168 67.5 297.5t189.5 201t280 71.5q161 0 283 -72.5t189 -202t67 -295.5q0 -167 -67.5 -296.5t-190 -201.5t-281.5 -72q-160 0 -282 72.5zM828.5 289q72.5 93 72.5 251q0 160 -72.5 252t-211.5 92q-141 0 -211.5 -92.5
t-70.5 -251.5q0 -161 72.5 -252.5t209.5 -91.5q139 0 211.5 93z" />
    <glyph glyph-name="oacute" unicode="&#xf3;" horiz-adv-x="1236" 
d="M496 1230l76 240h238l-76 -240h-238zM335 42.5q-122 72.5 -188.5 202t-66.5 295.5q0 168 67.5 297.5t189.5 201t280 71.5q161 0 283 -72.5t189 -202t67 -295.5q0 -167 -67.5 -296.5t-190 -201.5t-281.5 -72q-160 0 -282 72.5zM828.5 289q72.5 93 72.5 251
q0 160 -72.5 252t-211.5 92q-141 0 -211.5 -92.5t-70.5 -251.5q0 -161 72.5 -252.5t209.5 -91.5q139 0 211.5 93z" />
    <glyph glyph-name="ocircumflex" unicode="&#xf4;" horiz-adv-x="1236" 
d="M278 1365l341 187l341 -187l-88 -153l-253 138l-253 -138zM335 42.5q-122 72.5 -188.5 202t-66.5 295.5q0 168 67.5 297.5t189.5 201t280 71.5q161 0 283 -72.5t189 -202t67 -295.5q0 -167 -67.5 -296.5t-190 -201.5t-281.5 -72q-160 0 -282 72.5zM828.5 289
q72.5 93 72.5 251q0 160 -72.5 252t-211.5 92q-141 0 -211.5 -92.5t-70.5 -251.5q0 -161 72.5 -252.5t209.5 -91.5q139 0 211.5 93z" />
    <glyph glyph-name="uni1ED1" unicode="&#x1ed1;" horiz-adv-x="1236" 
d="M996 1440l76 240h238l-76 -240h-238zM291 1365l341 187l341 -187l-87 -153l-254 138l-253 -138zM335 42.5q-122 72.5 -188.5 202t-66.5 295.5q0 168 67.5 297.5t189.5 201t280 71.5q161 0 283 -72.5t189 -202t67 -295.5q0 -167 -67.5 -296.5t-190 -201.5t-281.5 -72
q-160 0 -282 72.5zM828.5 289q72.5 93 72.5 251q0 160 -72.5 252t-211.5 92q-141 0 -211.5 -92.5t-70.5 -251.5q0 -161 72.5 -252.5t209.5 -91.5q139 0 211.5 93z" />
    <glyph glyph-name="uni1ED9" unicode="&#x1ed9;" horiz-adv-x="1236" 
d="M619 1552l341 -187l-88 -153l-253 138l-253 -138l-88 153zM335 42.5q-122 72.5 -188.5 202t-66.5 295.5q0 168 67.5 297.5t189.5 201t280 71.5q161 0 283 -72.5t189 -202t67 -295.5q0 -167 -67.5 -296.5t-190 -201.5t-281.5 -72q-160 0 -282 72.5zM828.5 289
q72.5 93 72.5 251q0 160 -72.5 252t-211.5 92q-141 0 -211.5 -92.5t-70.5 -251.5q0 -161 72.5 -252.5t209.5 -91.5q139 0 211.5 93zM514 -167h247v-221h-247v221z" />
    <glyph glyph-name="uni1ED3" unicode="&#x1ed3;" horiz-adv-x="1236" 
d="M917 1680h238l76 -240h-238zM294 1365l341 187l341 -187l-88 -153l-253 138l-254 -138zM335 42.5q-122 72.5 -188.5 202t-66.5 295.5q0 168 67.5 297.5t189.5 201t280 71.5q161 0 283 -72.5t189 -202t67 -295.5q0 -167 -67.5 -296.5t-190 -201.5t-281.5 -72
q-160 0 -282 72.5zM828.5 289q72.5 93 72.5 251q0 160 -72.5 252t-211.5 92q-141 0 -211.5 -92.5t-70.5 -251.5q0 -161 72.5 -252.5t209.5 -91.5q139 0 211.5 93z" />
    <glyph glyph-name="uni1ED5" unicode="&#x1ed5;" horiz-adv-x="1236" 
d="M974 1683.5q47 17.5 95 17.5q64 0 116.5 -32.5t79.5 -97.5q19 -48 19 -93q0 -61 -32 -110t-82.5 -79.5t-104.5 -37.5l-44 99q48 15 79 44t31 67q0 21 -10 42q-22 46 -72 46q-24 0 -49.5 -9.5t-47.5 -25.5l-62 119q37 33 84 50.5zM277 1365l341 187l341 -187l-88 -153
l-253 138l-253 -138zM335 42.5q-122 72.5 -188.5 202t-66.5 295.5q0 168 67.5 297.5t189.5 201t280 71.5q161 0 283 -72.5t189 -202t67 -295.5q0 -167 -67.5 -296.5t-190 -201.5t-281.5 -72q-160 0 -282 72.5zM828.5 289q72.5 93 72.5 251q0 160 -72.5 252t-211.5 92
q-141 0 -211.5 -92.5t-70.5 -251.5q0 -161 72.5 -252.5t209.5 -91.5q139 0 211.5 93z" />
    <glyph glyph-name="uni1ED7" unicode="&#x1ed7;" horiz-adv-x="1236" 
d="M731.5 1593.5q-41.5 20.5 -104.5 61.5q-41 29 -68.5 43.5t-50.5 14.5t-36 -18t-13 -48q0 -23 7 -47h-152q-12 50 -12 93q0 89 47.5 142t137.5 53q47 0 88.5 -20.5t104.5 -61.5q41 -29 68.5 -43.5t50.5 -14.5t36 18.5t13 48.5q0 23 -7 47h152q12 -49 12 -93
q0 -89 -47.5 -142.5t-137.5 -53.5q-47 0 -88.5 20.5zM305 1365l341 187l341 -187l-88 -153l-253 138l-253 -138zM335 42.5q-122 72.5 -188.5 202t-66.5 295.5q0 168 67.5 297.5t189.5 201t280 71.5q161 0 283 -72.5t189 -202t67 -295.5q0 -167 -67.5 -296.5t-190 -201.5
t-281.5 -72q-160 0 -282 72.5zM828.5 289q72.5 93 72.5 251q0 160 -72.5 252t-211.5 92q-141 0 -211.5 -92.5t-70.5 -251.5q0 -161 72.5 -252.5t209.5 -91.5q139 0 211.5 93z" />
    <glyph glyph-name="odieresis" unicode="&#xf6;" horiz-adv-x="1236" 
d="M302 1467h220v-220h-220v220zM716 1467h220v-220h-220v220zM335 42.5q-122 72.5 -188.5 202t-66.5 295.5q0 168 67.5 297.5t189.5 201t280 71.5q161 0 283 -72.5t189 -202t67 -295.5q0 -167 -67.5 -296.5t-190 -201.5t-281.5 -72q-160 0 -282 72.5zM828.5 289
q72.5 93 72.5 251q0 160 -72.5 252t-211.5 92q-141 0 -211.5 -92.5t-70.5 -251.5q0 -161 72.5 -252.5t209.5 -91.5q139 0 211.5 93z" />
    <glyph glyph-name="uni1ECD" unicode="&#x1ecd;" horiz-adv-x="1236" 
d="M335 42.5q-122 72.5 -188.5 202t-66.5 295.5q0 168 67.5 297.5t189.5 201t280 71.5q161 0 283 -72.5t189 -202t67 -295.5q0 -167 -67.5 -296.5t-190 -201.5t-281.5 -72q-160 0 -282 72.5zM828.5 289q72.5 93 72.5 251q0 160 -72.5 252t-211.5 92q-141 0 -211.5 -92.5
t-70.5 -251.5q0 -161 72.5 -252.5t209.5 -91.5q139 0 211.5 93zM495 -167h247v-221h-247v221z" />
    <glyph glyph-name="ograve" unicode="&#xf2;" horiz-adv-x="1236" 
d="M416 1470h238l76 -240h-238zM335 42.5q-122 72.5 -188.5 202t-66.5 295.5q0 168 67.5 297.5t189.5 201t280 71.5q161 0 283 -72.5t189 -202t67 -295.5q0 -167 -67.5 -296.5t-190 -201.5t-281.5 -72q-160 0 -282 72.5zM828.5 289q72.5 93 72.5 251q0 160 -72.5 252
t-211.5 92q-141 0 -211.5 -92.5t-70.5 -251.5q0 -161 72.5 -252.5t209.5 -91.5q139 0 211.5 93z" />
    <glyph glyph-name="uni1ECF" unicode="&#x1ecf;" horiz-adv-x="1236" 
d="M517.5 1690q47.5 18 95.5 18q64 0 116 -33t79 -98q19 -48 19 -93q0 -60 -31.5 -109t-82 -79.5t-105.5 -37.5l-43 99q47 14 78 43t31 67q0 21 -10 42q-22 47 -72 47q-46 0 -96 -36l-63 119q37 33 84.5 51zM335 42.5q-122 72.5 -188.5 202t-66.5 295.5q0 168 67.5 297.5
t189.5 201t280 71.5q161 0 283 -72.5t189 -202t67 -295.5q0 -167 -67.5 -296.5t-190 -201.5t-281.5 -72q-160 0 -282 72.5zM828.5 289q72.5 93 72.5 251q0 160 -72.5 252t-211.5 92q-141 0 -211.5 -92.5t-70.5 -251.5q0 -161 72.5 -252.5t209.5 -91.5q139 0 211.5 93z" />
    <glyph glyph-name="ohorn" unicode="&#x1a1;" horiz-adv-x="1236" 
d="M1003 957q74 -77 113.5 -183.5t39.5 -233.5q0 -167 -67.5 -296.5t-190 -201.5t-281.5 -72q-160 0 -282 72.5t-188.5 202t-66.5 295.5q0 168 67.5 297.5t189.5 201t280 71.5q83 0 152 -19q61 -14 87 -14q27 0 48 10q32 14 46 40t17 55t2 77l182 1q5 -34 5 -76
q0 -157 -106 -210q-24 -11 -47 -17zM828.5 289q72.5 93 72.5 251q0 160 -72.5 252t-211.5 92q-141 0 -211.5 -92.5t-70.5 -251.5q0 -161 72.5 -252.5t209.5 -91.5q139 0 211.5 93z" />
    <glyph glyph-name="uni1EDB" unicode="&#x1edb;" horiz-adv-x="1245" 
d="M810 1470l-76 -240h-238l76 240h238zM1003 957q74 -77 113.5 -183.5t39.5 -233.5q0 -167 -67.5 -296.5t-190 -201.5t-281.5 -72q-160 0 -282 72.5t-188.5 202t-66.5 295.5q0 168 67.5 297.5t189.5 201t280 71.5q83 0 152 -19q61 -14 87 -14q27 0 48 10q32 14 46 40t17 55
t2 77l182 1q5 -34 5 -76q0 -157 -106 -210q-24 -11 -47 -17zM828.5 289q72.5 93 72.5 251q0 160 -72.5 252t-211.5 92q-141 0 -211.5 -92.5t-70.5 -251.5q0 -161 72.5 -252.5t209.5 -91.5q139 0 211.5 93z" />
    <glyph glyph-name="uni1EE3" unicode="&#x1ee3;" horiz-adv-x="1236" 
d="M1003 957q74 -77 113.5 -183.5t39.5 -233.5q0 -167 -67.5 -296.5t-190 -201.5t-281.5 -72q-160 0 -282 72.5t-188.5 202t-66.5 295.5q0 168 67.5 297.5t189.5 201t280 71.5q83 0 152 -19q61 -14 87 -14q27 0 48 10q32 14 46 40t17 55t2 77l182 1q5 -34 5 -76
q0 -157 -106 -210q-24 -11 -47 -17zM828.5 289q72.5 93 72.5 251q0 160 -72.5 252t-211.5 92q-141 0 -211.5 -92.5t-70.5 -251.5q0 -161 72.5 -252.5t209.5 -91.5q139 0 211.5 93zM513 -388v221h247v-221h-247z" />
    <glyph glyph-name="uni1EDD" unicode="&#x1edd;" horiz-adv-x="1245" 
d="M730 1230h-238l-76 240h238zM1003 957q74 -77 113.5 -183.5t39.5 -233.5q0 -167 -67.5 -296.5t-190 -201.5t-281.5 -72q-160 0 -282 72.5t-188.5 202t-66.5 295.5q0 168 67.5 297.5t189.5 201t280 71.5q83 0 152 -19q61 -14 87 -14q27 0 48 10q32 14 46 40t17 55t2 77
l182 1q5 -34 5 -76q0 -157 -106 -210q-24 -11 -47 -17zM828.5 289q72.5 93 72.5 251q0 160 -72.5 252t-211.5 92q-141 0 -211.5 -92.5t-70.5 -251.5q0 -161 72.5 -252.5t209.5 -91.5q139 0 211.5 93z" />
    <glyph glyph-name="uni1EDF" unicode="&#x1edf;" horiz-adv-x="1236" 
d="M592 1556q-46 0 -96 -36l-63 119q37 33 84.5 51t95.5 18q64 0 116 -33t79 -98q19 -48 19 -93q0 -60 -31.5 -109t-82 -79.5t-105.5 -37.5l-43 99q47 14 78 43t31 67q0 21 -10 42q-22 47 -72 47zM1003 957q74 -77 113.5 -183.5t39.5 -233.5q0 -167 -67.5 -296.5
t-190 -201.5t-281.5 -72q-160 0 -282 72.5t-188.5 202t-66.5 295.5q0 168 67.5 297.5t189.5 201t280 71.5q83 0 152 -19q61 -14 87 -14q27 0 48 10q32 14 46 40t17 55t2 77l182 1q5 -34 5 -76q0 -157 -106 -210q-24 -11 -47 -17zM828.5 289q72.5 93 72.5 251
q0 160 -72.5 252t-211.5 92q-141 0 -211.5 -92.5t-70.5 -251.5q0 -161 72.5 -252.5t209.5 -91.5q139 0 211.5 93z" />
    <glyph glyph-name="uni1EE1" unicode="&#x1ee1;" horiz-adv-x="1236" 
d="M296 1267q-12 50 -12 93q0 89 47.5 141.5t137.5 52.5q47 0 88.5 -20.5t104.5 -61.5q42 -28 69 -42.5t50 -14.5t36 18t13 48q0 23 -7 47h152q12 -49 12 -93q0 -89 -47.5 -142t-137.5 -53q-47 0 -88.5 20.5t-104.5 61.5q-42 28 -69 42.5t-50 14.5t-36 -18t-13 -48
q0 -22 7 -46h-152zM1003 957q74 -77 113.5 -183.5t39.5 -233.5q0 -167 -67.5 -296.5t-190 -201.5t-281.5 -72q-160 0 -282 72.5t-188.5 202t-66.5 295.5q0 168 67.5 297.5t189.5 201t280 71.5q83 0 152 -19q61 -14 87 -14q27 0 48 10q32 14 46 40t17 55t2 77l182 1
q5 -34 5 -76q0 -157 -106 -210q-24 -11 -47 -17zM828.5 289q72.5 93 72.5 251q0 160 -72.5 252t-211.5 92q-141 0 -211.5 -92.5t-70.5 -251.5q0 -161 72.5 -252.5t209.5 -91.5q139 0 211.5 93z" />
    <glyph glyph-name="ohungarumlaut" unicode="&#x151;" horiz-adv-x="1236" 
d="M292 1232l76 240h238l-76 -240h-238zM704 1232l76 240h238l-76 -240h-238zM335 42.5q-122 72.5 -188.5 202t-66.5 295.5q0 168 67.5 297.5t189.5 201t280 71.5q161 0 283 -72.5t189 -202t67 -295.5q0 -167 -67.5 -296.5t-190 -201.5t-281.5 -72q-160 0 -282 72.5z
M828.5 289q72.5 93 72.5 251q0 160 -72.5 252t-211.5 92q-141 0 -211.5 -92.5t-70.5 -251.5q0 -161 72.5 -252.5t209.5 -91.5q139 0 211.5 93z" />
    <glyph glyph-name="omacron" unicode="&#x14d;" horiz-adv-x="1236" 
d="M352 1507h534v-187h-534v187zM335 42.5q-122 72.5 -188.5 202t-66.5 295.5q0 168 67.5 297.5t189.5 201t280 71.5q161 0 283 -72.5t189 -202t67 -295.5q0 -167 -67.5 -296.5t-190 -201.5t-281.5 -72q-160 0 -282 72.5zM828.5 289q72.5 93 72.5 251q0 160 -72.5 252
t-211.5 92q-141 0 -211.5 -92.5t-70.5 -251.5q0 -161 72.5 -252.5t209.5 -91.5q139 0 211.5 93z" />
    <glyph glyph-name="oslash" unicode="&#xf8;" horiz-adv-x="1236" 
d="M1084 845q72 -132 72 -305q0 -167 -67.5 -296.5t-190 -201.5t-281.5 -72q-181 0 -316 94l-89 -89l-160 160l100 100q-72 132 -72 305q0 168 67.5 297.5t189.5 201t280 71.5q92 0 172.5 -24.5t144.5 -70.5l90 90l160 -161zM405.5 791.5q-70.5 -92.5 -70.5 -251.5
q0 -75 17 -140l435 433q-68 51 -170 51q-141 0 -211.5 -92.5zM828.5 289q72.5 93 72.5 251q0 76 -17 139l-433 -433q67 -50 166 -50q139 0 211.5 93z" />
    <glyph glyph-name="otilde" unicode="&#xf5;" horiz-adv-x="1236" 
d="M697.5 1260.5q-41.5 20.5 -104.5 61.5q-42 28 -69 42.5t-50 14.5t-36.5 -18.5t-13.5 -48.5q0 -17 7 -45h-152q-12 48 -12 92q0 89 47.5 142t137.5 53q47 0 91 -21.5t101 -60.5q46 -30 72 -43.5t49 -13.5q22 0 35.5 18.5t13.5 48.5q0 24 -7 46h152q12 -49 12 -93
q0 -89 -47.5 -142t-137.5 -53q-47 0 -88.5 20.5zM335 42.5q-122 72.5 -188.5 202t-66.5 295.5q0 168 67.5 297.5t189.5 201t280 71.5q161 0 283 -72.5t189 -202t67 -295.5q0 -167 -67.5 -296.5t-190 -201.5t-281.5 -72q-160 0 -282 72.5zM828.5 289q72.5 93 72.5 251
q0 160 -72.5 252t-211.5 92q-141 0 -211.5 -92.5t-70.5 -251.5q0 -161 72.5 -252.5t209.5 -91.5q139 0 211.5 93z" />
    <glyph glyph-name="oe" unicode="&#x153;" horiz-adv-x="2026" 
d="M1245.5 267.5q71.5 -71.5 193.5 -71.5q88 0 153 39.5t100 114.5l238 -72q-41 -96 -113.5 -165.5t-166 -106t-198.5 -36.5q-132 0 -240 47.5t-183 135.5q-71 -87 -177 -135t-235 -48q-160 0 -282 72.5t-188.5 202t-66.5 295.5q0 168 67.5 297.5t189.5 201t280 71.5
q129 0 234.5 -47.5t177.5 -135.5q72 88 177 135.5t233 47.5q156 0 269.5 -69t174.5 -197t61 -301q0 -46 -2 -70h-782q14 -134 85.5 -205.5zM1166 655h531q-16 126 -76 185t-172 59q-240 0 -283 -244zM828.5 289q72.5 93 72.5 251q0 160 -72.5 252t-211.5 92
q-141 0 -211.5 -92.5t-70.5 -251.5q0 -161 72.5 -252.5t209.5 -91.5q139 0 211.5 93z" />
    <glyph glyph-name="p" unicode="p" horiz-adv-x="1232" 
d="M914 1036.5q114 -73.5 176 -203t62 -293.5q0 -162 -61 -291.5t-173.5 -204t-258.5 -74.5q-163 0 -278 85v-535h-243v1560h213v-78q119 108 299 108q150 0 264 -73.5zM774.5 232q61.5 46 92 126t30.5 182q0 101 -31 181t-94.5 126.5t-157.5 46.5q-133 0 -198 -94.5
t-65 -259.5t66 -259.5t205 -94.5q91 0 152.5 46z" />
    <glyph glyph-name="thorn" unicode="&#xfe;" horiz-adv-x="1232" 
d="M914 1036.5q114 -73.5 176 -203t62 -293.5q0 -162 -61 -291.5t-173.5 -204t-258.5 -74.5q-163 0 -278 85v-535h-243v1560h2v360h242v-412q112 82 268 82q150 0 264 -73.5zM774.5 232q61.5 46 92 126t30.5 182q0 101 -31 181t-94.5 126.5t-157.5 46.5q-133 0 -198 -94.5
t-65 -259.5t66 -259.5t205 -94.5q91 0 152.5 46z" />
    <glyph glyph-name="q" unicode="q" horiz-adv-x="1234" 
d="M1094 1080v-1560h-243v535q-115 -85 -278 -85q-146 0 -258.5 74.5t-173.5 204t-61 291.5q0 164 62 293.5t176 203t264 73.5q180 0 299 -108v78h213zM815 280.5q66 94.5 66 259.5t-65 259.5t-198 94.5q-94 0 -157.5 -46.5t-94.5 -126.5t-31 -181q0 -102 30.5 -182t92 -126
t152.5 -46q139 0 205 94.5z" />
    <glyph glyph-name="r" unicode="r" horiz-adv-x="798" 
d="M563 1069.5q57 15.5 117 15.5q31 0 68 -5v-225q-38 10 -78 10q-83 0 -145 -36q-72 -39 -107.5 -111t-35.5 -169v-549h-242v1080h213v-173q44 76 108 116q45 31 102 46.5z" />
    <glyph glyph-name="racute" unicode="&#x155;" horiz-adv-x="798" 
d="M574 1470l-76 -240h-238l76 240h238zM563 1069.5q57 15.5 117 15.5q31 0 68 -5v-225q-38 10 -78 10q-83 0 -145 -36q-72 -39 -107.5 -111t-35.5 -169v-549h-242v1080h213v-173q44 76 108 116q45 31 102 46.5z" />
    <glyph glyph-name="rcaron" unicode="&#x159;" horiz-adv-x="798" 
d="M786 1399l-341 -187l-341 187l88 153l253 -138l253 138zM563 1069.5q57 15.5 117 15.5q31 0 68 -5v-225q-38 10 -78 10q-83 0 -145 -36q-72 -39 -107.5 -111t-35.5 -169v-549h-242v1080h213v-173q44 76 108 116q45 31 102 46.5z" />
    <glyph glyph-name="uni0157" unicode="&#x157;" horiz-adv-x="798" 
d="M563 1069.5q57 15.5 117 15.5q31 0 68 -5v-225q-38 10 -78 10q-83 0 -145 -36q-72 -39 -107.5 -111t-35.5 -169v-549h-242v1080h213v-173q44 76 108 116q45 31 102 46.5zM145 -167h234v-233q0 -62 -30 -110t-83.5 -74t-120.5 -26v105q23 0 52.5 8t53 31.5t23.5 65.5h-129
v233z" />
    <glyph glyph-name="s" unicode="s" horiz-adv-x="1083" 
d="M232 60q-125 90 -152 253l246 38q18 -81 83.5 -126.5t164.5 -45.5q86 0 134 34.5t48 94.5q0 39 -18.5 60t-73.5 41.5t-183 54.5q-137 36 -216.5 77.5t-114.5 98t-35 138.5q0 100 52.5 175t149 116t223.5 41q125 0 223 -39t158.5 -111.5t73.5 -168.5l-246 -44
q-10 69 -63.5 109t-141.5 45q-85 4 -137 -26.5t-52 -84.5q0 -33 21.5 -54t82.5 -42.5t191 -54.5q131 -34 207.5 -76t111 -100.5t34.5 -143.5q0 -108 -53.5 -186.5t-154 -120.5t-238.5 -42q-200 0 -325 90z" />
    <glyph glyph-name="sacute" unicode="&#x15b;" horiz-adv-x="1083" 
d="M417 1230l76 240h238l-76 -240h-238zM232 60q-125 90 -152 253l246 38q18 -81 83.5 -126.5t164.5 -45.5q86 0 134 34.5t48 94.5q0 39 -18.5 60t-73.5 41.5t-183 54.5q-137 36 -216.5 77.5t-114.5 98t-35 138.5q0 100 52.5 175t149 116t223.5 41q125 0 223 -39
t158.5 -111.5t73.5 -168.5l-246 -44q-10 69 -63.5 109t-141.5 45q-85 4 -137 -26.5t-52 -84.5q0 -33 21.5 -54t82.5 -42.5t191 -54.5q131 -34 207.5 -76t111 -100.5t34.5 -143.5q0 -108 -53.5 -186.5t-154 -120.5t-238.5 -42q-200 0 -325 90z" />
    <glyph glyph-name="scaron" unicode="&#x161;" horiz-adv-x="1083" 
d="M217 1399l88 153l253 -138l254 138l87 -153l-341 -187zM232 60q-125 90 -152 253l246 38q18 -81 83.5 -126.5t164.5 -45.5q86 0 134 34.5t48 94.5q0 39 -18.5 60t-73.5 41.5t-183 54.5q-137 36 -216.5 77.5t-114.5 98t-35 138.5q0 100 52.5 175t149 116t223.5 41
q125 0 223 -39t158.5 -111.5t73.5 -168.5l-246 -44q-10 69 -63.5 109t-141.5 45q-85 4 -137 -26.5t-52 -84.5q0 -33 21.5 -54t82.5 -42.5t191 -54.5q131 -34 207.5 -76t111 -100.5t34.5 -143.5q0 -108 -53.5 -186.5t-154 -120.5t-238.5 -42q-200 0 -325 90z" />
    <glyph glyph-name="scedilla" unicode="&#x15f;" horiz-adv-x="1083" 
d="M905.5 81.5q-97.5 -90.5 -271.5 -107.5l-19 -58q121 -61 121 -185q0 -61 -28.5 -110t-76.5 -76.5t-104 -27.5q-71 0 -138 36l53 143q40 -14 64 -14q28 0 45 16.5t17 37.5q0 35 -31.5 53t-98.5 37l51 147q-172 15 -278 103t-131 237l246 38q18 -81 83.5 -126.5
t164.5 -45.5q86 0 134 34.5t48 94.5q0 39 -18.5 60t-73.5 41.5t-183 54.5q-137 36 -216.5 77.5t-114.5 98t-35 138.5q0 100 52.5 175t149 116t223.5 41q125 0 223 -39t158.5 -111.5t73.5 -168.5l-246 -44q-10 69 -63.5 109t-141.5 45q-85 4 -137 -26.5t-52 -84.5
q0 -33 21.5 -54t82.5 -42.5t191 -54.5q131 -34 207.5 -76t111 -100.5t34.5 -143.5q0 -147 -97.5 -237.5z" />
    <glyph glyph-name="scircumflex" unicode="&#x15d;" horiz-adv-x="1083" 
d="M221 1365l341 187l341 -187l-88 -153l-253 138l-254 -138zM232 60q-125 90 -152 253l246 38q18 -81 83.5 -126.5t164.5 -45.5q86 0 134 34.5t48 94.5q0 39 -18.5 60t-73.5 41.5t-183 54.5q-137 36 -216.5 77.5t-114.5 98t-35 138.5q0 100 52.5 175t149 116t223.5 41
q125 0 223 -39t158.5 -111.5t73.5 -168.5l-246 -44q-10 69 -63.5 109t-141.5 45q-85 4 -137 -26.5t-52 -84.5q0 -33 21.5 -54t82.5 -42.5t191 -54.5q131 -34 207.5 -76t111 -100.5t34.5 -143.5q0 -108 -53.5 -186.5t-154 -120.5t-238.5 -42q-200 0 -325 90z" />
    <glyph glyph-name="uni0219" unicode="&#x219;" horiz-adv-x="1083" 
d="M232 60q-125 90 -152 253l246 38q18 -81 83.5 -126.5t164.5 -45.5q86 0 134 34.5t48 94.5q0 39 -18.5 60t-73.5 41.5t-183 54.5q-137 36 -216.5 77.5t-114.5 98t-35 138.5q0 100 52.5 175t149 116t223.5 41q125 0 223 -39t158.5 -111.5t73.5 -168.5l-246 -44
q-10 69 -63.5 109t-141.5 45q-85 4 -137 -26.5t-52 -84.5q0 -33 21.5 -54t82.5 -42.5t191 -54.5q131 -34 207.5 -76t111 -100.5t34.5 -143.5q0 -108 -53.5 -186.5t-154 -120.5t-238.5 -42q-200 0 -325 90zM490.5 -497q29.5 8 53 31.5t23.5 65.5h-129v233h234v-233
q0 -62 -30 -110t-83.5 -74t-120.5 -26v105q23 0 52.5 8z" />
    <glyph glyph-name="germandbls" unicode="&#xdf;" horiz-adv-x="1268" 
d="M582.5 -23q-43.5 7 -79.5 23v236q73 -30 152 -30q117 0 184.5 56.5t67.5 164.5q0 115 -86.5 172.5t-235.5 58.5v211q96 7 149.5 56t53.5 135q0 57 -27.5 98.5t-74.5 63.5t-102 22q-128 0 -177 -99q-25 -49 -25 -150v-995h-244v1061q0 82 19 138q44 137 158.5 204
t267.5 67q125 0 227.5 -52.5t161.5 -145t59 -207.5q0 -85 -30.5 -154t-90.5 -115q69 -25 123 -78.5t84.5 -129t30.5 -164.5q0 -141 -53 -243t-156 -156.5t-250 -54.5q-63 0 -106.5 7z" />
    <glyph glyph-name="t" unicode="t" horiz-adv-x="866" 
d="M456 455v-57q0 -52 4 -84t18 -53q23 -38 64.5 -54t102.5 -16q56 0 128 11v-202q-98 -19 -183 -19q-116 0 -203 36.5t-130 115.5q-26 47 -34 97t-8 119l1 92v450h-196v189h196v300h240v-300h317v-189h-317v-436z" />
    <glyph glyph-name="tbar" unicode="&#x167;" horiz-adv-x="906" 
d="M456 455v-57q0 -52 4 -84t18 -53q23 -38 64.5 -54t102.5 -16q56 0 128 11v-202q-98 -19 -183 -19q-116 0 -203 36.5t-130 115.5q-26 47 -34 97t-8 119l1 92v22h-196v189h196v239h-196v189h196v300h240v-300h317v-189h-317v-239h350v-189h-350v-8z" />
    <glyph glyph-name="tcaron" unicode="&#x165;" horiz-adv-x="866" 
d="M456 455v-57q0 -52 4 -84t18 -53q23 -38 64.5 -54t102.5 -16q56 0 128 11v-202q-98 -19 -183 -19q-116 0 -203 36.5t-130 115.5q-26 47 -34 97t-8 119l1 92v450h-196v189h196v300h240v-300h317v-189h-317v-436zM781 1339.5q29 32.5 29 90.5q0 10 -2 32h-128v257h247v-267
q0 -119 -49.5 -184t-145.5 -65q-28 0 -52 4l14 104q58 -4 87 28.5z" />
    <glyph glyph-name="uni0163" unicode="&#x163;" horiz-adv-x="866" 
d="M456 455v-57q0 -52 4 -84t18 -53q23 -38 64.5 -54t102.5 -16q56 0 128 11v-202q-109 -21 -202 -18l-22 -66q121 -61 121 -185q0 -61 -28.5 -110t-76.5 -76.5t-104 -27.5q-71 0 -138 36l53 143q40 -14 64 -14q28 0 45 16.5t17 37.5q0 35 -31.5 53t-98.5 37l61 175
q-123 35 -176 132q-26 47 -34 97t-8 119l1 92v450h-196v189h196v300h240v-300h317v-189h-317v-436z" />
    <glyph glyph-name="uni021B" unicode="&#x21b;" horiz-adv-x="866" 
d="M456 455v-57q0 -52 4 -84t18 -53q23 -38 64.5 -54t102.5 -16q56 0 128 11v-202q-98 -19 -183 -19q-116 0 -203 36.5t-130 115.5q-26 47 -34 97t-8 119l1 92v450h-196v189h196v300h240v-300h317v-189h-317v-436zM363 -167h233v-233q0 -62 -30 -110t-83 -74t-120 -26v105
q41 0 85 22.5t43 82.5h-128v233z" />
    <glyph glyph-name="u" unicode="u" 
d="M1111 1080v-1080h-213v120q-61 -72 -150 -111.5t-203 -39.5q-181 0 -275 91.5t-122 203.5t-28 213v603h244v-520q0 -364 252 -364q109 0 181 74.5t72 254.5v555h242z" />
    <glyph glyph-name="uacute" unicode="&#xfa;" 
d="M795 1470l-76 -240h-238l76 240h238zM1111 1080v-1080h-213v120q-61 -72 -150 -111.5t-203 -39.5q-181 0 -275 91.5t-122 203.5t-28 213v603h244v-520q0 -364 252 -364q109 0 181 74.5t72 254.5v555h242z" />
    <glyph glyph-name="ubreve" unicode="&#x16d;" 
d="M463.5 1242.5q-69.5 40.5 -110 110t-40.5 152.5h188q0 -48 33.5 -81.5t81.5 -33.5t81.5 33.5t33.5 81.5h188q0 -83 -41 -152.5t-110.5 -110t-151.5 -40.5q-83 0 -152.5 40.5zM1111 1080v-1080h-213v120q-61 -72 -150 -111.5t-203 -39.5q-181 0 -275 91.5t-122 203.5
t-28 213v603h244v-520q0 -364 252 -364q109 0 181 74.5t72 254.5v555h242z" />
    <glyph glyph-name="ucircumflex" unicode="&#xfb;" 
d="M615 1350l-253 -138l-88 153l341 187l341 -187l-87 -153zM1111 1080v-1080h-213v120q-61 -72 -150 -111.5t-203 -39.5q-181 0 -275 91.5t-122 203.5t-28 213v603h244v-520q0 -364 252 -364q109 0 181 74.5t72 254.5v555h242z" />
    <glyph glyph-name="udieresis" unicode="&#xfc;" 
d="M519 1467v-220h-220v220h220zM932 1467v-220h-220v220h220zM1111 1080v-1080h-213v120q-61 -72 -150 -111.5t-203 -39.5q-181 0 -275 91.5t-122 203.5t-28 213v603h244v-520q0 -364 252 -364q109 0 181 74.5t72 254.5v555h242z" />
    <glyph glyph-name="uni1EE5" unicode="&#x1ee5;" 
d="M1111 1080v-1080h-213v120q-61 -72 -150 -111.5t-203 -39.5q-181 0 -275 91.5t-122 203.5t-28 213v603h244v-520q0 -364 252 -364q109 0 181 74.5t72 254.5v555h242zM503 -388v221h247v-221h-247z" />
    <glyph glyph-name="ugrave" unicode="&#xf9;" 
d="M742 1230h-238l-76 240h238zM1111 1080v-1080h-213v120q-61 -72 -150 -111.5t-203 -39.5q-181 0 -275 91.5t-122 203.5t-28 213v603h244v-520q0 -364 252 -364q109 0 181 74.5t72 254.5v555h242z" />
    <glyph glyph-name="uni1EE7" unicode="&#x1ee7;" 
d="M592 1556q-46 0 -96 -36l-63 119q37 33 84.5 51t95.5 18q64 0 116 -33t79 -98q19 -48 19 -93q0 -60 -31.5 -109t-82 -79.5t-105.5 -37.5l-43 99q47 14 78 43t31 67q0 21 -10 42q-22 47 -72 47zM1111 1080v-1080h-213v120q-61 -72 -150 -111.5t-203 -39.5
q-181 0 -275 91.5t-122 203.5t-28 213v603h244v-520q0 -364 252 -364q109 0 181 74.5t72 254.5v555h242z" />
    <glyph glyph-name="uhorn" unicode="&#x1b0;" 
d="M1309 1190q0 -150 -105 -212q-40 -23 -93 -31v-947h-213v120q-61 -72 -150 -111.5t-203 -39.5q-181 0 -275 91.5t-122 203.5t-28 213v603h244v-520q0 -364 252 -364q109 0 181 74.5t72 254.5v555h60q56 0 82 5q69 12 90.5 57t19.5 117l183 1q5 -42 5 -70z" />
    <glyph glyph-name="uni1EE9" unicode="&#x1ee9;" 
d="M795 1470l-76 -240h-238l76 240h238zM1309 1190q0 -150 -105 -212q-40 -23 -93 -31v-947h-213v120q-61 -72 -150 -111.5t-203 -39.5q-181 0 -275 91.5t-122 203.5t-28 213v603h244v-520q0 -364 252 -364q109 0 181 74.5t72 254.5v555h60q56 0 82 5q69 12 90.5 57
t19.5 117l183 1q5 -42 5 -70z" />
    <glyph glyph-name="uni1EF1" unicode="&#x1ef1;" 
d="M1309 1189q0 -149 -105 -211q-40 -23 -93 -31v-947h-213v120q-61 -72 -150 -111.5t-203 -39.5q-181 0 -275 91.5t-122 203.5t-28 213v603h244v-520q0 -364 252 -364q109 0 181 74.5t72 254.5v555h60q56 0 83 5q68 11 89.5 56t20.5 118l182 1q5 -42 5 -71zM513 -388v221
h247v-221h-247z" />
    <glyph glyph-name="uni1EEB" unicode="&#x1eeb;" 
d="M742 1230h-238l-76 240h238zM1309 1188q0 -150 -105 -212q-40 -23 -93 -31v-945h-213v120q-61 -72 -150 -111.5t-203 -39.5q-181 0 -275 91.5t-122 203.5t-28 213v603h244v-520q0 -364 252 -364q109 0 181 74.5t72 254.5v555h121l21 3q69 12 90.5 57.5t19.5 117.5h183
q5 -42 5 -70z" />
    <glyph glyph-name="uni1EED" unicode="&#x1eed;" 
d="M592 1556q-46 0 -96 -36l-63 119q37 33 84.5 51t95.5 18q64 0 116 -33t79 -98q19 -48 19 -93q0 -60 -31.5 -109t-82 -79.5t-105.5 -37.5l-43 99q47 14 78 43t31 67q0 21 -10 42q-22 47 -72 47zM1309 1190q0 -150 -105 -212q-40 -23 -93 -31v-947h-213v120
q-61 -72 -150 -111.5t-203 -39.5q-181 0 -275 91.5t-122 203.5t-28 213v603h244v-520q0 -364 252 -364q109 0 181 74.5t72 254.5v555h60q56 0 82 5q69 12 90.5 57t19.5 117l183 1q5 -42 5 -70z" />
    <glyph glyph-name="uni1EEF" unicode="&#x1eef;" 
d="M296 1267q-12 50 -12 93q0 89 47.5 141.5t137.5 52.5q47 0 88.5 -20.5t104.5 -61.5q42 -28 69 -42.5t50 -14.5t36 18t13 48q0 23 -7 47h152q12 -49 12 -93q0 -89 -47.5 -142t-137.5 -53q-47 0 -88.5 20.5t-104.5 61.5q-42 28 -69 42.5t-50 14.5t-36 -18t-13 -48
q0 -22 7 -46h-152zM1309 1190q0 -150 -105 -212q-40 -23 -93 -31v-947h-213v120q-61 -72 -150 -111.5t-203 -39.5q-181 0 -275 91.5t-122 203.5t-28 213v603h244v-520q0 -364 252 -364q109 0 181 74.5t72 254.5v555h60q56 0 82 5q69 12 90.5 57t19.5 117l183 1q5 -42 5 -70z
" />
    <glyph glyph-name="uhungarumlaut" unicode="&#x171;" 
d="M609 1472l-76 -240h-238l76 240h238zM1021 1472l-76 -240h-238l76 240h238zM1111 1080v-1080h-213v120q-61 -72 -150 -111.5t-203 -39.5q-181 0 -275 91.5t-122 203.5t-28 213v603h244v-520q0 -364 252 -364q109 0 181 74.5t72 254.5v555h242z" />
    <glyph glyph-name="umacron" unicode="&#x16b;" 
d="M882 1507v-187h-533v187h533zM1111 1080v-1080h-213v120q-61 -72 -150 -111.5t-203 -39.5q-181 0 -275 91.5t-122 203.5t-28 213v603h244v-520q0 -364 252 -364q109 0 181 74.5t72 254.5v555h242z" />
    <glyph glyph-name="uogonek" unicode="&#x173;" 
d="M1000 -76q-51 -44 -81 -88.5t-30 -77.5q0 -25 17 -42t41 -17q34 0 74 35l87 -113q-35 -47 -86 -73.5t-106 -26.5q-61 0 -110.5 30.5t-77 80.5t-27.5 107q0 82 53.5 166.5t143.5 150.5v64q-61 -72 -150 -111.5t-203 -39.5q-181 0 -275 91.5t-122 203.5t-28 213v603h244
v-520q0 -364 252 -364q109 0 181 74.5t72 254.5v555h242v-1080q-60 -32 -111 -76z" />
    <glyph glyph-name="uring" unicode="&#x16f;" 
d="M487.5 1227q-59.5 35 -94.5 94t-35 128q0 70 35 129t94.5 93.5t128.5 34.5q70 0 129 -34.5t93.5 -93.5t34.5 -129q0 -69 -34.5 -128.5t-93.5 -94t-129 -34.5q-69 0 -128.5 35zM531.5 1534q-35.5 -35 -35.5 -85q0 -49 35.5 -84.5t84.5 -35.5q50 0 85 35.5t35 84.5
q0 50 -35 85t-85 35q-49 0 -84.5 -35zM1111 1080v-1080h-213v120q-61 -72 -150 -111.5t-203 -39.5q-181 0 -275 91.5t-122 203.5t-28 213v603h244v-520q0 -364 252 -364q109 0 181 74.5t72 254.5v555h242z" />
    <glyph glyph-name="utilde" unicode="&#x169;" 
d="M296 1267q-12 48 -12 92q0 89 47.5 142t137.5 53q47 0 91 -21.5t101 -60.5q46 -30 72 -43.5t49 -13.5q22 0 35.5 18.5t13.5 48.5q0 24 -7 46h152q12 -49 12 -93q0 -89 -47.5 -142t-137.5 -53q-47 0 -88.5 20.5t-104.5 61.5q-42 28 -69 42.5t-50 14.5t-36.5 -18.5
t-13.5 -48.5q0 -17 7 -45h-152zM1111 1080v-1080h-213v120q-61 -72 -150 -111.5t-203 -39.5q-181 0 -275 91.5t-122 203.5t-28 213v603h244v-520q0 -364 252 -364q109 0 181 74.5t72 254.5v555h242z" />
    <glyph glyph-name="v" unicode="v" horiz-adv-x="1106" 
d="M40 1080h241l272 -783l271 783h242l-392 -1080h-242z" />
    <glyph glyph-name="w" unicode="w" horiz-adv-x="1605" 
d="M40 1082l236 -2l211 -693l214 693h203l213 -693l212 693h236l-330 -1080h-188l-245 743l-244 -743h-188z" />
    <glyph glyph-name="wacute" unicode="&#x1e83;" horiz-adv-x="1605" 
d="M690 1230l76 240h238l-76 -240h-238zM276 1080l211 -693l214 693h203l213 -693l212 693h236l-330 -1080h-188l-245 743l-244 -743h-188l-330 1082z" />
    <glyph glyph-name="wcircumflex" unicode="&#x175;" horiz-adv-x="1605" 
d="M461 1365l341 187l341 -187l-87 -153l-254 138l-253 -138zM276 1080l211 -693l214 693h203l213 -693l212 693h236l-330 -1080h-188l-245 743l-244 -743h-188l-330 1082z" />
    <glyph glyph-name="wdieresis" unicode="&#x1e85;" horiz-adv-x="1605" 
d="M486 1467h220v-220h-220v220zM899 1467h220v-220h-220v220zM276 1080l211 -693l214 693h203l213 -693l212 693h236l-330 -1080h-188l-245 743l-244 -743h-188l-330 1082z" />
    <glyph glyph-name="wgrave" unicode="&#x1e81;" horiz-adv-x="1605" 
d="M600 1470h238l76 -240h-238zM276 1080l211 -693l214 693h203l213 -693l212 693h236l-330 -1080h-188l-245 743l-244 -743h-188l-330 1082z" />
    <glyph glyph-name="x" unicode="x" horiz-adv-x="1108" 
d="M415 546l-387 534h284l243 -345l239 345h284l-387 -534l397 -546h-284l-249 357l-251 -357h-284z" />
    <glyph glyph-name="y" unicode="y" horiz-adv-x="1119" 
d="M869 1080h241l-602 -1560h-226l178 488l-437 1072h251l302 -773z" />
    <glyph glyph-name="yacute" unicode="&#xfd;" horiz-adv-x="1119" 
d="M762 1470l-76 -240h-238l76 240h238zM869 1080h241l-602 -1560h-226l178 488l-437 1072h251l302 -773z" />
    <glyph glyph-name="ycircumflex" unicode="&#x177;" horiz-adv-x="1119" 
d="M575 1350l-253 -138l-88 153l341 187l341 -187l-87 -153zM869 1080h241l-602 -1560h-226l178 488l-437 1072h251l302 -773z" />
    <glyph glyph-name="ydieresis" unicode="&#xff;" horiz-adv-x="1119" 
d="M476 1467v-220h-220v220h220zM889 1467v-220h-220v220h220zM869 1080h241l-602 -1560h-226l178 488l-437 1072h251l302 -773z" />
    <glyph glyph-name="uni1EF5" unicode="&#x1ef5;" horiz-adv-x="1119" 
d="M869 1080h241l-602 -1560h-226l178 488l-437 1072h251l302 -773zM779 -388v221h246v-221h-246z" />
    <glyph glyph-name="ygrave" unicode="&#x1ef3;" horiz-adv-x="1119" 
d="M701 1230h-239l-75 240h238zM869 1080h241l-602 -1560h-226l178 488l-437 1072h251l302 -773z" />
    <glyph glyph-name="uni1EF7" unicode="&#x1ef7;" horiz-adv-x="1119" 
d="M532 1556q-46 0 -96 -36l-63 119q37 33 84.5 51t95.5 18q64 0 116 -33t79 -98q19 -48 19 -93q0 -60 -31.5 -109t-82 -79.5t-105.5 -37.5l-43 99q47 14 78 43t31 67q0 21 -10 42q-22 47 -72 47zM869 1080h241l-602 -1560h-226l178 488l-437 1072h251l302 -773z" />
    <glyph glyph-name="uni1EF9" unicode="&#x1ef9;" horiz-adv-x="1119" 
d="M230 1267q-12 48 -12 92q0 89 47.5 142t137.5 53q47 0 91 -21.5t101 -60.5q46 -30 72 -43.5t49 -13.5q22 0 35.5 18.5t13.5 48.5q0 24 -7 46h152q12 -49 12 -93q0 -89 -47.5 -142t-137.5 -53q-47 0 -88.5 20.5t-104.5 61.5q-42 28 -69 42.5t-50 14.5t-36.5 -18.5
t-13.5 -48.5q0 -17 7 -45h-152zM869 1080h241l-602 -1560h-226l178 488l-437 1072h251l302 -773z" />
    <glyph glyph-name="z" unicode="z" horiz-adv-x="1067" 
d="M40 33l572 836h-514v211h889v-34l-570 -835h546v-211h-923v33z" />
    <glyph glyph-name="zacute" unicode="&#x17a;" horiz-adv-x="1067" 
d="M425 1230l76 240h238l-76 -240h-238zM612 869h-514v211h889v-34l-570 -835h546v-211h-923v33z" />
    <glyph glyph-name="zcaron" unicode="&#x17e;" horiz-adv-x="1067" 
d="M213 1399l87 153l254 -138l253 138l88 -153l-341 -187zM612 869h-514v211h889v-34l-570 -835h546v-211h-923v33z" />
    <glyph glyph-name="zdotaccent" unicode="&#x17c;" horiz-adv-x="1067" 
d="M432 1540h247v-247h-247v247zM612 869h-514v211h889v-34l-570 -835h546v-211h-923v33z" />
    <glyph glyph-name="ordfeminine" unicode="&#xaa;" horiz-adv-x="1152" 
d="M1024.5 801.5q7.5 -55.5 7.5 -138.5v-663h-211v145q-69 -91 -160 -133t-219 -42q-114 0 -195.5 43.5t-124 117.5t-42.5 165q0 119 59.5 199t186.5 124q71 23 163.5 39.5t264.5 42.5l42 6q-7 94 -59.5 138t-161.5 44q-80 0 -145.5 -37t-90.5 -114l-220 69
q41 142 156 222.5t300 80.5q150 0 257.5 -49t158.5 -152q26 -52 33.5 -107.5zM793 509q-157 -25 -225.5 -37.5t-120.5 -30.5q-65 -24 -98 -58t-33 -84q0 -61 45.5 -99t128.5 -38q77 0 135.5 27.5t94.5 68.5t49 83q22 53 24 168z" />
    <glyph glyph-name="ordmasculine" unicode="&#xba;" horiz-adv-x="1236" 
d="M335 42.5q-122 72.5 -188.5 202t-66.5 295.5q0 168 67.5 297.5t189.5 201t280 71.5q161 0 283 -72.5t189 -202t67 -295.5q0 -167 -67.5 -296.5t-190 -201.5t-281.5 -72q-160 0 -282 72.5zM828.5 289q72.5 93 72.5 251q0 160 -72.5 252t-211.5 92q-141 0 -211.5 -92.5
t-70.5 -251.5q0 -161 72.5 -252.5t209.5 -91.5q139 0 211.5 93z" />
    <glyph glyph-name="uni0410" unicode="&#x410;" horiz-adv-x="1341" 
d="M1053 0l-99 312h-568l-98 -312h-248l454 1440h353l454 -1440h-248zM457 537h425l-214 670z" />
    <glyph glyph-name="uni0411" unicode="&#x411;" horiz-adv-x="1277" 
d="M1103 1440v-226h-722v-310h354q59 0 115 -6q117 -13 200 -75t125 -158.5t42 -212.5t-42 -212.5t-124.5 -158.5t-200.5 -75q-55 -6 -115 -6h-595v1440h963zM816 234q83 17 120.5 78t37.5 140t-37.5 140t-120.5 78q-37 8 -91 8h-344v-452h344q54 0 91 8z" />
    <glyph glyph-name="uni0412" unicode="&#x412;" horiz-adv-x="1262" 
d="M1147 627.5q55 -88.5 55 -199.5q0 -129 -49.5 -225.5t-147 -149.5t-236.5 -53h-629v1440h571q138 0 234 -56.5t143 -147t47 -192.5q0 -97 -38 -170.5t-106 -114.5q101 -43 156 -131.5zM384 865h324q80 0 131 46t51 129q0 77 -49 126t-133 49h-324v-350zM852 252.5
q50 25.5 78.5 72.5t28.5 110q0 58 -25.5 105t-73.5 73.5t-114 26.5h-362v-413h355q63 0 113 25.5z" />
    <glyph glyph-name="uni0413" unicode="&#x413;" horiz-adv-x="1090" 
d="M140 1440h930v-226h-689v-1214h-241v1440z" />
    <glyph glyph-name="uni0403" unicode="&#x403;" horiz-adv-x="1090" 
d="M382 1590l76 240h238l-76 -240h-238zM1070 1440v-226h-689v-1214h-241v1440h930z" />
    <glyph glyph-name="uni0490" unicode="&#x490;" horiz-adv-x="1110" 
d="M140 1440h709v227h241v-453h-709v-1214h-241v1440z" />
    <glyph glyph-name="uni0414" unicode="&#x414;" horiz-adv-x="1504" 
d="M205.5 284q53.5 58 80 156t39.5 238q18 208 39 548l13 216l939 -2v-1214h108v-466h-240v240h-880v-240h-241v466q89 0 142.5 58zM1075 1214l-478 2l-9 -150q-6 -104 -13 -213.5t-18 -218.5q-12 -123 -23 -188.5t-32.5 -117.5t-63.5 -102h637v988z" />
    <glyph glyph-name="uni0415" unicode="&#x415;" horiz-adv-x="1170" 
d="M140 1440h930v-226h-689v-355h569v-226h-569v-407h689v-226h-930v1440z" />
    <glyph glyph-name="uni0400" unicode="&#x400;" horiz-adv-x="1170" 
d="M436 1830h238l76 -240h-239zM1070 1440v-226h-689v-355h569v-226h-569v-407h689v-226h-930v1440h930z" />
    <glyph glyph-name="uni0401" unicode="&#x401;" horiz-adv-x="1170" 
d="M282 1827h220v-220h-220v220zM695 1827h220v-220h-220v220zM1070 1440v-226h-689v-355h569v-226h-569v-407h689v-226h-930v1440h930z" />
    <glyph glyph-name="uni0416" unicode="&#x416;" horiz-adv-x="1831" 
d="M562 734l-500 706h288l445 -651v651h241v-651l445 651h288l-500 -706l542 -734h-297l-478 655v-655h-241v655l-477 -655h-298z" />
    <glyph glyph-name="uni0417" unicode="&#x417;" horiz-adv-x="1299" 
d="M391.5 13q-114.5 43 -192.5 112t-122 153l206 140q42 -95 133.5 -158t243.5 -63q103 0 172 30.5t102 82.5t33 116q0 105 -81 147.5t-216 46.5q-140 4 -161 4v228q103 0 139 2q119 5 190 54.5t71 140.5q0 59 -31 103t-87.5 68t-131.5 24q-101 0 -182.5 -45t-125.5 -113
l-169 172q77 94 203.5 153t280.5 59q132 0 245.5 -45t183 -138.5t69.5 -229.5q0 -99 -37.5 -182.5t-104.5 -136.5q97 -40 148.5 -118t51.5 -195q0 -137 -75 -240t-205.5 -159t-291.5 -56q-144 0 -258.5 43z" />
    <glyph glyph-name="uni0418" unicode="&#x418;" horiz-adv-x="1436" 
d="M1296 0h-244v1015l-668 -1015h-244v1440h244v-1015l668 1015h244v-1440z" />
    <glyph glyph-name="uni0419" unicode="&#x419;" horiz-adv-x="1436" 
d="M564.5 1602.5q-69.5 40.5 -110 110t-40.5 152.5h188q0 -48 33.5 -81.5t81.5 -33.5t81.5 33.5t33.5 81.5h188q0 -83 -40.5 -152.5t-110 -110t-152.5 -40.5t-152.5 40.5zM140 1440h244v-1015l668 1015h244v-1440h-244v1015l-668 -1015h-244v1440z" />
    <glyph glyph-name="uni040D" unicode="&#x40d;" horiz-adv-x="1436" 
d="M550 1830h238l76 -240h-238zM140 1440h244v-1015l668 1015h244v-1440h-244v1015l-668 -1015h-244v1440z" />
    <glyph glyph-name="uni041A" unicode="&#x41a;" horiz-adv-x="1294" 
d="M140 1440h241v-668l575 668h296l-619 -706l661 -734h-306l-607 672v-672h-241v1440z" />
    <glyph glyph-name="uni040C" unicode="&#x40c;" horiz-adv-x="1294" 
d="M534 1590l76 240h238l-76 -240h-238zM140 1440h241v-668l575 668h296l-619 -706l661 -734h-306l-607 672v-672h-241v1440z" />
    <glyph glyph-name="uni041B" unicode="&#x41b;" horiz-adv-x="1445" 
d="M64 201q55 0 88 24.5t55 83.5t42 171q65 353 92 960h964v-1440h-241v1214h-500q-15 -225 -34.5 -426.5t-57.5 -399.5q-25 -134 -59 -219.5t-96 -133.5t-162 -48q-53 0 -115 13v202q9 -1 24 -1z" />
    <glyph glyph-name="uni041C" unicode="&#x41c;" horiz-adv-x="1710" 
d="M140 1440h217l498 -1020l498 1020h217v-1440h-225v923l-442 -923h-96l-441 923v-923h-226v1440z" />
    <glyph glyph-name="uni041D" unicode="&#x41d;" horiz-adv-x="1443" 
d="M140 1440h241v-606h682v606h240v-1440h-240v608h-682v-608h-241v1440z" />
    <glyph glyph-name="uni041E" unicode="&#x41e;" horiz-adv-x="1499" 
d="M381.5 63.5q-155.5 93.5 -238.5 263.5t-83 393t83 393t238.5 263.5t367.5 93.5q213 0 368.5 -93.5t238.5 -263.5t83 -393t-83 -393t-238.5 -263.5t-368.5 -93.5q-212 0 -367.5 93.5zM988.5 260q97.5 64 146.5 182t49 278q0 159 -49 276t-146.5 181t-239.5 66
q-142 1 -239 -63t-145.5 -182t-49.5 -278q-1 -159 48 -276t146.5 -181t239.5 -66q142 -1 239.5 63z" />
    <glyph glyph-name="uni041F" unicode="&#x41f;" horiz-adv-x="1447" 
d="M140 1440h1167v-1440h-241v1214h-685v-1214h-241v1440z" />
    <glyph glyph-name="uni0420" unicode="&#x420;" horiz-adv-x="1277" 
d="M735 1440q66 0 115 -8q182 -28 274.5 -151.5t92.5 -309.5q0 -121 -40.5 -218t-123 -160t-203.5 -82q-49 -8 -115 -8h-354v-503h-241v1440h595zM816 738q83 21 120.5 87t37.5 146t-37.5 146.5t-120.5 87.5q-36 9 -91 9h-344v-486h344q56 0 91 10z" />
    <glyph glyph-name="uni0421" unicode="&#x421;" horiz-adv-x="1477" 
d="M381.5 63.5q-155.5 93.5 -238.5 263.5t-83 393t83 393t238.5 263.5t367.5 93.5q163 0 293.5 -55.5t220 -159t134.5 -245.5l-243 -67q-43 144 -145 222t-260 78q-142 0 -239.5 -64.5t-146.5 -182t-50 -276.5q0 -159 49 -276.5t147 -182t240 -64.5q158 0 260 78t145 222
l243 -67q-45 -142 -134.5 -245.5t-220 -159t-293.5 -55.5q-212 0 -367.5 93.5z" />
    <glyph glyph-name="uni0422" unicode="&#x422;" horiz-adv-x="1213" 
d="M486 1214h-466v226h1173v-226h-466v-1214h-241v1214z" />
    <glyph glyph-name="uni0423" unicode="&#x423;" horiz-adv-x="1273" 
d="M520 388l-497 1052h272l351 -798l362 798h257l-678 -1440h-257z" />
    <glyph glyph-name="uni040E" unicode="&#x40e;" horiz-adv-x="1273" 
d="M506.5 1602.5q-69.5 40.5 -110.5 110t-41 152.5h188q0 -48 34 -81.5t81 -33.5q48 0 81.5 33.5t33.5 81.5h188q0 -83 -40.5 -152.5t-110 -110t-152.5 -40.5q-82 0 -151.5 40.5zM23 1440h272l351 -798l362 798h257l-678 -1440h-257l190 388z" />
    <glyph glyph-name="uni0424" unicode="&#x424;" horiz-adv-x="1477" 
d="M531 198q-131 0 -238.5 66t-170 193.5t-62.5 303.5q0 177 63 306t171 197t239 68q44 0 85 -7v115h239v-115q41 7 85 7q132 0 240 -68t171.5 -197t63.5 -306q0 -176 -63 -303.5t-170.5 -193.5t-239.5 -66q-45 0 -87 7v-205h-239v205q-42 -7 -87 -7zM564 1112
q-91 0 -149 -49.5t-84 -128.5t-26 -173q0 -146 61.5 -243t194.5 -97q24 0 57 5v682q-25 4 -54 4zM914 421q90 0 147.5 47t84 122.5t26.5 163.5q0 91 -27 172.5t-86 133.5t-151 52q-27 0 -51 -4v-682q33 -5 57 -5z" />
    <glyph glyph-name="uni0425" unicode="&#x425;" horiz-adv-x="1311" 
d="M508 728l-474 712h295l328 -507l325 507h297l-474 -712l486 -728h-295l-339 523l-340 -523h-297z" />
    <glyph glyph-name="uni0427" unicode="&#x427;" horiz-adv-x="1352" 
d="M1212 1440v-1440h-242v551q-62 -37 -150.5 -57t-185.5 -20q-494 0 -494 556v410h244v-336q0 -122 19.5 -206.5t85.5 -140t197 -55.5q91 0 164.5 25.5t119.5 65.5v647h242z" />
    <glyph glyph-name="uni0426" unicode="&#x426;" horiz-adv-x="1500" 
d="M1239 0h-1099v1440h241v-1226h698v1193h241v-1193h160v-441h-241v227z" />
    <glyph glyph-name="uni0428" unicode="&#x428;" horiz-adv-x="1893" 
d="M140 1440h241v-1214h445v1214h241v-1214h446v1214h240v-1440h-1613v1440z" />
    <glyph glyph-name="uni0429" unicode="&#x429;" horiz-adv-x="1933" 
d="M1753 214h160v-441h-241v227h-1532v1440h241v-1214h445v1214h241v-1214h446v1214h240v-1226z" />
    <glyph glyph-name="uni040F" unicode="&#x40f;" horiz-adv-x="1537" 
d="M648 0h-508v1440h241v-1214h775v1214h241v-1440h-508v-240h-241v240z" />
    <glyph glyph-name="uni042C" unicode="&#x42c;" horiz-adv-x="1295" 
d="M379 1440v-503h354q65 0 116 -8q121 -19 203 -82t122.5 -160t40.5 -218q0 -185 -92.5 -309t-273.5 -152q-51 -8 -116 -8h-595v1440h241zM815 235q82 21 119.5 87.5t37.5 146.5t-37.5 146t-119.5 87q-36 10 -92 10h-344v-486h344q55 0 92 9z" />
    <glyph glyph-name="uni042A" unicode="&#x42a;" horiz-adv-x="1317" 
d="M-3 1251v189h437v-503h354q65 0 116 -8q121 -19 203 -82t122.5 -160t40.5 -218q0 -185 -92.5 -309t-273.5 -152q-51 -8 -116 -8h-595v1251h-196zM870 235q82 21 119.5 87.5t37.5 146.5t-37.5 146t-119.5 87q-36 10 -92 10h-344v-486h344q55 0 92 9z" />
    <glyph glyph-name="uni042B" unicode="&#x42b;" horiz-adv-x="1739" 
d="M379 1440v-503h354q65 0 116 -8q121 -19 203 -82t122.5 -160t40.5 -218q0 -185 -92.5 -309t-273.5 -152q-51 -8 -116 -8h-595v1440h241zM815 235q82 21 119.5 87.5t37.5 146.5t-37.5 146t-119.5 87q-36 10 -92 10h-344v-486h344q55 0 92 9zM1359 1440h241v-1440h-241
v1440z" />
    <glyph glyph-name="uni0409" unicode="&#x409;" horiz-adv-x="2199" 
d="M1956 847q82 -63 122.5 -160t40.5 -218q0 -185 -92.5 -309t-273.5 -152q-51 -8 -116 -8h-595v1214h-498q-15 -225 -34.5 -426.5t-57.5 -399.5q-25 -134 -59 -219.5t-96 -133.5t-162 -48q-53 0 -115 13v202q9 -1 24 -1q55 0 88 24.5t55 83.5t42 171q65 353 92 960h964
v-503h352q65 0 116 -8q121 -19 203 -82zM1838.5 322.5q37.5 66.5 37.5 146.5t-37.5 146t-119.5 87q-36 10 -92 10h-342v-486h342q55 0 92 9q82 21 119.5 87.5z" />
    <glyph glyph-name="uni040A" unicode="&#x40a;" horiz-adv-x="2205" 
d="M1961.5 847q82.5 -63 123 -160t40.5 -218q0 -186 -92.5 -309.5t-274.5 -151.5q-51 -8 -115 -8h-595v710h-667v-710h-241v1440h241v-504h667v504h240v-503h355q64 0 115 -8q121 -19 203.5 -82zM1843.5 322.5q37.5 66.5 37.5 146.5t-37.5 146t-119.5 87q-36 10 -91 10h-345
v-486h345q54 0 91 9q82 21 119.5 87.5z" />
    <glyph glyph-name="uni0405" unicode="&#x405;" horiz-adv-x="1315" 
d="M389 25q-127 55 -208.5 158t-103.5 243l250 38q21 -84 73 -144.5t126.5 -92t161.5 -31.5q79 0 147 24.5t109.5 71.5t41.5 111q0 60 -39 100.5t-121 65.5l-372 110q-84 24 -153 62t-118.5 113.5t-49.5 192.5q0 135 69 230.5t188.5 143.5t268.5 47q223 -2 371.5 -111.5
t196.5 -309.5l-259 -45q-16 75 -62.5 129.5t-114 83t-143.5 28.5q-71 0 -131 -23.5t-95.5 -65t-35.5 -95.5q0 -72 56.5 -109.5t151.5 -62.5l258 -72q102 -28 182 -65.5t142 -118.5t62 -212q0 -144 -77.5 -245.5t-206.5 -152.5t-281 -51q-157 0 -284 55z" />
    <glyph glyph-name="uni0404" unicode="&#x404;" horiz-adv-x="1446" 
d="M381 68.5q-153 98.5 -234 269.5t-80 382q0 223 82 392.5t234 263.5t358 94q169 0 301.5 -58t220 -169t123.5 -268l-242 -34q-38 140 -142.5 220.5t-254.5 80.5q-119 0 -208 -51t-142.5 -143t-69.5 -214h511v-226h-510q9 -76 31.5 -140t64.5 -118q54 -75 141.5 -113
t190.5 -40q93 -1 170.5 35t132 101t81.5 151l236 -59q-65 -224 -228.5 -339.5t-406.5 -115.5q-207 0 -360 98.5z" />
    <glyph glyph-name="uni042D" unicode="&#x42d;" horiz-adv-x="1439" 
d="M298.5 85.5q-163.5 115.5 -228.5 339.5l236 59q27 -86 81.5 -151t132 -101t170.5 -35q103 2 190.5 40t141.5 113q78 101 95 258h-510v226h512q-16 122 -69.5 214t-142.5 143t-208 51q-150 0 -254.5 -80.5t-143.5 -220.5l-241 34q36 157 123.5 268t220 169t301.5 58
q206 0 358 -93.5t233.5 -263.5t82.5 -393q1 -211 -80 -382t-234 -269.5t-360 -98.5q-243 0 -406.5 115.5z" />
    <glyph glyph-name="uni0406" unicode="&#x406;" horiz-adv-x="561" 
d="M160 1440h241v-1440h-241v1440z" />
    <glyph glyph-name="uni0407" unicode="&#x407;" horiz-adv-x="561" 
d="M-36 1827h220v-220h-220v220zM377 1827h220v-220h-220v220zM401 1440v-1440h-241v1440h241z" />
    <glyph glyph-name="uni0408" unicode="&#x408;" horiz-adv-x="1001" 
d="M154.5 54.5q-110.5 84.5 -154.5 233.5l238 57q7 -40 34 -74.5t66 -54.5t81 -20q47 0 92 24t67 71q13 29 16 67.5t3 112.5v969h244v-969v-75q0 -78 -9 -127.5t-39 -101.5q-58 -100 -152 -148.5t-213 -48.5q-163 0 -273.5 84.5z" />
    <glyph glyph-name="uni040B" unicode="&#x40b;" horiz-adv-x="1352" 
d="M1212 410v-410h-244v336q0 122 -19.5 206.5t-85.5 140t-196 55.5q-91 0 -164.5 -25.5t-120.5 -65.5v-647h-242v1226h-140v214h690v-214h-308v-337q61 37 150 57t186 20q494 0 494 -556z" />
    <glyph glyph-name="uni042E" unicode="&#x42e;" horiz-adv-x="1893" 
d="M1552 1377.5q137 -92.5 209 -262t72 -395.5q0 -228 -72 -397t-209 -261t-326 -92q-171 0 -300 77t-205.5 218.5t-94.5 334.5h-245v-600h-241v1440h241v-600h245q18 193 94.5 334.5t205.5 218.5t300 77q189 0 326 -92.5zM1421 263.5q79 66.5 117.5 184t39.5 272.5
q0 155 -39 272.5t-118 183.5t-195 66t-194.5 -66t-117 -183.5t-39.5 -272.5t38 -272.5t118 -184t195 -66.5t195 66.5z" />
    <glyph glyph-name="uni042F" unicode="&#x42f;" horiz-adv-x="1321" 
d="M1180 1440v-1440h-240v503h-343l-244 -503h-273l266 546q-120 54 -181.5 165t-61.5 260q0 186 92.5 309.5t274.5 151.5q51 8 115 8h595zM940 1214h-345q-54 0 -91 -9q-82 -21 -119.5 -87.5t-37.5 -146.5t37.5 -146t119.5 -87q36 -10 91 -10h345v486z" />
    <glyph glyph-name="uni0402" unicode="&#x402;" horiz-adv-x="1352" 
d="M0 1226v214h690v-214h-320v-253q67 68 164.5 102.5t220.5 34.5q250 0 383.5 -140.5t133.5 -409.5q0 -265 -133 -412.5t-403 -147.5v244q155 0 223.5 85.5t68.5 230.5q0 166 -81.5 242t-224.5 76q-121 0 -198.5 -48.5t-103.5 -134.5q-21 -68 -21 -184v-511h-242v1226h-157
z" />
    <glyph glyph-name="uni04AE" unicode="&#x4ae;" horiz-adv-x="1223" 
d="M490 590l-490 850h281l331 -574l330 574h281l-489 -850v-590h-244v590z" />
    <glyph glyph-name="uni04BA" unicode="&#x4ba;" horiz-adv-x="1353" 
d="M1212 410v-410h-244v336q0 122 -19.5 206.5t-85.5 140t-196 55.5q-91 0 -164.5 -25.5t-120.5 -65.5v-647h-242v1440h242v-551q61 37 150 57t186 20q494 0 494 -556z" />
    <glyph glyph-name="uni04E8" unicode="&#x4e8;" horiz-adv-x="1539" 
d="M1117.5 1376.5q155.5 -93.5 238.5 -263.5t83 -393t-83 -393t-238.5 -263.5t-368.5 -93.5q-212 0 -367.5 93.5t-238.5 263.5t-83 393t83 393t238.5 263.5t367.5 93.5q213 0 368.5 -93.5zM457.5 1138q-108.5 -107 -134.5 -298h853q-25 189 -133.5 295t-293.5 108
q-183 2 -291.5 -105zM1042 302.5q109 107.5 134 297.5h-854q25 -189 133.5 -295t293.5 -108q184 -2 293 105.5z" />
    <glyph glyph-name="uni0414.loclBGR" horiz-adv-x="1530" 
d="M1317 226h120v-403h-227v177h-908v-177h-225v403h120l383 1214h354zM446 226h621l-313 980z" />
    <glyph glyph-name="uni0416.loclBGR" horiz-adv-x="1831" 
d="M562 734l-500 706h288l445 -651v651h241v-651l445 651h288l-500 -706l542 -734h-297l-478 655v-655h-241v655l-477 -655h-298z" />
    <glyph glyph-name="uni041A.loclBGR" horiz-adv-x="1294" 
d="M140 1440h241v-668l575 668h296l-619 -706l661 -734h-306l-607 672v-672h-241v1440z" />
    <glyph glyph-name="uni041B.loclBGR" horiz-adv-x="1281" 
d="M464 1440h353l454 -1440h-248l-385 1206l-380 -1206h-248z" />
    <glyph glyph-name="uni0430" unicode="&#x430;" horiz-adv-x="1152" 
d="M1024.5 801.5q7.5 -55.5 7.5 -138.5v-663h-211v145q-69 -91 -160 -133t-219 -42q-114 0 -195.5 43.5t-124 117.5t-42.5 165q0 119 59.5 199t186.5 124q71 23 163.5 39.5t264.5 42.5l42 6q-7 94 -59.5 138t-161.5 44q-80 0 -145.5 -37t-90.5 -114l-220 69
q41 142 156 222.5t300 80.5q150 0 257.5 -49t158.5 -152q26 -52 33.5 -107.5zM793 509q-157 -25 -225.5 -37.5t-120.5 -30.5q-65 -24 -98 -58t-33 -84q0 -61 45.5 -99t128.5 -38q77 0 135.5 27.5t94.5 68.5t49 83q22 53 24 168z" />
    <glyph glyph-name="uni0431" unicode="&#x431;" horiz-adv-x="1197" 
d="M232.5 115q-129.5 144 -148.5 399q-4 62 -4 102q0 126 19 254t53 209q29 69 79 128t111 101q58 41 130 66t142.5 37.5t186.5 28.5q121 15 199 30l22 -213q-62 -15 -192 -28q-134 -14 -218.5 -31t-143.5 -55q-69 -43 -108.5 -123t-46.5 -176q58 86 149 126.5t194 40.5
q140 0 244.5 -67.5t160.5 -184t56 -260.5q0 -158 -66.5 -279t-186.5 -187t-274 -65q-228 3 -357.5 147zM796 273q68 79 68 216q0 138 -69 216.5t-194 78.5q-127 0 -194.5 -78t-67.5 -217q0 -141 68 -218t194 -77q127 0 195 79z" />
    <glyph glyph-name="uni0432" unicode="&#x432;" horiz-adv-x="1118" 
d="M629 1080q101 0 178 -21q86 -26 142 -94.5t56 -178.5q0 -123 -80 -188q-36 -30 -71 -40q41 -7 74 -23q60 -30 95 -84.5t35 -144.5q0 -110 -52.5 -184t-153.5 -103q-66 -19 -183 -19h-531v1080h491zM692 650q31 13 47.5 43t16.5 70q0 42 -18 73.5t-55 42.5q-34 12 -106 12
h-195v-257h200q73 0 110 16zM743 201q34 12 51.5 44t17.5 71q0 47 -23 77t-60 41q-27 11 -82 11h-265v-259h270q51 0 91 15z" />
    <glyph glyph-name="uni0433" unicode="&#x433;" horiz-adv-x="960" 
d="M140 1080h770v-226h-529v-854h-241v1080z" />
    <glyph glyph-name="uni0453" unicode="&#x453;" horiz-adv-x="960" 
d="M348 1230l76 240h238l-76 -240h-238zM910 1080v-226h-529v-854h-241v1080h770z" />
    <glyph glyph-name="uni0491" unicode="&#x491;" horiz-adv-x="960" 
d="M140 1080h529v227h241v-453h-529v-854h-241v1080z" />
    <glyph glyph-name="uni0434" unicode="&#x434;" horiz-adv-x="1267" 
d="M153 214.5q35 25.5 55.5 82.5t35.5 160q19 122 29.5 267.5t20.5 355.5h804v-891h109v-429h-228v240h-692v-240h-227v429q58 0 93 25.5zM858 891h-353q-15 -299 -39 -470q-11 -91 -28.5 -142.5t-54.5 -89.5h475v702z" />
    <glyph glyph-name="uni0435" unicode="&#x435;" horiz-adv-x="1204" 
d="M423.5 267.5q71.5 -71.5 193.5 -71.5q88 0 153 39.5t100 114.5l238 -72q-41 -96 -113.5 -165.5t-166 -106t-197.5 -36.5q-162 0 -287 71t-194.5 198t-69.5 289q0 175 67.5 306.5t189.5 203.5t280 72q156 0 270 -69t175 -196.5t61 -299.5q0 -34 -3 -72h-782
q14 -134 85.5 -205.5zM344 655h532q-16 126 -76.5 185t-172.5 59q-240 0 -283 -244z" />
    <glyph glyph-name="uni0450" unicode="&#x450;" horiz-adv-x="1204" 
d="M743 1230h-238l-76 240h238zM423.5 267.5q71.5 -71.5 193.5 -71.5q88 0 153 39.5t100 114.5l238 -72q-41 -96 -113.5 -165.5t-166 -106t-197.5 -36.5q-162 0 -287 71t-194.5 198t-69.5 289q0 175 67.5 306.5t189.5 203.5t280 72q156 0 270 -69t175 -196.5t61 -299.5
q0 -34 -3 -72h-782q14 -134 85.5 -205.5zM344 655h532q-16 126 -76.5 185t-172.5 59q-240 0 -283 -244z" />
    <glyph glyph-name="uni0451" unicode="&#x451;" horiz-adv-x="1204" 
d="M521 1467v-220h-220v220h220zM934 1467v-220h-220v220h220zM423.5 267.5q71.5 -71.5 193.5 -71.5q88 0 153 39.5t100 114.5l238 -72q-41 -96 -113.5 -165.5t-166 -106t-197.5 -36.5q-162 0 -287 71t-194.5 198t-69.5 289q0 175 67.5 306.5t189.5 203.5t280 72
q156 0 270 -69t175 -196.5t61 -299.5q0 -34 -3 -72h-782q14 -134 85.5 -205.5zM344 655h532q-16 126 -76.5 185t-172.5 59q-240 0 -283 -244z" />
    <glyph glyph-name="uni0436" unicode="&#x436;" horiz-adv-x="1531" 
d="M416 540l-372 540h264l351 -523v523h214v-523l351 523h263l-372 -540l396 -540h-278l-360 523v-523h-214v523l-361 -523h-278z" />
    <glyph glyph-name="uni0437" unicode="&#x437;" horiz-adv-x="1041" 
d="M929.5 462q31.5 -65 31.5 -143q0 -109 -58.5 -188t-158 -120t-220.5 -41q-154 0 -281 64.5t-200 178.5l190 127q121 -144 287 -144q90 0 142.5 39.5t52.5 107.5q0 55 -33 80.5t-82 31.5t-134 6h-80v191h79q105 0 159.5 23.5t54.5 90.5q0 61 -45 90.5t-115 29.5
q-74 0 -149.5 -31.5t-140.5 -81.5l-136 164q92 82 204 127.5t234 45.5q107 0 197 -37t144.5 -110t54.5 -175q0 -125 -86 -221q57 -40 88.5 -105z" />
    <glyph glyph-name="uni0438" unicode="&#x438;" horiz-adv-x="1216" 
d="M1076 0h-231v705l-514 -705h-193v1080h231v-687l516 687h191v-1080z" />
    <glyph glyph-name="uni0439" unicode="&#x439;" horiz-adv-x="1216" 
d="M486.5 1242.5q-69.5 40.5 -110 110t-40.5 152.5h188q0 -48 33.5 -81.5t81.5 -33.5t81.5 33.5t33.5 81.5h188q0 -83 -40.5 -152.5t-110 -110t-152.5 -40.5t-152.5 40.5zM845 0v705l-514 -705h-193v1080h231v-687l516 687h191v-1080h-231z" />
    <glyph glyph-name="uni045D" unicode="&#x45d;" horiz-adv-x="1216" 
d="M505 1470h238l76 -240h-238zM845 0v705l-514 -705h-193v1080h231v-687l516 687h191v-1080h-231z" />
    <glyph glyph-name="uni043A" unicode="&#x43a;" horiz-adv-x="1076" 
d="M140 1080h244v-520l395 520h301l-419 -540l455 -540h-319l-413 520v-520h-246z" />
    <glyph glyph-name="uni045C" unicode="&#x45c;" horiz-adv-x="1076" 
d="M386 1230l76 240h238l-76 -240h-238zM384 1080v-520l395 520h301l-419 -540l455 -540h-319l-413 520v-520h-246l2 1080h244z" />
    <glyph glyph-name="uni043B" unicode="&#x43b;" horiz-adv-x="1210" 
d="M88 197q39 0 61 17t34.5 50t23.5 93q22 123 38 304t30 419h795v-1080h-240v854h-343q-35 -439 -64 -589q-28 -146 -86 -213.5t-170 -67.5q-57 0 -127 16v202q30 -5 48 -5z" />
    <glyph glyph-name="uni043C" unicode="&#x43c;" horiz-adv-x="1448" 
d="M138 1080h198l387 -746l388 746h197v-1080h-230v595l-307 -595h-95l-307 595v-595h-231v1080z" />
    <glyph glyph-name="uni043D" unicode="&#x43d;" horiz-adv-x="1245" 
d="M138 1080h241v-426h485v426h241v-1080h-241v428h-485v-428h-241v1080z" />
    <glyph glyph-name="uni043E" unicode="&#x43e;" horiz-adv-x="1236" 
d="M335 42.5q-122 72.5 -188.5 202t-66.5 295.5q0 168 67.5 297.5t189.5 201t280 71.5q161 0 283 -72.5t189 -202t67 -295.5q0 -167 -67.5 -296.5t-190 -201.5t-281.5 -72q-160 0 -282 72.5zM828.5 289q72.5 93 72.5 251q0 160 -72.5 252t-211.5 92q-141 0 -211.5 -92.5
t-70.5 -251.5q0 -161 72.5 -252.5t209.5 -91.5q139 0 211.5 93z" />
    <glyph glyph-name="uni043F" unicode="&#x43f;" horiz-adv-x="1216" 
d="M138 1080h938v-1080h-241v854h-456v-854h-241v1080z" />
    <glyph glyph-name="uni0440" unicode="&#x440;" horiz-adv-x="1232" 
d="M914 1036.5q114 -73.5 176 -203t62 -293.5q0 -162 -61 -291.5t-173.5 -204t-258.5 -74.5q-163 0 -278 85v-535h-243v1560h213v-78q119 108 299 108q150 0 264 -73.5zM774.5 232q61.5 46 92 126t30.5 182q0 101 -31 181t-94.5 126.5t-157.5 46.5q-133 0 -198 -94.5
t-65 -259.5t66 -259.5t205 -94.5q91 0 152.5 46z" />
    <glyph glyph-name="uni0441" unicode="&#x441;" horiz-adv-x="1151" 
d="M326.5 43.5q-119.5 73.5 -182.5 203t-64 293.5q0 165 65 294.5t185.5 202.5t281.5 73q122 0 221 -42t165.5 -119.5t91.5 -183.5l-240 -65q-27 86 -92.5 135t-148.5 49q-136 0 -204.5 -94t-69.5 -250q1 -159 71 -251.5t203 -92.5q94 0 150 42.5t85 128.5l246 -55
q-50 -165 -175 -253.5t-306 -88.5q-163 0 -282.5 73.5z" />
    <glyph glyph-name="uni0442" unicode="&#x442;" horiz-adv-x="1063" 
d="M411 866h-361v214h963v-214h-361v-866h-241v866z" />
    <glyph glyph-name="uni0443" unicode="&#x443;" horiz-adv-x="1119" 
d="M869 1080h241l-602 -1560h-226l178 488l-437 1072h251l302 -773z" />
    <glyph glyph-name="uni045E" unicode="&#x45e;" horiz-adv-x="1119" 
d="M429.5 1242.5q-69.5 40.5 -110 110t-40.5 152.5h188q0 -48 33.5 -81.5t81.5 -33.5t81.5 33.5t33.5 81.5h188q0 -83 -41 -152.5t-110.5 -110t-151.5 -40.5q-83 0 -152.5 40.5zM869 1080h241l-602 -1560h-226l178 488l-437 1072h251l302 -773z" />
    <glyph glyph-name="uni0444" unicode="&#x444;" horiz-adv-x="1506" 
d="M556 -26q-137 0 -245 67t-169.5 195t-61.5 304t61.5 304t169.5 195t245 67q47 0 90 -7v324h214v-324q43 7 90 7q137 0 245 -67t169.5 -195t61.5 -304t-61.5 -304t-169.5 -195t-245 -67q-47 0 -90 7v-431h-214v431q-43 -7 -90 -7zM582 887q-127 0 -192 -92t-65 -255
q0 -162 68 -255t194 -93q24 0 59 5v684q-35 6 -64 6zM921 192q126 0 193 92t67 256q0 165 -64.5 256t-191.5 91q-30 0 -65 -6v-684q35 -5 61 -5z" />
    <glyph glyph-name="uni0445" unicode="&#x445;" horiz-adv-x="1108" 
d="M415 546l-387 534h284l243 -345l239 345h284l-387 -534l397 -546h-284l-249 357l-251 -357h-284z" />
    <glyph glyph-name="uni0447" unicode="&#x447;" horiz-adv-x="1151" 
d="M640.5 318.5q-71.5 -15.5 -148.5 -15.5q-166 0 -266 75t-129 218q-17 82 -17 222v262h244v-262q0 -94 13 -149q19 -81 69 -117.5t143 -36.5q132 0 220 67v498h242v-1080h-242v363q-57 -29 -128.5 -44.5z" />
    <glyph glyph-name="uni0446" unicode="&#x446;" horiz-adv-x="1305" 
d="M1044 0h-906v1080h241v-854h456v854h241v-866h209v-441h-241v227z" />
    <glyph glyph-name="uni0448" unicode="&#x448;" horiz-adv-x="1581" 
d="M138 1080h231v-866h305v866h231v-866h305v866h231v-1080h-1303v1080z" />
    <glyph glyph-name="uni0449" unicode="&#x449;" horiz-adv-x="1562" 
d="M1301 0h-1163v1080h231v-866h305v866h231v-866h305v866h231v-866h101v-441h-241v227z" />
    <glyph glyph-name="uni045F" unicode="&#x45f;" horiz-adv-x="1216" 
d="M501 0h-363v1080h241v-854h456v854h241v-1080h-334v-240h-241v240z" />
    <glyph glyph-name="uni044C" unicode="&#x44c;" horiz-adv-x="1137" 
d="M379 1080v-360h194q134 0 196 -11q288 -61 288 -350q0 -141 -72.5 -227.5t-207.5 -117.5q-62 -14 -201 -14h-437l-1 1080h241zM698 200q47 14 80.5 56.5t33.5 102.5q0 63 -34 106t-87 56q-39 10 -94 10h-218v-342h218q59 0 101 11z" />
    <glyph glyph-name="uni044A" unicode="&#x44a;" horiz-adv-x="1196" 
d="M40 891v189h398v-360h193q135 0 197 -11q140 -30 214 -116.5t74 -233.5q0 -141 -72.5 -227.5t-208.5 -117.5q-62 -14 -200 -14h-438v891h-157zM756 200q48 14 81.5 56.5t33.5 102.5q0 63 -34.5 106t-86.5 56q-40 10 -94 10h-218v-342h218q60 0 100 11z" />
    <glyph glyph-name="uni044B" unicode="&#x44b;" horiz-adv-x="1478" 
d="M379 1080v-360h121q134 0 196 -11q288 -63 288 -350q0 -141 -72.5 -227.5t-208.5 -117.5q-61 -14 -200 -14h-364l-1 1080h241zM1338 1080v-1080h-241v1080h241zM624 200q48 14 81.5 56.5t33.5 102.5q0 63 -34 106t-87 56q-40 10 -94 10h-145v-342h145q60 0 100 11z" />
    <glyph glyph-name="uni0459" unicode="&#x459;" horiz-adv-x="1712" 
d="M88 197q38 0 60.5 17t35 50.5t23.5 92.5q22 123 38 304t30 419h752v-360h120q70 0 112.5 -2t84.5 -9q131 -25 209.5 -113.5t78.5 -233.5q0 -143 -76 -232.5t-205 -115.5q-70 -14 -200 -14h-365v854h-299q-35 -439 -64 -589q-28 -146 -86 -213.5t-170 -67.5q-57 0 -127 16
v202q30 -5 48 -5zM1272 200q47 13 81 56.5t34 104.5q0 62 -34.5 104t-86.5 56q-38 10 -94 10h-145v-342h145q58 0 100 11z" />
    <glyph glyph-name="uni045A" unicode="&#x45a;" horiz-adv-x="1670" 
d="M379 1080v-360h365v360h241v-360h120q70 0 112.5 -2t84.5 -9q131 -25 209.5 -113.5t78.5 -233.5q0 -143 -76 -232.5t-205 -115.5q-70 -14 -200 -14h-365v531h-365v-531h-241v1080h241zM1230 200q47 13 81 56.5t34 104.5q0 62 -34.5 104t-86.5 56q-38 10 -94 10h-145v-342
h145q58 0 100 11z" />
    <glyph glyph-name="uni0455" unicode="&#x455;" horiz-adv-x="1083" 
d="M232 60q-125 90 -152 253l246 38q18 -81 83.5 -126.5t164.5 -45.5q86 0 134 34.5t48 94.5q0 39 -18.5 60t-73.5 41.5t-183 54.5q-137 36 -216.5 77.5t-114.5 98t-35 138.5q0 100 52.5 175t149 116t223.5 41q125 0 223 -39t158.5 -111.5t73.5 -168.5l-246 -44
q-10 69 -63.5 109t-141.5 45q-85 4 -137 -26.5t-52 -84.5q0 -33 21.5 -54t82.5 -42.5t191 -54.5q131 -34 207.5 -76t111 -100.5t34.5 -143.5q0 -108 -53.5 -186.5t-154 -120.5t-238.5 -42q-200 0 -325 90z" />
    <glyph glyph-name="uni0454" unicode="&#x454;" horiz-adv-x="1153" 
d="M327 43q-120 73 -183.5 202t-63.5 293q0 166 65 296t185 203t281 73q122 0 221.5 -42t166 -119.5t91.5 -183.5l-240 -65q-29 88 -94 136t-154 48q-109 0 -175 -68t-83 -181h359v-189h-359q18 -118 85.5 -184t179.5 -66q94 0 150 42.5t85 128.5l246 -55
q-50 -165 -175 -253.5t-306 -88.5q-162 0 -282 73z" />
    <glyph glyph-name="uni044D" unicode="&#x44d;" horiz-adv-x="1153" 
d="M238 58.5q-125 88.5 -175 253.5l246 55q29 -86 85 -128.5t150 -42.5q112 0 179.5 66t85.5 184h-359v189h359q-17 113 -83 181t-175 68q-89 0 -154 -48t-94 -136l-240 65q25 106 91.5 183.5t166 119.5t221.5 42q161 0 281 -73t185 -203t65 -296q0 -164 -63.5 -293
t-183.5 -202t-282 -73q-181 0 -306 88.5z" />
    <glyph glyph-name="uni0456" unicode="&#x456;" horiz-adv-x="561" 
d="M160 1465h241v-221h-241v221zM160 1080h241v-1080h-241v1080z" />
    <glyph glyph-name="uni0457" unicode="&#x457;" horiz-adv-x="561" 
d="M-36 1467h220v-220h-220v220zM377 1467h220v-220h-220v220zM401 1080v-1080h-241v1080h241z" />
    <glyph glyph-name="uni0458" unicode="&#x458;" horiz-adv-x="577" 
d="M193 1465h240v-221h-240v221zM31 -254q86 0 124 40t38 122v1172h240v-1280q0 -131 -77 -205.5t-212 -74.5h-164v226h51z" />
    <glyph glyph-name="uni045B" unicode="&#x45b;" 
d="M981 1019.5q94 -91.5 122 -203.5t28 -213v-603h-244v520q0 364 -252 364q-109 0 -181 -74.5t-72 -254.5v-555h-244v1167h-108v187h108v86h215v-86h210v-187h-210v-207q61 72 150 111.5t203 39.5q181 0 275 -91.5z" />
    <glyph glyph-name="uni044E" unicode="&#x44e;" horiz-adv-x="1702" 
d="M850 23.5q-104 53.5 -172 155t-89 241.5h-210v-420h-241v1080h241v-420h210q21 142 89.5 243t174 154t235.5 53q157 0 278.5 -73t188.5 -202.5t67 -292.5q0 -167 -67.5 -297t-190 -202.5t-281.5 -72.5q-129 0 -233 53.5zM1294 289q73 93 73 251q0 162 -73 253t-213 91
q-138 0 -209 -91.5t-71 -250.5q0 -162 72 -254t208 -92q140 0 213 93z" />
    <glyph glyph-name="uni044F" unicode="&#x44f;" horiz-adv-x="1167" 
d="M1027 1080v-1080h-241v360h-193h-37l-223 -360h-253l245 392q-101 37 -159 119.5t-58 205.5q0 142 76 232.5t205 116.5q46 9 94.5 11.5t105.5 2.5h438zM786 891h-218q-57 0 -100 -11q-47 -14 -81 -58t-34 -103q0 -60 35 -103t87 -57q37 -10 93 -10h218v342z" />
    <glyph glyph-name="uni0452" unicode="&#x452;" 
d="M851 -458q-76 0 -142 18v172q8 -1 24.5 -2t28.5 -1q56 0 90.5 29.5t34.5 113.5v648q0 364 -252 364q-109 0 -181 -74.5t-72 -254.5v-555h-242v1167h-110v187h110v86h213v-86h210v-187h-210v-209q60 73 149.5 113t203.5 40q181 0 275 -91.5t122 -203.5t28 -213v-781
q0 -112 -49 -181t-144 -90q-37 -9 -87 -9z" />
    <glyph glyph-name="uni04AF" unicode="&#x4af;" horiz-adv-x="1106" 
d="M432 0l-392 1080h242l271 -783l272 783h241l-392 -1080v-360h-242v360z" />
    <glyph glyph-name="uni04BB" unicode="&#x4bb;" horiz-adv-x="1158" 
d="M517.5 761.5q71.5 15.5 148.5 15.5q166 0 266 -75t129 -218q17 -82 17 -222v-262h-244v262q0 90 -14 149q-18 80 -68.5 117t-142.5 37q-132 0 -220 -67v-498h-242v1080h242v-363q57 29 128.5 44.5z" />
    <glyph glyph-name="uni04E9" unicode="&#x4e9;" horiz-adv-x="1236" 
d="M900 1037.5q122 -72.5 189 -202t67 -295.5q0 -167 -67.5 -296.5t-190 -201.5t-281.5 -72q-160 0 -282 72.5t-188.5 202t-66.5 295.5q0 168 67.5 297.5t189.5 201t280 71.5q161 0 283 -72.5zM430 818q-69 -66 -88 -183h552q-20 118 -90 183.5t-187 65.5q-118 0 -187 -66z
M804 262.5q70 66.5 90 183.5h-552q20 -119 90 -184.5t185 -65.5q117 0 187 66.5z" />
    <glyph glyph-name="uni0432.loclBGR" horiz-adv-x="1208" 
d="M1083.5 656q64.5 -100 64.5 -238q0 -139 -64 -240t-181 -154.5t-274 -53.5q-183 0 -306.5 75t-164.5 226q-13 45 -16.5 88t-3.5 101v601q0 79 19 138q27 90 90 151t148.5 90.5t181.5 29.5q130 0 233.5 -52.5t162 -145.5t58.5 -211q0 -82 -30 -150.5t-90 -114.5
q108 -40 172.5 -140zM778.5 223q60.5 29 94.5 82t34 123q0 114 -86 171.5t-236 58.5v211q96 8 149.5 56.5t53.5 130.5q0 59 -28 101.5t-74.5 64.5t-103.5 22q-56 0 -103.5 -23.5t-71.5 -75.5q-25 -54 -25 -150v-552q0 -80 14 -121q22 -63 91.5 -95.5t152.5 -32.5
q78 0 138.5 29z" />
    <glyph glyph-name="uni0433.loclBGR" horiz-adv-x="1083" 
d="M287.5 12q-100.5 42 -154 120.5t-53.5 186.5q0 85 34.5 143.5t111 100.5t207.5 76q130 33 191 54.5t82.5 42.5t21.5 54q0 54 -52 84.5t-137 26.5q-88 -5 -141.5 -45t-63.5 -109l-246 44q13 96 73.5 168.5t158.5 111.5t223 39q127 0 223.5 -41t149 -116t52.5 -175
q0 -82 -35 -138.5t-114.5 -98t-216.5 -77.5q-128 -34 -183 -54.5t-73.5 -41.5t-18.5 -60q0 -60 48 -94.5t134 -34.5q99 0 164.5 45.5t83.5 126.5l246 -38q-27 -163 -152 -253t-325 -90q-138 0 -238.5 42z" />
    <glyph glyph-name="uni0434.loclBGR" horiz-adv-x="1232" 
d="M1092 1080v-1132q0 -87 -15 -152q-36 -152 -164.5 -229t-318.5 -77q-136 0 -251 62.5t-178 172.5l222 110q29 -56 85 -86t123 -30q117 0 187.5 60.5t68.5 172.5v103q-115 -85 -278 -85q-146 0 -258.5 74.5t-173.5 204t-61 291.5q0 164 62 293.5t176 203t264 73.5
q180 0 299 -108v78h211zM815 280.5q66 94.5 66 259.5t-65 259.5t-198 94.5q-94 0 -157.5 -46.5t-94.5 -126.5t-31 -181q0 -102 30.5 -182t92 -126t152.5 -46q139 0 205 94.5z" />
    <glyph glyph-name="uni0436.loclBGR" horiz-adv-x="1574" 
d="M416 540l-371 540h263l351 -523v883h214v-883l350 523h264l-372 -540l396 -540h-278l-360 523v-523h-214v523l-360 -523h-279z" />
    <glyph glyph-name="uni0437.loclBGR" horiz-adv-x="1305" 
d="M394.5 -347q-114.5 43 -192.5 112t-122 153l206 140q42 -95 133.5 -158t243.5 -63q103 0 172 30.5t102 82.5t33 116q0 105 -81 147.5t-216 46.5q-140 4 -161 4v228q103 0 139 2q119 5 190 54.5t71 140.5q0 59 -31 103t-87.5 68t-131.5 24q-101 0 -182.5 -45t-125.5 -113
l-169 172q77 94 203.5 153t280.5 59q132 0 245.5 -45t183 -138.5t69.5 -229.5q0 -99 -37.5 -182.5t-104.5 -136.5q97 -40 148.5 -118t51.5 -195q0 -137 -75 -240t-205.5 -159t-291.5 -56q-144 0 -258.5 43z" />
    <glyph glyph-name="uni0438.loclBGR" 
d="M1111 1080v-1080h-213v120q-61 -72 -150 -111.5t-203 -39.5q-181 0 -275 91.5t-122 203.5t-28 213v603h244v-520q0 -364 252 -364q109 0 181 74.5t72 254.5v555h242z" />
    <glyph glyph-name="uni0439.loclBGR" 
d="M463.5 1242.5q-69.5 40.5 -110.5 110t-41 152.5h188q0 -48 34 -81.5t81 -33.5q48 0 81.5 33.5t33.5 81.5h188q0 -83 -40.5 -152.5t-110 -110t-152.5 -40.5q-82 0 -151.5 40.5zM1111 1080v-1080h-213v120q-61 -72 -150 -111.5t-203 -39.5q-181 0 -275 91.5t-122 203.5
t-28 213v603h244v-520q0 -364 252 -364q109 0 181 74.5t72 254.5v555h242z" />
    <glyph glyph-name="uni045D.loclBGR" horiz-adv-x="1241" 
d="M805 1230h-238l-76 240h238zM1111 1080v-1080h-213v120q-61 -72 -150 -111.5t-203 -39.5q-181 0 -275 91.5t-122 203.5t-28 213v603h244v-520q0 -364 252 -364q109 0 181 74.5t72 254.5v555h242z" />
    <glyph glyph-name="uni043A.loclBGR" horiz-adv-x="1076" 
d="M140 1440h244v-880l395 520h301l-419 -540l455 -540h-319l-413 520v-520h-246z" />
    <glyph glyph-name="uni043B.loclBGR" horiz-adv-x="1106" 
d="M432 1080h242l392 -1080h-242l-271 783l-272 -783h-241z" />
    <glyph glyph-name="uni043D.loclBGR" horiz-adv-x="1245" 
d="M138 1080h241v-426h485v426h241v-1080h-241v428h-485v-428h-241v1080z" />
    <glyph glyph-name="uni043F.loclBGR" 
d="M981 1019.5q94 -91.5 122 -203.5t28 -213v-603h-244v520q0 364 -252 364q-109 0 -181 -74.5t-72 -254.5v-555h-244v1080h215v-120q61 72 150 111.5t203 39.5q181 0 275 -91.5z" />
    <glyph glyph-name="uni0442.loclBGR" horiz-adv-x="1798" 
d="M1508.5 1058.5q83.5 -48.5 126.5 -136t43 -205.5v-717h-241v656q0 110 -55 173t-149 63q-58 0 -104.5 -27t-73 -78.5t-26.5 -121.5v-665h-240v653q0 112 -55 175.5t-150 63.5q-61 0 -107 -28.5t-71 -80t-25 -118.5v-665h-243v1080h213v-117q54 68 135.5 106t177.5 38
q111 0 191 -45.5t124 -126.5q50 81 137 126.5t192 45.5q117 0 200.5 -48.5z" />
    <glyph glyph-name="uni0447.loclBGR" horiz-adv-x="1151" 
d="M640.5 318.5q-71.5 -15.5 -148.5 -15.5q-166 0 -266 75t-129 218q-17 82 -17 222v262h244v-262q0 -94 13 -149q19 -81 69 -117.5t143 -36.5q132 0 220 67v498h242v-1080h-242v363q-57 -29 -128.5 -44.5z" />
    <glyph glyph-name="uni0446.loclBGR" horiz-adv-x="1299" 
d="M1279 214v-391h-241v177h-140v120q-61 -72 -150 -111.5t-203 -39.5q-181 0 -275 91.5t-122 203.5t-28 213v603h244v-520q0 -364 252 -364q109 0 181 74.5t72 254.5v555h242v-866h168z" />
    <glyph glyph-name="uni0448.loclBGR" horiz-adv-x="1798" 
d="M1660 1080v-1080h-213v117q-54 -68 -135.5 -106t-177.5 -38q-111 0 -191 45.5t-124 126.5q-50 -81 -137 -126.5t-192 -45.5q-117 0 -200.5 48.5t-126.5 136t-43 205.5v717h241v-656q0 -110 55 -173t149 -63q58 0 104.5 27t73 78.5t26.5 121.5v665h240v-653
q0 -112 55 -175.5t150 -63.5q61 0 107 28.5t71 80t25 118.5v665h243z" />
    <glyph glyph-name="uni0449.loclBGR" horiz-adv-x="1846" 
d="M1826 214v-441h-241v227h-140v114q-54 -66 -135 -103.5t-176 -37.5q-111 0 -191 45.5t-124 126.5q-50 -81 -137 -126.5t-192 -45.5q-117 0 -200.5 48.5t-126.5 136t-43 205.5v717h241v-656q0 -110 55 -173t149 -63q58 0 104.5 27t73 78.5t26.5 121.5v665h240v-653
q0 -112 55 -175.5t150 -63.5q61 0 107 28.5t71 80t25 118.5v665h243v-866h166z" />
    <glyph glyph-name="uni044C.loclBGR" horiz-adv-x="1137" 
d="M379 1080v-360h194q134 0 196 -11q288 -61 288 -350q0 -141 -72.5 -227.5t-207.5 -117.5q-62 -14 -201 -14h-437l-1 1080h241zM698 200q47 14 80.5 56.5t33.5 102.5q0 63 -34 106t-87 56q-39 10 -94 10h-218v-342h218q59 0 101 11z" />
    <glyph glyph-name="uni044E.loclBGR" horiz-adv-x="1695" 
d="M1366.5 1037q121.5 -73 188.5 -202.5t67 -292.5q0 -167 -67.5 -297t-190 -202.5t-281.5 -72.5q-129 0 -233 53.5t-172 155t-89 241.5h-208v-420h-243v1080h2v360h241v-780h208q21 142 89.5 243t174 154t235.5 53q157 0 278.5 -73zM1294 289q73 93 73 251q0 162 -73 253
t-213 91q-138 0 -209 -91.5t-71 -250.5q0 -162 72 -254t208 -92q140 0 213 93z" />
    <glyph glyph-name="uni0431.loclSRB" horiz-adv-x="1197" 
d="M232.5 115q-129.5 144 -148.5 399q-4 62 -4 102q0 126 19 254t53 209q29 69 79 128t111 101q58 41 130 66t142.5 37.5t186.5 28.5q121 15 199 30l22 -213q-62 -15 -192 -28q-134 -14 -218.5 -31t-143.5 -55q-69 -43 -108.5 -123t-46.5 -176q58 86 149 126.5t194 40.5
q140 0 244.5 -67.5t160.5 -184t56 -260.5q0 -158 -66.5 -279t-186.5 -187t-274 -65q-228 3 -357.5 147zM796 273q68 79 68 216q0 138 -69 216.5t-194 78.5q-127 0 -194.5 -78t-67.5 -217q0 -141 68 -218t194 -77q127 0 195 79z" />
    <glyph glyph-name="Alpha" unicode="&#x391;" horiz-adv-x="1341" 
d="M1053 0l-99 312h-568l-98 -312h-248l454 1440h353l454 -1440h-248zM457 537h425l-214 670z" />
    <glyph glyph-name="Beta" unicode="&#x392;" horiz-adv-x="1262" 
d="M1147 627.5q55 -88.5 55 -199.5q0 -129 -49.5 -225.5t-147 -149.5t-236.5 -53h-629v1440h571q138 0 234 -56.5t143 -147t47 -192.5q0 -97 -38 -170.5t-106 -114.5q101 -43 156 -131.5zM384 865h324q80 0 131 46t51 129q0 77 -49 126t-133 49h-324v-350zM852 252.5
q50 25.5 78.5 72.5t28.5 110q0 58 -25.5 105t-73.5 73.5t-114 26.5h-362v-413h355q63 0 113 25.5z" />
    <glyph glyph-name="Gamma" unicode="&#x393;" horiz-adv-x="1090" 
d="M140 1440h930v-226h-689v-1214h-241v1440z" />
    <glyph glyph-name="uni0394" unicode="&#x394;" horiz-adv-x="1341" 
d="M847 1440l454 -1440h-1261l454 1440h353zM359 226h622l-313 980z" />
    <glyph glyph-name="Epsilon" unicode="&#x395;" horiz-adv-x="1170" 
d="M140 1440h930v-226h-689v-355h569v-226h-569v-407h689v-226h-930v1440z" />
    <glyph glyph-name="Zeta" unicode="&#x396;" horiz-adv-x="1327" 
d="M100 33l710 1181h-660v226h1077v-34l-706 -1179h689v-227h-1110v33z" />
    <glyph glyph-name="Eta" unicode="&#x397;" horiz-adv-x="1443" 
d="M140 1440h241v-606h682v606h240v-1440h-240v608h-682v-608h-241v1440z" />
    <glyph glyph-name="Theta" unicode="&#x398;" horiz-adv-x="1499" 
d="M381.5 63.5q-155.5 93.5 -238.5 263.5t-83 393t83 393t238.5 263.5t367.5 93.5q213 0 368.5 -93.5t238.5 -263.5t83 -393t-83 -393t-238.5 -263.5t-368.5 -93.5q-212 0 -367.5 93.5zM988.5 260q97.5 64 146.5 182t49 278q0 159 -49 276t-146.5 181t-239.5 66
q-142 1 -239 -63t-145.5 -182t-49.5 -278q-1 -159 48 -276t146.5 -181t239.5 -66q142 -1 239.5 63zM483 814h533v-188h-533v188z" />
    <glyph glyph-name="Iota" unicode="&#x399;" horiz-adv-x="561" 
d="M160 1440h241v-1440h-241v1440z" />
    <glyph glyph-name="Kappa" unicode="&#x39a;" horiz-adv-x="1294" 
d="M140 1440h241v-668l575 668h296l-619 -706l661 -734h-306l-607 672v-672h-241v1440z" />
    <glyph glyph-name="Lambda" unicode="&#x39b;" horiz-adv-x="1281" 
d="M464 1440h353l454 -1440h-248l-385 1206l-380 -1206h-248z" />
    <glyph glyph-name="Mu" unicode="&#x39c;" horiz-adv-x="1710" 
d="M140 1440h217l498 -1020l498 1020h217v-1440h-225v923l-442 -923h-96l-441 923v-923h-226v1440z" />
    <glyph glyph-name="Nu" unicode="&#x39d;" horiz-adv-x="1436" 
d="M140 1440h244l668 -1015v1015h244v-1440h-244l-668 1015v-1015h-244v1440z" />
    <glyph glyph-name="Xi" unicode="&#x39e;" horiz-adv-x="1447" 
d="M140 1440h1167v-226h-1167v226zM240 834h967v-226h-967v226zM140 226h1167v-226h-1167v226z" />
    <glyph glyph-name="Omicron" unicode="&#x39f;" horiz-adv-x="1499" 
d="M381.5 63.5q-155.5 93.5 -238.5 263.5t-83 393t83 393t238.5 263.5t367.5 93.5q213 0 368.5 -93.5t238.5 -263.5t83 -393t-83 -393t-238.5 -263.5t-368.5 -93.5q-212 0 -367.5 93.5zM988.5 260q97.5 64 146.5 182t49 278q0 159 -49 276t-146.5 181t-239.5 66
q-142 1 -239 -63t-145.5 -182t-49.5 -278q-1 -159 48 -276t146.5 -181t239.5 -66q142 -1 239.5 63z" />
    <glyph glyph-name="Pi" unicode="&#x3a0;" horiz-adv-x="1447" 
d="M140 1440h1167v-1440h-241v1214h-685v-1214h-241v1440z" />
    <glyph glyph-name="Rho" unicode="&#x3a1;" horiz-adv-x="1277" 
d="M735 1440q66 0 115 -8q182 -28 274.5 -151.5t92.5 -309.5q0 -121 -40.5 -218t-123 -160t-203.5 -82q-49 -8 -115 -8h-354v-503h-241v1440h595zM816 738q83 21 120.5 87t37.5 146t-37.5 146.5t-120.5 87.5q-36 9 -91 9h-344v-486h344q56 0 91 10z" />
    <glyph glyph-name="Sigma" unicode="&#x3a3;" horiz-adv-x="1270" 
d="M140 217l495 503l-495 503v217h990v-226h-686l469 -476v-36l-469 -476h680v-226h-984v217z" />
    <glyph glyph-name="Tau" unicode="&#x3a4;" horiz-adv-x="1213" 
d="M486 1214h-466v226h1173v-226h-466v-1214h-241v1214z" />
    <glyph glyph-name="Upsilon" unicode="&#x3a5;" horiz-adv-x="1223" 
d="M490 590l-490 850h281l331 -574l330 574h281l-489 -850v-590h-244v590z" />
    <glyph glyph-name="Phi" unicode="&#x3a6;" horiz-adv-x="1477" 
d="M531 198q-131 0 -238.5 66t-170 193.5t-62.5 303.5q0 177 63 306t171 197t239 68q44 0 85 -7v115h239v-115q41 7 85 7q132 0 240 -68t171.5 -197t63.5 -306q0 -176 -63 -303.5t-170.5 -193.5t-239.5 -66q-45 0 -87 7v-205h-239v205q-42 -7 -87 -7zM564 1112
q-91 0 -149 -49.5t-84 -128.5t-26 -173q0 -146 61.5 -243t194.5 -97q24 0 57 5v682q-25 4 -54 4zM914 421q90 0 147.5 47t84 122.5t26.5 163.5q0 91 -27 172.5t-86 133.5t-151 52q-27 0 -51 -4v-682q33 -5 57 -5z" />
    <glyph glyph-name="Chi" unicode="&#x3a7;" horiz-adv-x="1311" 
d="M508 728l-474 712h295l328 -507l325 507h297l-474 -712l486 -728h-295l-339 523l-340 -523h-297z" />
    <glyph glyph-name="Psi" unicode="&#x3a8;" horiz-adv-x="1507" 
d="M323 403.5q-126 82.5 -165 251.5q-18 65 -18 155v630h226v-591q0 -73 13 -126q26 -99 90.5 -141.5t163.5 -44.5v903h241v-903q101 3 168.5 51t88.5 149q10 47 10 112v591h226v-630q0 -83 -18 -152q-42 -170 -167.5 -252.5t-307.5 -91.5v-314h-241v314q-184 7 -310 89.5z
" />
    <glyph glyph-name="uni03A9" unicode="&#x3a9;" horiz-adv-x="1499" 
d="M284 226q-106 94 -165 232.5t-59 303.5q0 199 86 360.5t242.5 254.5t360.5 93t361 -93t243 -254.5t86 -360.5q0 -165 -59 -303.5t-165 -232.5h207v-226h-502v226q68 34 127.5 104t97.5 171.5t39 223.5q1 144 -52 262t-152 186.5t-231 68.5q-131 0 -229.5 -68.5
t-151.5 -186t-53 -259.5q0 -125 39.5 -227t101 -171t129.5 -104v-226h-508v226h207z" />
    <glyph glyph-name="Alphatonos" unicode="&#x386;" horiz-adv-x="1341" 
d="M374 1445l-76 -240h-238l76 240h238zM1053 0l-99 312h-568l-98 -312h-248l454 1440h353l454 -1440h-248zM457 537h425l-214 670z" />
    <glyph glyph-name="Epsilontonos" unicode="&#x388;" horiz-adv-x="1500" 
d="M133 1445h238l-76 -240h-238zM1400 1440v-226h-689v-355h569v-226h-569v-407h689v-226h-930v1440h930z" />
    <glyph glyph-name="Etatonos" unicode="&#x389;" horiz-adv-x="1750" 
d="M133 1445h238l-76 -240h-238zM688 1440v-606h682v606h240v-1440h-240v608h-682v-608h-241v1440h241z" />
    <glyph glyph-name="Iotatonos" unicode="&#x38a;" horiz-adv-x="827" 
d="M133 1445h238l-76 -240h-238zM687 1440v-1440h-240v1440h240z" />
    <glyph glyph-name="Omicrontonos" unicode="&#x38c;" horiz-adv-x="1718" 
d="M600.5 63.5q-155.5 93.5 -238 263.5t-82.5 393t82.5 393t238 263.5t368.5 93.5t368.5 -93.5t238 -263.5t82.5 -393t-82.5 -393t-238 -263.5t-368.5 -93.5t-368.5 93.5zM137 1445h238l-76 -240h-238zM1208.5 260q97.5 64 146 182t48.5 278q0 159 -48.5 276t-146 181
t-239.5 66q-142 1 -239.5 -63t-146 -182t-48.5 -278q-1 -159 48 -276t146.5 -181t239.5 -66q142 -1 239.5 63z" />
    <glyph glyph-name="Upsilontonos" unicode="&#x38e;" horiz-adv-x="1668" 
d="M139 1445h238l-76 -240h-238zM445 1440h281l331 -574l330 574h281l-489 -850v-590h-244v590z" />
    <glyph glyph-name="Omegatonos" unicode="&#x38f;" horiz-adv-x="1752" 
d="M366 458.5q-59 138.5 -59 303.5q0 199 86 360.5t242.5 254.5t360.5 93t360.5 -93t242.5 -254.5t86 -360.5q0 -165 -59 -303.5t-165 -232.5h207v-226h-502l1 226q67 34 127 104.5t98 171.5t38 223q1 144 -51.5 262t-151.5 186.5t-231 68.5q-131 0 -229.5 -68.5
t-151.5 -186t-53 -259.5q0 -125 39.5 -227t101 -171t129.5 -104v-226h-509v226h208q-106 94 -165 232.5zM137 1445h238l-76 -240h-238z" />
    <glyph glyph-name="Iotadieresis" unicode="&#x3aa;" horiz-adv-x="561" 
d="M-36 1827h220v-220h-220v220zM377 1827h220v-220h-220v220zM401 1440v-1440h-241v1440h241z" />
    <glyph glyph-name="Upsilondieresis" unicode="&#x3ab;" horiz-adv-x="1223" 
d="M295 1827h220v-220h-220v220zM708 1827h220v-220h-220v220zM0 1440h281l331 -574l330 574h281l-489 -850v-590h-244v590z" />
    <glyph glyph-name="alpha" unicode="&#x3b1;" horiz-adv-x="1257" 
d="M1117 1080v-1080h-213v110q-58 -67 -141.5 -103.5t-184.5 -36.5q-150 0 -263 74t-174 204t-61 292q0 164 62 293.5t176.5 203t266.5 73.5q101 0 182 -35.5t137 -101.5v107h213zM815.5 281q65.5 95 65.5 259q0 165 -65 259.5t-198 94.5q-88 0 -152 -43.5t-97.5 -123.5
t-33.5 -188q0 -101 30 -180.5t93 -126t157 -46.5q135 0 200.5 95z" />
    <glyph glyph-name="beta" unicode="&#x3b2;" horiz-adv-x="1208" 
d="M156 1199q27 90 90.5 150.5t149 90.5t180.5 30q130 0 234 -52.5t162.5 -145.5t58.5 -211q0 -83 -30 -151.5t-91 -113.5q107 -39 172.5 -139.5t65.5 -238.5q0 -139 -64 -240t-181 -154.5t-274 -53.5q-145 0 -249 53v-503h-242v1560q0 58 18 119zM778.5 222.5
q60.5 28.5 94 82t33.5 123.5q0 114 -86 171.5t-235 58.5v211q96 8 149.5 56.5t53.5 130.5q0 59 -28 101.5t-74.5 64.5t-103.5 22q-56 0 -103.5 -23.5t-71.5 -75.5q-16 -34 -20.5 -71.5t-4.5 -78.5v-552q0 -80 14 -121q22 -63 91.5 -95.5t151.5 -32.5q79 0 139.5 28.5z" />
    <glyph glyph-name="gamma" unicode="&#x3b3;" horiz-adv-x="1106" 
d="M432 0l-392 1080h242l271 -783l272 783h241l-392 -1080v-360h-242v360z" />
    <glyph glyph-name="delta" unicode="&#x3b4;" horiz-adv-x="1236" 
d="M1000 872.5q75 -70.5 115.5 -168t40.5 -213.5q0 -152 -67.5 -270.5t-190.5 -184.5t-286 -66q-158 0 -278.5 62.5t-187 176t-66.5 263.5q0 114 40.5 210t117 159.5t181.5 82.5q-180 98 -180 268q0 61 22.5 118t77.5 100t144 55q24 3 54.5 4t72.5 1h327v-196h-272
q-74 0 -108 -8q-36 -10 -57 -31.5t-21 -54.5q0 -38 31 -66.5t78.5 -49t134.5 -51.5q80 -27 99 -35q103 -35 178 -105.5zM813.5 275.5q67.5 79.5 67.5 216.5q0 138 -68 216t-194 78q-128 0 -195 -78t-67 -217q0 -141 68 -218t194 -77q127 0 194.5 79.5z" />
    <glyph glyph-name="epsilon" unicode="&#x3b5;" horiz-adv-x="1041" 
d="M998 213q-73 -114 -200 -178.5t-281 -64.5q-121 0 -220.5 41t-158 120t-58.5 188q0 78 31.5 143t88.5 105q-86 96 -86 221q0 102 54.5 175t144.5 110t197 37q122 0 234 -45.5t204 -127.5l-136 -164q-65 50 -140.5 81.5t-149.5 31.5q-70 0 -115 -29.5t-45 -90.5
q0 -67 54.5 -90.5t159.5 -23.5h79v-191h-80q-85 0 -134 -6t-82 -31.5t-33 -80.5q0 -68 52.5 -107.5t142.5 -39.5q166 0 287 144z" />
    <glyph glyph-name="zeta" unicode="&#x3b6;" horiz-adv-x="1052" 
d="M786 -76q-36 52 -92.5 64t-156.5 12q-220 0 -338.5 93.5t-118.5 302.5q0 90 25.5 169.5t87.5 169.5t173 204q132 132 307 287h-533v214h905v-177l-49 -47q-146 -139 -402 -373q-141 -133 -200 -231t-59 -193q0 -84 39.5 -126t106.5 -55t175 -13q52 0 104 -6.5t92 -20.5
q89 -31 139.5 -114.5t50.5 -209.5q0 -55 -10 -114h-211q1 112 -35 164z" />
    <glyph glyph-name="eta" unicode="&#x3b7;" 
d="M981 1019.5q94 -91.5 122 -203.5t28 -213v-603h-244v520q0 364 -252 364q-109 0 -181 -74.5t-72 -254.5v-555h-244v1080h215v-120q61 72 150 111.5t203 39.5q181 0 275 -91.5z" />
    <glyph glyph-name="theta" unicode="&#x3b8;" horiz-adv-x="1373" 
d="M1012 1377.5q137 -92.5 209 -262t72 -395.5q0 -228 -72 -397t-209 -261t-326 -92q-188 0 -325 92.5t-209 262t-72 395.5t72 395.5t209 262t325 92.5q189 0 326 -92.5zM444 1127q-88 -115 -105 -313h695q-17 197 -105 312.5t-243 115.5q-154 0 -242 -115zM928.5 312.5
q88.5 115.5 105.5 313.5h-695q16 -197 104 -313t243 -116q154 0 242.5 115.5z" />
    <glyph glyph-name="iota" unicode="&#x3b9;" horiz-adv-x="812" 
d="M300 33q-54 30 -94 95q-28 46 -37 94.5t-9 118.5l1 100v639h241v-625v-66q0 -48 4 -77t18 -52q35 -59 118 -66q32 -2 50 -2q59 0 126 10v-202q-62 -17 -165 -17q-77 0 -130 9q-69 11 -123 41z" />
    <glyph glyph-name="kappa" unicode="&#x3ba;" horiz-adv-x="1076" 
d="M140 1080h244v-520l395 520h301l-419 -540l455 -540h-319l-413 520v-520h-246z" />
    <glyph glyph-name="lambda" unicode="&#x3bb;" horiz-adv-x="1146" 
d="M416.5 1185.5q-28.5 37.5 -71.5 55.5t-112 18h-51v211h75q100 0 161 -15q81 -19 135 -72t88 -123t73 -180l392 -1080h-242l-271 783l-272 -783h-241l392 1080q-27 68 -55.5 105.5z" />
    <glyph glyph-name="uni03BC" unicode="&#x3bc;" horiz-adv-x="1269" 
d="M382 1080v-520q0 -364 253 -364q108 0 180 74.5t72 254.5v555h242v-1080h-213v122q-60 -73 -149.5 -113t-203.5 -40q-126 0 -212 59v-508h-213v1560h244z" />
    <glyph glyph-name="nu" unicode="&#x3bd;" horiz-adv-x="1106" 
d="M40 1080h241l272 -783l271 783h242l-392 -1080h-242z" />
    <glyph glyph-name="xi" unicode="&#x3be;" horiz-adv-x="1145" 
d="M923 -196q0 89 -34 131t-94 53.5t-170 11.5q-275 0 -410 114t-135 315q0 121 49.5 209.5t150.5 126.5q-67 58 -104.5 137t-37.5 176q0 134 69.5 222t181.5 129t243 41q156 0 281 -57t207 -155l-169 -172q-49 73 -129 115.5t-190 42.5q-109 0 -174 -43.5t-65 -129.5
q0 -90 70 -137.5t191 -52.5q36 -2 139 -2v-228q-21 0 -161 -4q-148 -6 -222.5 -50t-74.5 -150q0 -121 96.5 -170.5t274.5 -51.5q85 -2 134.5 -6.5t95.5 -20.5q95 -32 152 -111.5t57 -201.5q0 -62 -14 -125h-210q2 32 2 44z" />
    <glyph glyph-name="omicron" unicode="&#x3bf;" horiz-adv-x="1236" 
d="M335 42.5q-122 72.5 -188.5 202t-66.5 295.5q0 168 67.5 297.5t189.5 201t280 71.5q161 0 283 -72.5t189 -202t67 -295.5q0 -167 -67.5 -296.5t-190 -201.5t-281.5 -72q-160 0 -282 72.5zM828.5 289q72.5 93 72.5 251q0 160 -72.5 252t-211.5 92q-141 0 -211.5 -92.5
t-70.5 -251.5q0 -161 72.5 -252.5t209.5 -91.5q139 0 211.5 93z" />
    <glyph glyph-name="pi" unicode="&#x3c0;" horiz-adv-x="1350" 
d="M247 866h-174v214h1204v-214h-174v-866h-240v866h-376v-866h-240v866z" />
    <glyph glyph-name="rho" unicode="&#x3c1;" horiz-adv-x="1271" 
d="M140.5 579q2.5 48 10.5 93q22 130 90 229t177 154t250 55q163 0 281.5 -73t180 -201.5t61.5 -291.5q0 -164 -61.5 -294.5t-174.5 -205t-262 -74.5q-95 0 -177 31.5t-135 86.5v-568h-243v944q0 67 2.5 115zM875.5 282.5q73.5 96.5 73.5 259.5q0 164 -73 258t-214 94
q-142 0 -212.5 -94.5t-70.5 -258.5q0 -165 72 -260t211 -95q140 0 213.5 96.5z" />
    <glyph glyph-name="uni03C2" unicode="&#x3c2;" horiz-adv-x="1151" 
d="M820 -79.5q-36 50.5 -95 62.5t-180 17q-140 5 -244.5 65.5t-162.5 175.5t-58 278q0 180 64.5 313.5t184.5 205.5t282 72q122 0 221 -41.5t165.5 -119.5t92.5 -184l-240 -65q-30 88 -93.5 136t-154.5 48q-129 0 -189.5 -94t-60.5 -255q-1 -94 22.5 -161t86.5 -107.5
t176 -41.5q73 0 134.5 -4t112.5 -23q92 -32 141 -116t49 -209q0 -53 -9 -113h-210q1 110 -35 160.5z" />
    <glyph glyph-name="sigma" unicode="&#x3c3;" horiz-adv-x="1273" 
d="M1216 866h-165q49 -69 77 -157t28 -183q0 -156 -68 -283t-191 -200t-280 -73q-158 0 -280 73t-189.5 200t-67.5 283q0 134 49 246t140 187.5t212 104.5q47 11 108 13.5t175 2.5h452v-214zM773 238.5q64 42.5 96 117t32 170.5q0 95 -32.5 169t-96.5 116.5t-155 42.5
q-93 0 -156.5 -43t-94.5 -117.5t-31 -167.5q0 -99 32.5 -173.5t96 -115.5t153.5 -41q92 0 156 42.5z" />
    <glyph glyph-name="tau" unicode="&#x3c4;" horiz-adv-x="1107" 
d="M550.5 33q-54.5 30 -94.5 95q-28 46 -37 94.5t-9 118.5l1 100v425h-361v214h963v-214h-361v-411v-58q0 -51 4 -82.5t18 -54.5q36 -59 118 -66q32 -2 50 -2q59 0 127 10v-202q-64 -17 -166 -17q-78 0 -129 9q-69 11 -123.5 41z" />
    <glyph glyph-name="upsilon" unicode="&#x3c5;" horiz-adv-x="1233" 
d="M364 1080v-520q0 -364 252 -364q253 0 253 364v520h244v-586q0 -135 -32 -247.5t-141.5 -195t-323.5 -82.5t-323.5 82.5t-141 195t-31.5 247.5v586h244z" />
    <glyph glyph-name="phi" unicode="&#x3c6;" horiz-adv-x="1513" 
d="M556 -26q-137 0 -245 67t-169.5 195t-61.5 304t61.5 304t169.5 195t245 67q47 0 90 -7v324h214v-324q43 7 90 7q137 0 245 -67t169.5 -195t61.5 -304t-61.5 -304t-169.5 -195t-245 -67q-47 0 -90 7v-431h-214v431q-43 -7 -90 -7zM582 887q-127 0 -192 -92t-65 -255
q0 -162 68 -255t194 -93q24 0 59 5v684q-35 6 -64 6zM921 192q126 0 193 92t67 256q0 165 -64.5 256t-191.5 91q-30 0 -65 -6v-684q35 -5 61 -5z" />
    <glyph glyph-name="chi" unicode="&#x3c7;" horiz-adv-x="1108" 
d="M415 546l-387 534h284l243 -345l239 345h284l-387 -534l397 -546h-284l-249 357l-251 -357h-284z" />
    <glyph glyph-name="psi" unicode="&#x3c8;" horiz-adv-x="1467" 
d="M304.5 36q-127.5 82 -166.5 251q-18 66 -18 156v637h226v-598q0 -74 13 -126q25 -100 92.5 -142t166.5 -44v910h231v-910q101 2 171 50t91 149q10 47 10 113v598h226v-637q0 -83 -18 -152q-41 -170 -169 -253.5t-311 -90.5v-397h-231v397q-186 7 -313.5 89z" />
    <glyph glyph-name="omega" unicode="&#x3c9;" horiz-adv-x="1596" 
d="M1438 859q78 -159 78 -351q0 -152 -50 -274t-146 -193t-229 -71q-98 0 -175 42t-118 135q-41 -93 -118 -135t-175 -42q-135 0 -231 72t-145 194.5t-49 273.5q0 193 78.5 351t223.5 249l164 -191q-113 -87 -162 -178t-49 -221q0 -93 23.5 -166t69 -115t109.5 -42
q68 0 100.5 47t41 122.5t8.5 203.5v115h222v-115q0 -129 8.5 -204.5t41 -122t100.5 -46.5q65 0 110.5 42.5t68.5 116t23 164.5q0 132 -50 222.5t-162 176.5l164 191q147 -92 225 -251z" />
    <glyph glyph-name="iotatonos" unicode="&#x3af;" horiz-adv-x="812" 
d="M238 1445h238l-76 -240h-238zM300 33q-54 30 -94 95q-28 46 -37 94.5t-9 118.5l1 100v639h241v-625v-66q0 -48 4 -77t18 -52q35 -59 118 -66q32 -2 50 -2q59 0 126 10v-202q-62 -17 -165 -17q-77 0 -130 9q-69 11 -123 41z" />
    <glyph glyph-name="iotadieresis" unicode="&#x3ca;" horiz-adv-x="805" 
d="M-36 1467h220v-220h-220v220zM377 1467h220v-220h-220v220zM300 33q-54 30 -94 95q-28 46 -37 94.5t-9 118.5l1 100v639h241v-625v-66q0 -48 4 -77t18 -52q35 -59 118 -66q32 -2 50 -2q59 0 126 10v-202q-62 -17 -165 -17q-77 0 -130 9q-69 11 -123 41z" />
    <glyph glyph-name="iotadieresistonos" unicode="&#x390;" horiz-adv-x="976" 
d="M396 1475h238l-76 -240h-238zM61 1465h195v-220h-195v220zM696 1465h195v-220h-195v220zM465 33q-54 30 -94 95q-28 46 -37 94.5t-9 118.5l1 100v639h241v-625v-66q0 -48 4 -77t18 -52q35 -59 118 -66q32 -2 50 -2q59 0 126 10v-202q-62 -17 -165 -17q-77 0 -130 9
q-69 11 -123 41z" />
    <glyph glyph-name="upsilontonos" unicode="&#x3cd;" horiz-adv-x="1233" 
d="M578 1445h238l-76 -240h-238zM364 560q0 -364 252 -364q253 0 253 364v520h244v-586q0 -135 -32 -247.5t-141.5 -195t-323.5 -82.5t-323.5 82.5t-141 195t-31.5 247.5v586h244v-520z" />
    <glyph glyph-name="upsilondieresis" unicode="&#x3cb;" horiz-adv-x="1233" 
d="M300 1467h220v-220h-220v220zM713 1467h220v-220h-220v220zM364 560q0 -364 252 -364q253 0 253 364v520h244v-586q0 -135 -32 -247.5t-141.5 -195t-323.5 -82.5t-323.5 82.5t-141 195t-31.5 247.5v586h244v-520z" />
    <glyph glyph-name="upsilondieresistonos" unicode="&#x3b0;" horiz-adv-x="1233" 
d="M536 1475h238l-76 -240h-238zM202 1465h195v-220h-195v220zM836 1465h195v-220h-195v220zM364 560q0 -364 252 -364q253 0 253 364v520h244v-586q0 -135 -32 -247.5t-141.5 -195t-323.5 -82.5t-323.5 82.5t-141 195t-31.5 247.5v586h244v-520z" />
    <glyph glyph-name="omicrontonos" unicode="&#x3cc;" horiz-adv-x="1236" 
d="M496 1230l76 240h238l-76 -240h-238zM335 42.5q-122 72.5 -188.5 202t-66.5 295.5q0 168 67.5 297.5t189.5 201t280 71.5q161 0 283 -72.5t189 -202t67 -295.5q0 -167 -67.5 -296.5t-190 -201.5t-281.5 -72q-160 0 -282 72.5zM828.5 289q72.5 93 72.5 251
q0 160 -72.5 252t-211.5 92q-141 0 -211.5 -92.5t-70.5 -251.5q0 -161 72.5 -252.5t209.5 -91.5q139 0 211.5 93z" />
    <glyph glyph-name="omegatonos" unicode="&#x3ce;" horiz-adv-x="1596" 
d="M990 1445l-76 -240h-238l76 240h238zM1438 859q78 -159 78 -351q0 -152 -50 -274t-146 -193t-229 -71q-98 0 -175 42t-118 135q-41 -93 -118 -135t-175 -42q-135 0 -231 72t-145 194.5t-49 273.5q0 193 78.5 351t223.5 249l164 -191q-113 -87 -162 -178t-49 -221
q0 -93 23.5 -166t69 -115t109.5 -42q68 0 100.5 47t41 122.5t8.5 203.5v115h222v-115q0 -129 8.5 -204.5t41 -122t100.5 -46.5q65 0 110.5 42.5t68.5 116t23 164.5q0 132 -50 222.5t-162 176.5l164 191q147 -92 225 -251z" />
    <glyph glyph-name="alphatonos" unicode="&#x3ac;" horiz-adv-x="1221" 
d="M832 1445l-76 -240h-238l76 240h238zM1117 1080v-1080h-213v110q-58 -67 -141.5 -103.5t-184.5 -36.5q-150 0 -263 74t-174 204t-61 292q0 164 62 293.5t176.5 203t266.5 73.5q101 0 182 -35.5t137 -101.5v107h213zM815.5 281q65.5 95 65.5 259q0 165 -65 259.5
t-198 94.5q-88 0 -152 -43.5t-97.5 -123.5t-33.5 -188q0 -101 30 -180.5t93 -126t157 -46.5q135 0 200.5 95z" />
    <glyph glyph-name="epsilontonos" unicode="&#x3ad;" horiz-adv-x="1041" 
d="M722 1445l-76 -240h-238l76 240h238zM998 213q-73 -114 -200 -178.5t-281 -64.5q-121 0 -220.5 41t-158 120t-58.5 188q0 78 31.5 143t88.5 105q-86 96 -86 221q0 102 54.5 175t144.5 110t197 37q122 0 234 -45.5t204 -127.5l-136 -164q-65 50 -140.5 81.5t-149.5 31.5
q-70 0 -115 -29.5t-45 -90.5q0 -67 54.5 -90.5t159.5 -23.5h79v-191h-80q-85 0 -134 -6t-82 -31.5t-33 -80.5q0 -68 52.5 -107.5t142.5 -39.5q166 0 287 144z" />
    <glyph glyph-name="etatonos" unicode="&#x3ae;" 
d="M827 1470l-76 -240h-238l76 240h238zM981 1019.5q94 -91.5 122 -203.5t28 -213v-603h-244v520q0 364 -252 364q-109 0 -181 -74.5t-72 -254.5v-555h-244v1080h215v-120q61 72 150 111.5t203 39.5q181 0 275 -91.5z" />
    <glyph glyph-name="zero" unicode="0" horiz-adv-x="1316" 
d="M388.5 35.5q-117.5 65.5 -183 183t-65.5 269.5v464q0 152 65.5 269.5t183 183t269.5 65.5t269.5 -65.5t183 -183t65.5 -269.5v-464q0 -152 -65.5 -269.5t-183 -183t-269.5 -65.5t-269.5 65.5zM795.5 235q62.5 36 98.5 98.5t36 137.5v499q0 75 -36 137.5t-98.5 99
t-137.5 36.5t-137.5 -36.5t-98.5 -99t-36 -137.5v-499q0 -75 36 -137.5t98.5 -98.5t137.5 -36t137.5 36z" />
    <glyph glyph-name="one" unicode="1" horiz-adv-x="876" 
d="M390 1177l-270 -165v266l270 162h246v-1440h-246v1177z" />
    <glyph glyph-name="two" unicode="2" horiz-adv-x="1191" 
d="M473 229h618v-227h-991v210l616 549q68 61 98 118t30 113q0 71 -30.5 128.5t-86 90t-125.5 32.5q-73 0 -131.5 -34.5t-90.5 -91.5t-30 -123h-248q0 142 64 250t178.5 167t262.5 59q137 0 247.5 -61.5t173.5 -171t63 -248.5q0 -99 -27 -168.5t-76 -124.5t-146 -140z" />
    <glyph glyph-name="three" unicode="3" horiz-adv-x="1163" 
d="M881 813.5q79 -64.5 120.5 -159t41.5 -204.5q0 -134 -66 -243t-178.5 -171.5t-246.5 -62.5q-108 0 -204.5 42.5t-167 120t-100.5 180.5l233 63q24 -84 90 -131.5t148 -46.5q70 0 126 33t88.5 89.5t32.5 126.5t-31.5 127.5t-88 90.5t-127.5 33q-63 0 -125 -34l-110 190
l416 356h-596v227h883v-228l-325 -312q108 -22 187 -86.5z" />
    <glyph glyph-name="four" unicode="4" horiz-adv-x="1217" 
d="M738 238h-638v225l461 977h275l-461 -977h363v375h244v-375h135v-225h-135v-238h-244v238z" />
    <glyph glyph-name="five" unicode="5" horiz-adv-x="1172" 
d="M847.5 863q105.5 -61 165 -168t59.5 -241q0 -132 -69.5 -243t-185.5 -176t-250 -65q-108 0 -204 45t-165 126t-98 186l232 62q14 -56 51 -99t88 -66t105 -23q69 0 127.5 34t92.5 92.5t34 126.5q0 69 -34.5 126.5t-93 91.5t-126.5 34q-76 0 -131 -27t-90 -67l-206 66
l44 762h782v-226h-568l-22 -354q51 31 109.5 47.5t114.5 16.5q133 0 238.5 -61z" />
    <glyph glyph-name="six" unicode="6" horiz-adv-x="1243" 
d="M912 863.5q106 -61.5 165.5 -169t59.5 -241.5q0 -132 -68 -243t-182.5 -175.5t-248.5 -64.5q-140 0 -253.5 67t-179 186t-65.5 269v438q0 162 65.5 283.5t184.5 188t275 66.5q113 0 209.5 -37.5t171.5 -115.5l-174 -169q-38 45 -93 71t-114 26q-81 0 -145 -39t-99 -103.5
t-35 -137.5v-146q60 52 134 80t153 28q133 0 239 -61.5zM765.5 235q58.5 34 93 91.5t34.5 126.5t-34 127.5t-92 93t-127 34.5t-127.5 -34.5t-92.5 -93t-34 -127.5q0 -67 34 -125t91.5 -92.5t126.5 -34.5t127.5 34z" />
    <glyph glyph-name="seven" unicode="7" horiz-adv-x="1067" 
d="M709 1212h-629v228h887v-228l-494 -1212h-260z" />
    <glyph glyph-name="eight" unicode="8" horiz-adv-x="1225" 
d="M1062.5 620.5q42.5 -91.5 42.5 -195.5q0 -132 -63.5 -235.5t-176 -161.5t-254.5 -58q-141 0 -253 58t-175 161.5t-63 235.5q0 105 42 195.5t121 152.5q-126 121 -126 290q0 122 57.5 214t161 142.5t235.5 50.5t235.5 -50.5t161.5 -142.5t58 -214q0 -170 -124 -290
q78 -61 120.5 -152.5zM466 1197q-54 -46 -54 -134q0 -89 53.5 -134.5t145.5 -45.5t146 45.5t54 134.5q0 88 -54 134t-146 46q-91 0 -145 -46zM785 256.5q65 59.5 65 168.5t-65 169t-174 60q-108 0 -172 -60t-64 -169t64 -168.5t172 -59.5q109 0 174 59.5z" />
    <glyph glyph-name="nine" unicode="9" horiz-adv-x="1243" 
d="M858.5 1401q113.5 -67 179 -186t65.5 -269v-438q0 -162 -65.5 -283.5t-184.5 -188t-275 -66.5q-113 0 -209.5 37.5t-171.5 115.5l174 169q38 -45 93 -71t114 -26q81 0 145 39t99 103.5t35 137.5v146q-60 -52 -134 -80t-153 -28q-133 0 -239 61.5t-165.5 169t-59.5 241.5
q0 132 68 243t182.5 175.5t248.5 64.5q140 0 253.5 -67zM730.5 764.5q58.5 34.5 92.5 93t34 127.5q0 67 -34 125t-91.5 92.5t-126.5 34.5t-127.5 -34t-93 -91.5t-34.5 -126.5t34 -127.5t92 -93t127 -34.5t127.5 34.5z" />
    <glyph glyph-name="zero.tf" horiz-adv-x="1240" 
d="M351.5 35.5q-117.5 65.5 -183 183t-65.5 269.5v464q0 152 65.5 269.5t183 183t269.5 65.5q151 0 269 -65.5t183.5 -183t65.5 -269.5v-464q0 -152 -65.5 -269.5t-183.5 -183t-269 -65.5q-152 0 -269.5 65.5zM758.5 235q62.5 36 98.5 98.5t36 137.5v499q0 75 -36 137.5
t-98.5 99t-137.5 36.5t-137.5 -36.5t-99 -99t-36.5 -137.5v-499q0 -75 36.5 -137.5t99 -98.5t137.5 -36t137.5 36z" />
    <glyph glyph-name="one.tf" horiz-adv-x="1240" 
d="M577 1177l-270 -165v266l270 162h246v-1440h-246v1177z" />
    <glyph glyph-name="two.tf" horiz-adv-x="1240" 
d="M496 229h618v-227h-991v210l616 549q68 61 98 118t30 113q0 71 -30.5 128.5t-86 90t-125.5 32.5q-73 0 -131.5 -34.5t-90.5 -91.5t-30 -123h-248q0 142 64 250t178.5 167t262.5 59q137 0 247.5 -61.5t173.5 -171t63 -248.5q0 -99 -27 -168.5t-76 -124.5t-146 -140z" />
    <glyph glyph-name="three.tf" horiz-adv-x="1240" 
d="M920 813.5q79 -64.5 120.5 -159t41.5 -204.5q0 -134 -66 -243t-178.5 -171.5t-246.5 -62.5q-108 0 -204.5 42.5t-167 120t-100.5 180.5l233 63q24 -84 90 -131.5t148 -46.5q70 0 126 33t88.5 89.5t32.5 126.5t-31.5 127.5t-88 90.5t-127.5 33q-63 0 -125 -34l-110 190
l416 356h-596v227h883v-228l-325 -312q108 -22 187 -86.5z" />
    <glyph glyph-name="four.tf" horiz-adv-x="1240" 
d="M763 238h-638v225l461 977h275l-461 -977h363v375h244v-375h135v-225h-135v-238h-244v238z" />
    <glyph glyph-name="five.tf" horiz-adv-x="1240" 
d="M882.5 863q105.5 -61 165 -168t59.5 -241q0 -132 -69.5 -243t-185.5 -176t-250 -65q-108 0 -204 45t-165 126t-98 186l232 62q14 -56 51 -99t88 -66t105 -23q69 0 127.5 34t92.5 92.5t34 126.5q0 69 -34.5 126.5t-93 91.5t-126.5 34q-76 0 -131 -27t-90 -67l-206 66
l44 762h782v-226h-568l-22 -354q51 31 109.5 47.5t114.5 16.5q133 0 238.5 -61z" />
    <glyph glyph-name="six.tf" horiz-adv-x="1240" 
d="M894 863.5q106 -61.5 165.5 -169t59.5 -241.5q0 -132 -68 -243t-182.5 -175.5t-248.5 -64.5q-140 0 -253.5 67t-179 186t-65.5 269v438q0 162 65.5 283.5t184.5 188t275 66.5q113 0 209.5 -37.5t171.5 -115.5l-174 -169q-38 45 -93 71t-114 26q-81 0 -145 -39t-99 -103.5
t-35 -137.5v-146q60 52 134 80t153 28q133 0 239 -61.5zM747.5 235q58.5 34 93 91.5t34.5 126.5t-34 127.5t-92 93t-127 34.5t-127.5 -34.5t-92.5 -93t-34 -127.5q0 -67 34 -125t91.5 -92.5t126.5 -34.5t127.5 34z" />
    <glyph glyph-name="seven.tf" horiz-adv-x="1240" 
d="M809 1212h-629v228h887v-228l-494 -1212h-260z" />
    <glyph glyph-name="eight.tf" horiz-adv-x="1240" 
d="M1069.5 620.5q42.5 -91.5 42.5 -195.5q0 -132 -63.5 -235.5t-176 -161.5t-254.5 -58q-141 0 -253 58t-175 161.5t-63 235.5q0 105 42 195.5t121 152.5q-126 121 -126 290q0 122 57.5 214t161 142.5t235.5 50.5t235.5 -50.5t161.5 -142.5t58 -214q0 -170 -124 -290
q78 -61 120.5 -152.5zM473 1197q-54 -46 -54 -134q0 -89 53.5 -134.5t145.5 -45.5t146 45.5t54 134.5q0 88 -54 134t-146 46q-91 0 -145 -46zM792 256.5q65 59.5 65 168.5t-65 169t-174 60q-108 0 -172 -60t-64 -169t64 -168.5t172 -59.5q109 0 174 59.5z" />
    <glyph glyph-name="nine.tf" horiz-adv-x="1240" 
d="M873.5 1403q113.5 -67 179 -186t65.5 -269v-438q0 -162 -65.5 -283.5t-184.5 -188t-275 -66.5q-112 0 -208.5 37.5t-171.5 115.5l173 169q39 -45 93.5 -71t113.5 -26q81 0 145 39t99.5 103.5t35.5 137.5v147q-60 -52 -134 -80.5t-154 -28.5q-133 0 -238.5 61.5t-165 169
t-59.5 241.5q0 132 67.5 243t182 175.5t248.5 64.5q140 0 253.5 -67zM745.5 766.5q58.5 34.5 93 93t34.5 127.5q0 67 -34 125t-92 92.5t-127 34.5t-127.5 -34t-92.5 -91.5t-34 -126.5t34 -127.5t91.5 -93t126.5 -34.5t127.5 34.5z" />
    <glyph glyph-name="uni2080" unicode="&#x2080;" horiz-adv-x="937" 
d="M295 19.5q-74 41.5 -114.5 120t-40.5 184.5v247q0 105 40.5 183.5t114.5 121t173 42.5t173 -42t115 -120t41 -185v-247q0 -106 -39.5 -184t-113.5 -120t-176 -42q-99 0 -173 41.5zM593 177q45 53 45 147v248q0 91 -45 145t-125 54q-78 0 -123 -53t-45 -146v-248
q0 -91 43.5 -145.5t124.5 -54.5q80 0 125 53z" />
    <glyph glyph-name="uni2081" unicode="&#x2081;" horiz-adv-x="688" 
d="M289 731l-169 -104v172l169 101h159v-900h-159v731z" />
    <glyph glyph-name="uni2082" unicode="&#x2082;" horiz-adv-x="824" 
d="M342 147h382v-147h-624v136l384 342q79 72 79 141q0 67 -41 111t-106 44q-44 0 -80 -21t-56 -56.5t-18 -75.5h-161q0 90 40 157.5t112 104.5t166 37q86 0 155.5 -38.5t109.5 -107.5t40 -157q0 -62 -17 -105.5t-48 -77t-94 -88.5z" />
    <glyph glyph-name="uni2083" unicode="&#x2083;" horiz-adv-x="808" 
d="M631 460q57 -77 57 -181q0 -85 -42 -153.5t-113 -108t-155 -39.5q-68 0 -129 26.5t-105.5 76t-63.5 115.5l151 41q15 -52 55 -81t90 -29q43 0 78 20t55 54.5t20 77.5t-19.5 78t-54 55t-78.5 20q-38 0 -76 -20l-72 122l255 218h-368v148h558v-148l-200 -192
q100 -23 157 -100z" />
    <glyph glyph-name="uni2084" unicode="&#x2084;" horiz-adv-x="838" 
d="M498 146h-398v147l287 607h179l-287 -607h219v231h157v-231h83v-147h-83v-146h-157v146z" />
    <glyph glyph-name="uni2085" unicode="&#x2085;" horiz-adv-x="809" 
d="M569 539q66 -38 103 -105t37 -152q0 -83 -43.5 -152t-116.5 -109.5t-157 -40.5q-68 0 -127.5 28t-102.5 79t-62 116l150 40q12 -51 55 -82.5t94 -31.5q41 0 76.5 21t56 56t20.5 76q0 42 -21 77.5t-56 56.5t-76 21q-47 0 -81 -16.5t-54 -40.5l-133 42l28 478h490v-145
h-353l-12 -216q30 18 66 28t70 10q83 0 149 -38z" />
    <glyph glyph-name="uni2086" unicode="&#x2086;" horiz-adv-x="877" 
d="M629.5 536q66.5 -38 103.5 -105.5t37 -152.5q0 -84 -42.5 -153.5t-115 -110t-156.5 -40.5q-89 0 -161.5 41.5t-113.5 116.5t-41 170v274q0 104 41 181.5t116.5 119t175.5 41.5q145 0 240 -94l-113 -110q-25 27 -58 42t-69 15q-51 0 -90 -24t-60.5 -63.5t-21.5 -85.5v-89
q37 31 82.5 48t95.5 17q84 0 150.5 -38zM533.5 143q35.5 21 56.5 56.5t21 78.5q0 42 -21 77.5t-56.5 56.5t-77.5 21t-77.5 -21t-56.5 -56.5t-21 -77.5t20.5 -77.5t56 -57t78.5 -21.5q42 0 77.5 21z" />
    <glyph glyph-name="uni2087" unicode="&#x2087;" horiz-adv-x="738" 
d="M472 753h-392v147h558v-147l-307 -753h-168z" />
    <glyph glyph-name="uni2088" unicode="&#x2088;" horiz-adv-x="864" 
d="M717.5 383.5q26.5 -57.5 26.5 -122.5q0 -83 -40.5 -148.5t-111.5 -102t-161 -36.5q-89 0 -160 36.5t-111 102t-40 148.5q0 65 26 122t75 97q-77 74 -77 181q0 76 36.5 134.5t101.5 90.5t149 32t149 -32t101.5 -90.5t36.5 -134.5q0 -107 -77 -181q50 -39 76.5 -96.5z
M342.5 743q-32.5 -28 -32.5 -82t32.5 -82t88.5 -28t88.5 28t32.5 82t-32.5 82t-88.5 28t-88.5 -28zM537 158q40 36 40 103q0 68 -39.5 105t-106.5 37t-106 -37t-39 -105q0 -67 39.5 -103t105.5 -36t106 36z" />
    <glyph glyph-name="uni2089" unicode="&#x2089;" horiz-adv-x="877" 
d="M582.5 876.5q72.5 -41.5 113.5 -116.5t41 -170v-274q0 -104 -41 -181.5t-116.5 -119t-175.5 -41.5q-145 0 -240 94l113 110q25 -27 58 -42t69 -15q51 0 90 24t60.5 63.5t21.5 85.5v89q-37 -31 -82.5 -48t-95.5 -17q-84 0 -150.5 38t-103.5 105.5t-37 152.5
q0 84 42.5 153.5t115 110t156.5 40.5q89 0 161.5 -41.5zM498.5 480q35.5 21 56.5 56.5t21 77.5t-20.5 77.5t-56 57t-78.5 21.5q-42 0 -77.5 -21t-56.5 -56.5t-21 -78.5q0 -42 21 -77.5t56.5 -56.5t77.5 -21t77.5 21z" />
    <glyph glyph-name="uni2070" unicode="&#x2070;" horiz-adv-x="937" 
d="M295 559.5q-74 41.5 -114.5 120t-40.5 184.5v247q0 105 40.5 183.5t114.5 121t173 42.5t173 -42t115 -120t41 -185v-247q0 -106 -39.5 -184t-113.5 -120t-176 -42q-99 0 -173 41.5zM593 717q45 53 45 147v248q0 91 -45 145t-125 54q-78 0 -123 -53t-45 -146v-248
q0 -91 43.5 -145.5t124.5 -54.5q80 0 125 53z" />
    <glyph glyph-name="uni00B9" unicode="&#xb9;" horiz-adv-x="688" 
d="M289 1271l-169 -104v172l169 101h159v-900h-159v731z" />
    <glyph glyph-name="uni00B2" unicode="&#xb2;" horiz-adv-x="824" 
d="M342 687h382v-147h-624v136l384 342q79 72 79 141q0 67 -41 111t-106 44q-44 0 -80 -21t-56 -56.5t-18 -75.5h-161q0 90 40 157.5t112 104.5t166 37q86 0 155.5 -38.5t109.5 -107.5t40 -157q0 -62 -17 -105.5t-48 -77t-94 -88.5z" />
    <glyph glyph-name="uni00B3" unicode="&#xb3;" horiz-adv-x="808" 
d="M631 1000q57 -77 57 -181q0 -85 -42 -153.5t-113 -108t-155 -39.5q-68 0 -129 26.5t-105.5 76t-63.5 115.5l151 41q15 -52 55 -81t90 -29q43 0 78 20t55 54.5t20 77.5t-19.5 78t-54 55t-78.5 20q-38 0 -76 -20l-72 122l255 218h-368v148h558v-148l-200 -192
q100 -23 157 -100z" />
    <glyph glyph-name="uni2074" unicode="&#x2074;" horiz-adv-x="838" 
d="M498 686h-398v147l287 607h179l-287 -607h219v231h157v-231h83v-147h-83v-146h-157v146z" />
    <glyph glyph-name="uni2075" unicode="&#x2075;" horiz-adv-x="809" 
d="M569 1079q66 -38 103 -105t37 -152q0 -83 -43.5 -152t-116.5 -109.5t-157 -40.5q-68 0 -127.5 28t-102.5 79t-62 116l150 40q12 -51 55 -82.5t94 -31.5q41 0 76.5 21t56 56t20.5 76q0 42 -21 77.5t-56 56.5t-76 21q-47 0 -81 -16.5t-54 -40.5l-133 42l28 478h490v-145
h-353l-12 -216q30 18 66 28t70 10q83 0 149 -38z" />
    <glyph glyph-name="uni2076" unicode="&#x2076;" horiz-adv-x="877" 
d="M629.5 1076q66.5 -38 103.5 -105.5t37 -152.5q0 -84 -42.5 -153.5t-115 -110t-156.5 -40.5q-89 0 -161.5 41.5t-113.5 116.5t-41 170v274q0 104 41 181.5t116.5 119t175.5 41.5q145 0 240 -94l-113 -110q-25 27 -58 42t-69 15q-51 0 -90 -24t-60.5 -63.5t-21.5 -85.5v-89
q37 31 82.5 48t95.5 17q84 0 150.5 -38zM533.5 683q35.5 21 56.5 56.5t21 78.5q0 42 -21 77.5t-56.5 56.5t-77.5 21t-77.5 -21t-56.5 -56.5t-21 -77.5t20.5 -77.5t56 -57t78.5 -21.5q42 0 77.5 21z" />
    <glyph glyph-name="uni2077" unicode="&#x2077;" horiz-adv-x="738" 
d="M472 1293h-392v147h558v-147l-307 -753h-168z" />
    <glyph glyph-name="uni2078" unicode="&#x2078;" horiz-adv-x="864" 
d="M717.5 923.5q26.5 -57.5 26.5 -122.5q0 -83 -40.5 -148.5t-111.5 -102t-161 -36.5q-89 0 -160 36.5t-111 102t-40 148.5q0 65 26 122t75 97q-77 74 -77 181q0 76 36.5 134.5t101.5 90.5t149 32t149 -32t101.5 -90.5t36.5 -134.5q0 -107 -77 -181q50 -39 76.5 -96.5z
M342.5 1283q-32.5 -28 -32.5 -82t32.5 -82t88.5 -28t88.5 28t32.5 82t-32.5 82t-88.5 28t-88.5 -28zM537 698q40 36 40 103q0 68 -39.5 105t-106.5 37t-106 -37t-39 -105q0 -67 39.5 -103t105.5 -36t106 36z" />
    </font>
</defs>
</svg>
