<svg xmlns="http://www.w3.org/2000/svg" viewBox="0 0 1024 1024" preserveAspectRatio="xMidYMid meet"><path d="M204.575 978.432c-51.883.058-104.281-20.456-144.179-60.344C20.511 878.152-.003 825.826-.003 773.909c-.058-48.91 18.401-98.106 55.542-135.137l8.455-8.571L575.755 118.44c48.684-48.797 113.357-72.967 177.835-72.854 68.471-.061 137.762 26.969 190.621 79.828 52.797 52.852 79.77 122.051 79.77 190.505.113 64.512-24.098 129.137-72.854 177.869L489.525 955.366l-63.881-63.942 461.585-461.653c30.925-30.925 46.285-71.485 46.339-113.886 0-44.783-17.654-90.911-53.309-126.566-35.768-35.768-81.766-53.309-126.669-53.371-42.342.061-82.855 15.432-113.835 46.401L119.467 702.602c-19.374 19.371-28.918 44.442-29.03 71.253.058 28.286 11.087 57.487 33.888 80.285 22.798 22.685 51.941 33.768 80.224 33.826 26.801-.116 51.886-9.714 71.311-28.969l392.407-392.404c7.311-7.369 10.909-16.626 10.967-27.307 0-11.257-4.4-23.03-13.827-32.457-9.37-9.428-21.197-13.756-32.396-13.756-10.687.058-19.944 3.714-27.307 10.974L272.017 737.769l-63.939-63.887L541.834 340.16c24.972-25.197 58.402-37.649 91.201-37.536 34.799 0 69.823 13.722 96.393 40.284 26.511 26.573 40.284 61.542 40.284 96.393.058 32.683-12.401 66.109-37.482 91.197L339.731 922.926c-36.97 37.024-86.05 55.426-134.793 55.426h-.341z"/></svg>