<?xml version="1.0" encoding="utf-8"?>
<!-- Generator: Adobe Illustrator 21.1.0, SVG Export Plug-In . SVG Version: 6.00 Build 0)  -->
<svg version="1.1" id="Layer_1" xmlns="http://www.w3.org/2000/svg" xmlns:xlink="http://www.w3.org/1999/xlink" x="0px" y="0px"
	 viewBox="0 0 33 33" style="enable-background:new 0 0 33 33;" xml:space="preserve">
<g>
	<path d="M16.5,0C7.4,0,0,7.4,0,16.5C0,25.6,7.4,33,16.5,33C25.6,33,33,25.6,33,16.5C33,7.4,25.6,0,16.5,0z M16.5,30
		C9.1,30,3,23.9,3,16.5C3,9.1,9.1,3,16.5,3C23.9,3,30,9.1,30,16.5C30,23.9,23.9,30,16.5,30z"/>
	<polygon points="7.4,14.5 9.5,16.6 15,11.1 15,25.5 18,25.5 18,11.1 23.5,16.6 25.6,14.5 16.5,5.4 	"/>
</g>
</svg>
