<svg version="1.1" xmlns="http://www.w3.org/2000/svg" width="1024" height="1024" viewBox="0 0 1024 1024">
<path fill="#000" d="M832 315.733c-25.6 8.533-46.933 17.067-72.533 21.333 25.6-17.067 46.933-42.667 59.733-72.533-25.6 17.067-51.2 25.6-81.067 29.867-25.6-25.6-59.733-42.667-93.867-42.667-72.533 0-128 59.733-128 128 0 8.533 0 21.333 4.267 29.867-110.933-4.267-209.067-59.733-268.8-136.533-12.8 21.333-17.067 42.667-17.067 68.267 0 46.933 25.6 85.333 59.733 110.933-21.333 0-42.667-4.267-59.733-17.067 0 0 0 0 0 4.267 0 64 46.933 115.2 102.4 128-8.533 4.267-21.333 4.267-34.133 4.267-8.533 0-17.067 0-25.6-4.267 17.067 51.2 64 89.6 123.733 89.6-46.933 34.133-102.4 55.467-162.133 55.467-8.533 0-21.333 0-29.867-4.267 59.733 38.4 128 59.733 200.533 59.733 243.2 0 371.2-200.533 371.2-371.2 0-4.267 0-8.533 0-17.067 8.533-17.067 29.867-38.4 51.2-64z"></path>
</svg>
