<svg xmlns="http://www.w3.org/2000/svg" viewBox="0 0 1024 1024" preserveAspectRatio="xMidYMid meet"><path d="M512 0C230.4 0 0 230.4 0 512s230.4 512 512 512 512-230.4 512-512S793.6 0 512 0zm300.8 844.8c-12.8-16-25.6-28.8-41.6-35.2-96-41.6-169.6-51.2-169.6-121.6 0 0 118.4-60.8 118.4-262.4 0-102.4-48-240-208-240s-208 137.6-208 240C304 627.2 422.4 688 422.4 688c0 67.2-73.6 76.8-169.6 121.6-16 6.4-28.8 19.2-41.6 35.2C121.6 761.6 64 643.2 64 512 64 265.6 265.6 64 512 64s448 201.6 448 448c0 131.2-57.6 249.6-147.2 332.8z"/></svg>
