<svg version="1.1" xmlns="http://www.w3.org/2000/svg" width="1024" height="1024" viewBox="0 0 1024 1024">
<path d="M676.571 322.304c-59.831-28.197-131.218-2.523-159.451 57.307-1.938 4.133-3.657 9.362-5.157 15.397-1.463-6.034-3.182-11.264-5.157-15.397-28.16-59.831-99.547-85.504-159.378-57.307s-85.467 99.547-57.271 159.378 221.806 231.424 221.806 231.424 0-0.219 0.037-0.585c0 0.402 0 0.622 0 0.622s193.646-171.557 221.842-231.424c28.233-59.867 2.597-131.218-57.271-159.415zM690.213 480.768c-25.417 43.776-174.007 184.722-174.007 184.722l-1.573-2.999c0 0-155.465-140.398-181.211-183.991-30.61-51.822-7.753-108.946 38.949-128.439 43.52-18.176 101.888 27.319 123.502 73.143 1.499 3.182 17.627 1.463 18.798 6.107 1.134-4.645 12.727-2.926 14.226-6.107 21.577-45.824 81.042-93.989 128-72.411 46.007 21.138 66.926 72.155 33.317 129.975z"></path>
</svg>
