<svg id="Layer_1" data-name="Layer 1" xmlns="http://www.w3.org/2000/svg" viewBox="0 0 24 24"><defs><style>.cls-1{fill:#fff;}</style></defs><title>Artboard 1</title><path class="cls-1" d="M12,4.6A7.41,7.41,0,0,0,9.29,18.91a8,8,0,0,1,0-2.1c.12-.55.86-3.7.86-3.7A3.51,3.51,0,0,1,10,12c0-1,.62-1.79,1.36-1.79a.94.94,0,0,1,.93,1,17.91,17.91,0,0,1-.62,2.47,1.09,1.09,0,0,0,1.11,1.36c1.29,0,2.34-1.36,2.34-3.39a2.93,2.93,0,0,0-3.08-3,3.21,3.21,0,0,0-3.33,3.21,2.83,2.83,0,0,0,.56,1.66.23.23,0,0,1,.06.19,7.45,7.45,0,0,0-.19.86c-.06.12-.12.18-.25.12a3.29,3.29,0,0,1-1.48-2.84,4.51,4.51,0,0,1,4.87-4.5,4.34,4.34,0,0,1,4.56,4.26c0,2.53-1.6,4.63-3.82,4.63a2,2,0,0,1-1.73-.86s-.37,1.42-.43,1.79a9.15,9.15,0,0,1-.93,1.91A7.4,7.4,0,1,0,12,4.6Z"/></svg>