<svg id="Layer_1" data-name="Layer 1" xmlns="http://www.w3.org/2000/svg" viewBox="0 0 24 24"><defs><style>.cls-1{fill:#fff;}</style></defs><title>Twitter</title><path class="cls-1" d="M19.46,7.4a5.6,5.6,0,0,1-1.74.5,3.31,3.31,0,0,0,1.37-1.68A5.65,5.65,0,0,1,17.16,7a3,3,0,0,0-2.24-1,3.05,3.05,0,0,0-3,3,2.33,2.33,0,0,0,.06.68A8.59,8.59,0,0,1,5.59,6.46,2.81,2.81,0,0,0,5.16,8a3.12,3.12,0,0,0,1.37,2.55,2.51,2.51,0,0,1-1.37-.37v.06a3,3,0,0,0,2.43,3,3.15,3.15,0,0,1-.81.12,1.72,1.72,0,0,1-.56-.06,3,3,0,0,0,2.86,2.11,6.22,6.22,0,0,1-3.79,1.31,3,3,0,0,1-.75-.06A8.69,8.69,0,0,0,17.91,9.33V9A7.37,7.37,0,0,0,19.46,7.4Z"/></svg>