<svg id="Layer_1" data-name="Layer 1" xmlns="http://www.w3.org/2000/svg" viewBox="0 0 24 24"><defs><style>.cls-1{fill:#fff;}</style></defs><title>Artboard 1</title><path class="cls-1" d="M12.11,6c2,0,2.18,0,3,0a3.13,3.13,0,0,1,2.2.8,3.13,3.13,0,0,1,.8,2.2c0,.77,0,1,0,3s0,2.18,0,3a3.13,3.13,0,0,1-.8,2.2,3.13,3.13,0,0,1-2.2.8c-.77,0-1,0-3,0s-2.18,0-3,0a3.13,3.13,0,0,1-2.2-.8,3.13,3.13,0,0,1-.8-2.2c0-.77,0-1,0-3s0-2.18,0-3A3.13,3.13,0,0,1,7,6.85a3.13,3.13,0,0,1,2.2-.8c.77,0,1,0,3,0m0-1.32c-2,0-2.23,0-3,0A4.37,4.37,0,0,0,6,5.92,4.37,4.37,0,0,0,4.84,9c0,.78,0,1,0,3s0,2.23,0,3A4.37,4.37,0,0,0,6,18.08a4.37,4.37,0,0,0,3.07,1.18c.78,0,1,0,3,0s2.23,0,3,0a4.37,4.37,0,0,0,3.07-1.18A4.37,4.37,0,0,0,19.37,15c0-.78,0-1,0-3s0-2.23,0-3a4.37,4.37,0,0,0-1.18-3.07,4.37,4.37,0,0,0-3.07-1.18c-.78,0-1,0-3,0Z"/><path class="cls-1" d="M12.11,8.25A3.75,3.75,0,1,0,15.86,12,3.75,3.75,0,0,0,12.11,8.25Zm0,6.19A2.44,2.44,0,1,1,14.54,12,2.44,2.44,0,0,1,12.11,14.44Z"/><circle class="cls-1" cx="16.01" cy="8.1" r="0.88"/></svg>