<?xml version="1.0" encoding="utf-8"?>
<!-- Generator: Adobe Illustrator 16.0.0, SVG Export Plug-In . SVG Version: 6.00 Build 0)  -->
<!DOCTYPE svg PUBLIC "-//W3C//DTD SVG 1.1//EN" "http://www.w3.org/Graphics/SVG/1.1/DTD/svg11.dtd">
<svg version="1.1" id="Layer_1" xmlns="http://www.w3.org/2000/svg" xmlns:xlink="http://www.w3.org/1999/xlink" x="0px" y="0px"
	 width="250px" height="500px" viewBox="0 0 250 500" enable-background="new 0 0 250 500" xml:space="preserve">
<g>
	<polygon fill="#FFFFFF" points="231.417,195.976 18.583,195.976 18.583,45.161 111.375,45.161 111.375,77.579 231.417,78.049 	"/>
	<rect x="117.718" y="53.148" fill="#FFFFFF" width="52.621" height="15.974"/>
	<rect x="40.853" y="55.027" fill="#010101" width="52.621" height="15.974"/>
	<rect x="178.484" y="53.148" fill="#FFFFFF" width="52.62" height="15.974"/>
	<rect x="141.837" y="167.948" fill="#010101" width="73.294" height="4.229"/>
	<rect x="31.847" y="105.585" fill="#010101" width="87.858" height="2.819"/>
	<rect x="31.847" y="127.095" fill="#010101" width="87.858" height="2.819"/>
	<rect x="31.847" y="148.604" fill="#010101" width="87.858" height="2.819"/>
	<rect x="31.847" y="170.114" fill="#010101" width="87.858" height="2.819"/>
	
		<rect x="142.307" y="110.049" fill="none" stroke="#010101" stroke-width="3.0423" stroke-miterlimit="10" width="72.354" height="44.428"/>
</g>
<g>
	<polygon fill="#010101" points="231.417,455.777 18.583,455.777 18.583,304.962 111.375,304.962 111.375,337.38 231.417,337.85 	
		"/>
	<rect x="117.718" y="312.949" fill="#010101" width="52.621" height="15.974"/>
	<rect x="40.853" y="314.828" fill="#FFFFFF" width="52.621" height="15.975"/>
	<rect x="178.484" y="312.949" fill="#010101" width="52.62" height="15.974"/>
	<rect x="141.837" y="427.749" fill="#FFFFFF" width="73.294" height="4.229"/>
	<rect x="31.847" y="365.387" fill="#FFFFFF" width="87.858" height="2.818"/>
	<rect x="31.847" y="386.896" fill="#FFFFFF" width="87.858" height="2.819"/>
	<rect x="31.847" y="408.405" fill="#FFFFFF" width="87.858" height="2.819"/>
	<rect x="31.847" y="429.915" fill="#FFFFFF" width="87.858" height="2.818"/>
	<rect x="142.307" y="369.85" fill="#FFFFFF" width="72.354" height="44.429"/>
</g>
</svg>
