<?xml version="1.0" standalone="no"?>
<!DOCTYPE svg PUBLIC "-//W3C//DTD SVG 1.1//EN" "http://www.w3.org/Graphics/SVG/1.1/DTD/svg11.dtd" >
<svg xmlns="http://www.w3.org/2000/svg" xmlns:xlink="http://www.w3.org/1999/xlink" version="1.1">
<metadata>
Created by FontForge 20190801 at Wed Mar 18 05:51:50 2020
 By Jimmy Wärting
Copyright 2019 The Manrope Project Authors (https://github.com/sharanda/manrope)
</metadata>
<defs>
<font id="Manrope-Regular" horiz-adv-x="1188" >
  <font-face 
    font-family="Manrope"
    font-weight="400"
    font-stretch="normal"
    units-per-em="2000"
    panose-1="0 0 5 0 0 0 0 0 0 0"
    ascent="1600"
    descent="-400"
    x-height="1080"
    cap-height="1440"
    bbox="-362 -550 2516 2233"
    underline-thickness="50"
    underline-position="-100"
    unicode-range="U+000D-FB02"
  />
<missing-glyph horiz-adv-x="1480" 
d="M200 1440h1080v-26h-1080v26zM200 1330h1080v-32h-1080v32zM200 1220h1080v-36h-1080v36zM200 1108h1080v-42h-1080v42zM200 996h1080v-44h-1080v44zM200 886h1080v-48h-1080v48zM200 776h1080v-56h-1080v56zM200 666h1080v-60h-1080v60zM200 556h1080v-66h-1080v66z
M200 444h1080v-70h-1080v70zM200 334h1080v-74h-1080v74zM200 224h1080v-80h-1080v80zM200 114h1080v-114h-1080v114z" />
    <glyph glyph-name="f_f" unicode="ff" horiz-adv-x="1325" 
d="M1051 1304.5q-41 -41.5 -41 -128.5v-96h295v-126h-295v-954h-147v954h-469v-954h-147v954h-187v126h187v80q0 75 13.5 131t53.5 100q44 48 102 63.5t135 15.5h138v-124h-128q-85 0 -126 -41.5t-41 -128.5v-96h469v80q0 75 13.5 131t53.5 100q44 48 102 63.5t135 15.5h138
v-124h-128q-85 0 -126 -41.5z" />
    <glyph glyph-name="f_f_l" unicode="ffl" horiz-adv-x="1865" 
d="M1705 1470v-1470h-147v954h-548v-954h-147v954h-469v-954h-147v954h-187v126h187v80q0 75 13.5 131t53.5 100q44 48 102 63.5t135 15.5h138v-124h-128q-85 0 -126 -41.5t-41 -128.5v-96h469v80q0 75 13.5 131t53.5 100q44 48 102 63.5t135 15.5h138v-124h-128
q-85 0 -126 -41.5t-41 -128.5v-96h548v390h147z" />
    <glyph glyph-name="fi" unicode="fi" horiz-adv-x="1206" 
d="M435 1304.5q-41 -41.5 -41 -128.5v-96h295v-126h-295v-954h-147v954h-187v126h187v80q0 75 13.5 131t53.5 100q44 48 102 63.5t135 15.5h138v-124h-128q-85 0 -126 -41.5zM899 1450h147v-165h-147v165zM899 1080h147v-1080h-147v1080z" />
    <glyph glyph-name="fl" unicode="fl" horiz-adv-x="1249" 
d="M1089 1470v-1470h-147v954h-548v-954h-147v954h-187v126h187v80q0 75 13.5 131t53.5 100q44 48 102 63.5t135 15.5h138v-124h-128q-85 0 -126 -41.5t-41 -128.5v-96h548v390h147z" />
    <glyph glyph-name="t_t.liga" unicode="tt" horiz-adv-x="1483" 
d="M1079 397v-59q0 -50 4 -80.5t18 -54.5q24 -46 69 -66t112 -20q57 0 127 12v-129q-80 -16 -149 -16q-102 0 -179.5 35.5t-113.5 109.5q-22 43 -28.5 88.5t-6.5 113.5v60v563h-535v-557v-59q0 -50 4 -80.5t18 -54.5q24 -46 69 -66t113 -20q57 0 127 12v-129
q-80 -16 -149 -16q-103 0 -180 35t-114 110q-21 43 -27.5 88t-6.5 112v62v563h-231v126h231v300h146v-300h535v300h147v-300h330v-126h-330v-557z" />
    <glyph glyph-name="hyphen_hyphen.liga" unicode="&#x2d;&#x2d;" horiz-adv-x="1080" 
d="M120 693h840v-126h-840v126z" />
    <glyph glyph-name="hyphen_greater.liga" unicode="&#x2d;&#x3e;" horiz-adv-x="2002" 
d="M280 567v126h1221l-328 328l80 78l469 -469l-469 -469l-80 78l328 328h-1221z" />
    <glyph glyph-name="parenleft_greater_parenright.liga" unicode="&#x28;&#x3e;&#x29;" horiz-adv-x="2300" 
d="M1646.5 -137q227.5 133 360.5 360.5t133 496.5t-133 496.5t-360.5 360.5t-496.5 133t-496.5 -133t-360.5 -360.5t-133 -496.5t133 -496.5t360.5 -360.5t496.5 -133t496.5 133zM726 -13q-195 114 -309 309t-114 427q0 229 114 423t309 307.5t427 113.5q229 0 423 -113.5
t307.5 -307.5t113.5 -423q0 -232 -113.5 -427t-307.5 -309t-423 -114q-232 0 -427 114zM1405 720l-384 -320v640z" />
    <glyph glyph-name="parenleft_c_parenright.liga" unicode="&#x28;c&#x29;" horiz-adv-x="1807" 
d="M530.5 47q-170.5 100 -270.5 270.5t-100 372.5t100 372.5t270.5 270.5t372.5 100t373 -100t271 -270.5t100 -372.5t-100 -372.5t-271 -270.5t-373 -100t-372.5 100zM1203.5 170.5q137.5 80.5 218 218.5t80.5 302q0 163 -80.5 300.5t-218 218t-300.5 80.5
q-164 0 -302 -80.5t-218.5 -218t-80.5 -300.5q0 -164 80.5 -302t218.5 -218.5t302 -80.5q163 0 300.5 80.5zM747.5 300.5q-71.5 31.5 -124.5 98.5q-91 114 -91 294q2 179 91 290q53 66 126 98.5t169 32.5q56 0 103.5 -11.5t93.5 -39.5q50 -31 86 -76.5t52 -102.5l-123 -37
q-13 32 -35 60.5t-50 49.5q-55 39 -132 39q-58 0 -106.5 -23t-81.5 -66q-60 -76 -60 -213q0 -63 15 -119.5t45 -97.5q31 -44 79.5 -67t108.5 -23q78 0 134 38q51 36 80 105l126 -34q-22 -55 -55 -97.5t-72 -69.5q-46 -30 -98 -45t-116 -15q-93 0 -164.5 31.5z" />
    <glyph glyph-name="space_less_three_space.liga" unicode="&#x20;&#x3c;&#x33;&#x20;" horiz-adv-x="2334" 
d="M1117 -20q-24 10 -42 29l-408 430q-54 58 -80.5 128.5t-26.5 145.5q0 102 46.5 193.5t130.5 147.5t189 56q123 0 241 -90q58 46 119.5 68t120.5 22q107 0 190.5 -56t130 -147.5t46.5 -193.5q0 -75 -26.5 -146t-81.5 -128l-407 -430q-18 -19 -42 -29t-50 -10t-50 10z
M1630 613.5q18 47.5 18 98.5q0 69 -31 132t-86 101.5t-124 38.5q-59 0 -120 -32.5t-120 -97.5q-127 130 -241 130q-69 0 -124 -38.5t-85 -101.5t-30 -132q0 -52 18 -100t54 -86l408 -429l408 429q37 40 55 87.5z" />
    <glyph glyph-name="less_hyphen.liga" unicode="&#x3c;&#x2d;" horiz-adv-x="2002" 
d="M829 239l-80 -78l-469 469l469 469l80 -78l-328 -328h1221v-126h-1221z" />
    <glyph glyph-name=".notdef" horiz-adv-x="1480" 
d="M200 1440h1080v-26h-1080v26zM200 1330h1080v-32h-1080v32zM200 1220h1080v-36h-1080v36zM200 1108h1080v-42h-1080v42zM200 996h1080v-44h-1080v44zM200 886h1080v-48h-1080v48zM200 776h1080v-56h-1080v56zM200 666h1080v-60h-1080v60zM200 556h1080v-66h-1080v66z
M200 444h1080v-70h-1080v70zM200 334h1080v-74h-1080v74zM200 224h1080v-80h-1080v80zM200 114h1080v-114h-1080v114z" />
    <glyph glyph-name=".null" horiz-adv-x="1200" 
 />
    <glyph glyph-name="nonmarkingreturn" unicode="&#xd;" horiz-adv-x="1200" 
 />
    <glyph glyph-name="space" unicode=" " horiz-adv-x="400" 
 />
    <glyph glyph-name="A" unicode="A" horiz-adv-x="1267" 
d="M1074 0l-121 349h-640l-120 -349h-153l496 1440h195l496 -1440h-153zM361 487h544l-273 787z" />
    <glyph glyph-name="Aacute" unicode="&#xc1;" horiz-adv-x="1267" 
d="M796 1830l-76 -240h-148l76 240h148zM1074 0l-121 349h-640l-120 -349h-153l496 1440h195l496 -1440h-153zM361 487h544l-273 787z" />
    <glyph glyph-name="Abreve" unicode="&#x102;" horiz-adv-x="1267" 
d="M505.5 1602.5q-59.5 34.5 -94 94t-34.5 129.5h122q0 -37 18.5 -68t49.5 -49.5t68 -18.5t68.5 18.5t49.5 49.5t18 68h122q0 -70 -35 -129.5t-94 -94t-129 -34.5t-129.5 34.5zM1074 0l-121 349h-640l-120 -349h-153l496 1440h195l496 -1440h-153zM361 487h544l-273 787z
" />
    <glyph glyph-name="uni1EAE" unicode="&#x1eae;" horiz-adv-x="1267" 
d="M780 2100l-76 -240h-148l76 240h148zM504.5 1602.5q-59.5 34.5 -94 94t-34.5 129.5h122q0 -37 18.5 -68t49.5 -49.5t68 -18.5t68.5 18.5t49.5 49.5t18 68h122q0 -70 -35 -129.5t-94 -94t-129 -34.5t-129.5 34.5zM1074 0l-121 349h-640l-120 -349h-153l496 1440h195
l496 -1440h-153zM361 487h544l-273 787z" />
    <glyph glyph-name="uni1EB6" unicode="&#x1eb6;" horiz-adv-x="1267" 
d="M505.5 1602.5q-59.5 34.5 -94 94t-34.5 129.5h122q0 -37 18.5 -68t49.5 -49.5t68 -18.5t68.5 18.5t49.5 49.5t18 68h122q0 -70 -35 -129.5t-94 -94t-129 -34.5t-129.5 34.5zM1227 0h-153l-121 349h-640l-120 -349h-153l496 1440h195zM361 487h544l-273 787zM548 -383v165
h171v-165h-171z" />
    <glyph glyph-name="uni1EB0" unicode="&#x1eb0;" horiz-adv-x="1267" 
d="M712 1860h-148l-76 240h148zM504.5 1602.5q-59.5 34.5 -94 94t-34.5 129.5h122q0 -37 18 -68t49.5 -49.5t68.5 -18.5q36 0 67.5 18.5t50 49.5t18.5 68h122q0 -70 -35 -129.5t-94 -94t-129 -34.5t-129.5 34.5zM1074 0l-121 349h-640l-120 -349h-153l496 1440h195
l496 -1440h-153zM361 487h544l-273 787z" />
    <glyph glyph-name="uni1EB2" unicode="&#x1eb2;" horiz-adv-x="1267" 
d="M583 2129q-22 0 -46 -10.5t-45 -28.5l-47 77q30 31 70 48.5t81 17.5q43 0 80.5 -21.5t62.5 -64.5q25 -44 25 -90q0 -65 -44 -118.5t-109 -76.5l-49 68q46 21 71.5 51.5t25.5 64.5q0 23 -12 45q-21 38 -64 38zM504.5 1602.5q-59.5 34.5 -94 94t-34.5 129.5h122
q0 -37 18.5 -68t49.5 -49.5t68 -18.5t68.5 18.5t49.5 49.5t18 68h122q0 -70 -35 -129.5t-94 -94t-129 -34.5t-129.5 34.5zM1074 0l-121 349h-640l-120 -349h-153l496 1440h195l496 -1440h-153zM361 487h544l-273 787z" />
    <glyph glyph-name="uni1EB4" unicode="&#x1eb4;" horiz-adv-x="1267" 
d="M322 1900q-8 34 -8 60q0 68 41.5 111.5t112.5 43.5q41 0 80.5 -17t93.5 -48q44 -25 71 -37t51 -12q26 0 40.5 17.5t14.5 45.5q0 18 -6 37h104q8 -34 8 -60q0 -70 -41.5 -114t-113.5 -44q-41 0 -80 16.5t-93 48.5q-45 25 -71 37t-50 12q-28 0 -42 -17t-14 -44q0 -18 6 -36
h-104zM685.5 1708.5q31.5 18.5 49.5 49.5t18 68h122q0 -70 -34.5 -129.5t-94 -94t-129.5 -34.5t-129.5 34.5t-94 94t-34.5 129.5h122q0 -37 18.5 -68t49.5 -49.5t68 -18.5t68.5 18.5zM1074 0l-121 349h-640l-120 -349h-153l496 1440h195l496 -1440h-153zM361 487h544
l-273 787z" />
    <glyph glyph-name="Acircumflex" unicode="&#xc2;" horiz-adv-x="1267" 
d="M635 1716l-222 -144l-62 100l284 184l284 -184l-63 -100zM1074 0l-121 349h-640l-120 -349h-153l496 1440h195l496 -1440h-153zM361 487h544l-273 787z" />
    <glyph glyph-name="uni1EA4" unicode="&#x1ea4;" horiz-adv-x="1267" 
d="M1117 2040l-76 -240h-148l76 240h148zM634 1716l-222 -144l-62 100l284 184l284 -184l-63 -100zM1074 0l-121 349h-640l-120 -349h-153l496 1440h195l496 -1440h-153zM361 487h544l-273 787z" />
    <glyph glyph-name="uni1EAC" unicode="&#x1eac;" horiz-adv-x="1267" 
d="M635 1716l-222 -144l-62 100l284 184l284 -184l-63 -100zM1227 0h-153l-121 349h-640l-120 -349h-153l496 1440h195zM361 487h544l-273 787zM548 -383v165h171v-165h-171z" />
    <glyph glyph-name="uni1EA6" unicode="&#x1ea6;" horiz-adv-x="1267" 
d="M1049 1800h-148l-76 240h148zM634 1716l-222 -144l-62 100l284 184l284 -184l-63 -100zM1074 0l-121 349h-640l-120 -349h-153l496 1440h195l496 -1440h-153zM361 487h544l-273 787z" />
    <glyph glyph-name="uni1EA8" unicode="&#x1ea8;" horiz-adv-x="1267" 
d="M1018 1875q-22 0 -46 -10.5t-45 -28.5l-48 77q30 31 70 48.5t81 17.5q43 0 80.5 -21.5t62.5 -64.5q25 -44 25 -90q0 -65 -44 -118.5t-109 -76.5l-49 68q46 21 72 52t26 65q0 22 -12 44q-21 38 -64 38zM635 1716l-222 -144l-62 100l284 184l284 -184l-63 -100zM1074 0
l-121 349h-640l-120 -349h-153l496 1440h195l496 -1440h-153zM361 487h544l-273 787z" />
    <glyph glyph-name="uni1EAA" unicode="&#x1eaa;" horiz-adv-x="1267" 
d="M340 1900q-8 34 -8 60q0 68 41.5 111.5t112.5 43.5q41 0 80.5 -17t93.5 -48q44 -25 71 -37t51 -12q26 0 40.5 17.5t14.5 45.5q0 18 -6 37h104q8 -34 8 -60q0 -70 -41.5 -114t-113.5 -44q-41 0 -80 16.5t-93 48.5q-45 25 -71 37t-50 12q-28 0 -42 -17t-14 -44q0 -18 6 -36
h-104zM348 1672l284 184l284 -184l-63 -100l-221 144l-222 -144zM1074 0l-121 349h-640l-120 -349h-153l496 1440h195l496 -1440h-153zM361 487h544l-273 787z" />
    <glyph glyph-name="Adieresis" unicode="&#xc4;" horiz-adv-x="1267" 
d="M524 1811v-160h-160v160h160zM905 1811v-160h-160v160h160zM1074 0l-121 349h-640l-120 -349h-153l496 1440h195l496 -1440h-153zM361 487h544l-273 787z" />
    <glyph glyph-name="uni1EA0" unicode="&#x1ea0;" horiz-adv-x="1267" 
d="M1227 0h-153l-121 349h-640l-120 -349h-153l496 1440h195zM361 487h544l-273 787zM548 -383v165h171v-165h-171z" />
    <glyph glyph-name="Agrave" unicode="&#xc0;" horiz-adv-x="1267" 
d="M695 1590h-148l-76 240h148zM1074 0l-120 349h-640l-121 -349h-153l496 1440h195l496 -1440h-153zM362 487h544l-271 787z" />
    <glyph glyph-name="uni1EA2" unicode="&#x1ea2;" horiz-adv-x="1267" 
d="M608 1875q-22 0 -46 -10.5t-45 -28.5l-47 77q30 31 70 48.5t81 17.5q43 0 80.5 -21.5t62.5 -64.5q25 -44 25 -90q0 -65 -44 -118.5t-109 -76.5l-49 68q46 21 71.5 51.5t25.5 64.5q0 23 -12 45q-21 38 -64 38zM1074 0l-121 349h-640l-120 -349h-153l496 1440h195
l496 -1440h-153zM361 487h544l-273 787z" />
    <glyph glyph-name="Amacron" unicode="&#x100;" horiz-adv-x="1267" 
d="M885 1805v-125h-501v125h501zM1074 0l-121 349h-640l-120 -349h-153l496 1440h195l496 -1440h-153zM361 487h544l-273 787z" />
    <glyph glyph-name="Aogonek" unicode="&#x104;" horiz-adv-x="1267" 
d="M1233 -393q-33 -43 -77.5 -66t-91.5 -23q-52 0 -96 27t-69.5 72t-25.5 96q0 76 52.5 158.5t139.5 155.5l-112 322h-640l-120 -349h-153l496 1440h195l496 -1440q-94 -57 -160 -136.5t-66 -142.5q0 -37 22 -60.5t54 -23.5q22 0 46 13.5t46 35.5zM361 487h544l-273 787z
" />
    <glyph glyph-name="Aring" unicode="&#xc5;" horiz-adv-x="1267" 
d="M525.5 1586.5q-50.5 29.5 -80.5 80t-30 109.5t30 109.5t80.5 80t109.5 29.5t109.5 -29.5t80 -80t29.5 -109.5q0 -60 -29.5 -110t-79.5 -79.5t-110 -29.5q-59 0 -109.5 29.5zM550.5 1861q-35.5 -35 -35.5 -85q0 -49 35.5 -84.5t84.5 -35.5q50 0 85 35t35 85t-35 85t-85 35
q-49 0 -84.5 -35zM1074 0l-121 349h-640l-120 -349h-153l496 1440h195l496 -1440h-153zM361 487h544l-273 787z" />
    <glyph glyph-name="Atilde" unicode="&#xc3;" horiz-adv-x="1267" 
d="M337 1679q-8 34 -8 60q0 68 41.5 111t112.5 43q41 0 79.5 -16.5t94.5 -47.5q41 -24 69 -36.5t52 -12.5q26 0 40.5 17t14.5 45q0 18 -6 37h104q8 -34 8 -60q0 -69 -41.5 -113t-113.5 -44q-41 0 -79 16t-94 48q-41 24 -69 36.5t-52 12.5q-27 0 -41 -17t-14 -43q0 -18 6 -36
h-104zM1074 0l-121 349h-640l-120 -349h-153l496 1440h195l496 -1440h-153zM361 487h544l-273 787z" />
    <glyph glyph-name="AE" unicode="&#xc6;" horiz-adv-x="1837" 
d="M1737 1299h-754v-498h634v-141h-634v-519h754v-141h-900v349h-524l-120 -349h-153l496 1440h1201v-141zM360 487h477v812h-198z" />
    <glyph glyph-name="B" unicode="B" horiz-adv-x="1226" 
d="M1104.5 621.5q62.5 -93.5 62.5 -217.5q0 -123 -53 -214.5t-149 -140.5t-223 -49h-602v1440h556q118 0 209 -49.5t141.5 -134.5t50.5 -187q0 -98 -45.5 -179t-123.5 -126q114 -49 176.5 -142.5zM288 826h407q69 0 126 31.5t90.5 87.5t33.5 126q0 67 -32 119.5t-89 81.5
t-129 29h-407v-475zM864 172.5q70 31.5 110.5 90.5t40.5 139q0 79 -37 144t-101 103t-144 38h-445v-546h418q88 0 158 31.5z" />
    <glyph glyph-name="C" unicode="C" horiz-adv-x="1431" 
d="M363 64q-149 94 -226 263.5t-77 392.5t77 392.5t226 263.5t360 94q164 0 291.5 -57.5t212 -163.5t124.5 -252l-150 -39q-47 175 -168 273t-310 98q-165 0 -278.5 -76t-170.5 -213t-59 -320q-1 -182 56.5 -319.5t172 -213.5t279.5 -76q189 0 310 98t168 273l150 -39
q-40 -146 -124.5 -252t-212 -163.5t-291.5 -57.5q-211 0 -360 94z" />
    <glyph glyph-name="Cacute" unicode="&#x106;" horiz-adv-x="1431" 
d="M661 1590l76 240h148l-76 -240h-148zM363 64q-149 94 -226 263.5t-77 392.5t77 392.5t226 263.5t360 94q164 0 291.5 -57.5t212 -163.5t124.5 -252l-150 -39q-47 175 -168 273t-310 98q-165 0 -278.5 -76t-170.5 -213t-59 -320q-1 -182 56.5 -319.5t172 -213.5t279.5 -76
q189 0 310 98t168 273l150 -39q-40 -146 -124.5 -252t-212 -163.5t-291.5 -57.5q-211 0 -360 94z" />
    <glyph glyph-name="Ccaron" unicode="&#x10c;" horiz-adv-x="1431" 
d="M478 1756l63 100l221 -144l221 144l63 -100l-284 -184zM363 64q-149 94 -226 263.5t-77 392.5t77 392.5t226 263.5t360 94q164 0 291.5 -57.5t212 -163.5t124.5 -252l-150 -39q-47 175 -168 273t-310 98q-165 0 -278.5 -76t-170.5 -213t-59 -320q-1 -182 56.5 -319.5
t172 -213.5t279.5 -76q189 0 310 98t168 273l150 -39q-40 -146 -124.5 -252t-212 -163.5t-291.5 -57.5q-211 0 -360 94z" />
    <glyph glyph-name="Ccedilla" unicode="&#xc7;" horiz-adv-x="1431" 
d="M1033 209q121 98 168 273l150 -39q-55 -201 -193 -324t-347 -144l-34 -94q121 -54 121 -172q0 -53 -26 -96t-69 -68t-94 -25q-63 0 -128 31l38 102q47 -18 78 -18q37 0 59 23.5t22 54.5q0 29 -18 47.5t-43.5 29.5t-71.5 25l56 155q-204 5 -348.5 100.5t-218.5 263
t-74 386.5q0 223 77 392.5t226 263.5t360 94q164 0 291.5 -57.5t212 -163.5t124.5 -252l-150 -39q-47 175 -168 273t-310 98q-165 0 -278.5 -76t-170.5 -213t-59 -320q-1 -182 56.5 -319.5t172 -213.5t279.5 -76q189 0 310 98z" />
    <glyph glyph-name="Ccircumflex" unicode="&#x108;" horiz-adv-x="1431" 
d="M440 1672l284 184l284 -184l-63 -100l-221 144l-221 -144zM363 64q-149 94 -226 263.5t-77 392.5t77 392.5t226 263.5t360 94q164 0 291.5 -57.5t212 -163.5t124.5 -252l-150 -39q-47 175 -168 273t-310 98q-165 0 -278.5 -76t-170.5 -213t-59 -320q-1 -182 56.5 -319.5
t172 -213.5t279.5 -76q189 0 310 98t168 273l150 -39q-40 -146 -124.5 -252t-212 -163.5t-291.5 -57.5q-211 0 -360 94z" />
    <glyph glyph-name="Cdotaccent" unicode="&#x10a;" horiz-adv-x="1431" 
d="M654 1840h171v-171h-171v171zM363 64q-149 94 -226 263.5t-77 392.5t77 392.5t226 263.5t360 94q164 0 291.5 -57.5t212 -163.5t124.5 -252l-150 -39q-47 175 -168 273t-310 98q-165 0 -278.5 -76t-170.5 -213t-59 -320q-1 -182 56.5 -319.5t172 -213.5t279.5 -76
q189 0 310 98t168 273l150 -39q-40 -146 -124.5 -252t-212 -163.5t-291.5 -57.5q-211 0 -360 94z" />
    <glyph glyph-name="D" unicode="D" horiz-adv-x="1343" 
d="M577 1440q116 0 185 -9q159 -22 270.5 -120t167.5 -251t56 -340q0 -188 -56 -341t-167 -250.5t-271 -119.5q-67 -9 -185 -9h-437v1440h437zM747 153q180 31 266.5 184t86.5 383q0 231 -87 383t-266 184q-61 12 -170 12h-285v-1158h285q109 0 170 12z" />
    <glyph glyph-name="Eth" unicode="&#xd0;" horiz-adv-x="1331" 
d="M1020.5 1311q111.5 -98 167.5 -251t56 -340q0 -188 -56 -341t-167 -250.5t-271 -119.5q-67 -9 -185 -9h-437v657h-108v126h108v657h437q116 0 185 -9q159 -22 270.5 -120zM1001.5 337q86.5 153 86.5 383q0 231 -87 383t-266 184q-61 12 -170 12h-285v-516h370v-126h-370
v-516h285q109 0 170 12q180 31 266.5 184z" />
    <glyph glyph-name="Dcaron" unicode="&#x10e;" horiz-adv-x="1343" 
d="M307 1756l62 100l222 -144l221 144l63 -100l-284 -184zM762 1431q159 -22 270.5 -120t167.5 -251t56 -340q0 -188 -56 -341t-167 -250.5t-271 -119.5q-67 -9 -185 -9h-437v1440h437q116 0 185 -9zM747 153q180 31 266.5 184t86.5 383q0 231 -87 383t-266 184
q-61 12 -170 12h-285v-1158h285q109 0 170 12z" />
    <glyph glyph-name="Dcroat" unicode="&#x110;" horiz-adv-x="1331" 
d="M1020.5 1311q111.5 -98 167.5 -251t56 -340q0 -188 -56 -341t-167 -250.5t-271 -119.5q-67 -9 -185 -9h-437v657h-108v126h108v657h437q116 0 185 -9q159 -22 270.5 -120zM1001.5 337q86.5 153 86.5 383q0 231 -87 383t-266 184q-61 12 -170 12h-285v-516h370v-126h-370
v-516h285q109 0 170 12q180 31 266.5 184z" />
    <glyph glyph-name="E" unicode="E" horiz-adv-x="1140" 
d="M140 1440h900v-141h-753v-498h633v-141h-633v-519h753v-141h-900v1440z" />
    <glyph glyph-name="Eacute" unicode="&#xc9;" horiz-adv-x="1140" 
d="M538 1590l76 240h148l-76 -240h-148zM1040 1440v-141h-753v-498h633v-141h-633v-519h753v-141h-900v1440h900z" />
    <glyph glyph-name="Ecaron" unicode="&#x11a;" horiz-adv-x="1140" 
d="M313 1756l63 100l221 -144l222 144l62 -100l-284 -184zM1040 1440v-141h-753v-498h633v-141h-633v-519h753v-141h-900v1440h900z" />
    <glyph glyph-name="Ecircumflex" unicode="&#xca;" horiz-adv-x="1140" 
d="M296 1672l284 184l284 -184l-63 -100l-221 144l-221 -144zM1040 1440v-141h-753v-498h633v-141h-633v-519h753v-141h-900v1440h900z" />
    <glyph glyph-name="uni1EBE" unicode="&#x1ebe;" horiz-adv-x="1140" 
d="M842 1800l76 240h148l-76 -240h-148zM299 1672l284 184l284 -184l-63 -100l-221 144l-221 -144zM1040 1440v-141h-753v-498h633v-141h-633v-519h753v-141h-900v1440h900z" />
    <glyph glyph-name="uni1EC6" unicode="&#x1ec6;" horiz-adv-x="1140" 
d="M580 1856l284 -184l-63 -100l-221 144l-221 -144l-63 100zM1040 1299h-753v-498h633v-141h-633v-519h753v-141h-900v1440h900v-141zM505 -218h170v-165h-170v165z" />
    <glyph glyph-name="uni1EC0" unicode="&#x1ec0;" horiz-adv-x="1140" 
d="M815 2040h148l76 -240h-148zM340 1672l284 184l284 -184l-62 -100l-222 144l-221 -144zM1040 1440v-141h-753v-498h633v-141h-633v-519h753v-141h-900v1440h900z" />
    <glyph glyph-name="uni1EC2" unicode="&#x1ec2;" horiz-adv-x="1200" 
d="M913 1961.5q40 17.5 81 17.5q43 0 80.5 -21.5t62.5 -64.5q25 -44 25 -90q0 -65 -44 -118.5t-109 -76.5l-49 68q46 21 71.5 51.5t25.5 64.5q0 23 -12 45q-21 38 -64 38q-22 0 -46 -10.5t-45 -28.5l-47 77q30 31 70 48.5zM314 1672l284 184l284 -184l-62 -100l-222 144
l-221 -144zM1040 1440v-141h-753v-498h633v-141h-633v-519h753v-141h-900v1440h900z" />
    <glyph glyph-name="uni1EC4" unicode="&#x1ec4;" horiz-adv-x="1140" 
d="M663 1899.5q-39 16.5 -93 48.5q-45 25 -71 37t-50 12q-28 0 -42 -17t-14 -44q0 -18 6 -36h-104q-8 34 -8 60q0 68 41.5 111.5t112.5 43.5q41 0 80.5 -17t93.5 -48q44 -25 71 -37t51 -12q26 0 40.5 17.5t14.5 45.5q0 18 -6 37h104q8 -34 8 -60q0 -70 -41.5 -114
t-113.5 -44q-41 0 -80 16.5zM303 1672l284 184l284 -184l-63 -100l-221 144l-222 -144zM1040 1440v-141h-753v-498h633v-141h-633v-519h753v-141h-900v1440h900z" />
    <glyph glyph-name="Edieresis" unicode="&#xcb;" horiz-adv-x="1140" 
d="M299 1811h160v-160h-160v160zM680 1811h160v-160h-160v160zM1040 1440v-141h-753v-498h633v-141h-633v-519h753v-141h-900v1440h900z" />
    <glyph glyph-name="Edotaccent" unicode="&#x116;" horiz-adv-x="1140" 
d="M511 1840h170v-171h-170v171zM1040 1440v-141h-753v-498h633v-141h-633v-519h753v-141h-900v1440h900z" />
    <glyph glyph-name="uni1EB8" unicode="&#x1eb8;" horiz-adv-x="1200" 
d="M1040 1440v-141h-753v-498h633v-141h-633v-519h753v-141h-900v1440h900zM505 -218h170v-165h-170v165z" />
    <glyph glyph-name="Egrave" unicode="&#xc8;" horiz-adv-x="1140" 
d="M473 1830h148l76 -240h-148zM1040 1440v-141h-753v-498h633v-141h-633v-519h753v-141h-900v1440h900z" />
    <glyph glyph-name="uni1EBA" unicode="&#x1eba;" horiz-adv-x="1140" 
d="M507 1961.5q40 17.5 81 17.5q43 0 80.5 -21.5t62.5 -64.5q25 -44 25 -90q0 -65 -44 -118.5t-109 -76.5l-49 68q46 21 72 52t26 65q0 22 -12 44q-21 38 -64 38q-22 0 -46 -10.5t-45 -28.5l-48 77q30 31 70 48.5zM1040 1440v-141h-753v-498h633v-141h-633v-519h753v-141
h-900v1440h900z" />
    <glyph glyph-name="Emacron" unicode="&#x112;" horiz-adv-x="1140" 
d="M343 1805h501v-125h-501v125zM1040 1440v-141h-753v-498h633v-141h-633v-519h753v-141h-900v1440h900z" />
    <glyph glyph-name="Eogonek" unicode="&#x118;" horiz-adv-x="1140" 
d="M1046 -393q-33 -43 -77.5 -66t-91.5 -23q-52 0 -96 27t-70 72t-26 96q0 69 43.5 143.5t118.5 143.5h-707v1440h900v-141h-753v-498h633v-141h-633v-519h753v-141q-94 -57 -160.5 -136.5t-66.5 -142.5q0 -37 22.5 -60.5t53.5 -23.5q45 0 92 49z" />
    <glyph glyph-name="uni1EBC" unicode="&#x1ebc;" horiz-adv-x="1140" 
d="M653.5 1628.5q-38.5 16.5 -91.5 47.5q-47 26 -72.5 37.5t-50.5 11.5q-27 0 -41 -17t-14 -43q0 -18 6 -36h-104q-8 34 -8 59q0 69 41.5 112t112.5 43q41 0 79.5 -16.5t94.5 -47.5q41 -24 69 -36.5t52 -12.5q26 0 41 17.5t15 45.5q0 18 -6 36h104q8 -34 8 -60
q0 -69 -41.5 -113t-114.5 -44q-41 0 -79.5 16.5zM1040 1440v-141h-753v-498h633v-141h-633v-519h753v-141h-900v1440h900z" />
    <glyph glyph-name="F" unicode="F" horiz-adv-x="1007" 
d="M140 1440h827v-147h-680v-500h560v-146h-560v-647h-147v1440z" />
    <glyph glyph-name="G" unicode="G" horiz-adv-x="1410" 
d="M367 62q-148 92 -227.5 261.5t-79.5 396.5q0 226 78.5 395t227 261.5t351.5 92.5q224 0 370.5 -105t205.5 -291l-148 -36q-49 135 -158 212.5t-264 77.5q-165 1 -278 -74.5t-170 -212.5t-59 -320q-2 -182 55.5 -319t172 -213t279.5 -77q225 -1 341 129t128 368h-332v126
h486q4 -41 4 -85q0 -198 -71.5 -351.5t-213.5 -240.5t-348 -87q-202 0 -350 92z" />
    <glyph glyph-name="Gbreve" unicode="&#x11e;" horiz-adv-x="1410" 
d="M593.5 1602.5q-59.5 34.5 -94 94t-34.5 129.5h122q0 -37 18.5 -68t49.5 -49.5t68 -18.5t68.5 18.5t49.5 49.5t18 68h122q0 -70 -35 -129.5t-94 -94t-129 -34.5t-129.5 34.5zM367 62q-148 92 -227.5 261.5t-79.5 396.5q0 226 78.5 395t227 261.5t351.5 92.5
q224 0 370.5 -105t205.5 -291l-148 -36q-49 135 -158 212.5t-264 77.5q-165 1 -278 -74.5t-170 -212.5t-59 -320q-2 -182 55.5 -319t172 -213t279.5 -77q225 -1 341 129t128 368h-332v126h486q4 -41 4 -85q0 -198 -71.5 -351.5t-213.5 -240.5t-348 -87q-202 0 -350 92z" />
    <glyph glyph-name="Gcircumflex" unicode="&#x11c;" horiz-adv-x="1410" 
d="M419 1672l284 184l284 -184l-62 -100l-222 144l-221 -144zM367 62q-148 92 -227.5 261.5t-79.5 396.5q0 226 78.5 395t227 261.5t351.5 92.5q224 0 370.5 -105t205.5 -291l-148 -36q-49 135 -158 212.5t-264 77.5q-165 1 -278 -74.5t-170 -212.5t-59 -320
q-2 -182 55.5 -319t172 -213t279.5 -77q225 -1 341 129t128 368h-332v126h486q4 -41 4 -85q0 -198 -71.5 -351.5t-213.5 -240.5t-348 -87q-202 0 -350 92z" />
    <glyph glyph-name="uni0122" unicode="&#x122;" horiz-adv-x="1410" 
d="M367 62q-148 92 -227.5 261.5t-79.5 396.5q0 226 78.5 395t227 261.5t351.5 92.5q224 0 370.5 -105t205.5 -291l-148 -36q-49 135 -158 212.5t-264 77.5q-165 1 -278 -74.5t-170 -212.5t-59 -320q-2 -182 55.5 -319t172 -213t279.5 -77q225 -1 341 129t128 368h-332v126
h486q4 -41 4 -85q0 -198 -71.5 -351.5t-213.5 -240.5t-348 -87q-202 0 -350 92zM686.5 -464q21.5 8 37.5 28t14 53h-89v165h166v-165q0 -53 -23.5 -91t-61.5 -57t-81 -19v78q16 0 37.5 8z" />
    <glyph glyph-name="Gdotaccent" unicode="&#x120;" horiz-adv-x="1410" 
d="M653 1840h170v-171h-170v171zM367 62q-148 92 -227.5 261.5t-79.5 396.5q0 226 78.5 395t227 261.5t351.5 92.5q224 0 370.5 -105t205.5 -291l-148 -36q-49 135 -158 212.5t-264 77.5q-165 1 -278 -74.5t-170 -212.5t-59 -320q-2 -182 55.5 -319t172 -213t279.5 -77
q225 -1 341 129t128 368h-332v126h486q4 -41 4 -85q0 -198 -71.5 -351.5t-213.5 -240.5t-348 -87q-202 0 -350 92z" />
    <glyph glyph-name="H" unicode="H" horiz-adv-x="1369" 
d="M140 1440h147v-649h796v649h146v-1440h-146v650h-796v-650h-147v1440z" />
    <glyph glyph-name="Hbar" unicode="&#x126;" horiz-adv-x="1409" 
d="M1389 1134v-141h-140v-993h-146v650h-796v-650h-147v993h-140v141h140v306h147v-306h796v306h146v-306h140zM1103 791v202h-796v-202h796z" />
    <glyph glyph-name="Hcircumflex" unicode="&#x124;" horiz-adv-x="1369" 
d="M401 1672l284 184l284 -184l-63 -100l-221 144l-222 -144zM287 1440v-649h796v649h146v-1440h-146v650h-796v-650h-147v1440h147z" />
    <glyph glyph-name="I" unicode="I" horiz-adv-x="467" 
d="M160 1440h147v-1440h-147v1440z" />
    <glyph glyph-name="Iacute" unicode="&#xcd;" horiz-adv-x="467" 
d="M160 1590l76 240h148l-76 -240h-148zM307 1440v-1440h-147v1440h147z" />
    <glyph glyph-name="Icircumflex" unicode="&#xce;" horiz-adv-x="467" 
d="M-51 1672l284 184l284 -184l-62 -100l-222 144l-221 -144zM307 1440v-1440h-147v1440h147z" />
    <glyph glyph-name="Idieresis" unicode="&#xcf;" horiz-adv-x="467" 
d="M-37 1811h160v-160h-160v160zM344 1811h160v-160h-160v160zM307 1440v-1440h-147v1440h147z" />
    <glyph glyph-name="Idotaccent" unicode="&#x130;" horiz-adv-x="467" 
d="M148 1840h171v-171h-171v171zM307 1440v-1440h-147v1440h147z" />
    <glyph glyph-name="uni1ECA" unicode="&#x1eca;" horiz-adv-x="467" 
d="M307 1440v-1440h-147v1440h147zM148 -218h171v-165h-171v165z" />
    <glyph glyph-name="Igrave" unicode="&#xcc;" horiz-adv-x="467" 
d="M83 1830h148l76 -240h-148zM307 1440v-1440h-147v1440h147z" />
    <glyph glyph-name="uni1EC8" unicode="&#x1ec8;" horiz-adv-x="467" 
d="M129 1961.5q40 17.5 81 17.5q43 0 80.5 -21.5t62.5 -64.5q25 -44 25 -90q0 -65 -44 -118.5t-109 -76.5l-49 68q46 21 72 52t26 65q0 22 -12 44q-21 38 -64 38q-22 0 -46 -10.5t-45 -28.5l-48 77q30 31 70 48.5zM307 1440v-1440h-147v1440h147z" />
    <glyph glyph-name="Imacron" unicode="&#x12a;" horiz-adv-x="467" 
d="M-17 1805h501v-125h-501v125zM307 1440v-1440h-147v1440h147z" />
    <glyph glyph-name="Iogonek" unicode="&#x12e;" horiz-adv-x="467" 
d="M313 -393q-34 -43 -78.5 -66t-91.5 -23q-52 0 -96 27t-69.5 72t-25.5 96q0 80 57 166.5t151 160.5v1400h147v-1440q-94 -57 -160.5 -136.5t-66.5 -142.5q0 -37 22 -60.5t54 -23.5q45 0 92 49z" />
    <glyph glyph-name="Itilde" unicode="&#x128;" horiz-adv-x="467" 
d="M303.5 1628.5q-38.5 16.5 -91.5 47.5q-47 26 -72.5 37.5t-50.5 11.5q-27 0 -41 -17t-14 -43q0 -18 6 -36h-104q-8 34 -8 59q0 69 41.5 112t112.5 43q41 0 79.5 -16.5t94.5 -47.5q41 -24 69 -36.5t52 -12.5q26 0 41 17.5t15 45.5q0 18 -6 36h104q8 -34 8 -60
q0 -69 -41.5 -113t-114.5 -44q-41 0 -79.5 16.5zM307 1440v-1440h-147v1440h147z" />
    <glyph glyph-name="J" unicode="J" horiz-adv-x="927" 
d="M211.5 7q-79.5 36 -134 102.5t-77.5 155.5l147 35q12 -53 46 -96t84 -67.5t108 -24.5q61 0 117 29t87 87q20 39 24.5 84t4.5 131v997h148v-997v-55q0 -81 -8.5 -132.5t-38.5 -103.5q-51 -90 -138 -135.5t-195 -45.5q-95 0 -174.5 36z" />
    <glyph glyph-name="Jcircumflex" unicode="&#x134;" horiz-adv-x="927" 
d="M408 1672l284 184l284 -184l-63 -100l-221 144l-221 -144zM211.5 7q-79.5 36 -134 102.5t-77.5 155.5l147 35q12 -53 46 -96t84 -67.5t108 -24.5q61 0 117 29t87 87q20 39 24.5 84t4.5 131v997h148v-997v-55q0 -81 -8.5 -132.5t-38.5 -103.5q-51 -90 -138 -135.5
t-195 -45.5q-95 0 -174.5 36z" />
    <glyph glyph-name="K" unicode="K" horiz-adv-x="1187" 
d="M140 1440h147v-680l657 680h188l-671 -695l726 -745h-192l-708 720v-720h-147v1440z" />
    <glyph glyph-name="uni0136" unicode="&#x136;" horiz-adv-x="1187" 
d="M287 1440v-680l657 680h188l-671 -695l726 -745h-192l-708 720v-720h-147v1440h147zM582 -464q21 8 37 28t14 53h-88v165h165v-165q0 -53 -23.5 -91t-61 -57t-80.5 -19v78q16 0 37 8z" />
    <glyph glyph-name="L" unicode="L" horiz-adv-x="1021" 
d="M160 1440h147v-1299h684v-141h-831v1440z" />
    <glyph glyph-name="Lacute" unicode="&#x139;" horiz-adv-x="1021" 
d="M160 1590l76 240h148l-76 -240h-148zM307 1440v-1299h684v-141h-831v1440h147z" />
    <glyph glyph-name="Lcaron" unicode="&#x13d;" horiz-adv-x="1021" 
d="M160 1440h147v-1299h684v-141h-831v1440zM720 1140q16 36 12 103h-91v211h171v-251q0 -81 -36.5 -127t-99.5 -46q-11 0 -35 4l9 73q54 -3 70 33z" />
    <glyph glyph-name="uni013B" unicode="&#x13b;" horiz-adv-x="1021" 
d="M307 1440v-1299h684v-141h-831v1440h147zM530 -464q21 8 37 28t14 53h-88v165h165v-165q0 -53 -23.5 -91t-61 -57t-80.5 -19v78q16 0 37 8z" />
    <glyph glyph-name="Lslash" unicode="&#x141;" horiz-adv-x="1034" 
d="M320 141h684v-141h-831v458l-89 -51v165l89 51v817h147v-733l355 204v-164l-355 -204v-402z" />
    <glyph glyph-name="M" unicode="M" horiz-adv-x="1681" 
d="M140 1440h135l566 -1211l563 1211h137v-1439h-140v1111l-513 -1112h-95l-512 1112v-1112h-141v1440z" />
    <glyph glyph-name="N" unicode="N" horiz-adv-x="1369" 
d="M140 1440h148l793 -1180v1180h148v-1440h-148l-793 1181v-1181h-148v1440z" />
    <glyph glyph-name="Nacute" unicode="&#x143;" horiz-adv-x="1369" 
d="M627 1590l76 240h148l-76 -240h-148zM288 1440l793 -1180v1180h148v-1440h-148l-793 1181v-1181h-148v1440h148z" />
    <glyph glyph-name="Ncaron" unicode="&#x147;" horiz-adv-x="1369" 
d="M426 1756l63 100l221 -144l221 144l63 -100l-284 -184zM288 1440l793 -1180v1180h148v-1440h-148l-793 1181v-1181h-148v1440h148z" />
    <glyph glyph-name="uni0145" unicode="&#x145;" horiz-adv-x="1369" 
d="M288 1440l793 -1180v1180h148v-1440h-148l-793 1181v-1181h-148v1440h148zM659.5 -464q21.5 8 37.5 28t14 53h-89v165h165v-165q0 -54 -23 -91.5t-61 -56.5t-81 -19v78q16 0 37.5 8z" />
    <glyph glyph-name="Eng" unicode="&#x14a;" horiz-adv-x="1369" 
d="M1229 -185q0 -109 -49.5 -161t-152.5 -52q-56 0 -108 13v122q48 -6 67 -6q62 0 87 31t25 112q0 51 -15.5 98t-51.5 103l-743 1106v-1181h-148v1440h148l793 -1180v1180h148v-1625z" />
    <glyph glyph-name="Ntilde" unicode="&#xd1;" horiz-adv-x="1369" 
d="M782 1628q-38 16 -94 48q-41 24 -69 36.5t-52 12.5q-28 0 -42 -17t-14 -44q0 -17 6 -35h-104q-8 34 -8 59q0 69 41.5 112t112.5 43q41 0 81.5 -16.5t92.5 -47.5q41 -24 69.5 -36.5t52.5 -12.5q26 0 40.5 17.5t14.5 45.5q0 17 -6 36h104q8 -34 8 -60q0 -69 -41.5 -113
t-113.5 -44q-41 0 -79 16zM288 1440l793 -1180v1180h148v-1440h-148l-793 1181v-1181h-148v1440h148z" />
    <glyph glyph-name="O" unicode="O" horiz-adv-x="1447" 
d="M363 64q-149 94 -226 263.5t-77 392.5t77 392.5t226 263.5t360 94t360.5 -94t226.5 -263.5t77 -392.5t-77 -392.5t-226.5 -263.5t-360.5 -94t-360 94zM1002 187q114 76 171.5 213t57.5 320q0 182 -57.5 319t-171.5 213t-279 77q-165 0 -278 -76t-170 -213t-59 -320
q-2 -182 55.5 -319t172 -213t279.5 -77q165 0 279 76z" />
    <glyph glyph-name="Oacute" unicode="&#xd3;" horiz-adv-x="1447" 
d="M665 1590l76 240h148l-76 -240h-148zM363 64q-149 94 -226 263.5t-77 392.5t77 392.5t226 263.5t360 94t360.5 -94t226.5 -263.5t77 -392.5t-77 -392.5t-226.5 -263.5t-360.5 -94t-360 94zM1002 187q114 76 171.5 213t57.5 320q0 182 -57.5 319t-171.5 213t-279 77
q-165 0 -278 -76t-170 -213t-59 -320q-2 -182 55.5 -319t172 -213t279.5 -77q165 0 279 76z" />
    <glyph glyph-name="Ocircumflex" unicode="&#xd4;" horiz-adv-x="1447" 
d="M439 1672l284 184l284 -184l-62 -100l-222 144l-221 -144zM363 64q-149 94 -226 263.5t-77 392.5t77 392.5t226 263.5t360 94t360.5 -94t226.5 -263.5t77 -392.5t-77 -392.5t-226.5 -263.5t-360.5 -94t-360 94zM1002 187q114 76 171.5 213t57.5 320q0 182 -57.5 319
t-171.5 213t-279 77q-165 0 -278 -76t-170 -213t-59 -320q-2 -182 55.5 -319t172 -213t279.5 -77q165 0 279 76z" />
    <glyph glyph-name="uni1ED0" unicode="&#x1ed0;" horiz-adv-x="1447" 
d="M996 1800l76 240h148l-76 -240h-148zM452 1672l284 184l284 -184l-62 -100l-222 144l-221 -144zM363 64q-149 94 -226 263.5t-77 392.5t77 392.5t226 263.5t360 94t360.5 -94t226.5 -263.5t77 -392.5t-77 -392.5t-226.5 -263.5t-360.5 -94t-360 94zM1002 187
q114 76 171.5 213t57.5 320q0 182 -57.5 319t-171.5 213t-279 77q-165 0 -278 -76t-170 -213t-59 -320q-2 -182 55.5 -319t172 -213t279.5 -77q165 0 279 76z" />
    <glyph glyph-name="uni1ED8" unicode="&#x1ed8;" horiz-adv-x="1447" 
d="M439 1672l284 184l284 -184l-62 -100l-222 144l-221 -144zM363 64q-149 94 -226 263.5t-77 392.5t77 392.5t226 263.5t360 94t360.5 -94t226.5 -263.5t77 -392.5t-77 -392.5t-226.5 -263.5t-360.5 -94t-360 94zM1002 187q114 76 171.5 213t57.5 320q0 182 -57.5 319
t-171.5 213t-279 77q-165 0 -278 -76t-170 -213t-59 -320q-2 -182 55.5 -319t172 -213t279.5 -77q165 0 279 76zM638 -218h171v-165h-171v165z" />
    <glyph glyph-name="uni1ED2" unicode="&#x1ed2;" horiz-adv-x="1447" 
d="M915 2040h148l76 -240h-148zM440 1672l284 184l284 -184l-63 -100l-221 144l-221 -144zM363 64q-149 94 -226 263.5t-77 392.5t77 392.5t226 263.5t360 94t360.5 -94t226.5 -263.5t77 -392.5t-77 -392.5t-226.5 -263.5t-360.5 -94t-360 94zM1002 187q114 76 171.5 213
t57.5 320q0 182 -57.5 319t-171.5 213t-279 77q-165 0 -278 -76t-170 -213t-59 -320q-2 -182 55.5 -319t172 -213t279.5 -77q165 0 279 76z" />
    <glyph glyph-name="uni1ED4" unicode="&#x1ed4;" horiz-adv-x="1447" 
d="M1062 1961.5q40 17.5 81 17.5q43 0 80.5 -21.5t62.5 -64.5q25 -44 25 -90q0 -65 -44 -118.5t-109 -76.5l-49 68q46 21 72 52t26 65q0 22 -12 44q-21 38 -64 38q-22 0 -46 -10.5t-45 -28.5l-48 77q30 31 70 48.5zM464 1672l284 184l284 -184l-63 -100l-221 144l-222 -144z
M363 64q-149 94 -226 263.5t-77 392.5t77 392.5t226 263.5t360 94t360.5 -94t226.5 -263.5t77 -392.5t-77 -392.5t-226.5 -263.5t-360.5 -94t-360 94zM1002 187q114 76 171.5 213t57.5 320q0 182 -57.5 319t-171.5 213t-279 77q-165 0 -278 -76t-170 -213t-59 -320
q-2 -182 55.5 -319t172 -213t279.5 -77q165 0 279 76z" />
    <glyph glyph-name="uni1ED6" unicode="&#x1ed6;" horiz-adv-x="1447" 
d="M793.5 1899.5q-38.5 16.5 -91.5 47.5q-45 26 -71.5 38t-51.5 12q-27 0 -41 -17t-14 -43q0 -19 6 -37h-104q-8 34 -8 60q0 68 41.5 111.5t112.5 43.5q41 0 80.5 -17t93.5 -48q45 -25 71 -37t50 -12q26 0 41 17.5t15 46.5q0 17 -6 36h104q8 -34 8 -60q0 -69 -42 -113.5
t-114 -44.5q-41 0 -79.5 16.5zM433 1672l284 184l284 -184l-62 -100l-222 144l-221 -144zM363 64q-149 94 -226 263.5t-77 392.5t77 392.5t226 263.5t360 94t360.5 -94t226.5 -263.5t77 -392.5t-77 -392.5t-226.5 -263.5t-360.5 -94t-360 94zM1002 187q114 76 171.5 213
t57.5 320q0 182 -57.5 319t-171.5 213t-279 77q-165 0 -278 -76t-170 -213t-59 -320q-2 -182 55.5 -319t172 -213t279.5 -77q165 0 279 76z" />
    <glyph glyph-name="Odieresis" unicode="&#xd6;" horiz-adv-x="1447" 
d="M453 1811h160v-160h-160v160zM834 1811h160v-160h-160v160zM363 64q-149 94 -226 263.5t-77 392.5t77 392.5t226 263.5t360 94t360.5 -94t226.5 -263.5t77 -392.5t-77 -392.5t-226.5 -263.5t-360.5 -94t-360 94zM1002 187q114 76 171.5 213t57.5 320q0 182 -57.5 319
t-171.5 213t-279 77q-165 0 -278 -76t-170 -213t-59 -320q-2 -182 55.5 -319t172 -213t279.5 -77q165 0 279 76z" />
    <glyph glyph-name="uni1ECC" unicode="&#x1ecc;" horiz-adv-x="1447" 
d="M363 64q-149 94 -226 263.5t-77 392.5t77 392.5t226 263.5t360 94t360.5 -94t226.5 -263.5t77 -392.5t-77 -392.5t-226.5 -263.5t-360.5 -94t-360 94zM1002 187q114 76 171.5 213t57.5 320q0 182 -57.5 319t-171.5 213t-279 77q-165 0 -278 -76t-170 -213t-59 -320
q-2 -182 55.5 -319t172 -213t279.5 -77q165 0 279 76zM622 -218h171v-165h-171v165z" />
    <glyph glyph-name="Ograve" unicode="&#xd2;" horiz-adv-x="1447" 
d="M571 1830h148l76 -240h-148zM363 64q-149 94 -226 263.5t-77 392.5t77 392.5t226 263.5t360 94t360.5 -94t226.5 -263.5t77 -392.5t-77 -392.5t-226.5 -263.5t-360.5 -94t-360 94zM1002 187q114 76 171.5 213t57.5 320q0 182 -57.5 319t-171.5 213t-279 77
q-165 0 -278 -76t-170 -213t-59 -320q-2 -182 55.5 -319t172 -213t279.5 -77q165 0 279 76z" />
    <glyph glyph-name="uni1ECE" unicode="&#x1ece;" horiz-adv-x="1447" 
d="M663 1961.5q40 17.5 81 17.5q43 0 80.5 -21.5t62.5 -64.5q25 -44 25 -90q0 -65 -44 -118.5t-109 -76.5l-49 68q46 21 71.5 51.5t25.5 64.5q0 23 -12 45q-21 38 -64 38q-22 0 -46 -10.5t-45 -28.5l-47 77q30 31 70 48.5zM363 64q-149 94 -226 263.5t-77 392.5t77 392.5
t226 263.5t360 94t360.5 -94t226.5 -263.5t77 -392.5t-77 -392.5t-226.5 -263.5t-360.5 -94t-360 94zM1002 187q114 76 171.5 213t57.5 320q0 182 -57.5 319t-171.5 213t-279 77q-165 0 -278 -76t-170 -213t-59 -320q-2 -182 55.5 -319t172 -213t279.5 -77q165 0 279 76z
" />
    <glyph glyph-name="Ohorn" unicode="&#x1a0;" horiz-adv-x="1447" 
d="M1318.5 1094q68.5 -163 68.5 -374q0 -223 -77 -392.5t-226.5 -263.5t-360.5 -94t-360 94t-226 263.5t-77 392.5t77 392.5t226 263.5t360 94q114 0 208 -27q36 -9 63 -9q31 0 61 14q40 19 55 52t15 79q0 14 -2 44h123q6 -37 6 -72q0 -123 -83 -176q-24 -14 -50 -23
q131 -95 199.5 -258zM1002 187q114 76 171.5 213t57.5 320q0 182 -57.5 319t-171.5 213t-279 77q-165 0 -278 -76t-170 -213t-59 -320q-2 -182 55.5 -319t172 -213t279.5 -77q165 0 279 76z" />
    <glyph glyph-name="uni1EDA" unicode="&#x1eda;" horiz-adv-x="1447" 
d="M889 1830l-76 -240h-148l76 240h148zM1318.5 1094q68.5 -163 68.5 -374q0 -223 -77 -392.5t-226.5 -263.5t-360.5 -94t-360 94t-226 263.5t-77 392.5t77 392.5t226 263.5t360 94q114 0 208 -27q36 -9 63 -9q31 0 61 14q40 19 55 52t15 79q0 14 -2 44h123q6 -37 6 -72
q0 -123 -83 -176q-24 -14 -50 -23q131 -95 199.5 -258zM1002 187q114 76 171.5 213t57.5 320q0 182 -57.5 319t-171.5 213t-279 77q-165 0 -278 -76t-170 -213t-59 -320q-2 -182 55.5 -319t172 -213t279.5 -77q165 0 279 76z" />
    <glyph glyph-name="uni1EE2" unicode="&#x1ee2;" horiz-adv-x="1447" 
d="M1318.5 1094q68.5 -163 68.5 -374q0 -223 -77 -392.5t-226.5 -263.5t-360.5 -94t-360 94t-226 263.5t-77 392.5t77 392.5t226 263.5t360 94q114 0 208 -27q36 -9 63 -9q31 0 61 14q40 19 55 52t15 79q0 14 -2 44h123q6 -37 6 -72q0 -123 -83 -176q-24 -14 -50 -23
q131 -95 199.5 -258zM1002 187q114 76 171.5 213t57.5 320q0 182 -57.5 319t-171.5 213t-279 77q-165 0 -278 -76t-170 -213t-59 -320q-2 -182 55.5 -319t172 -213t279.5 -77q165 0 279 76zM646 -383v165h171v-165h-171z" />
    <glyph glyph-name="uni1EDC" unicode="&#x1edc;" horiz-adv-x="1447" 
d="M795 1590h-148l-76 240h148zM1318.5 1094q68.5 -163 68.5 -374q0 -223 -77 -392.5t-226.5 -263.5t-360.5 -94t-360 94t-226 263.5t-77 392.5t77 392.5t226 263.5t360 94q114 0 208 -27q36 -9 63 -9q31 0 61 14q40 19 55 52t15 79q0 14 -2 44h123q6 -37 6 -72
q0 -123 -83 -176q-24 -14 -50 -23q131 -95 199.5 -258zM1002 187q114 76 171.5 213t57.5 320q0 182 -57.5 319t-171.5 213t-279 77q-165 0 -278 -76t-170 -213t-59 -320q-2 -182 55.5 -319t172 -213t279.5 -77q165 0 279 76z" />
    <glyph glyph-name="uni1EDE" unicode="&#x1ede;" horiz-adv-x="1447" 
d="M731 1875q-22 0 -46 -10.5t-45 -28.5l-47 77q30 31 70 48.5t81 17.5q43 0 80.5 -21.5t62.5 -64.5q25 -44 25 -90q0 -65 -44 -118.5t-109 -76.5l-49 68q46 21 71.5 51.5t25.5 64.5q0 23 -12 45q-21 38 -64 38zM1318.5 1094q68.5 -163 68.5 -374q0 -223 -77 -392.5
t-226.5 -263.5t-360.5 -94t-360 94t-226 263.5t-77 392.5t77 392.5t226 263.5t360 94q114 0 208 -27q36 -9 63 -9q31 0 61 14q40 19 55 52t15 79q0 14 -2 44h123q6 -37 6 -72q0 -123 -83 -176q-24 -14 -50 -23q131 -95 199.5 -258zM1002 187q114 76 171.5 213t57.5 320
q0 182 -57.5 319t-171.5 213t-279 77q-165 0 -278 -76t-170 -213t-59 -320q-2 -182 55.5 -319t172 -213t279.5 -77q165 0 279 76z" />
    <glyph glyph-name="uni1EE0" unicode="&#x1ee0;" horiz-adv-x="1447" 
d="M434 1629q-8 34 -8 60q0 68 41.5 111t112.5 43q41 0 79.5 -16.5t94.5 -47.5q41 -24 69 -36.5t52 -12.5q26 0 40.5 17t14.5 45q0 18 -6 37h104q8 -34 8 -60q0 -69 -41.5 -113t-113.5 -44q-41 0 -79 16t-94 48q-41 24 -69 36.5t-52 12.5q-27 0 -41 -17t-14 -43q0 -18 6 -36
h-104zM1318.5 1094q68.5 -163 68.5 -374q0 -223 -77 -392.5t-226.5 -263.5t-360.5 -94t-360 94t-226 263.5t-77 392.5t77 392.5t226 263.5t360 94q114 0 208 -27q36 -9 63 -9q31 0 61 14q40 19 55 52t15 79q0 14 -2 44h123q6 -37 6 -72q0 -123 -83 -176q-24 -14 -50 -23
q131 -95 199.5 -258zM1002 187q114 76 171.5 213t57.5 320q0 182 -57.5 319t-171.5 213t-279 77q-165 0 -278 -76t-170 -213t-59 -320q-2 -182 55.5 -319t172 -213t279.5 -77q165 0 279 76z" />
    <glyph glyph-name="Ohungarumlaut" unicode="&#x150;" horiz-adv-x="1447" 
d="M464 1591l76 240h148l-76 -240h-148zM839 1591l76 240h148l-76 -240h-148zM363 64q-149 94 -226 263.5t-77 392.5t77 392.5t226 263.5t360 94t360.5 -94t226.5 -263.5t77 -392.5t-77 -392.5t-226.5 -263.5t-360.5 -94t-360 94zM1002 187q114 76 171.5 213t57.5 320
q0 182 -57.5 319t-171.5 213t-279 77q-165 0 -278 -76t-170 -213t-59 -320q-2 -182 55.5 -319t172 -213t279.5 -77q165 0 279 76z" />
    <glyph glyph-name="Omacron" unicode="&#x14c;" horiz-adv-x="1447" 
d="M473 1805h501v-125h-501v125zM363 64q-149 94 -226 263.5t-77 392.5t77 392.5t226 263.5t360 94t360.5 -94t226.5 -263.5t77 -392.5t-77 -392.5t-226.5 -263.5t-360.5 -94t-360 94zM1002 187q114 76 171.5 213t57.5 320q0 182 -57.5 319t-171.5 213t-279 77
q-165 0 -278 -76t-170 -213t-59 -320q-2 -182 55.5 -319t172 -213t279.5 -77q165 0 279 76z" />
    <glyph glyph-name="Oslash" unicode="&#xd8;" horiz-adv-x="1447" 
d="M1266 1194q60 -93 90.5 -213.5t30.5 -260.5q0 -223 -77 -392.5t-226.5 -263.5t-360.5 -94q-136 0 -246.5 39.5t-193.5 115.5l-140 -151l-105 95l151 165q-64 95 -96.5 218.5t-32.5 267.5q0 223 77 392.5t226 263.5t360 94q140 0 254 -42.5t198 -122.5l143 156l105 -94z
M297 349l777 844q-131 135 -351 136q-166 0 -280 -77t-170.5 -216t-56.5 -324q0 -216 81 -363zM1002 187q114 76 171.5 213t57.5 320q0 213 -76 358l-773 -842q131 -124 341 -125q165 0 279 76z" />
    <glyph glyph-name="Otilde" unicode="&#xd5;" horiz-adv-x="1447" 
d="M809 1628q-38 16 -94 48q-41 24 -69 36.5t-52 12.5q-27 0 -41 -17t-14 -43q0 -18 6 -36h-104q-8 34 -8 60q0 68 41.5 111t112.5 43q41 0 79.5 -16.5t94.5 -47.5q41 -24 69 -36.5t52 -12.5q26 0 40.5 17t14.5 45q0 18 -6 37h104q8 -34 8 -60q0 -69 -41.5 -113t-113.5 -44
q-41 0 -79 16zM363 64q-149 94 -226 263.5t-77 392.5t77 392.5t226 263.5t360 94t360.5 -94t226.5 -263.5t77 -392.5t-77 -392.5t-226.5 -263.5t-360.5 -94t-360 94zM1002 187q114 76 171.5 213t57.5 320q0 182 -57.5 319t-171.5 213t-279 77q-165 0 -278 -76t-170 -213
t-59 -320q-2 -182 55.5 -319t172 -213t279.5 -77q165 0 279 76z" />
    <glyph glyph-name="OE" unicode="&#x152;" horiz-adv-x="2239" 
d="M1386 1299v-498h633v-141h-633v-519h753v-141h-900v207q-86 -114 -216.5 -175.5t-299.5 -61.5q-211 0 -360 94t-226 263.5t-77 392.5t77 392.5t226 263.5t360 94q169 0 299.5 -61.5t216.5 -175.5v207h900v-141h-753zM1002 187q114 76 171.5 213t57.5 320q0 182 -57.5 319
t-171.5 213t-279 77q-165 0 -278 -76t-170 -213t-59 -320q-2 -182 55.5 -319t172 -213t279.5 -77q165 0 279 76z" />
    <glyph glyph-name="P" unicode="P" horiz-adv-x="1208" 
d="M696 1440q53 0 101 -8q110 -17 189.5 -78t120.5 -154.5t41 -206.5t-41.5 -206t-120.5 -154t-189 -78q-48 -8 -101 -8h-409v-547h-147v1440h556zM781 696q71 15 119.5 59t72.5 106.5t24 131.5t-24 131.5t-72.5 107t-119.5 59.5q-40 8 -89 8h-405v-612h405q50 0 89 9z" />
    <glyph glyph-name="Thorn" unicode="&#xde;" horiz-adv-x="1189" 
d="M288 1440v-273h393q75 0 151 -28q51 -17 96 -47t79 -70q58 -60 90 -141t32 -165q0 -76 -29 -150t-79 -133q-60 -74 -151 -116.5t-189 -42.5h-393v-274h-148v1440h148zM804.5 445q61.5 30 103.5 82q33 40 51 88t18 98q0 62 -22.5 119.5t-65.5 101.5q-39 41 -95.5 66
t-113.5 25h-392v-610h392q63 0 124.5 30z" />
    <glyph glyph-name="Q" unicode="Q" horiz-adv-x="1447" 
d="M1349 432q-38 -131 -113 -228l133 -133l-98 -100l-133 132q-166 -133 -415 -133q-211 0 -360 94t-226 263.5t-77 392.5t77 392.5t226 263.5t360 94t360.5 -94t226.5 -263.5t77 -392.5q0 -157 -38 -288zM1032 208l-145 145l100 100l140 -140q51 78 77.5 181.5t26.5 225.5
q0 182 -57.5 319t-171.5 213t-279 77q-165 0 -278 -76t-170 -213t-59 -320q-2 -182 55.5 -319t172 -213t279.5 -77q185 0 309 97z" />
    <glyph glyph-name="R" unicode="R" horiz-adv-x="1261" 
d="M1012 0l-265 547h-460v-547h-147v1440h556q53 0 101 -8q110 -17 189.5 -78t120.5 -154.5t41 -206.5q0 -144 -65.5 -253t-185.5 -157l284 -583h-169zM692 687q50 0 89 9q71 15 119.5 59t72.5 106.5t24 131.5t-24 131.5t-72.5 107t-119.5 59.5q-40 8 -89 8h-405v-612h405z
" />
    <glyph glyph-name="Racute" unicode="&#x154;" horiz-adv-x="1261" 
d="M729 1830l-76 -240h-148l76 240h148zM1012 0l-265 547h-460v-547h-147v1440h556q53 0 101 -8q110 -17 189.5 -78t120.5 -154.5t41 -206.5q0 -144 -65.5 -253t-185.5 -157l284 -583h-169zM692 687q50 0 89 9q71 15 119.5 59t72.5 106.5t24 131.5t-24 131.5t-72.5 107
t-119.5 59.5q-40 8 -89 8h-405v-612h405z" />
    <glyph glyph-name="Rcaron" unicode="&#x158;" horiz-adv-x="1261" 
d="M861 1756l-284 -184l-284 184l62 100l222 -144l221 144zM1012 0l-265 547h-460v-547h-147v1440h556q53 0 101 -8q110 -17 189.5 -78t120.5 -154.5t41 -206.5q0 -144 -65.5 -253t-185.5 -157l284 -583h-169zM692 687q50 0 89 9q71 15 119.5 59t72.5 106.5t24 131.5
t-24 131.5t-72.5 107t-119.5 59.5q-40 8 -89 8h-405v-612h405z" />
    <glyph glyph-name="uni0156" unicode="&#x156;" horiz-adv-x="1261" 
d="M1012 0l-265 547h-460v-547h-147v1440h556q53 0 101 -8q110 -17 189.5 -78t120.5 -154.5t41 -206.5q0 -144 -65.5 -253t-185.5 -157l284 -583h-169zM692 687q50 0 89 9q71 15 119.5 59t72.5 106.5t24 131.5t-24 131.5t-72.5 107t-119.5 59.5q-40 8 -89 8h-405v-612h405z
M534 -218h165v-165q0 -54 -23 -91.5t-61 -56.5t-81 -19v78q16 0 37.5 8t37.5 28t14 53h-89v165z" />
    <glyph glyph-name="S" unicode="S" horiz-adv-x="1233" 
d="M369 20.5q-121 50.5 -199.5 144t-102.5 220.5l150 25q24 -92 84.5 -159.5t149 -103.5t195.5 -36q106 0 190.5 34t132 96.5t47.5 145.5q0 99 -62 151.5t-159 81.5l-365 109q-307 91 -307 345q0 119 63.5 209t175 138t253.5 48q143 0 257.5 -51t188.5 -146t97 -223
l-154 -28q-14 92 -68.5 161.5t-138 107.5t-183.5 39q-95 0 -172 -32t-120.5 -89t-43.5 -128q0 -68 38 -112.5t91.5 -69t126.5 -45.5l282 -83q88 -25 161 -61t131 -113.5t58 -202.5q0 -131 -68 -226.5t-187.5 -146t-270.5 -50.5q-150 0 -271 50.5z" />
    <glyph glyph-name="Sacute" unicode="&#x15a;" horiz-adv-x="1233" 
d="M549 1590l76 240h148l-76 -240h-148zM369 20.5q-121 50.5 -199.5 144t-102.5 220.5l150 25q24 -92 84.5 -159.5t149 -103.5t195.5 -36q106 0 190.5 34t132 96.5t47.5 145.5q0 99 -62 151.5t-159 81.5l-365 109q-307 91 -307 345q0 119 63.5 209t175 138t253.5 48
q143 0 257.5 -51t188.5 -146t97 -223l-154 -28q-14 92 -68.5 161.5t-138 107.5t-183.5 39q-95 0 -172 -32t-120.5 -89t-43.5 -128q0 -68 38 -112.5t91.5 -69t126.5 -45.5l282 -83q88 -25 161 -61t131 -113.5t58 -202.5q0 -131 -68 -226.5t-187.5 -146t-270.5 -50.5
q-150 0 -271 50.5z" />
    <glyph glyph-name="Scaron" unicode="&#x160;" horiz-adv-x="1233" 
d="M359 1756l63 100l221 -144l222 144l62 -100l-284 -184zM369 20.5q-121 50.5 -199.5 144t-102.5 220.5l150 25q24 -92 84.5 -159.5t149 -103.5t195.5 -36q106 0 190.5 34t132 96.5t47.5 145.5q0 99 -62 151.5t-159 81.5l-365 109q-307 91 -307 345q0 119 63.5 209t175 138
t253.5 48q143 0 257.5 -51t188.5 -146t97 -223l-154 -28q-14 92 -68.5 161.5t-138 107.5t-183.5 39q-95 0 -172 -32t-120.5 -89t-43.5 -128q0 -68 38 -112.5t91.5 -69t126.5 -45.5l282 -83q88 -25 161 -61t131 -113.5t58 -202.5q0 -131 -68 -226.5t-187.5 -146t-270.5 -50.5
q-150 0 -271 50.5z" />
    <glyph glyph-name="Scedilla" unicode="&#x15e;" horiz-adv-x="1233" 
d="M1108.5 182.5q-57.5 -90.5 -159.5 -144t-235 -65.5l-34 -92q121 -55 121 -172q0 -53 -26 -96t-69.5 -68t-94.5 -25q-63 0 -127 31l38 102q47 -18 77 -18q37 0 59.5 23.5t22.5 54.5q0 29 -18 47.5t-43.5 29t-71.5 25.5l56 156q-141 6 -254 58t-186.5 143t-96.5 213l150 25
q24 -92 84.5 -159.5t149 -103.5t195.5 -36q106 0 190.5 34t132 96.5t47.5 145.5q0 99 -62 151.5t-159 81.5l-365 109q-307 91 -307 345q0 119 63.5 209t175 138t253.5 48q143 0 257.5 -51t188.5 -146t97 -223l-154 -28q-14 92 -68.5 161.5t-138 107.5t-183.5 39
q-95 0 -172 -32t-120.5 -89t-43.5 -128q0 -68 38 -112.5t91.5 -69t126.5 -45.5l282 -83q88 -25 161 -61t131 -113.5t58 -202.5q0 -120 -57.5 -210.5z" />
    <glyph glyph-name="Scircumflex" unicode="&#x15c;" horiz-adv-x="1233" 
d="M349 1672l284 184l284 -184l-63 -100l-221 144l-221 -144zM369 20.5q-121 50.5 -199.5 144t-102.5 220.5l150 25q24 -92 84.5 -159.5t149 -103.5t195.5 -36q106 0 190.5 34t132 96.5t47.5 145.5q0 99 -62 151.5t-159 81.5l-365 109q-307 91 -307 345q0 119 63.5 209
t175 138t253.5 48q143 0 257.5 -51t188.5 -146t97 -223l-154 -28q-14 92 -68.5 161.5t-138 107.5t-183.5 39q-95 0 -172 -32t-120.5 -89t-43.5 -128q0 -68 38 -112.5t91.5 -69t126.5 -45.5l282 -83q88 -25 161 -61t131 -113.5t58 -202.5q0 -131 -68 -226.5t-187.5 -146
t-270.5 -50.5q-150 0 -271 50.5z" />
    <glyph glyph-name="uni0218" unicode="&#x218;" horiz-adv-x="1233" 
d="M369 20.5q-121 50.5 -199.5 144t-102.5 220.5l150 25q24 -92 84.5 -159.5t149 -103.5t195.5 -36q106 0 190.5 34t132 96.5t47.5 145.5q0 99 -62 151.5t-159 81.5l-365 109q-307 91 -307 345q0 119 63.5 209t175 138t253.5 48q143 0 257.5 -51t188.5 -146t97 -223
l-154 -28q-14 92 -68.5 161.5t-138 107.5t-183.5 39q-95 0 -172 -32t-120.5 -89t-43.5 -128q0 -68 38 -112.5t91.5 -69t126.5 -45.5l282 -83q88 -25 161 -61t131 -113.5t58 -202.5q0 -131 -68 -226.5t-187.5 -146t-270.5 -50.5q-150 0 -271 50.5zM620.5 -464q21.5 8 37.5 28
t14 53h-89v165h166v-165q0 -53 -23.5 -91t-61.5 -57t-81 -19v78q16 0 37.5 8z" />
    <glyph glyph-name="uni1E9E" unicode="&#x1e9e;" horiz-adv-x="1415" 
d="M737.5 -22.5q-44.5 7.5 -88.5 22.5v145q46 -15 88 -21.5t92 -6.5q92 0 164 33.5t113.5 100t41.5 160.5q0 90 -46.5 155.5t-133 101t-203.5 39.5l-17 108l252 431q-60 36 -129 58.5t-159 22.5q-162 0 -264.5 -76.5t-132.5 -205.5q-23 -97 -23 -255v-790h-153v863
q0 144 27 242q53 194 201 279.5t344 85.5q148 0 262 -46.5t218 -117.5l-274 -485q99 -13 185 -64t139.5 -139.5t53.5 -209.5q0 -135 -54 -234t-157 -151.5t-245 -52.5q-57 0 -101.5 7.5z" />
    <glyph glyph-name="T" unicode="T" horiz-adv-x="1193" 
d="M523 1299h-503v141h1153v-141h-503v-1299h-147v1299z" />
    <glyph glyph-name="Tbar" unicode="&#x166;" horiz-adv-x="1193" 
d="M1173 1299h-503v-506h367v-146h-367v-647h-147v647h-366v146h366v506h-503v141h1153v-141z" />
    <glyph glyph-name="Tcaron" unicode="&#x164;" horiz-adv-x="1193" 
d="M313 1756l62 100l222 -144l221 144l63 -100l-284 -184zM20 1299v141h1153v-141h-503v-1299h-147v1299h-503z" />
    <glyph glyph-name="uni0162" unicode="&#x162;" horiz-adv-x="1193" 
d="M649 0l-46 -128q56 -25 88 -68t32 -105q0 -53 -25.5 -96t-69 -67.5t-94.5 -24.5q-63 0 -127 31l38 101q48 -17 77 -17q37 0 59 23.5t22 54.5q0 28 -17.5 47t-43.5 30t-71 25l70 194h-18v1299h-503v141h1153v-141h-503v-1299h-21z" />
    <glyph glyph-name="uni021A" unicode="&#x21a;" horiz-adv-x="1193" 
d="M20 1299v141h1153v-141h-503v-1299h-147v1299h-503zM551.5 -464q21.5 8 37.5 28t14 53h-89v165h165v-165q0 -54 -23 -91.5t-61 -56.5t-81 -19v78q16 0 37.5 8z" />
    <glyph glyph-name="U" unicode="U" horiz-adv-x="1404" 
d="M410.5 38q-127.5 68 -199 193t-71.5 289v919l148 1v-901q0 -141 62 -238.5t157.5 -144.5t194.5 -47q100 0 195 47.5t157 144.5t62 238v901h148v-920q0 -163 -71.5 -288t-199.5 -193.5t-291 -68.5q-164 0 -291.5 68z" />
    <glyph glyph-name="Uacute" unicode="&#xda;" horiz-adv-x="1404" 
d="M610 1590l76 240h148l-76 -240h-148zM410.5 38q-127.5 68 -199 193t-71.5 289v919l148 1v-901q0 -141 62 -238.5t157.5 -144.5t194.5 -47q100 0 195 47.5t157 144.5t62 238v901h148v-920q0 -163 -71.5 -288t-199.5 -193.5t-291 -68.5q-164 0 -291.5 68z" />
    <glyph glyph-name="Ubreve" unicode="&#x16c;" horiz-adv-x="1404" 
d="M572.5 1602.5q-59.5 34.5 -94 94t-34.5 129.5h122q0 -37 18.5 -68t49.5 -49.5t68 -18.5t68.5 18.5t49.5 49.5t18 68h122q0 -70 -34.5 -129.5t-94 -94t-129.5 -34.5t-129.5 34.5zM410.5 38q-127.5 68 -199 193t-71.5 289v919l148 1v-901q0 -141 62 -238.5t157.5 -144.5
t194.5 -47q100 0 195 47.5t157 144.5t62 238v901h148v-920q0 -163 -71.5 -288t-199.5 -193.5t-291 -68.5q-164 0 -291.5 68z" />
    <glyph glyph-name="Ucircumflex" unicode="&#xdb;" horiz-adv-x="1404" 
d="M418 1672l284 184l284 -184l-63 -100l-221 144l-221 -144zM410.5 38q-127.5 68 -199 193t-71.5 289v919l148 1v-901q0 -141 62 -238.5t157.5 -144.5t194.5 -47q100 0 195 47.5t157 144.5t62 238v901h148v-920q0 -163 -71.5 -288t-199.5 -193.5t-291 -68.5
q-164 0 -291.5 68z" />
    <glyph glyph-name="Udieresis" unicode="&#xdc;" horiz-adv-x="1404" 
d="M431 1811h160v-160h-160v160zM813 1811h160v-160h-160v160zM410.5 38q-127.5 68 -199 193t-71.5 289v919l148 1v-901q0 -141 62 -238.5t157.5 -144.5t194.5 -47q100 0 195 47.5t157 144.5t62 238v901h148v-920q0 -163 -71.5 -288t-199.5 -193.5t-291 -68.5
q-164 0 -291.5 68z" />
    <glyph glyph-name="uni1EE4" unicode="&#x1ee4;" horiz-adv-x="1404" 
d="M410.5 38q-127.5 68 -199 193t-71.5 289v919l148 1v-901q0 -141 62 -238.5t157.5 -144.5t194.5 -47q100 0 195 47.5t157 144.5t62 238v901h148v-920q0 -163 -71.5 -288t-199.5 -193.5t-291 -68.5q-164 0 -291.5 68zM630 -218h171v-165h-171v165z" />
    <glyph glyph-name="Ugrave" unicode="&#xd9;" horiz-adv-x="1404" 
d="M575 1830h148l76 -240h-148zM410.5 38q-127.5 68 -199 193t-71.5 289v919l148 1v-901q0 -141 62 -238.5t157.5 -144.5t194.5 -47q100 0 195 47.5t157 144.5t62 238v901h148v-920q0 -163 -71.5 -288t-199.5 -193.5t-291 -68.5q-164 0 -291.5 68z" />
    <glyph glyph-name="uni1EE6" unicode="&#x1ee6;" horiz-adv-x="1404" 
d="M627 1961.5q40 17.5 81 17.5q43 0 80.5 -21.5t62.5 -64.5q25 -44 25 -90q0 -65 -44 -118.5t-109 -76.5l-49 68q46 21 71.5 51.5t25.5 64.5q0 23 -12 45q-21 38 -64 38q-22 0 -46 -10.5t-45 -28.5l-47 77q30 31 70 48.5zM410.5 38q-127.5 68 -199 193t-71.5 289v919l148 1
v-901q0 -141 62 -238.5t157.5 -144.5t194.5 -47q100 0 195 47.5t157 144.5t62 238v901h148v-920q0 -163 -71.5 -288t-199.5 -193.5t-291 -68.5q-164 0 -291.5 68z" />
    <glyph glyph-name="Uhorn" unicode="&#x1af;" horiz-adv-x="1404" 
d="M1466 1549q0 -122 -82 -176q-46 -32 -120 -35v-818q0 -163 -71.5 -288t-199.5 -193.5t-291 -68.5q-164 0 -291.5 68t-199 193t-71.5 289v919l148 1v-901q0 -141 62 -238.5t157.5 -144.5t194.5 -47q100 0 195 47.5t157 144.5t62 238v901h45h22q6 0 28 1t40 5q50 10 69 44
t19 85q0 15 -2 45h123q6 -37 6 -71z" />
    <glyph glyph-name="uni1EE8" unicode="&#x1ee8;" horiz-adv-x="1404" 
d="M834 1830l-76 -240h-148l76 240h148zM1466 1549q0 -122 -82 -176q-46 -32 -120 -35v-818q0 -163 -71.5 -288t-199.5 -193.5t-291 -68.5q-164 0 -291.5 68t-199 193t-71.5 289v919l148 1v-901q0 -141 62 -238.5t157.5 -144.5t194.5 -47q100 0 195 47.5t157 144.5t62 238
v901h45h22q6 0 28 1t40 5q50 10 69 44t19 85q0 15 -2 45h123q6 -37 6 -71z" />
    <glyph glyph-name="uni1EF0" unicode="&#x1ef0;" horiz-adv-x="1404" 
d="M1466 1549q0 -122 -82 -176q-46 -32 -120 -35v-818q0 -163 -71.5 -288t-199.5 -193.5t-291 -68.5q-164 0 -291.5 68t-199 193t-71.5 289v919l148 1v-901q0 -141 62 -238.5t157.5 -144.5t194.5 -47q100 0 195 47.5t157 144.5t62 238v901h45h22q6 0 28 1t40 5q50 10 69 44
t19 85q0 15 -2 45h123q6 -37 6 -71zM627 -383v165h171v-165h-171z" />
    <glyph glyph-name="uni1EEA" unicode="&#x1eea;" horiz-adv-x="1404" 
d="M799 1590h-148l-76 240h148zM1466 1549q0 -122 -82 -176q-46 -32 -120 -35v-818q0 -163 -71.5 -288t-199.5 -193.5t-291 -68.5q-164 0 -291.5 68t-199 193t-71.5 289v919l148 1v-901q0 -141 62 -238.5t157.5 -144.5t194.5 -47q100 0 195 47.5t157 144.5t62 238v901h45h22
q6 0 28 1t40 5q50 10 69 44t19 85q0 15 -2 45h123q6 -37 6 -71z" />
    <glyph glyph-name="uni1EEC" unicode="&#x1eec;" horiz-adv-x="1404" 
d="M695 1875q-22 0 -46 -10.5t-45 -28.5l-47 77q30 31 70 48.5t81 17.5q43 0 80.5 -21.5t62.5 -64.5q25 -44 25 -90q0 -65 -44 -118.5t-109 -76.5l-49 68q46 21 71.5 51.5t25.5 64.5q0 23 -12 45q-21 38 -64 38zM1466 1549q0 -122 -82 -176q-46 -32 -120 -35v-818
q0 -163 -71.5 -288t-199.5 -193.5t-291 -68.5q-164 0 -291.5 68t-199 193t-71.5 289v919l148 1v-901q0 -141 62 -238.5t157.5 -144.5t194.5 -47q100 0 195 47.5t157 144.5t62 238v901h45h22q6 0 28 1t40 5q50 10 69 44t19 85q0 15 -2 45h123q6 -37 6 -71z" />
    <glyph glyph-name="uni1EEE" unicode="&#x1eee;" horiz-adv-x="1404" 
d="M415 1629q-8 34 -8 60q0 68 41.5 111t112.5 43q41 0 79.5 -16.5t94.5 -47.5q41 -24 69 -36.5t52 -12.5q26 0 40.5 17t14.5 45q0 18 -6 37h104q8 -34 8 -60q0 -69 -41.5 -113t-113.5 -44q-41 0 -79 16t-94 48q-41 24 -69 36.5t-52 12.5q-27 0 -41 -17t-14 -43q0 -18 6 -36
h-104zM1466 1549q0 -122 -82 -176q-46 -32 -120 -35v-818q0 -163 -71.5 -288t-199.5 -193.5t-291 -68.5q-164 0 -291.5 68t-199 193t-71.5 289v919l148 1v-901q0 -141 62 -238.5t157.5 -144.5t194.5 -47q100 0 195 47.5t157 144.5t62 238v901h45h22q6 0 28 1t40 5
q50 10 69 44t19 85q0 15 -2 45h123q6 -37 6 -71z" />
    <glyph glyph-name="Uhungarumlaut" unicode="&#x170;" horiz-adv-x="1404" 
d="M431 1591l76 240h148l-76 -240h-148zM806 1591l76 240h148l-76 -240h-148zM410.5 38q-127.5 68 -199 193t-71.5 289v919l148 1v-901q0 -141 62 -238.5t157.5 -144.5t194.5 -47q100 0 195 47.5t157 144.5t62 238v901h148v-920q0 -163 -71.5 -288t-199.5 -193.5t-291 -68.5
q-164 0 -291.5 68z" />
    <glyph glyph-name="Umacron" unicode="&#x16a;" horiz-adv-x="1404" 
d="M451 1805h502v-125h-502v125zM410.5 38q-127.5 68 -199 193t-71.5 289v919l148 1v-901q0 -141 62 -238.5t157.5 -144.5t194.5 -47q100 0 195 47.5t157 144.5t62 238v901h148v-920q0 -163 -71.5 -288t-199.5 -193.5t-291 -68.5q-164 0 -291.5 68z" />
    <glyph glyph-name="Uogonek" unicode="&#x172;" horiz-adv-x="1404" 
d="M1264 1440v-920q0 -159 -68 -281.5t-189 -192.5q-83 -57 -138.5 -129t-55.5 -129q0 -36 22.5 -59.5t53.5 -23.5q22 0 46.5 13t45.5 35l64 -78q-33 -44 -77.5 -67t-91.5 -23q-52 0 -96 27t-69.5 72.5t-25.5 96.5q0 90 75 191q-38 -2 -58 -2q-164 0 -291.5 68t-199 193
t-71.5 289v919l148 1v-901q0 -141 62 -238.5t157.5 -144.5t194.5 -47q100 0 195 47.5t157 144.5t62 238v901h148z" />
    <glyph glyph-name="Uring" unicode="&#x16e;" horiz-adv-x="1404" 
d="M595.5 1586.5q-50.5 29.5 -80.5 80t-30 109.5t30 109.5t80.5 80t109.5 29.5t109.5 -29.5t80 -80t29.5 -109.5q0 -60 -29.5 -110t-79.5 -79.5t-110 -29.5q-59 0 -109.5 29.5zM790 1691q35 35 35 85t-35 85t-85 35q-49 0 -84.5 -35t-35.5 -85q0 -49 35.5 -84.5t84.5 -35.5
q50 0 85 35zM410.5 38q-127.5 68 -199 193t-71.5 289v919l148 1v-901q0 -141 62 -238.5t157.5 -144.5t194.5 -47q100 0 195 47.5t157 144.5t62 238v901h148v-920q0 -163 -71.5 -288t-199.5 -193.5t-291 -68.5q-164 0 -291.5 68z" />
    <glyph glyph-name="Utilde" unicode="&#x168;" horiz-adv-x="1404" 
d="M783 1628q-38 16 -94 48q-41 24 -69 36.5t-52 12.5q-28 0 -42 -17t-14 -44q0 -17 6 -35h-104q-8 34 -8 59q0 69 41.5 112t112.5 43q41 0 81.5 -16.5t92.5 -47.5q41 -24 69.5 -36.5t52.5 -12.5q26 0 40.5 17.5t14.5 45.5q0 17 -6 36h104q8 -34 8 -60q0 -69 -41.5 -113
t-113.5 -44q-41 0 -79 16zM410.5 38q-127.5 68 -199 193t-71.5 289v919l148 1v-901q0 -141 62 -238.5t157.5 -144.5t194.5 -47q100 0 195 47.5t157 144.5t62 238v901h148v-920q0 -163 -71.5 -288t-199.5 -193.5t-291 -68.5q-164 0 -291.5 68z" />
    <glyph glyph-name="V" unicode="V" horiz-adv-x="1207" 
d="M10 1440h153l439 -1273l442 1273h153l-496 -1440h-195z" />
    <glyph glyph-name="W" unicode="W" horiz-adv-x="1871" 
d="M33 1440h153l337 -1189l335 1188l154 1l337 -1189l335 1189h154l-415 -1440h-148l-340 1181l-338 -1181h-148z" />
    <glyph glyph-name="Wacute" unicode="&#x1e82;" horiz-adv-x="1871" 
d="M869 1590l76 240h148l-76 -240h-148zM186 1440l337 -1189l335 1188l154 1l337 -1189l335 1189h154l-415 -1440h-148l-340 1181l-338 -1181h-148l-416 1440h153z" />
    <glyph glyph-name="Wcircumflex" unicode="&#x174;" horiz-adv-x="1871" 
d="M653 1672l284 184l284 -184l-63 -100l-221 144l-222 -144zM186 1440l337 -1189l335 1188l154 1l337 -1189l335 1189h154l-415 -1440h-148l-340 1181l-338 -1181h-148l-416 1440h153z" />
    <glyph glyph-name="Wdieresis" unicode="&#x1e84;" horiz-adv-x="1871" 
d="M666 1811h160v-160h-160v160zM1047 1811h160v-160h-160v160zM186 1440l337 -1189l335 1188l154 1l337 -1189l335 1189h154l-415 -1440h-148l-340 1181l-338 -1181h-148l-416 1440h153z" />
    <glyph glyph-name="Wgrave" unicode="&#x1e80;" horiz-adv-x="1871" 
d="M779 1830h148l76 -240h-148zM186 1440l337 -1189l335 1188l154 1l337 -1189l335 1189h154l-415 -1440h-148l-340 1181l-338 -1181h-148l-416 1440h153z" />
    <glyph glyph-name="X" unicode="X" horiz-adv-x="1212" 
d="M519 729l-486 711h178l395 -588l395 588h179l-486 -711l498 -729h-178l-408 605l-407 -605h-179z" />
    <glyph glyph-name="Y" unicode="Y" horiz-adv-x="1112" 
d="M483 603l-483 837h170l387 -669l385 669h170l-481 -837v-603h-148v603z" />
    <glyph glyph-name="Yacute" unicode="&#xdd;" horiz-adv-x="1112" 
d="M461 1590l76 240h148l-76 -240h-148zM0 1440h170l387 -669l385 669h170l-481 -837v-603h-148v603z" />
    <glyph glyph-name="Ycircumflex" unicode="&#x176;" horiz-adv-x="1112" 
d="M273 1672l284 184l284 -184l-63 -100l-221 144l-222 -144zM0 1440h170l387 -669l385 669h170l-481 -837v-603h-148v603z" />
    <glyph glyph-name="Ydieresis" unicode="&#x178;" horiz-adv-x="1112" 
d="M286 1811h160v-160h-160v160zM667 1811h160v-160h-160v160zM0 1440h170l387 -669l385 669h170l-481 -837v-603h-148v603z" />
    <glyph glyph-name="uni1EF4" unicode="&#x1ef4;" horiz-adv-x="1112" 
d="M0 1440h170l387 -669l385 669h170l-481 -837v-603h-148v603zM471 -218h170v-165h-170v165z" />
    <glyph glyph-name="Ygrave" unicode="&#x1ef2;" horiz-adv-x="1112" 
d="M414 1830h148l76 -240h-148zM0 1440h170l387 -669l385 669h170l-481 -837v-603h-148v603z" />
    <glyph glyph-name="uni1EF6" unicode="&#x1ef6;" horiz-adv-x="1112" 
d="M467 1961.5q40 17.5 80 17.5q43 0 80.5 -21.5t62.5 -64.5q25 -44 25 -90q0 -65 -44 -118.5t-109 -76.5l-48 68q45 21 71 52t26 65q0 22 -12 44q-21 38 -64 38q-22 0 -46 -10.5t-45 -28.5l-48 77q31 31 71 48.5zM0 1440h170l387 -669l385 669h170l-481 -837v-603h-148v603
z" />
    <glyph glyph-name="uni1EF8" unicode="&#x1ef8;" horiz-adv-x="1112" 
d="M638.5 1628.5q-38.5 16.5 -91.5 47.5q-47 26 -72.5 37.5t-50.5 11.5q-27 0 -41 -17t-14 -43q0 -18 6 -36h-104q-8 34 -8 59q0 69 41.5 112t112.5 43q41 0 79.5 -16.5t94.5 -47.5q41 -24 69 -36.5t52 -12.5q26 0 41 17.5t15 45.5q0 18 -6 36h104q8 -34 8 -60
q0 -69 -41.5 -113t-114.5 -44q-41 0 -79.5 16.5zM0 1440h170l387 -669l385 669h170l-481 -837v-603h-148v603z" />
    <glyph glyph-name="Z" unicode="Z" horiz-adv-x="1228" 
d="M100 31l787 1268h-767v141h1008v-34l-783 -1266h776v-140h-1021v31z" />
    <glyph glyph-name="Zacute" unicode="&#x179;" horiz-adv-x="1228" 
d="M530 1590l76 240h148l-76 -240h-148zM887 1299h-767v141h1008v-34l-783 -1266h776v-140h-1021v31z" />
    <glyph glyph-name="Zcaron" unicode="&#x17d;" horiz-adv-x="1228" 
d="M367 1756l63 100l221 -144l222 144l62 -100l-284 -184zM887 1299h-767v141h1008v-34l-783 -1266h776v-140h-1021v31z" />
    <glyph glyph-name="Zdotaccent" unicode="&#x17b;" horiz-adv-x="1228" 
d="M574 1840h171v-171h-171v171zM887 1299h-767v141h1008v-34l-783 -1266h776v-140h-1021v31z" />
    <glyph glyph-name="a" unicode="a" horiz-adv-x="1111" 
d="M991 671v-671h-131v179q-63 -103 -168 -156t-243 -53q-118 0 -201.5 43t-125.5 116t-42 161q0 126 73 203t202 111q79 19 176.5 34t225.5 32l90 12q-2 149 -69.5 219t-218.5 70q-114 0 -189.5 -51t-105.5 -157l-143 42q38 146 150.5 225.5t289.5 79.5q148 0 251.5 -56
t146.5 -160q32 -78 32 -223zM644 133.5q78 36.5 125.5 101t61.5 146.5q14 62 14 172q-39 -4 -56 -7q-136 -16 -221 -28.5t-154 -31.5q-187 -55 -187 -196q0 -50 24.5 -94t78.5 -71.5t136 -27.5q100 0 178 36.5z" />
    <glyph glyph-name="aacute" unicode="&#xe1;" horiz-adv-x="1111" 
d="M715 1470l-76 -240h-148l76 240h148zM991 671v-671h-131v179q-63 -103 -168 -156t-243 -53q-118 0 -201.5 43t-125.5 116t-42 161q0 126 73 203t202 111q79 19 176.5 34t225.5 32l90 12q-2 149 -69.5 219t-218.5 70q-114 0 -189.5 -51t-105.5 -157l-143 42
q38 146 150.5 225.5t289.5 79.5q148 0 251.5 -56t146.5 -160q32 -78 32 -223zM644 133.5q78 36.5 125.5 101t61.5 146.5q14 62 14 172q-39 -4 -56 -7q-136 -16 -221 -28.5t-154 -31.5q-187 -55 -187 -196q0 -50 24.5 -94t78.5 -71.5t136 -27.5q100 0 178 36.5z" />
    <glyph glyph-name="abreve" unicode="&#x103;" horiz-adv-x="1111" 
d="M441.5 1242.5q-59.5 34.5 -94 94t-34.5 129.5h122q0 -37 18.5 -68t49.5 -49.5t68 -18.5t68.5 18.5t49.5 49.5t18 68h122q0 -70 -35 -129.5t-94 -94t-129 -34.5t-129.5 34.5zM991 671v-671h-131v179q-63 -103 -168 -156t-243 -53q-118 0 -201.5 43t-125.5 116t-42 161
q0 126 73 203t202 111q79 19 176.5 34t225.5 32l90 12q-2 149 -69.5 219t-218.5 70q-114 0 -189.5 -51t-105.5 -157l-143 42q38 146 150.5 225.5t289.5 79.5q148 0 251.5 -56t146.5 -160q32 -78 32 -223zM644 133.5q78 36.5 125.5 101t61.5 146.5q14 62 14 172
q-39 -4 -56 -7q-136 -16 -221 -28.5t-154 -31.5q-187 -55 -187 -196q0 -50 24.5 -94t78.5 -71.5t136 -27.5q100 0 178 36.5z" />
    <glyph glyph-name="uni1EAF" unicode="&#x1eaf;" horiz-adv-x="1111" 
d="M715 1740l-76 -240h-148l76 240h148zM439.5 1242.5q-59.5 34.5 -94 94t-34.5 129.5h122q0 -37 18.5 -68t49.5 -49.5t68 -18.5t68.5 18.5t49.5 49.5t18 68h122q0 -70 -34.5 -129.5t-94 -94t-129.5 -34.5t-129.5 34.5zM991 671v-671h-131v179q-63 -103 -168 -156t-243 -53
q-118 0 -201.5 43t-125.5 116t-42 161q0 126 73 203t202 111q79 19 176.5 34t225.5 32l90 12q-2 149 -69.5 219t-218.5 70q-114 0 -189.5 -51t-105.5 -157l-143 42q38 146 150.5 225.5t289.5 79.5q148 0 251.5 -56t146.5 -160q32 -78 32 -223zM644 133.5q78 36.5 125.5 101
t61.5 146.5q14 62 14 172q-39 -4 -56 -7q-136 -16 -221 -28.5t-154 -31.5q-187 -55 -187 -196q0 -50 24.5 -94t78.5 -71.5t136 -27.5q100 0 178 36.5z" />
    <glyph glyph-name="uni1EB7" unicode="&#x1eb7;" horiz-adv-x="1111" 
d="M441.5 1242.5q-59.5 34.5 -94 94t-34.5 129.5h122q0 -37 18.5 -68t49.5 -49.5t68 -18.5t68.5 18.5t49.5 49.5t18 68h122q0 -70 -35 -129.5t-94 -94t-129 -34.5t-129.5 34.5zM991 671v-671h-131v179q-63 -103 -168 -156t-243 -53q-118 0 -201.5 43t-125.5 116t-42 161
q0 126 73 203t202 111q79 19 176.5 34t225.5 32l90 12q-2 149 -69.5 219t-218.5 70q-114 0 -189.5 -51t-105.5 -157l-143 42q38 146 150.5 225.5t289.5 79.5q148 0 251.5 -56t146.5 -160q32 -78 32 -223zM644 133.5q78 36.5 125.5 101t61.5 146.5q14 62 14 172
q-39 -4 -56 -7q-136 -16 -221 -28.5t-154 -31.5q-187 -55 -187 -196q0 -50 24.5 -94t78.5 -71.5t136 -27.5q100 0 178 36.5zM462 -383v165h171v-165h-171z" />
    <glyph glyph-name="uni1EB1" unicode="&#x1eb1;" horiz-adv-x="1111" 
d="M654 1500h-148l-76 240h148zM446.5 1242.5q-59.5 34.5 -94 94t-34.5 129.5h122q0 -37 18 -68t49.5 -49.5t68.5 -18.5q36 0 67.5 18.5t50 49.5t18.5 68h122q0 -70 -35 -129.5t-94 -94t-129 -34.5t-129.5 34.5zM991 671v-671h-131v179q-63 -103 -168 -156t-243 -53
q-118 0 -201.5 43t-125.5 116t-42 161q0 126 73 203t202 111q79 19 176.5 34t225.5 32l90 12q-2 149 -69.5 219t-218.5 70q-114 0 -189.5 -51t-105.5 -157l-143 42q38 146 150.5 225.5t289.5 79.5q148 0 251.5 -56t146.5 -160q32 -78 32 -223zM644 133.5q78 36.5 125.5 101
t61.5 146.5q14 62 14 172q-39 -4 -56 -7q-136 -16 -221 -28.5t-154 -31.5q-187 -55 -187 -196q0 -50 24.5 -94t78.5 -71.5t136 -27.5q100 0 178 36.5z" />
    <glyph glyph-name="uni1EB3" unicode="&#x1eb3;" horiz-adv-x="1111" 
d="M539 1769q-22 0 -46 -10.5t-45 -28.5l-47 77q30 31 70 48.5t81 17.5q43 0 80.5 -21.5t62.5 -64.5q25 -44 25 -90q0 -65 -44 -118.5t-109 -76.5l-49 68q46 21 71.5 51.5t25.5 64.5q0 23 -12 45q-21 38 -64 38zM460.5 1242.5q-59.5 34.5 -94 94t-34.5 129.5h122
q0 -37 18.5 -68t49.5 -49.5t68 -18.5t68.5 18.5t49.5 49.5t18 68h122q0 -70 -35 -129.5t-94 -94t-129 -34.5t-129.5 34.5zM991 671v-671h-131v179q-63 -103 -168 -156t-243 -53q-118 0 -201.5 43t-125.5 116t-42 161q0 126 73 203t202 111q79 19 176.5 34t225.5 32l90 12
q-2 149 -69.5 219t-218.5 70q-114 0 -189.5 -51t-105.5 -157l-143 42q38 146 150.5 225.5t289.5 79.5q148 0 251.5 -56t146.5 -160q32 -78 32 -223zM644 133.5q78 36.5 125.5 101t61.5 146.5q14 62 14 172q-39 -4 -56 -7q-136 -16 -221 -28.5t-154 -31.5q-187 -55 -187 -196
q0 -50 24.5 -94t78.5 -71.5t136 -27.5q100 0 178 36.5z" />
    <glyph glyph-name="uni1EB5" unicode="&#x1eb5;" horiz-adv-x="1111" 
d="M253 1540q-8 34 -8 60q0 68 41.5 111.5t112.5 43.5q41 0 80.5 -17t93.5 -48q44 -25 71 -37t51 -12q26 0 40.5 17.5t14.5 45.5q0 18 -6 37h104q8 -34 8 -60q0 -70 -41.5 -114t-113.5 -44q-41 0 -80 16.5t-93 48.5q-45 25 -71 37t-50 12q-28 0 -42 -17t-14 -44q0 -18 6 -36
h-104zM616.5 1348.5q31.5 18.5 49.5 49.5t18 68h122q0 -70 -34.5 -129.5t-94 -94t-129.5 -34.5t-129.5 34.5t-94 94t-34.5 129.5h122q0 -37 18.5 -68t49.5 -49.5t68 -18.5t68.5 18.5zM991 671v-671h-131v179q-63 -103 -168 -156t-243 -53q-118 0 -201.5 43t-125.5 116
t-42 161q0 126 73 203t202 111q79 19 176.5 34t225.5 32l90 12q-2 149 -69.5 219t-218.5 70q-114 0 -189.5 -51t-105.5 -157l-143 42q38 146 150.5 225.5t289.5 79.5q148 0 251.5 -56t146.5 -160q32 -78 32 -223zM644 133.5q78 36.5 125.5 101t61.5 146.5q14 62 14 172
q-39 -4 -56 -7q-136 -16 -221 -28.5t-154 -31.5q-187 -55 -187 -196q0 -50 24.5 -94t78.5 -71.5t136 -27.5q100 0 178 36.5z" />
    <glyph glyph-name="acircumflex" unicode="&#xe2;" horiz-adv-x="1111" 
d="M572 1356l-221 -144l-63 100l284 184l284 -184l-63 -100zM991 671v-671h-131v179q-63 -103 -168 -156t-243 -53q-118 0 -201.5 43t-125.5 116t-42 161q0 126 73 203t202 111q79 19 176.5 34t225.5 32l90 12q-2 149 -69.5 219t-218.5 70q-114 0 -189.5 -51t-105.5 -157
l-143 42q38 146 150.5 225.5t289.5 79.5q148 0 251.5 -56t146.5 -160q32 -78 32 -223zM644 133.5q78 36.5 125.5 101t61.5 146.5q14 62 14 172q-39 -4 -56 -7q-136 -16 -221 -28.5t-154 -31.5q-187 -55 -187 -196q0 -50 24.5 -94t78.5 -71.5t136 -27.5q100 0 178 36.5z" />
    <glyph glyph-name="uni1EA5" unicode="&#x1ea5;" horiz-adv-x="1111" 
d="M1063 1680l-76 -240h-148l76 240h148zM580 1356l-222 -144l-62 100l284 184l284 -184l-63 -100zM812.5 1054q103.5 -56 146.5 -160q32 -78 32 -223v-671h-131v179q-63 -103 -168 -156t-243 -53q-118 0 -201.5 43t-125.5 116t-42 161q0 126 73 203t202 111q79 19 176.5 34
t225.5 32l90 12q-2 149 -69.5 219t-218.5 70q-114 0 -189.5 -51t-105.5 -157l-143 42q38 146 150.5 225.5t289.5 79.5q148 0 251.5 -56zM644 133.5q78 36.5 125.5 101t61.5 146.5q14 62 14 172q-39 -4 -56 -7q-136 -16 -221 -28.5t-154 -31.5q-187 -55 -187 -196
q0 -50 24.5 -94t78.5 -71.5t136 -27.5q100 0 178 36.5z" />
    <glyph glyph-name="uni1EAD" unicode="&#x1ead;" horiz-adv-x="1111" 
d="M572 1356l-221 -144l-63 100l284 184l284 -184l-63 -100zM991 671v-671h-131v179q-63 -103 -168 -156t-243 -53q-118 0 -201.5 43t-125.5 116t-42 161q0 126 73 203t202 111q79 19 176.5 34t225.5 32l90 12q-2 149 -69.5 219t-218.5 70q-114 0 -189.5 -51t-105.5 -157
l-143 42q38 146 150.5 225.5t289.5 79.5q148 0 251.5 -56t146.5 -160q32 -78 32 -223zM644 133.5q78 36.5 125.5 101t61.5 146.5q14 62 14 172q-39 -4 -56 -7q-136 -16 -221 -28.5t-154 -31.5q-187 -55 -187 -196q0 -50 24.5 -94t78.5 -71.5t136 -27.5q100 0 178 36.5z
M462 -383v165h171v-165h-171z" />
    <glyph glyph-name="uni1EA7" unicode="&#x1ea7;" horiz-adv-x="1111" 
d="M1000 1440h-148l-76 240h148zM585 1356l-222 -144l-62 100l284 184l284 -184l-63 -100zM812.5 1054q103.5 -56 146.5 -160q32 -78 32 -223v-671h-131v179q-63 -103 -168 -156t-243 -53q-118 0 -201.5 43t-125.5 116t-42 161q0 126 73 203t202 111q79 19 176.5 34
t225.5 32l90 12q-2 149 -69.5 219t-218.5 70q-114 0 -189.5 -51t-105.5 -157l-143 42q38 146 150.5 225.5t289.5 79.5q148 0 251.5 -56zM644 133.5q78 36.5 125.5 101t61.5 146.5q14 62 14 172q-39 -4 -56 -7q-136 -16 -221 -28.5t-154 -31.5q-187 -55 -187 -196
q0 -50 24.5 -94t78.5 -71.5t136 -27.5q100 0 178 36.5z" />
    <glyph glyph-name="uni1EA9" unicode="&#x1ea9;" horiz-adv-x="1111" 
d="M1123 1443q0 -65 -44 -118.5t-109 -76.5l-48 68q45 21 71 52t26 65q0 22 -12 44q-21 38 -64 38q-22 0 -46 -10.5t-45 -28.5l-48 77q31 31 71 48.5t80 17.5q43 0 80.5 -21.5t62.5 -64.5q25 -44 25 -90zM560 1356l-221 -144l-63 100l284 184l284 -184l-63 -100zM812.5 1054
q103.5 -56 146.5 -160q32 -78 32 -223v-671h-131v179q-63 -103 -168 -156t-243 -53q-118 0 -201.5 43t-125.5 116t-42 161q0 126 73 203t202 111q79 19 176.5 34t225.5 32l90 12q-2 149 -69.5 219t-218.5 70q-114 0 -189.5 -51t-105.5 -157l-143 42q38 146 150.5 225.5
t289.5 79.5q148 0 251.5 -56zM644 133.5q78 36.5 125.5 101t61.5 146.5q14 62 14 172q-39 -4 -56 -7q-136 -16 -221 -28.5t-154 -31.5q-187 -55 -187 -196q0 -50 24.5 -94t78.5 -71.5t136 -27.5q100 0 178 36.5z" />
    <glyph glyph-name="uni1EAB" unicode="&#x1eab;" horiz-adv-x="1111" 
d="M278 1540q-8 34 -8 60q0 68 41.5 111.5t112.5 43.5q41 0 80.5 -17t93.5 -48q45 -25 71 -37t50 -12q26 0 41 17.5t15 46.5q0 17 -6 36h104q8 -34 8 -60q0 -69 -42 -113.5t-114 -44.5q-41 0 -79.5 16.5t-91.5 47.5q-45 26 -71.5 38t-51.5 12q-27 0 -41 -17t-14 -43
q0 -19 6 -37h-104zM285 1312l284 184l284 -184l-62 -100l-222 144l-221 -144zM991 671v-671h-131v179q-63 -103 -168 -156t-243 -53q-118 0 -201.5 43t-125.5 116t-42 161q0 126 73 203t202 111q79 19 176.5 34t225.5 32l90 12q-2 149 -69.5 219t-218.5 70
q-114 0 -189.5 -51t-105.5 -157l-143 42q38 146 150.5 225.5t289.5 79.5q148 0 251.5 -56t146.5 -160q32 -78 32 -223zM644 133.5q78 36.5 125.5 101t61.5 146.5q14 62 14 172q-39 -4 -56 -7q-136 -16 -221 -28.5t-154 -31.5q-187 -55 -187 -196q0 -50 24.5 -94t78.5 -71.5
t136 -27.5q100 0 178 36.5z" />
    <glyph glyph-name="adieresis" unicode="&#xe4;" horiz-adv-x="1111" 
d="M468 1451v-160h-160v160h160zM849 1451v-160h-160v160h160zM991 671v-671h-131v179q-63 -103 -168 -156t-243 -53q-118 0 -201.5 43t-125.5 116t-42 161q0 126 73 203t202 111q79 19 176.5 34t225.5 32l90 12q-2 149 -69.5 219t-218.5 70q-114 0 -189.5 -51t-105.5 -157
l-143 42q38 146 150.5 225.5t289.5 79.5q148 0 251.5 -56t146.5 -160q32 -78 32 -223zM644 133.5q78 36.5 125.5 101t61.5 146.5q14 62 14 172q-39 -4 -56 -7q-136 -16 -221 -28.5t-154 -31.5q-187 -55 -187 -196q0 -50 24.5 -94t78.5 -71.5t136 -27.5q100 0 178 36.5z" />
    <glyph glyph-name="uni1EA1" unicode="&#x1ea1;" horiz-adv-x="1111" 
d="M991 671v-671h-131v179q-63 -103 -168 -156t-243 -53q-118 0 -201.5 43t-125.5 116t-42 161q0 126 73 203t202 111q79 19 176.5 34t225.5 32l90 12q-2 149 -69.5 219t-218.5 70q-114 0 -189.5 -51t-105.5 -157l-143 42q38 146 150.5 225.5t289.5 79.5q148 0 251.5 -56
t146.5 -160q32 -78 32 -223zM644 133.5q78 36.5 125.5 101t61.5 146.5q14 62 14 172q-39 -4 -56 -7q-136 -16 -221 -28.5t-154 -31.5q-187 -55 -187 -196q0 -50 24.5 -94t78.5 -71.5t136 -27.5q100 0 178 36.5zM462 -383v165h171v-165h-171z" />
    <glyph glyph-name="agrave" unicode="&#xe0;" horiz-adv-x="1111" 
d="M648 1230h-148l-76 240h148zM991 671v-671h-131v179q-63 -103 -168 -156t-243 -53q-118 0 -201.5 43t-125.5 116t-42 161q0 126 73 203t202 111q79 19 176.5 34t225.5 32l90 12q-2 149 -69.5 219t-218.5 70q-114 0 -189.5 -51t-105.5 -157l-143 42q38 146 150.5 225.5
t289.5 79.5q148 0 251.5 -56t146.5 -160q32 -78 32 -223zM644 133.5q78 36.5 125.5 101t61.5 146.5q14 62 14 172q-39 -4 -56 -7q-136 -16 -221 -28.5t-154 -31.5q-187 -55 -187 -196q0 -50 24.5 -94t78.5 -71.5t136 -27.5q100 0 178 36.5z" />
    <glyph glyph-name="uni1EA3" unicode="&#x1ea3;" horiz-adv-x="1111" 
d="M549 1518q-22 0 -46 -10.5t-45 -28.5l-48 77q31 31 70.5 48t80.5 17q43 0 80.5 -21t62.5 -64q25 -46 25 -91q0 -65 -44 -118t-109 -76l-48 68q45 21 71 52t26 65q0 22 -12 44q-21 38 -64 38zM991 671v-671h-131v179q-63 -103 -168 -156t-243 -53q-118 0 -201.5 43
t-125.5 116t-42 161q0 126 73 203t202 111q79 19 176.5 34t225.5 32l90 12q-2 149 -69.5 219t-218.5 70q-114 0 -189.5 -51t-105.5 -157l-143 42q38 146 150.5 225.5t289.5 79.5q148 0 251.5 -56t146.5 -160q32 -78 32 -223zM644 133.5q78 36.5 125.5 101t61.5 146.5
q14 62 14 172q-39 -4 -56 -7q-136 -16 -221 -28.5t-154 -31.5q-187 -55 -187 -196q0 -50 24.5 -94t78.5 -71.5t136 -27.5q100 0 178 36.5z" />
    <glyph glyph-name="amacron" unicode="&#x101;" horiz-adv-x="1111" 
d="M850 1445v-125h-501v125h501zM991 671v-671h-131v179q-63 -103 -168 -156t-243 -53q-118 0 -201.5 43t-125.5 116t-42 161q0 126 73 203t202 111q79 19 176.5 34t225.5 32l90 12q-2 149 -69.5 219t-218.5 70q-114 0 -189.5 -51t-105.5 -157l-143 42q38 146 150.5 225.5
t289.5 79.5q148 0 251.5 -56t146.5 -160q32 -78 32 -223zM644 133.5q78 36.5 125.5 101t61.5 146.5q14 62 14 172q-39 -4 -56 -7q-136 -16 -221 -28.5t-154 -31.5q-187 -55 -187 -196q0 -50 24.5 -94t78.5 -71.5t136 -27.5q100 0 178 36.5z" />
    <glyph glyph-name="aogonek" unicode="&#x105;" horiz-adv-x="1111" 
d="M997 -393q-33 -43 -77.5 -66t-91.5 -23q-52 0 -96 27t-69.5 72t-25.5 96q0 83 61.5 173t161.5 166v127q-63 -103 -168 -156t-243 -53q-118 0 -201.5 43t-125.5 116t-42 161q0 126 73 203t202 111q79 19 176.5 34t225.5 32l90 12q-2 149 -69.5 219t-218.5 70
q-114 0 -189.5 -51t-105.5 -157l-143 42q38 146 150.5 225.5t289.5 79.5q148 0 251.5 -56t146.5 -160q32 -78 32 -223v-671q-94 -57 -160 -136.5t-66 -142.5q0 -37 22 -60.5t54 -23.5q22 0 46 13.5t46 35.5zM644 133.5q78 36.5 125.5 101t61.5 146.5q14 62 14 172
q-39 -4 -56 -7q-136 -16 -221 -28.5t-154 -31.5q-187 -55 -187 -196q0 -50 24.5 -94t78.5 -71.5t136 -27.5q100 0 178 36.5z" />
    <glyph glyph-name="aring" unicode="&#xe5;" horiz-adv-x="1111" 
d="M457.5 1226.5q-50.5 29.5 -80.5 80t-30 109.5t30 109.5t80.5 80t109.5 29.5t109.5 -29.5t80 -80t29.5 -109.5q0 -60 -29.5 -110t-79.5 -79.5t-110 -29.5q-59 0 -109.5 29.5zM482.5 1501q-35.5 -35 -35.5 -85q0 -49 35.5 -84.5t84.5 -35.5q50 0 85 35t35 85t-35 85t-85 35
q-49 0 -84.5 -35zM991 671v-671h-131v179q-63 -103 -168 -156t-243 -53q-118 0 -201.5 43t-125.5 116t-42 161q0 126 73 203t202 111q79 19 176.5 34t225.5 32l90 12q-2 149 -69.5 219t-218.5 70q-114 0 -189.5 -51t-105.5 -157l-143 42q38 146 150.5 225.5t289.5 79.5
q148 0 251.5 -56t146.5 -160q32 -78 32 -223zM644 133.5q78 36.5 125.5 101t61.5 146.5q14 62 14 172q-39 -4 -56 -7q-136 -16 -221 -28.5t-154 -31.5q-187 -55 -187 -196q0 -50 24.5 -94t78.5 -71.5t136 -27.5q100 0 178 36.5z" />
    <glyph glyph-name="atilde" unicode="&#xe3;" horiz-adv-x="1111" 
d="M284 1269q-8 34 -8 59q0 69 41.5 112t112.5 43q41 0 79.5 -16.5t94.5 -47.5q41 -24 69 -36.5t52 -12.5q26 0 41 17.5t15 45.5q0 18 -6 36h104q8 -34 8 -60q0 -69 -41.5 -113t-114.5 -44q-41 0 -79.5 16.5t-91.5 47.5q-47 26 -72.5 37.5t-50.5 11.5q-27 0 -41 -17t-14 -43
q0 -18 6 -36h-104zM991 671v-671h-131v179q-63 -103 -168 -156t-243 -53q-118 0 -201.5 43t-125.5 116t-42 161q0 126 73 203t202 111q79 19 176.5 34t225.5 32l90 12q-2 149 -69.5 219t-218.5 70q-114 0 -189.5 -51t-105.5 -157l-143 42q38 146 150.5 225.5t289.5 79.5
q148 0 251.5 -56t146.5 -160q32 -78 32 -223zM644 133.5q78 36.5 125.5 101t61.5 146.5q14 62 14 172q-39 -4 -56 -7q-136 -16 -221 -28.5t-154 -31.5q-187 -55 -187 -196q0 -50 24.5 -94t78.5 -71.5t136 -27.5q100 0 178 36.5z" />
    <glyph glyph-name="ae" unicode="&#xe6;" horiz-adv-x="1884" 
d="M1093 214.5q86 -103.5 241 -103.5q107 0 189.5 52.5t128.5 155.5l130 -53q-59 -142 -176.5 -219t-266.5 -77t-258 69.5t-169 194.5q-65 -140 -184.5 -202t-268.5 -62q-118 0 -203.5 39t-130.5 111.5t-45 170.5q0 138 80.5 208.5t177.5 90.5t215 27l293 9q12 345 -283 345
q-113 0 -193 -48t-109 -150l-140 43q26 92 89 158.5t154 101t200 34.5q141 0 237 -52.5t144 -151.5q63 98 163 151t229 53q155 0 261 -76.5t158 -214t47 -320.5h-805q9 -181 95 -284.5zM1101.5 882q-83.5 -93 -100.5 -257h655q-32 350 -322 350q-149 0 -232.5 -93zM846 512
l-274 -9q-89 -3 -160.5 -16t-128 -58.5t-56.5 -135.5q0 -93 63.5 -144.5t175.5 -51.5q113 0 204 51.5t131 134.5q43 84 45 229z" />
    <glyph glyph-name="b" unicode="b" horiz-adv-x="1184" 
d="M882.5 1036q107.5 -74 164.5 -203.5t57 -291.5q0 -163 -57 -293t-165.5 -204t-256.5 -74q-115 0 -204.5 47.5t-149.5 133.5v-151h-132v1440h148v-487q61 75 147.5 116t196.5 41q144 0 251.5 -74zM795 163q76 56 114.5 154.5t38.5 223.5t-37.5 222.5t-114.5 153.5t-189 56
q-110 0 -185.5 -54t-113 -151.5t-37.5 -226.5q0 -128 37.5 -225.5t113.5 -153t188 -55.5q109 0 185 56z" />
    <glyph glyph-name="c" unicode="c" horiz-adv-x="1107" 
d="M314.5 42q-113.5 72 -173 201t-61.5 297q2 171 62 299.5t174 199.5t273 71q108 0 200 -36t157 -103.5t95 -159.5l-144 -46q-38 96 -120.5 150t-188.5 54q-173 0 -261.5 -116t-90.5 -313q2 -199 92 -314t260 -115q110 0 187.5 50.5t117.5 147.5l148 -44
q-61 -144 -177 -219.5t-276 -75.5t-273.5 72z" />
    <glyph glyph-name="cacute" unicode="&#x107;" horiz-adv-x="1107" 
d="M527 1230l76 240h148l-76 -240h-148zM314.5 42q-113.5 72 -173 201t-61.5 297q2 171 62 299.5t174 199.5t273 71q108 0 200 -36t157 -103.5t95 -159.5l-144 -46q-38 96 -120.5 150t-188.5 54q-173 0 -261.5 -116t-90.5 -313q2 -199 92 -314t260 -115q110 0 187.5 50.5
t117.5 147.5l148 -44q-61 -144 -177 -219.5t-276 -75.5t-273.5 72z" />
    <glyph glyph-name="ccaron" unicode="&#x10d;" horiz-adv-x="1107" 
d="M305 1396l63 100l221 -144l222 144l62 -100l-284 -184zM314.5 42q-113.5 72 -173 201t-61.5 297q2 171 62 299.5t174 199.5t273 71q108 0 200 -36t157 -103.5t95 -159.5l-144 -46q-38 96 -120.5 150t-188.5 54q-173 0 -261.5 -116t-90.5 -313q2 -199 92 -314t260 -115
q110 0 187.5 50.5t117.5 147.5l148 -44q-61 -144 -177 -219.5t-276 -75.5t-273.5 72z" />
    <glyph glyph-name="ccedilla" unicode="&#xe7;" horiz-adv-x="1107" 
d="M775.5 161.5q77.5 50.5 117.5 147.5l148 -44q-55 -132 -157.5 -206.5t-242.5 -86.5l-33 -91q121 -55 121 -172q0 -53 -26 -96t-69.5 -68t-94.5 -25q-63 0 -127 31l38 102q47 -18 77 -18q37 0 59.5 23.5t22.5 54.5q0 29 -18 47.5t-43.5 29t-71.5 25.5l57 157
q-143 13 -244 87.5t-154 198.5t-55 282q2 171 62 299.5t174 199.5t273 71q108 0 200 -36t157 -103.5t95 -159.5l-144 -46q-38 96 -120.5 150t-188.5 54q-173 0 -261.5 -116t-90.5 -313q2 -199 92 -314t260 -115q110 0 187.5 50.5z" />
    <glyph glyph-name="ccircumflex" unicode="&#x109;" horiz-adv-x="1107" 
d="M308 1312l284 184l284 -184l-63 -100l-221 144l-221 -144zM314.5 42q-113.5 72 -173 201t-61.5 297q2 171 62 299.5t174 199.5t273 71q108 0 200 -36t157 -103.5t95 -159.5l-144 -46q-38 96 -120.5 150t-188.5 54q-173 0 -261.5 -116t-90.5 -313q2 -199 92 -314t260 -115
q110 0 187.5 50.5t117.5 147.5l148 -44q-61 -144 -177 -219.5t-276 -75.5t-273.5 72z" />
    <glyph glyph-name="cdotaccent" unicode="&#x10b;" horiz-adv-x="1107" 
d="M521 1480h171v-171h-171v171zM314.5 42q-113.5 72 -173 201t-61.5 297q2 171 62 299.5t174 199.5t273 71q108 0 200 -36t157 -103.5t95 -159.5l-144 -46q-38 96 -120.5 150t-188.5 54q-173 0 -261.5 -116t-90.5 -313q2 -199 92 -314t260 -115q110 0 187.5 50.5
t117.5 147.5l148 -44q-61 -144 -177 -219.5t-276 -75.5t-273.5 72z" />
    <glyph glyph-name="d" unicode="d" horiz-adv-x="1185" 
d="M1045 1440v-1440h-132v151q-60 -86 -149.5 -133.5t-204.5 -47.5q-148 0 -256.5 74t-165.5 204t-57 293q0 162 57 291.5t164.5 203.5t251.5 74q110 0 196.5 -41t147.5 -116v487h148zM762 162.5q76 55.5 113.5 153t37.5 225.5q0 129 -37.5 226.5t-113 151.5t-185.5 54
q-112 0 -189 -56t-114.5 -153.5t-37.5 -222.5t38.5 -223.5t114.5 -154.5t185 -56q112 0 188 55.5z" />
    <glyph glyph-name="eth" unicode="&#xf0;" horiz-adv-x="1165" 
d="M1034.5 1026.5q27.5 -91.5 39 -214t11.5 -305.5q0 -163 -61 -285t-174.5 -187.5t-266.5 -64.5q-153 -1 -266 65t-174.5 187t-62.5 281q1 161 63 282.5t175 187t265 64.5q102 2 193.5 -36t158.5 -112q-14 119 -67.5 214t-139.5 158l-111 -136l-93 78l96 118
q-79 32 -179 40l20 123q133 -6 246 -57l112 138l94 -79l-100 -122q87 -66 144 -167q50 -79 77.5 -170.5zM843 212q91 106 91 293q0 123 -41.5 213t-120.5 137t-189 46q-112 1 -191.5 -46.5t-120 -137.5t-40.5 -213q0 -189 91.5 -293.5t260.5 -104.5t260 106z" />
    <glyph glyph-name="dcaron" unicode="&#x10f;" horiz-adv-x="1436" 
d="M1045 1440v-1440h-132v151q-60 -86 -149.5 -133.5t-204.5 -47.5q-148 0 -256.5 74t-165.5 204t-57 293q0 162 57 291.5t164.5 203.5t251.5 74q110 0 196.5 -41t147.5 -116v487h148zM762 162.5q76 55.5 113.5 153t37.5 225.5q0 129 -37.5 226.5t-113 151.5t-185.5 54
q-112 0 -189 -56t-114.5 -153.5t-37.5 -222.5t38.5 -223.5t114.5 -154.5t185 -56q112 0 188 55.5zM1326 1140q16 36 12 103h-91v211h171v-251q0 -81 -36.5 -127t-99.5 -46q-11 0 -35 4l9 73q54 -3 70 33z" />
    <glyph glyph-name="dcroat" unicode="&#x111;" horiz-adv-x="1185" 
d="M1185 1187h-140v-1187h-132v151q-60 -86 -149.5 -133.5t-204.5 -47.5q-148 0 -256.5 74t-165.5 204t-57 293q0 162 57 291.5t164.5 203.5t251.5 74q110 0 196.5 -41t147.5 -116v234h-214v125h214v128h148v-128h140v-125zM762 162.5q76 55.5 113.5 153t37.5 225.5
q0 129 -37.5 226.5t-113 151.5t-185.5 54q-112 0 -189 -56t-114.5 -153.5t-37.5 -222.5t38.5 -223.5t114.5 -154.5t185 -56q112 0 188 55.5z" />
    <glyph glyph-name="e" unicode="e" horiz-adv-x="1169" 
d="M338 212q92 -101 253 -101q115 0 202 53.5t137 154.5l137 -53q-64 -141 -188 -218.5t-282 -77.5q-156 0 -273 70t-180.5 197.5t-63.5 297.5q0 175 62.5 305t178 200t270.5 70t266.5 -69.5t171 -200t59.5 -310.5v-31h-851q9 -186 101 -287zM348.5 884
q-91.5 -91 -108.5 -262h694q-16 175 -102 264t-237 89q-155 0 -246.5 -91z" />
    <glyph glyph-name="eacute" unicode="&#xe9;" horiz-adv-x="1169" 
d="M761 1470l-76 -240h-148l76 240h148zM338 212q92 -101 253 -101q115 0 202 53.5t137 154.5l137 -53q-64 -141 -188 -218.5t-282 -77.5q-156 0 -273 70t-180.5 197.5t-63.5 297.5q0 175 62.5 305t178 200t270.5 70t266.5 -69.5t171 -200t59.5 -310.5v-31h-851
q9 -186 101 -287zM348.5 884q-91.5 -91 -108.5 -262h694q-16 175 -102 264t-237 89q-155 0 -246.5 -91z" />
    <glyph glyph-name="ecaron" unicode="&#x11b;" horiz-adv-x="1169" 
d="M875 1396l-284 -184l-284 184l63 100l221 -144l222 144zM338 212q92 -101 253 -101q115 0 202 53.5t137 154.5l137 -53q-64 -141 -188 -218.5t-282 -77.5q-156 0 -273 70t-180.5 197.5t-63.5 297.5q0 175 62.5 305t178 200t270.5 70t266.5 -69.5t171 -200t59.5 -310.5
v-31h-851q9 -186 101 -287zM348.5 884q-91.5 -91 -108.5 -262h694q-16 175 -102 264t-237 89q-155 0 -246.5 -91z" />
    <glyph glyph-name="ecircumflex" unicode="&#xea;" horiz-adv-x="1169" 
d="M591 1356l-221 -144l-63 100l284 184l284 -184l-62 -100zM338 212q92 -101 253 -101q115 0 202 53.5t137 154.5l137 -53q-64 -141 -188 -218.5t-282 -77.5q-156 0 -273 70t-180.5 197.5t-63.5 297.5q0 175 62.5 305t178 200t270.5 70t266.5 -69.5t171 -200t59.5 -310.5
v-31h-851q9 -186 101 -287zM348.5 884q-91.5 -91 -108.5 -262h694q-16 175 -102 264t-237 89q-155 0 -246.5 -91z" />
    <glyph glyph-name="uni1EBF" unicode="&#x1ebf;" horiz-adv-x="1169" 
d="M1093 1680l-76 -240h-148l76 240h148zM609 1356l-221 -144l-63 100l284 184l284 -184l-62 -100zM857.5 1040.5q111.5 -69.5 171 -200t59.5 -310.5v-31h-851q9 -186 101 -287t253 -101q115 0 202 53.5t137 154.5l137 -53q-64 -141 -188 -218.5t-282 -77.5q-156 0 -273 70
t-180.5 197.5t-63.5 297.5q0 175 62.5 305t178 200t270.5 70t266.5 -69.5zM348.5 884q-91.5 -91 -108.5 -262h694q-16 175 -102 264t-237 89q-155 0 -246.5 -91z" />
    <glyph glyph-name="uni1EC7" unicode="&#x1ec7;" horiz-adv-x="1169" 
d="M591 1356l-221 -144l-63 100l284 184l284 -184l-62 -100zM338 212q92 -101 253 -101q115 0 202 53.5t137 154.5l137 -53q-64 -141 -188 -218.5t-282 -77.5q-156 0 -273 70t-180.5 197.5t-63.5 297.5q0 175 62.5 305t178 200t270.5 70t266.5 -69.5t171 -200t59.5 -310.5
v-31h-851q9 -186 101 -287zM348.5 884q-91.5 -91 -108.5 -262h694q-16 175 -102 264t-237 89q-155 0 -246.5 -91zM499 -383v165h171v-165h-171z" />
    <glyph glyph-name="uni1EC1" unicode="&#x1ec1;" horiz-adv-x="1169" 
d="M999 1440h-148l-76 240h148zM584 1356l-221 -144l-63 100l284 184l284 -184l-62 -100zM338 212q92 -101 253 -101q115 0 202 53.5t137 154.5l137 -53q-64 -141 -188 -218.5t-282 -77.5q-156 0 -273 70t-180.5 197.5t-63.5 297.5q0 175 62.5 305t178 200t270.5 70
t266.5 -69.5t171 -200t59.5 -310.5v-31h-851q9 -186 101 -287zM348.5 884q-91.5 -91 -108.5 -262h694q-16 175 -102 264t-237 89q-155 0 -246.5 -91z" />
    <glyph glyph-name="uni1EC3" unicode="&#x1ec3;" horiz-adv-x="1169" 
d="M1164 1443q0 -65 -44 -118.5t-109 -76.5l-48 68q45 21 71 52t26 65q0 22 -12 44q-21 38 -64 38q-22 0 -46 -10.5t-45 -28.5l-48 77q31 31 71 48.5t80 17.5q43 0 80.5 -21.5t62.5 -64.5q25 -44 25 -90zM601 1356l-221 -144l-63 100l284 184l284 -184l-63 -100z
M857.5 1040.5q111.5 -69.5 171 -200t59.5 -310.5v-31h-851q9 -186 101 -287t253 -101q115 0 202 53.5t137 154.5l137 -53q-64 -141 -188 -218.5t-282 -77.5q-156 0 -273 70t-180.5 197.5t-63.5 297.5q0 175 62.5 305t178 200t270.5 70t266.5 -69.5zM348.5 884
q-91.5 -91 -108.5 -262h694q-16 175 -102 264t-237 89q-155 0 -246.5 -91z" />
    <glyph glyph-name="uni1EC5" unicode="&#x1ec5;" horiz-adv-x="1169" 
d="M306 1540q-8 34 -8 60q0 68 41.5 111.5t112.5 43.5q41 0 80.5 -17t93.5 -48q45 -25 71 -37t50 -12q26 0 41 17.5t15 46.5q0 17 -6 36h104q8 -34 8 -60q0 -69 -42 -113.5t-114 -44.5q-41 0 -79.5 16.5t-91.5 47.5q-45 26 -71.5 38t-51.5 12q-27 0 -41 -17t-14 -43
q0 -19 6 -37h-104zM313 1312l284 184l284 -184l-62 -100l-222 144l-221 -144zM338 212q92 -101 253 -101q115 0 202 53.5t137 154.5l137 -53q-64 -141 -188 -218.5t-282 -77.5q-156 0 -273 70t-180.5 197.5t-63.5 297.5q0 175 62.5 305t178 200t270.5 70t266.5 -69.5
t171 -200t59.5 -310.5v-31h-851q9 -186 101 -287zM348.5 884q-91.5 -91 -108.5 -262h694q-16 175 -102 264t-237 89q-155 0 -246.5 -91z" />
    <glyph glyph-name="edieresis" unicode="&#xeb;" horiz-adv-x="1169" 
d="M481 1451v-160h-160v160h160zM862 1451v-160h-160v160h160zM338 212q92 -101 253 -101q115 0 202 53.5t137 154.5l137 -53q-64 -141 -188 -218.5t-282 -77.5q-156 0 -273 70t-180.5 197.5t-63.5 297.5q0 175 62.5 305t178 200t270.5 70t266.5 -69.5t171 -200t59.5 -310.5
v-31h-851q9 -186 101 -287zM348.5 884q-91.5 -91 -108.5 -262h694q-16 175 -102 264t-237 89q-155 0 -246.5 -91z" />
    <glyph glyph-name="edotaccent" unicode="&#x117;" horiz-adv-x="1169" 
d="M677 1480v-171h-170v171h170zM338 212q92 -101 253 -101q115 0 202 53.5t137 154.5l137 -53q-64 -141 -188 -218.5t-282 -77.5q-156 0 -273 70t-180.5 197.5t-63.5 297.5q0 175 62.5 305t178 200t270.5 70t266.5 -69.5t171 -200t59.5 -310.5v-31h-851q9 -186 101 -287z
M348.5 884q-91.5 -91 -108.5 -262h694q-16 175 -102 264t-237 89q-155 0 -246.5 -91z" />
    <glyph glyph-name="uni1EB9" unicode="&#x1eb9;" horiz-adv-x="1169" 
d="M338 212q92 -101 253 -101q115 0 202 53.5t137 154.5l137 -53q-64 -141 -188 -218.5t-282 -77.5q-156 0 -273 70t-180.5 197.5t-63.5 297.5q0 175 62.5 305t178 200t270.5 70t266.5 -69.5t171 -200t59.5 -310.5v-31h-851q9 -186 101 -287zM348.5 884
q-91.5 -91 -108.5 -262h694q-16 175 -102 264t-237 89q-155 0 -246.5 -91zM513 -383v165h171v-165h-171z" />
    <glyph glyph-name="egrave" unicode="&#xe8;" horiz-adv-x="1169" 
d="M681 1230h-148l-76 240h148zM338 212q92 -101 253 -101q115 0 202 53.5t137 154.5l137 -53q-64 -141 -188 -218.5t-282 -77.5q-156 0 -273 70t-180.5 197.5t-63.5 297.5q0 175 62.5 305t178 200t270.5 70t266.5 -69.5t171 -200t59.5 -310.5v-31h-851q9 -186 101 -287z
M348.5 884q-91.5 -91 -108.5 -262h694q-16 175 -102 264t-237 89q-155 0 -246.5 -91z" />
    <glyph glyph-name="uni1EBB" unicode="&#x1ebb;" horiz-adv-x="1200" 
d="M579 1518q-22 0 -46 -10.5t-45 -28.5l-48 77q31 31 70.5 48t80.5 17q43 0 80.5 -21t62.5 -64q25 -46 25 -91q0 -65 -44 -118t-109 -76l-48 68q45 21 71 52t26 65q0 22 -12 44q-21 38 -64 38zM338 212q92 -101 253 -101q115 0 202 53.5t137 154.5l137 -53
q-64 -141 -188 -218.5t-282 -77.5q-156 0 -273 70t-180.5 197.5t-63.5 297.5q0 175 62.5 305t178 200t270.5 70t266.5 -69.5t171 -200t59.5 -310.5v-31h-851q9 -186 101 -287zM348.5 884q-91.5 -91 -108.5 -262h694q-16 175 -102 264t-237 89q-155 0 -246.5 -91z" />
    <glyph glyph-name="emacron" unicode="&#x113;" horiz-adv-x="1169" 
d="M862 1445v-125h-501v125h501zM338 212q92 -101 253 -101q115 0 202 53.5t137 154.5l137 -53q-64 -141 -188 -218.5t-282 -77.5q-156 0 -273 70t-180.5 197.5t-63.5 297.5q0 175 62.5 305t178 200t270.5 70t266.5 -69.5t171 -200t59.5 -310.5v-31h-851q9 -186 101 -287z
M348.5 884q-91.5 -91 -108.5 -262h694q-16 175 -102 264t-237 89q-155 0 -246.5 -91z" />
    <glyph glyph-name="eogonek" unicode="&#x119;" horiz-adv-x="1169" 
d="M338 212q92 -101 253 -101q115 0 202 53.5t137 154.5l137 -53q-11 -26 -24 -47q-26 -50 -63.5 -104t-90.5 -126q-44 -60 -54 -76q-63 -96 -79 -156q-6 -26 -6 -39q0 -32 19 -52q23 -23 54 -23q24 0 49.5 12.5t47.5 31.5l66 -80q-36 -44 -92 -70q-36 -16 -77 -16
t-78.5 16.5t-63.5 45.5q-24 26 -36.5 60t-12.5 72t14 80q24 74 92 168l23 29q-73 -22 -158 -22q-156 0 -273 70t-180.5 197.5t-63.5 297.5q0 175 62.5 305t178 200t270.5 70t266.5 -69.5t171 -200t59.5 -310.5v-31h-851q9 -186 101 -287zM348.5 884q-91.5 -91 -108.5 -262
h694q-16 175 -102 264t-237 89q-155 0 -246.5 -91z" />
    <glyph glyph-name="uni1EBD" unicode="&#x1ebd;" horiz-adv-x="1169" 
d="M301 1269q-8 34 -8 60q0 68 41.5 111t112.5 43q41 0 79.5 -16.5t94.5 -47.5q41 -24 69 -36.5t52 -12.5q26 0 40.5 17t14.5 45q0 18 -6 37h104q8 -34 8 -60q0 -69 -41.5 -113t-113.5 -44q-41 0 -79 16t-94 48q-41 24 -69 36.5t-52 12.5q-27 0 -41 -17t-14 -43q0 -18 6 -36
h-104zM338 212q92 -101 253 -101q115 0 202 53.5t137 154.5l137 -53q-64 -141 -188 -218.5t-282 -77.5q-156 0 -273 70t-180.5 197.5t-63.5 297.5q0 175 62.5 305t178 200t270.5 70t266.5 -69.5t171 -200t59.5 -310.5v-31h-851q9 -186 101 -287zM348.5 884
q-91.5 -91 -108.5 -262h694q-16 175 -102 264t-237 89q-155 0 -246.5 -91z" />
    <glyph glyph-name="uni0259" unicode="&#x259;" horiz-adv-x="1170" 
d="M845 1040q117 -70 180.5 -197.5t63.5 -297.5q0 -175 -62.5 -305t-178 -200t-270.5 -70q-154 0 -266 69t-171 199.5t-59 310.5v32h850q-9 186 -101 287t-253 101q-115 0 -202 -53.5t-137 -154.5l-137 53q64 141 188.5 218.5t282.5 77.5q155 0 272 -70zM821 196
q91 91 108 262h-694q17 -175 102.5 -264t236.5 -89q156 0 247 91z" />
    <glyph glyph-name="f" unicode="f" horiz-adv-x="709" 
d="M435 1304.5q-41 -41.5 -41 -128.5v-96h295v-126h-295v-954h-147v954h-187v126h187v80q0 75 13.5 131t53.5 100q44 48 102 63.5t135 15.5h138v-124h-128q-85 0 -126 -41.5z" />
    <glyph glyph-name="g" unicode="g" horiz-adv-x="1184" 
d="M1044 1080v-1065q0 -99 -12 -172q-57 -353 -463 -353q-133 0 -246.5 59t-179.5 179l133 74q42 -85 121.5 -127t171.5 -42q172 0 250 95t77 289v111q-60 -76 -145 -117t-192 -41q-148 0 -256.5 74t-165.5 204t-57 293q0 162 57 291.5t164.5 203.5t251.5 74
q117 0 208 -46.5t152 -132.5v149h131zM762 162.5q76 55.5 113.5 153t37.5 225.5q0 129 -37.5 226.5t-113 151.5t-185.5 54q-112 0 -189 -56t-114.5 -153.5t-37.5 -222.5t38.5 -223.5t114.5 -154.5t185 -56q112 0 188 55.5z" />
    <glyph glyph-name="gbreve" unicode="&#x11f;" horiz-adv-x="1184" 
d="M503.5 1242.5q-59.5 34.5 -94 94t-34.5 129.5h122q0 -37 18.5 -68t49.5 -49.5t68 -18.5t68.5 18.5t49.5 49.5t18 68h122q0 -70 -35 -129.5t-94 -94t-129 -34.5t-129.5 34.5zM1044 1080v-1065q0 -99 -12 -172q-57 -353 -463 -353q-133 0 -246.5 59t-179.5 179l133 74
q42 -85 121.5 -127t171.5 -42q172 0 250 95t77 289v111q-60 -76 -145 -117t-192 -41q-148 0 -256.5 74t-165.5 204t-57 293q0 162 57 291.5t164.5 203.5t251.5 74q117 0 208 -46.5t152 -132.5v149h131zM762 162.5q76 55.5 113.5 153t37.5 225.5q0 129 -37.5 226.5
t-113 151.5t-185.5 54q-112 0 -189 -56t-114.5 -153.5t-37.5 -222.5t38.5 -223.5t114.5 -154.5t185 -56q112 0 188 55.5z" />
    <glyph glyph-name="gcircumflex" unicode="&#x11d;" horiz-adv-x="1184" 
d="M577 1356l-221 -144l-63 100l284 184l284 -184l-63 -100zM1044 1080v-1065q0 -99 -12 -172q-57 -353 -463 -353q-133 0 -246.5 59t-179.5 179l133 74q42 -85 121.5 -127t171.5 -42q172 0 250 95t77 289v111q-60 -76 -145 -117t-192 -41q-148 0 -256.5 74t-165.5 204
t-57 293q0 162 57 291.5t164.5 203.5t251.5 74q117 0 208 -46.5t152 -132.5v149h131zM762 162.5q76 55.5 113.5 153t37.5 225.5q0 129 -37.5 226.5t-113 151.5t-185.5 54q-112 0 -189 -56t-114.5 -153.5t-37.5 -222.5t38.5 -223.5t114.5 -154.5t185 -56q112 0 188 55.5z" />
    <glyph glyph-name="uni0123" unicode="&#x123;" horiz-adv-x="1184" 
d="M689 1309h-166v166q0 53 23.5 90.5t61.5 56.5t81 19v-78q-16 0 -37.5 -8t-37.5 -27.5t-14 -52.5h89v-166zM1044 1080v-1065q0 -99 -12 -172q-57 -353 -463 -353q-133 0 -246.5 59t-179.5 179l133 74q42 -85 121.5 -127t171.5 -42q172 0 250 95t77 289v111
q-60 -76 -145 -117t-192 -41q-148 0 -256.5 74t-165.5 204t-57 293q0 162 57 291.5t164.5 203.5t251.5 74q117 0 208 -46.5t152 -132.5v149h131zM762 162.5q76 55.5 113.5 153t37.5 225.5q0 129 -37.5 226.5t-113 151.5t-185.5 54q-112 0 -189 -56t-114.5 -153.5
t-37.5 -222.5t38.5 -223.5t114.5 -154.5t185 -56q112 0 188 55.5z" />
    <glyph glyph-name="gdotaccent" unicode="&#x121;" horiz-adv-x="1184" 
d="M713 1480v-171h-170v171h170zM1044 1080v-1065q0 -99 -12 -172q-57 -353 -463 -353q-133 0 -246.5 59t-179.5 179l133 74q42 -85 121.5 -127t171.5 -42q172 0 250 95t77 289v111q-60 -76 -145 -117t-192 -41q-148 0 -256.5 74t-165.5 204t-57 293q0 162 57 291.5
t164.5 203.5t251.5 74q117 0 208 -46.5t152 -132.5v149h131zM762 162.5q76 55.5 113.5 153t37.5 225.5q0 129 -37.5 226.5t-113 151.5t-185.5 54q-112 0 -189 -56t-114.5 -153.5t-37.5 -222.5t38.5 -223.5t114.5 -154.5t185 -56q112 0 188 55.5z" />
    <glyph glyph-name="h" unicode="h" 
d="M885 1033q97 -74 140 -190.5t43 -248.5v-594h-148v551q0 191 -76 303.5t-237 112.5q-154 0 -237 -103t-83 -288v-576h-148v1440h133v-510q60 87 153 132t210 45q153 0 250 -74z" />
    <glyph glyph-name="hbar" unicode="&#x127;" 
d="M885 1033q97 -74 140 -190.5t43 -248.5v-594h-148v551q0 191 -76 303.5t-237 112.5q-154 0 -237 -103t-83 -288v-576h-148v1187h-127v125h127v128h133v-128h241v-125h-241v-257q60 87 153 132t210 45q153 0 250 -74z" />
    <glyph glyph-name="hcircumflex" unicode="&#x125;" 
d="M427 1572l-221 144l-222 -144l-62 100l284 184l284 -184zM885 1033q97 -74 140 -190.5t43 -248.5v-594h-148v551q0 191 -76 303.5t-237 112.5q-154 0 -237 -103t-83 -288v-576h-148v1440h133v-510q60 87 153 132t210 45q153 0 250 -74z" />
    <glyph glyph-name="i" unicode="i" horiz-adv-x="467" 
d="M160 1450h147v-165h-147v165zM160 1080h147v-1080h-147v1080z" />
    <glyph glyph-name="dotlessi" unicode="&#x131;" horiz-adv-x="467" 
d="M160 1080h147v-1080h-147v1080z" />
    <glyph glyph-name="iacute" unicode="&#xed;" horiz-adv-x="467" 
d="M160 1230l76 240h148l-76 -240h-148zM307 1080v-1080h-147v1080h147z" />
    <glyph glyph-name="icircumflex" unicode="&#xee;" horiz-adv-x="467" 
d="M-44 1312l284 184l284 -184l-63 -100l-221 144l-221 -144zM307 1080v-1080h-147v1080h147z" />
    <glyph glyph-name="idieresis" unicode="&#xef;" horiz-adv-x="467" 
d="M-37 1451h160v-160h-160v160zM344 1451h160v-160h-160v160zM307 1080v-1080h-147v1080h147z" />
    <glyph glyph-name="i.loclTRK" horiz-adv-x="467" 
d="M160 1450h147v-165h-147v165zM160 1080h147v-1080h-147v1080z" />
    <glyph glyph-name="uni1ECB" unicode="&#x1ecb;" horiz-adv-x="467" 
d="M307 1450v-165h-147v165h147zM307 1080v-1080h-147v1080h147zM148 -218h171v-165h-171v165z" />
    <glyph glyph-name="igrave" unicode="&#xec;" horiz-adv-x="467" 
d="M83 1470h148l76 -240h-148zM307 1080v-1080h-147v1080h147z" />
    <glyph glyph-name="uni1EC9" unicode="&#x1ec9;" horiz-adv-x="467" 
d="M125.5 1604q39.5 17 80.5 17q43 0 80.5 -21t62.5 -64q25 -46 25 -91q0 -65 -44 -118t-109 -76l-48 68q45 21 71 52t26 65q0 22 -12 44q-21 38 -64 38q-22 0 -46 -10.5t-45 -28.5l-48 77q31 31 70.5 48zM307 1080v-1080h-147v1080h147z" />
    <glyph glyph-name="imacron" unicode="&#x12b;" horiz-adv-x="467" 
d="M-17 1445h501v-125h-501v125zM307 1080v-1080h-147v1080h147z" />
    <glyph glyph-name="iogonek" unicode="&#x12f;" horiz-adv-x="467" 
d="M307 1450v-165h-147v165h147zM313 -393q-34 -43 -78.5 -66t-91.5 -23q-52 0 -96 27t-69.5 72t-25.5 96q0 80 57 166.5t151 160.5v1040h147v-1080q-94 -57 -160.5 -136.5t-66.5 -142.5q0 -37 22 -60.5t54 -23.5q45 0 92 49z" />
    <glyph glyph-name="itilde" unicode="&#x129;" horiz-adv-x="467" 
d="M303.5 1268.5q-38.5 16.5 -91.5 47.5q-47 26 -72.5 37.5t-50.5 11.5q-27 0 -41 -17t-14 -43q0 -18 6 -36h-104q-8 34 -8 59q0 69 41.5 112t112.5 43q41 0 79.5 -16.5t94.5 -47.5q41 -24 69 -36.5t52 -12.5q26 0 41 17.5t15 45.5q0 18 -6 36h104q8 -34 8 -60
q0 -69 -41.5 -113t-114.5 -44q-41 0 -79.5 16.5zM307 1080v-1080h-147v1080h147z" />
    <glyph glyph-name="j" unicode="j" horiz-adv-x="501" 
d="M201 1450h146v-165h-146v165zM41 -338q160 0 160 163v1255h146v-1292q0 -135 -64.5 -201.5t-197.5 -66.5h-105v142h61z" />
    <glyph glyph-name="jcircumflex" unicode="&#x135;" horiz-adv-x="501" 
d="M-10 1312l284 184l284 -184l-63 -100l-221 144l-222 -144zM41 -338q160 0 160 163v1255h146v-1292q0 -135 -64.5 -201.5t-197.5 -66.5h-105v142h61z" />
    <glyph glyph-name="k" unicode="k" horiz-adv-x="992" 
d="M140 1440h148v-880l482 520h196l-506 -540l572 -540h-214l-530 520v-520h-149z" />
    <glyph glyph-name="uni0137" unicode="&#x137;" horiz-adv-x="992" 
d="M288 1440v-880l482 520h196l-506 -540l572 -540h-214l-530 520v-520h-149l1 1440h148zM498.5 -464q21.5 8 37.5 28t14 53h-89v165h166v-165q0 -53 -23.5 -91t-61.5 -57t-81 -19v78q16 0 37.5 8z" />
    <glyph glyph-name="l" unicode="l" horiz-adv-x="467" 
d="M160 1470h147v-1470h-147v1470z" />
    <glyph glyph-name="lacute" unicode="&#x13a;" horiz-adv-x="467" 
d="M160 1590l76 240h148l-76 -240h-148zM307 1470v-1470h-147v1470h147z" />
    <glyph glyph-name="lcaron" unicode="&#x13e;" horiz-adv-x="663" 
d="M160 1470h147v-1470h-147v1470zM552 1140q16 36 12 103h-91v211h171v-251q0 -81 -36.5 -127t-99.5 -46q-11 0 -35 4l9 73q54 -3 70 33z" />
    <glyph glyph-name="uni013C" unicode="&#x13c;" horiz-adv-x="467" 
d="M307 1470v-1470h-147v1470h147zM188 -464q21 8 37 28t14 53h-88v165h165v-165q0 -53 -23.5 -91t-61 -57t-80.5 -19v78q16 0 37 8z" />
    <glyph glyph-name="lslash" unicode="&#x142;" horiz-adv-x="752" 
d="M671 987v-164l-221 -127v-696h-147v611l-222 -128v165l222 128v694h147v-610z" />
    <glyph glyph-name="m" unicode="m" horiz-adv-x="1696" 
d="M1406.5 1063.5q81.5 -45.5 125.5 -129.5t44 -197l-1 -737h-147l1 709q0 82 -31.5 142.5t-87.5 93t-127 32.5q-66 0 -123 -29.5t-93 -92.5t-36 -158l-1 -697h-145l1 699q0 85 -31 148t-87.5 96.5t-130.5 33.5t-131 -34.5t-88 -98t-31 -147.5v-697h-148v1080h132v-114
q51 67 130 105t174 38q107 0 189.5 -47t125.5 -135q47 86 133 134t194 48t189.5 -45.5z" />
    <glyph glyph-name="n" unicode="n" 
d="M885 1033q97 -74 140 -190.5t43 -248.5v-594h-148v551q0 191 -76 303.5t-237 112.5q-154 0 -237 -103t-83 -288v-576h-148v1080h133v-150q60 87 153 132t210 45q153 0 250 -74z" />
    <glyph glyph-name="nacute" unicode="&#x144;" 
d="M766 1470l-76 -240h-148l76 240h148zM885 1033q97 -74 140 -190.5t43 -248.5v-594h-148v551q0 191 -76 303.5t-237 112.5q-154 0 -237 -103t-83 -288v-576h-148v1080h133v-150q60 87 153 132t210 45q153 0 250 -74z" />
    <glyph glyph-name="ncaron" unicode="&#x148;" 
d="M883 1396l-284 -184l-284 184l62 100l222 -144l221 144zM885 1033q97 -74 140 -190.5t43 -248.5v-594h-148v551q0 191 -76 303.5t-237 112.5q-154 0 -237 -103t-83 -288v-576h-148v1080h133v-150q60 87 153 132t210 45q153 0 250 -74z" />
    <glyph glyph-name="uni0146" unicode="&#x146;" 
d="M885 1033q97 -74 140 -190.5t43 -248.5v-594h-148v551q0 191 -76 303.5t-237 112.5q-154 0 -237 -103t-83 -288v-576h-148v1080h133v-150q60 87 153 132t210 45q153 0 250 -74zM524 -218h165v-165q0 -54 -23 -91.5t-61 -56.5t-81 -19v78q16 0 37.5 8t37.5 28t14 53h-89
v165z" />
    <glyph glyph-name="eng" unicode="&#x14b;" 
d="M885 1033q97 -74 140 -190.5t43 -248.5v-779q0 -93 -36.5 -144t-102.5 -64q-30 -5 -67 -5q-49 0 -103 13v118q25 -4 53 -4q57 0 82.5 33t25.5 121v668q0 191 -76 303.5t-237 112.5q-154 0 -237 -103t-83 -288v-576h-148v1080h133v-150q60 87 153 132t210 45
q153 0 250 -74z" />
    <glyph glyph-name="ntilde" unicode="&#xf1;" 
d="M297 1269q-8 34 -8 59q0 69 41.5 112t112.5 43q41 0 81.5 -16.5t92.5 -47.5q41 -24 69.5 -36.5t52.5 -12.5q26 0 40.5 17.5t14.5 45.5q0 17 -6 36h104q8 -34 8 -60q0 -69 -41.5 -113t-113.5 -44q-41 0 -79 16t-94 48q-41 24 -69 36.5t-52 12.5q-28 0 -42 -17t-14 -44
q0 -17 6 -35h-104zM885 1033q97 -74 140 -190.5t43 -248.5v-594h-148v551q0 191 -76 303.5t-237 112.5q-154 0 -237 -103t-83 -288v-576h-148v1080h133v-150q60 87 153 132t210 45q153 0 250 -74z" />
    <glyph glyph-name="o" unicode="o" horiz-adv-x="1183" 
d="M317.5 42.5q-115.5 72.5 -176.5 201.5t-61 297q0 169 62 298t177.5 200t271.5 71q159 0 274.5 -72t176.5 -201t61 -296q0 -170 -61.5 -299t-177 -200.5t-273.5 -71.5t-273.5 72.5zM788 164.5q80 53.5 119.5 150t39.5 226.5q0 200 -90.5 314t-265.5 114
q-176 0 -265.5 -115.5t-89.5 -312.5q0 -131 40.5 -228t120 -149.5t194.5 -52.5q117 0 197 53.5z" />
    <glyph glyph-name="oacute" unicode="&#xf3;" horiz-adv-x="1183" 
d="M515 1230l76 240h148l-76 -240h-148zM317.5 42.5q-115.5 72.5 -176.5 201.5t-61 297q0 169 62 298t177.5 200t271.5 71q159 0 274.5 -72t176.5 -201t61 -296q0 -170 -61.5 -299t-177 -200.5t-273.5 -71.5t-273.5 72.5zM788 164.5q80 53.5 119.5 150t39.5 226.5
q0 200 -90.5 314t-265.5 114q-176 0 -265.5 -115.5t-89.5 -312.5q0 -131 40.5 -228t120 -149.5t194.5 -52.5q117 0 197 53.5z" />
    <glyph glyph-name="ocircumflex" unicode="&#xf4;" horiz-adv-x="1183" 
d="M308 1312l284 184l284 -184l-63 -100l-221 144l-221 -144zM317.5 42.5q-115.5 72.5 -176.5 201.5t-61 297q0 169 62 298t177.5 200t271.5 71q159 0 274.5 -72t176.5 -201t61 -296q0 -170 -61.5 -299t-177 -200.5t-273.5 -71.5t-273.5 72.5zM788 164.5q80 53.5 119.5 150
t39.5 226.5q0 200 -90.5 314t-265.5 114q-176 0 -265.5 -115.5t-89.5 -312.5q0 -131 40.5 -228t120 -149.5t194.5 -52.5q117 0 197 53.5z" />
    <glyph glyph-name="uni1ED1" unicode="&#x1ed1;" horiz-adv-x="1183" 
d="M863 1440l76 240h148l-76 -240h-148zM319 1312l284 184l284 -184l-62 -100l-222 144l-221 -144zM317.5 42.5q-115.5 72.5 -176.5 201.5t-61 297q0 169 62 298t177.5 200t271.5 71q159 0 274.5 -72t176.5 -201t61 -296q0 -170 -61.5 -299t-177 -200.5t-273.5 -71.5
t-273.5 72.5zM788 164.5q80 53.5 119.5 150t39.5 226.5q0 200 -90.5 314t-265.5 114q-176 0 -265.5 -115.5t-89.5 -312.5q0 -131 40.5 -228t120 -149.5t194.5 -52.5q117 0 197 53.5z" />
    <glyph glyph-name="uni1ED9" unicode="&#x1ed9;" horiz-adv-x="1183" 
d="M592 1496l284 -184l-63 -100l-221 144l-221 -144l-63 100zM317.5 42.5q-115.5 72.5 -176.5 201.5t-61 297q0 169 62 298t177.5 200t271.5 71q159 0 274.5 -72t176.5 -201t61 -296q0 -170 -61.5 -299t-177 -200.5t-273.5 -71.5t-273.5 72.5zM788 164.5q80 53.5 119.5 150
t39.5 226.5q0 200 -90.5 314t-265.5 114q-176 0 -265.5 -115.5t-89.5 -312.5q0 -131 40.5 -228t120 -149.5t194.5 -52.5q117 0 197 53.5zM514 -218h171v-165h-171v165z" />
    <glyph glyph-name="uni1ED3" unicode="&#x1ed3;" horiz-adv-x="1183" 
d="M804 1680h148l76 -240h-148zM329 1312l284 184l284 -184l-62 -100l-222 144l-221 -144zM317.5 42.5q-115.5 72.5 -176.5 201.5t-61 297q0 169 62 298t177.5 200t271.5 71q159 0 274.5 -72t176.5 -201t61 -296q0 -170 -61.5 -299t-177 -200.5t-273.5 -71.5t-273.5 72.5z
M788 164.5q80 53.5 119.5 150t39.5 226.5q0 200 -90.5 314t-265.5 114q-176 0 -265.5 -115.5t-89.5 -312.5q0 -131 40.5 -228t120 -149.5t194.5 -52.5q117 0 197 53.5z" />
    <glyph glyph-name="uni1ED5" unicode="&#x1ed5;" horiz-adv-x="1183" 
d="M906 1601.5q40 17.5 80 17.5q43 0 80.5 -21.5t62.5 -64.5q25 -44 25 -90q0 -65 -44 -118.5t-109 -76.5l-48 68q45 21 71 52t26 65q0 22 -12 44q-21 38 -64 38q-22 0 -46 -10.5t-45 -28.5l-48 77q31 31 71 48.5zM307 1312l284 184l284 -184l-63 -100l-221 144l-221 -144z
M317.5 42.5q-115.5 72.5 -176.5 201.5t-61 297q0 169 62 298t177.5 200t271.5 71q159 0 274.5 -72t176.5 -201t61 -296q0 -170 -61.5 -299t-177 -200.5t-273.5 -71.5t-273.5 72.5zM788 164.5q80 53.5 119.5 150t39.5 226.5q0 200 -90.5 314t-265.5 114q-176 0 -265.5 -115.5
t-89.5 -312.5q0 -131 40.5 -228t120 -149.5t194.5 -52.5q117 0 197 53.5z" />
    <glyph glyph-name="uni1ED7" unicode="&#x1ed7;" horiz-adv-x="1183" 
d="M680 1539.5q-39 16.5 -93 48.5q-45 25 -71 37t-50 12q-27 0 -41 -17t-14 -43q0 -19 6 -37h-104q-8 34 -8 60q0 69 41.5 112t112.5 43q41 0 80.5 -17t93.5 -48q45 -25 71 -37t50 -12q26 0 40.5 17t14.5 46q0 18 -6 37h104q8 -34 8 -60q0 -70 -41.5 -114t-113.5 -44
q-41 0 -80 16.5zM320 1312l284 184l284 -184l-63 -100l-221 144l-221 -144zM317.5 42.5q-115.5 72.5 -176.5 201.5t-61 297q0 169 62 298t177.5 200t271.5 71q159 0 274.5 -72t176.5 -201t61 -296q0 -170 -61.5 -299t-177 -200.5t-273.5 -71.5t-273.5 72.5zM788 164.5
q80 53.5 119.5 150t39.5 226.5q0 200 -90.5 314t-265.5 114q-176 0 -265.5 -115.5t-89.5 -312.5q0 -131 40.5 -228t120 -149.5t194.5 -52.5q117 0 197 53.5z" />
    <glyph glyph-name="odieresis" unicode="&#xf6;" horiz-adv-x="1183" 
d="M321 1451h160v-160h-160v160zM703 1451h160v-160h-160v160zM317.5 42.5q-115.5 72.5 -176.5 201.5t-61 297q0 169 62 298t177.5 200t271.5 71q159 0 274.5 -72t176.5 -201t61 -296q0 -170 -61.5 -299t-177 -200.5t-273.5 -71.5t-273.5 72.5zM788 164.5q80 53.5 119.5 150
t39.5 226.5q0 200 -90.5 314t-265.5 114q-176 0 -265.5 -115.5t-89.5 -312.5q0 -131 40.5 -228t120 -149.5t194.5 -52.5q117 0 197 53.5z" />
    <glyph glyph-name="uni1ECD" unicode="&#x1ecd;" horiz-adv-x="1183" 
d="M317.5 42.5q-115.5 72.5 -176.5 201.5t-61 297q0 169 62 298t177.5 200t271.5 71q159 0 274.5 -72t176.5 -201t61 -296q0 -170 -61.5 -299t-177 -200.5t-273.5 -71.5t-273.5 72.5zM788 164.5q80 53.5 119.5 150t39.5 226.5q0 200 -90.5 314t-265.5 114
q-176 0 -265.5 -115.5t-89.5 -312.5q0 -131 40.5 -228t120 -149.5t194.5 -52.5q117 0 197 53.5zM506 -218h171v-165h-171v165z" />
    <glyph glyph-name="ograve" unicode="&#xf2;" horiz-adv-x="1183" 
d="M435 1470h148l76 -240h-148zM317.5 42.5q-115.5 72.5 -176.5 201.5t-61 297q0 169 62 298t177.5 200t271.5 71q159 0 274.5 -72t176.5 -201t61 -296q0 -170 -61.5 -299t-177 -200.5t-273.5 -71.5t-273.5 72.5zM788 164.5q80 53.5 119.5 150t39.5 226.5q0 200 -90.5 314
t-265.5 114q-176 0 -265.5 -115.5t-89.5 -312.5q0 -131 40.5 -228t120 -149.5t194.5 -52.5q117 0 197 53.5z" />
    <glyph glyph-name="uni1ECF" unicode="&#x1ecf;" horiz-adv-x="1183" 
d="M510.5 1604q39.5 17 80.5 17q43 0 80.5 -21t62.5 -64q25 -46 25 -91q0 -65 -44 -118t-109 -76l-48 68q45 21 71 52t26 65q0 22 -12 44q-21 38 -64 38q-22 0 -46 -10.5t-45 -28.5l-48 77q31 31 70.5 48zM317.5 42.5q-115.5 72.5 -176.5 201.5t-61 297q0 169 62 298
t177.5 200t271.5 71q159 0 274.5 -72t176.5 -201t61 -296q0 -170 -61.5 -299t-177 -200.5t-273.5 -71.5t-273.5 72.5zM788 164.5q80 53.5 119.5 150t39.5 226.5q0 200 -90.5 314t-265.5 114q-176 0 -265.5 -115.5t-89.5 -312.5q0 -131 40.5 -228t120 -149.5t194.5 -52.5
q117 0 197 53.5z" />
    <glyph glyph-name="ohorn" unicode="&#x1a1;" horiz-adv-x="1183" 
d="M1061 793q42 -113 42 -252q0 -170 -61.5 -299t-177 -200.5t-273.5 -71.5t-273.5 72.5t-176.5 201.5t-61 297q0 169 62 298t177.5 200t271.5 71q94 0 175 -26q50 -13 79 -13q31 0 61 14q40 19 55 52t15 80q0 15 -2 43h123q6 -37 6 -72q0 -123 -83 -176q-36 -23 -81 -30
q80 -76 122 -189zM788 164.5q80 53.5 119.5 150t39.5 226.5q0 200 -90.5 314t-265.5 114q-176 0 -265.5 -115.5t-89.5 -312.5q0 -131 40.5 -228t120 -149.5t194.5 -52.5q117 0 197 53.5z" />
    <glyph glyph-name="uni1EDB" unicode="&#x1edb;" horiz-adv-x="1218" 
d="M739 1470l-76 -240h-148l76 240h148zM1061 793q42 -113 42 -252q0 -170 -61.5 -299t-177 -200.5t-273.5 -71.5t-273.5 72.5t-176.5 201.5t-61 297q0 169 62 298t177.5 200t271.5 71q94 0 175 -26q50 -13 79 -13q31 0 61 14q40 19 55 52t15 80q0 15 -2 43h123q6 -37 6 -72
q0 -123 -83 -176q-36 -23 -81 -30q80 -76 122 -189zM788 164.5q80 53.5 119.5 150t39.5 226.5q0 200 -90.5 314t-265.5 114q-176 0 -265.5 -115.5t-89.5 -312.5q0 -131 40.5 -228t120 -149.5t194.5 -52.5q117 0 197 53.5z" />
    <glyph glyph-name="uni1EE3" unicode="&#x1ee3;" horiz-adv-x="1183" 
d="M1061 793q42 -113 42 -252q0 -170 -61.5 -299t-177 -200.5t-273.5 -71.5t-273.5 72.5t-176.5 201.5t-61 297q0 169 62 298t177.5 200t271.5 71q94 0 175 -26q50 -13 79 -13q31 0 61 14q40 19 55 52t15 80q0 15 -2 43h123q6 -37 6 -72q0 -123 -83 -176q-36 -23 -81 -30
q80 -76 122 -189zM788 164.5q80 53.5 119.5 150t39.5 226.5q0 200 -90.5 314t-265.5 114q-176 0 -265.5 -115.5t-89.5 -312.5q0 -131 40.5 -228t120 -149.5t194.5 -52.5q117 0 197 53.5zM513 -383v165h171v-165h-171z" />
    <glyph glyph-name="uni1EDD" unicode="&#x1edd;" horiz-adv-x="1218" 
d="M659 1230h-148l-76 240h148zM1061 793q42 -113 42 -252q0 -170 -61.5 -299t-177 -200.5t-273.5 -71.5t-273.5 72.5t-176.5 201.5t-61 297q0 169 62 298t177.5 200t271.5 71q94 0 175 -26q50 -13 79 -13q31 0 61 14q40 19 55 52t15 80q0 15 -2 43h123q6 -37 6 -72
q0 -123 -83 -176q-36 -23 -81 -30q80 -76 122 -189zM788 164.5q80 53.5 119.5 150t39.5 226.5q0 200 -90.5 314t-265.5 114q-176 0 -265.5 -115.5t-89.5 -312.5q0 -131 40.5 -228t120 -149.5t194.5 -52.5q117 0 197 53.5z" />
    <glyph glyph-name="uni1EDF" unicode="&#x1edf;" horiz-adv-x="1183" 
d="M579 1518q-22 0 -46 -10.5t-45 -28.5l-48 77q31 31 70.5 48t80.5 17q43 0 80.5 -21t62.5 -64q25 -46 25 -91q0 -65 -44 -118t-109 -76l-48 68q45 21 71 52t26 65q0 22 -12 44q-21 38 -64 38zM1061 793q42 -113 42 -252q0 -170 -61.5 -299t-177 -200.5t-273.5 -71.5
t-273.5 72.5t-176.5 201.5t-61 297q0 169 62 298t177.5 200t271.5 71q94 0 175 -26q50 -13 79 -13q31 0 61 14q40 19 55 52t15 80q0 15 -2 43h123q6 -37 6 -72q0 -123 -83 -176q-36 -23 -81 -30q80 -76 122 -189zM788 164.5q80 53.5 119.5 150t39.5 226.5q0 200 -90.5 314
t-265.5 114q-176 0 -265.5 -115.5t-89.5 -312.5q0 -131 40.5 -228t120 -149.5t194.5 -52.5q117 0 197 53.5z" />
    <glyph glyph-name="uni1EE1" unicode="&#x1ee1;" horiz-adv-x="1183" 
d="M301 1269q-8 34 -8 60q0 68 41.5 111t112.5 43q41 0 79.5 -16.5t94.5 -47.5q41 -24 69 -36.5t52 -12.5q26 0 40.5 17t14.5 45q0 18 -6 37h104q8 -34 8 -60q0 -69 -41.5 -113t-113.5 -44q-41 0 -79 16t-94 48q-41 24 -69 36.5t-52 12.5q-27 0 -41 -17t-14 -43q0 -18 6 -36
h-104zM1061 793q42 -113 42 -252q0 -170 -61.5 -299t-177 -200.5t-273.5 -71.5t-273.5 72.5t-176.5 201.5t-61 297q0 169 62 298t177.5 200t271.5 71q94 0 175 -26q50 -13 79 -13q31 0 61 14q40 19 55 52t15 80q0 15 -2 43h123q6 -37 6 -72q0 -123 -83 -176q-36 -23 -81 -30
q80 -76 122 -189zM788 164.5q80 53.5 119.5 150t39.5 226.5q0 200 -90.5 314t-265.5 114q-176 0 -265.5 -115.5t-89.5 -312.5q0 -131 40.5 -228t120 -149.5t194.5 -52.5q117 0 197 53.5z" />
    <glyph glyph-name="ohungarumlaut" unicode="&#x151;" horiz-adv-x="1183" 
d="M333 1231l76 240h148l-76 -240h-148zM708 1231l76 240h148l-76 -240h-148zM317.5 42.5q-115.5 72.5 -176.5 201.5t-61 297q0 169 62 298t177.5 200t271.5 71q159 0 274.5 -72t176.5 -201t61 -296q0 -170 -61.5 -299t-177 -200.5t-273.5 -71.5t-273.5 72.5zM788 164.5
q80 53.5 119.5 150t39.5 226.5q0 200 -90.5 314t-265.5 114q-176 0 -265.5 -115.5t-89.5 -312.5q0 -131 40.5 -228t120 -149.5t194.5 -52.5q117 0 197 53.5z" />
    <glyph glyph-name="omacron" unicode="&#x14d;" horiz-adv-x="1183" 
d="M341 1445h502v-125h-502v125zM317.5 42.5q-115.5 72.5 -176.5 201.5t-61 297q0 169 62 298t177.5 200t271.5 71q159 0 274.5 -72t176.5 -201t61 -296q0 -170 -61.5 -299t-177 -200.5t-273.5 -71.5t-273.5 72.5zM788 164.5q80 53.5 119.5 150t39.5 226.5q0 200 -90.5 314
t-265.5 114q-176 0 -265.5 -115.5t-89.5 -312.5q0 -131 40.5 -228t120 -149.5t194.5 -52.5q117 0 197 53.5z" />
    <glyph glyph-name="oslash" unicode="&#xf8;" horiz-adv-x="1183" 
d="M1024 873q79 -140 79 -332q0 -170 -61.5 -299t-177 -200.5t-273.5 -71.5q-105 0 -192 32.5t-152 94.5l-107 -107l-100 100l119 119q-79 138 -79 332q0 169 62 298t177.5 200t271.5 71q106 0 193 -32.5t152 -93.5l107 106l100 -99zM325.5 853.5q-89.5 -115.5 -89.5 -312.5
q0 -131 41 -228l563 561q-92 95 -249 95q-176 0 -265.5 -115.5zM788 164.5q80 53.5 119.5 150t39.5 226.5q0 134 -40 229l-563 -563q93 -96 247 -96q117 0 197 53.5z" />
    <glyph glyph-name="otilde" unicode="&#xf5;" horiz-adv-x="1183" 
d="M664 1268q-38 16 -94 48q-41 24 -69 36.5t-52 12.5q-28 0 -42 -17t-14 -44q0 -17 6 -35h-104q-8 34 -8 59q0 69 41.5 112t112.5 43q41 0 81.5 -16.5t92.5 -47.5q41 -24 69.5 -36.5t52.5 -12.5q26 0 40.5 17.5t14.5 45.5q0 17 -6 36h104q8 -34 8 -60q0 -69 -41.5 -113
t-113.5 -44q-41 0 -79 16zM317.5 42.5q-115.5 72.5 -176.5 201.5t-61 297q0 169 62 298t177.5 200t271.5 71q159 0 274.5 -72t176.5 -201t61 -296q0 -170 -61.5 -299t-177 -200.5t-273.5 -71.5t-273.5 72.5zM788 164.5q80 53.5 119.5 150t39.5 226.5q0 200 -90.5 314
t-265.5 114q-176 0 -265.5 -115.5t-89.5 -312.5q0 -131 40.5 -228t120 -149.5t194.5 -52.5q117 0 197 53.5z" />
    <glyph glyph-name="oe" unicode="&#x153;" horiz-adv-x="2038" 
d="M1207 212q92 -101 253 -101q115 0 202 53.5t137 154.5l137 -53q-64 -141 -188.5 -218.5t-282.5 -77.5q-148 0 -261 63t-178 179q-64 -115 -175.5 -178.5t-259.5 -63.5q-158 0 -273.5 72.5t-176.5 201.5t-61 297q0 169 62 298t177.5 200t271.5 71q149 0 260 -63.5
t175 -178.5q64 116 175.5 179t258.5 63q154 0 266 -69t171 -199.5t59 -310.5v-32h-850q9 -186 101 -287zM1217 884q-91 -91 -108 -262h694q-17 175 -102.5 264t-236.5 89q-156 0 -247 -91zM788 164.5q80 53.5 119.5 150t39.5 226.5q0 200 -90.5 314t-265.5 114
q-176 0 -265.5 -115.5t-89.5 -312.5q0 -131 40.5 -228t120 -149.5t194.5 -52.5q117 0 197 53.5z" />
    <glyph glyph-name="p" unicode="p" horiz-adv-x="1184" 
d="M882.5 1036q107.5 -74 164.5 -203.5t57 -291.5q0 -163 -57 -293t-165.5 -204t-256.5 -74q-107 0 -192.5 41.5t-145.5 117.5v-609h-148v1560h132v-149q61 86 152 132.5t208 46.5q144 0 251.5 -74zM795 163q76 56 114.5 154.5t38.5 223.5t-37.5 222.5t-114.5 153.5t-189 56
q-110 0 -185.5 -54t-113 -151.5t-37.5 -226.5q0 -128 37.5 -225.5t113.5 -153t188 -55.5q109 0 185 56z" />
    <glyph glyph-name="thorn" unicode="&#xfe;" horiz-adv-x="1184" 
d="M882.5 1036q107.5 -74 164.5 -203.5t57 -291.5q0 -163 -57 -293t-165.5 -204t-256.5 -74q-107 0 -192.5 41.5t-145.5 117.5v-609h-148v1560h1v360h147v-487q61 75 147.5 116t196.5 41q144 0 251.5 -74zM795 163q76 56 114.5 154.5t38.5 223.5t-37.5 222.5t-114.5 153.5
t-189 56q-110 0 -185.5 -54t-113 -151.5t-37.5 -226.5q0 -128 37.5 -225.5t113.5 -153t188 -55.5q109 0 185 56z" />
    <glyph glyph-name="q" unicode="q" horiz-adv-x="1185" 
d="M1045 1080v-1560h-148v609q-60 -76 -145.5 -117.5t-192.5 -41.5q-148 0 -256.5 74t-165.5 204t-57 293q0 162 57 291.5t164.5 203.5t251.5 74q117 0 208 -46.5t152 -132.5v149h132zM762 162.5q76 55.5 113.5 153t37.5 225.5q0 129 -37.5 226.5t-113 151.5t-185.5 54
q-112 0 -189 -56t-114.5 -153.5t-37.5 -222.5t38.5 -223.5t114.5 -154.5t185 -56q112 0 188 55.5z" />
    <glyph glyph-name="r" unicode="r" horiz-adv-x="721" 
d="M463.5 1069q62.5 20 126.5 20q43 0 81 -9v-138q-43 10 -83 10q-104 0 -175 -59q-74 -58 -100 -148t-26 -206v-539h-147v1080h132v-171q35 62 84 100q45 40 107.5 60z" />
    <glyph glyph-name="racute" unicode="&#x155;" horiz-adv-x="721" 
d="M484 1470l-76 -240h-148l76 240h148zM463.5 1069q62.5 20 126.5 20q43 0 81 -9v-138q-43 10 -83 10q-104 0 -175 -59q-74 -58 -100 -148t-26 -206v-539h-147v1080h132v-171q35 62 84 100q45 40 107.5 60z" />
    <glyph glyph-name="rcaron" unicode="&#x159;" horiz-adv-x="721" 
d="M690 1396l-284 -184l-284 184l63 100l221 -144l221 144zM463.5 1069q62.5 20 126.5 20q43 0 81 -9v-138q-43 10 -83 10q-104 0 -175 -59q-74 -58 -100 -148t-26 -206v-539h-147v1080h132v-171q35 62 84 100q45 40 107.5 60z" />
    <glyph glyph-name="uni0157" unicode="&#x157;" horiz-adv-x="721" 
d="M463.5 1069q62.5 20 126.5 20q43 0 81 -9v-138q-43 10 -83 10q-104 0 -175 -59q-74 -58 -100 -148t-26 -206v-539h-147v1080h132v-171q35 62 84 100q45 40 107.5 60zM131 -218h166v-165q0 -53 -23.5 -91t-61.5 -57t-81 -19v78q16 0 37.5 8t37.5 28t14 53h-89v165z" />
    <glyph glyph-name="s" unicode="s" horiz-adv-x="1050" 
d="M319 8q-98 37 -159.5 106.5t-79.5 166.5l150 25q23 -93 109 -147t212 -54q123 0 194 51.5t71 140.5q0 52 -23.5 82.5t-88.5 56.5t-208 65q-149 40 -231 80.5t-117 92t-35 128.5q0 91 51.5 161t144.5 108.5t214 38.5t218 -39.5t156 -111t70 -164.5l-150 -27
q-16 97 -98 152.5t-208 55.5q-73 0 -129.5 -21t-88 -59t-31.5 -87q0 -45 26.5 -74.5t93 -56t196.5 -59.5q152 -39 235.5 -80.5t119.5 -98t36 -141.5q0 -101 -51 -175t-147 -113.5t-228 -39.5q-126 0 -224 37z" />
    <glyph glyph-name="sacute" unicode="&#x15b;" horiz-adv-x="1050" 
d="M453 1230l76 240h148l-76 -240h-148zM319 8q-98 37 -159.5 106.5t-79.5 166.5l150 25q23 -93 109 -147t212 -54q123 0 194 51.5t71 140.5q0 52 -23.5 82.5t-88.5 56.5t-208 65q-149 40 -231 80.5t-117 92t-35 128.5q0 91 51.5 161t144.5 108.5t214 38.5t218 -39.5
t156 -111t70 -164.5l-150 -27q-16 97 -98 152.5t-208 55.5q-73 0 -129.5 -21t-88 -59t-31.5 -87q0 -45 26.5 -74.5t93 -56t196.5 -59.5q152 -39 235.5 -80.5t119.5 -98t36 -141.5q0 -101 -51 -175t-147 -113.5t-228 -39.5q-126 0 -224 37z" />
    <glyph glyph-name="scaron" unicode="&#x161;" horiz-adv-x="1050" 
d="M263 1396l63 100l221 -144l222 144l62 -100l-284 -184zM319 8q-98 37 -159.5 106.5t-79.5 166.5l150 25q23 -93 109 -147t212 -54q123 0 194 51.5t71 140.5q0 52 -23.5 82.5t-88.5 56.5t-208 65q-149 40 -231 80.5t-117 92t-35 128.5q0 91 51.5 161t144.5 108.5t214 38.5
t218 -39.5t156 -111t70 -164.5l-150 -27q-16 97 -98 152.5t-208 55.5q-73 0 -129.5 -21t-88 -59t-31.5 -87q0 -45 26.5 -74.5t93 -56t196.5 -59.5q152 -39 235.5 -80.5t119.5 -98t36 -141.5q0 -101 -51 -175t-147 -113.5t-228 -39.5q-126 0 -224 37z" />
    <glyph glyph-name="scedilla" unicode="&#x15f;" horiz-adv-x="1050" 
d="M875.5 75.5q-93.5 -85.5 -261.5 -101.5l-33 -93q120 -54 120 -172q0 -53 -25.5 -96t-69 -68t-94.5 -25q-63 0 -127 31l38 102q46 -18 77 -18q37 0 59 23.5t22 54.5q0 29 -17.5 47.5t-43 29.5t-71.5 25l56 157q-175 8 -287 89.5t-138 219.5l150 25q23 -93 109 -147
t212 -54q123 0 194 51.5t71 140.5q0 52 -23.5 82.5t-88.5 56.5t-208 65q-149 40 -231 80.5t-117 92t-35 128.5q0 91 51.5 161t144.5 108.5t214 38.5t218 -39.5t156 -111t70 -164.5l-150 -27q-16 97 -98 152.5t-208 55.5q-73 0 -129.5 -21t-88 -59t-31.5 -87
q0 -45 26.5 -74.5t93 -56t196.5 -59.5q152 -39 235.5 -80.5t119.5 -98t36 -141.5q0 -138 -93.5 -223.5z" />
    <glyph glyph-name="scircumflex" unicode="&#x15d;" horiz-adv-x="1050" 
d="M261 1312l284 184l284 -184l-63 -100l-221 144l-221 -144zM319 8q-98 37 -159.5 106.5t-79.5 166.5l150 25q23 -93 109 -147t212 -54q123 0 194 51.5t71 140.5q0 52 -23.5 82.5t-88.5 56.5t-208 65q-149 40 -231 80.5t-117 92t-35 128.5q0 91 51.5 161t144.5 108.5
t214 38.5t218 -39.5t156 -111t70 -164.5l-150 -27q-16 97 -98 152.5t-208 55.5q-73 0 -129.5 -21t-88 -59t-31.5 -87q0 -45 26.5 -74.5t93 -56t196.5 -59.5q152 -39 235.5 -80.5t119.5 -98t36 -141.5q0 -101 -51 -175t-147 -113.5t-228 -39.5q-126 0 -224 37z" />
    <glyph glyph-name="uni0219" unicode="&#x219;" horiz-adv-x="1050" 
d="M319 8q-98 37 -159.5 106.5t-79.5 166.5l150 25q23 -93 109 -147t212 -54q123 0 194 51.5t71 140.5q0 52 -23.5 82.5t-88.5 56.5t-208 65q-149 40 -231 80.5t-117 92t-35 128.5q0 91 51.5 161t144.5 108.5t214 38.5t218 -39.5t156 -111t70 -164.5l-150 -27
q-16 97 -98 152.5t-208 55.5q-73 0 -129.5 -21t-88 -59t-31.5 -87q0 -45 26.5 -74.5t93 -56t196.5 -59.5q152 -39 235.5 -80.5t119.5 -98t36 -141.5q0 -101 -51 -175t-147 -113.5t-228 -39.5q-126 0 -224 37zM488.5 -464q21.5 8 37.5 28t14 53h-89v165h166v-165
q0 -53 -23.5 -91t-61.5 -57t-81 -19v78q16 0 37.5 8z" />
    <glyph glyph-name="germandbls" unicode="&#xdf;" horiz-adv-x="1197" 
d="M523.5 -22.5q-44.5 6.5 -82.5 22.5v145q40 -15 80 -21.5t90 -6.5q94 0 165.5 34.5t111 101t39.5 159.5q0 88 -47.5 152.5t-133.5 99t-200 36.5v135q112 11 183 74t71 175q0 76 -31.5 131.5t-89 84.5t-132.5 29q-82 0 -144.5 -36t-88.5 -108q-22 -58 -22 -162v-1023h-153
v1063q0 104 26 170q43 118 141 177.5t239 59.5q119 0 211 -46.5t143.5 -133.5t51.5 -205q0 -105 -45 -184t-128 -112q69 -13 138 -61.5t115 -130t46 -186.5q0 -135 -52 -234t-153.5 -152.5t-246.5 -53.5q-57 0 -101.5 6.5z" />
    <glyph glyph-name="t" unicode="t" horiz-adv-x="801" 
d="M397 397v-59q0 -50 4 -80.5t18 -54.5q24 -46 69 -66t113 -20q57 0 127 12v-129q-80 -16 -149 -16q-103 0 -180 35t-114 110q-21 43 -27.5 88t-6.5 112v62v563h-231v126h231v300h146v-300h331v-126h-331v-557z" />
    <glyph glyph-name="tbar" unicode="&#x167;" horiz-adv-x="841" 
d="M397 397v-59q0 -50 4 -80.5t18 -54.5q24 -46 69 -66t113 -20q57 0 127 12v-129q-80 -16 -149 -16q-103 0 -180 35t-114 110q-21 43 -27.5 88t-6.5 112v62v93h-231v126h231v344h-231v126h231v300h146v-300h331v-126h-331v-344h344v-126h-344v-87z" />
    <glyph glyph-name="tcaron" unicode="&#x165;" horiz-adv-x="801" 
d="M397 397v-59q0 -50 4 -80.5t18 -54.5q24 -46 69 -66t113 -20q57 0 127 12v-129q-80 -16 -149 -16q-103 0 -180 35t-114 110q-21 43 -27.5 88t-6.5 112v62v563h-231v126h231v300h146v-300h331v-126h-331v-557zM698 1334q16 36 12 103h-91v211h171v-251q0 -81 -36.5 -127
t-99.5 -46q-11 0 -35 4l9 73q54 -3 70 33z" />
    <glyph glyph-name="uni0163" unicode="&#x163;" horiz-adv-x="801" 
d="M397 397v-59q0 -50 4 -80.5t18 -54.5q24 -46 69 -66t113 -20q57 0 127 12v-129q-74 -16 -152 -16q-28 0 -42 1l-37 -104q120 -54 120 -172q0 -53 -25.5 -96t-69 -68t-94.5 -25q-63 0 -127 31l38 102q46 -18 77 -18q37 0 59 23.5t22 54.5q0 29 -17.5 47.5t-43 29.5
t-71.5 25l68 190q-104 35 -148 124q-21 43 -27.5 88t-6.5 112v62v563h-231v126h231v300h146v-300h331v-126h-331v-557z" />
    <glyph glyph-name="uni021B" unicode="&#x21b;" horiz-adv-x="801" 
d="M397 397v-59q0 -50 4 -80.5t18 -54.5q24 -46 69 -66t113 -20q57 0 127 12v-129q-80 -16 -149 -16q-103 0 -180 35t-114 110q-21 43 -27.5 88t-6.5 112v62v563h-231v126h231v300h146v-300h331v-126h-331v-557zM335 -218h165v-165q0 -53 -23.5 -91t-61 -57t-80.5 -19v78
q16 0 37 8t37 28t14 53h-88v165z" />
    <glyph glyph-name="u" unicode="u" 
d="M1048 1080v-1080h-132v150q-60 -87 -153 -132t-210 -45q-153 0 -250 74t-140 190.5t-43 248.5v594h148v-551q0 -191 76 -303.5t237 -112.5q154 0 237 103t83 288v576h147z" />
    <glyph glyph-name="uacute" unicode="&#xfa;" 
d="M726 1470l-76 -240h-148l76 240h148zM1048 1080v-1080h-132v150q-60 -87 -153 -132t-210 -45q-153 0 -250 74t-140 190.5t-43 248.5v594h148v-551q0 -191 76 -303.5t237 -112.5q154 0 237 103t83 288v576h147z" />
    <glyph glyph-name="ubreve" unicode="&#x16d;" 
d="M454.5 1242.5q-59.5 34.5 -94 94t-34.5 129.5h122q0 -37 18.5 -68t49.5 -49.5t68 -18.5t68.5 18.5t49.5 49.5t18 68h122q0 -70 -34.5 -129.5t-94 -94t-129.5 -34.5t-129.5 34.5zM1048 1080v-1080h-132v150q-60 -87 -153 -132t-210 -45q-153 0 -250 74t-140 190.5
t-43 248.5v594h148v-551q0 -191 76 -303.5t237 -112.5q154 0 237 103t83 288v576h147z" />
    <glyph glyph-name="ucircumflex" unicode="&#xfb;" 
d="M583 1356l-221 -144l-63 100l284 184l284 -184l-62 -100zM1048 1080v-1080h-132v150q-60 -87 -153 -132t-210 -45q-153 0 -250 74t-140 190.5t-43 248.5v594h148v-551q0 -191 76 -303.5t237 -112.5q154 0 237 103t83 288v576h147z" />
    <glyph glyph-name="udieresis" unicode="&#xfc;" 
d="M473 1451v-160h-160v160h160zM854 1451v-160h-160v160h160zM1048 1080v-1080h-132v150q-60 -87 -153 -132t-210 -45q-153 0 -250 74t-140 190.5t-43 248.5v594h148v-551q0 -191 76 -303.5t237 -112.5q154 0 237 103t83 288v576h147z" />
    <glyph glyph-name="uni1EE5" unicode="&#x1ee5;" 
d="M1048 1080v-1080h-132v150q-60 -87 -153 -132t-210 -45q-153 0 -250 74t-140 190.5t-43 248.5v594h148v-551q0 -191 76 -303.5t237 -112.5q154 0 237 103t83 288v576h147zM503 -383v165h171v-165h-171z" />
    <glyph glyph-name="ugrave" unicode="&#xf9;" 
d="M678 1230h-148l-76 240h148zM1048 1080v-1080h-132v150q-60 -87 -153 -132t-210 -45q-153 0 -250 74t-140 190.5t-43 248.5v594h148v-551q0 -191 76 -303.5t237 -112.5q154 0 237 103t83 288v576h147z" />
    <glyph glyph-name="uni1EE7" unicode="&#x1ee7;" 
d="M579 1518q-22 0 -46 -10.5t-45 -28.5l-48 77q31 31 70.5 48t80.5 17q43 0 80.5 -21t62.5 -64q25 -46 25 -91q0 -65 -44 -118t-109 -76l-48 68q45 21 71 52t26 65q0 22 -12 44q-21 38 -64 38zM1048 1080v-1080h-132v150q-60 -87 -153 -132t-210 -45q-153 0 -250 74
t-140 190.5t-43 248.5v594h148v-551q0 -191 76 -303.5t237 -112.5q154 0 237 103t83 288v576h147z" />
    <glyph glyph-name="uhorn" unicode="&#x1b0;" 
d="M1230 1189q0 -122 -82 -176q-42 -28 -100 -33v-980h-132v150q-60 -87 -153 -132t-210 -45q-153 0 -250 74t-140 190.5t-43 248.5v594h148v-551q0 -191 76 -303.5t237 -112.5q154 0 237 103t83 288v576h24h22q6 0 28 1t40 5q50 10 69 44t19 85q0 15 -2 45h123q6 -37 6 -71
z" />
    <glyph glyph-name="uni1EE9" unicode="&#x1ee9;" 
d="M726 1470l-76 -240h-148l76 240h148zM1230 1189q0 -122 -82 -176q-42 -28 -100 -33v-980h-132v150q-60 -87 -153 -132t-210 -45q-153 0 -250 74t-140 190.5t-43 248.5v594h148v-551q0 -191 76 -303.5t237 -112.5q154 0 237 103t83 288v576h24h22q6 0 28 1t40 5
q50 10 69 44t19 85q0 15 -2 45h123q6 -37 6 -71z" />
    <glyph glyph-name="uni1EF1" unicode="&#x1ef1;" 
d="M1231 1189q0 -122 -82 -176q-41 -28 -101 -34v-979h-132v150q-60 -87 -153 -132t-210 -45q-153 0 -250 74t-140 190.5t-43 248.5v594h148v-551q0 -191 76 -303.5t237 -112.5q154 0 237 103t83 288v576h25h22q6 0 28 1t41 5q50 10 68.5 44t18.5 85q0 15 -2 45h123
q6 -37 6 -71zM513 -383v165h171v-165h-171z" />
    <glyph glyph-name="uni1EEB" unicode="&#x1eeb;" 
d="M678 1230h-148l-76 240h148zM1230 1188q0 -122 -82 -176q-39 -26 -100 -33v-979h-132v150q-60 -87 -153 -132t-210 -45q-153 0 -250 74t-140 190.5t-43 248.5v594h148v-551q0 -191 76 -303.5t237 -112.5q154 0 237 103t83 288v576h65q33 2 49 5q50 10 69 44t19 85
q0 15 -2 45h123q6 -37 6 -71z" />
    <glyph glyph-name="uni1EED" unicode="&#x1eed;" 
d="M579 1518q-22 0 -46 -10.5t-45 -28.5l-48 77q31 31 70.5 48t80.5 17q43 0 80.5 -21t62.5 -64q25 -46 25 -91q0 -65 -44 -118t-109 -76l-48 68q45 21 71 52t26 65q0 22 -12 44q-21 38 -64 38zM1230 1189q0 -122 -82 -176q-42 -28 -100 -33v-980h-132v150
q-60 -87 -153 -132t-210 -45q-153 0 -250 74t-140 190.5t-43 248.5v594h148v-551q0 -191 76 -303.5t237 -112.5q154 0 237 103t83 288v576h24h22q6 0 28 1t40 5q50 10 69 44t19 85q0 15 -2 45h123q6 -37 6 -71z" />
    <glyph glyph-name="uni1EEF" unicode="&#x1eef;" 
d="M301 1269q-8 34 -8 60q0 68 41.5 111t112.5 43q41 0 79.5 -16.5t94.5 -47.5q41 -24 69 -36.5t52 -12.5q26 0 40.5 17t14.5 45q0 18 -6 37h104q8 -34 8 -60q0 -69 -41.5 -113t-113.5 -44q-41 0 -79 16t-94 48q-41 24 -69 36.5t-52 12.5q-27 0 -41 -17t-14 -43q0 -18 6 -36
h-104zM1230 1189q0 -122 -82 -176q-42 -28 -100 -33v-980h-132v150q-60 -87 -153 -132t-210 -45q-153 0 -250 74t-140 190.5t-43 248.5v594h148v-551q0 -191 76 -303.5t237 -112.5q154 0 237 103t83 288v576h24h22q6 0 28 1t40 5q50 10 69 44t19 85q0 15 -2 45h123
q6 -37 6 -71z" />
    <glyph glyph-name="uhungarumlaut" unicode="&#x171;" 
d="M544 1471l-76 -240h-148l76 240h148zM919 1471l-76 -240h-148l76 240h148zM1048 1080v-1080h-132v150q-60 -87 -153 -132t-210 -45q-153 0 -250 74t-140 190.5t-43 248.5v594h148v-551q0 -191 76 -303.5t237 -112.5q154 0 237 103t83 288v576h147z" />
    <glyph glyph-name="umacron" unicode="&#x16b;" 
d="M834 1445v-125h-501v125h501zM1048 1080v-1080h-132v150q-60 -87 -153 -132t-210 -45q-153 0 -250 74t-140 190.5t-43 248.5v594h148v-551q0 -191 76 -303.5t237 -112.5q154 0 237 103t83 288v576h147z" />
    <glyph glyph-name="uogonek" unicode="&#x173;" 
d="M1054 -393q-33 -43 -77.5 -66t-91.5 -23q-52 0 -96 27t-70 72t-26 96q0 83 61.5 173t161.5 165v99q-60 -87 -153 -132t-210 -45q-153 0 -250 74t-140 190.5t-43 248.5v594h148v-551q0 -191 76 -303.5t237 -112.5q154 0 237 103t83 288v576h147v-1080
q-94 -57 -160.5 -136.5t-66.5 -142.5q0 -37 22.5 -60.5t53.5 -23.5q45 0 92 49z" />
    <glyph glyph-name="uring" unicode="&#x16f;" 
d="M475.5 1226.5q-50.5 29.5 -80.5 80t-30 109.5t30 109.5t80.5 80t109.5 29.5t109.5 -29.5t80 -80t29.5 -109.5q0 -60 -29.5 -110t-79.5 -79.5t-110 -29.5q-59 0 -109.5 29.5zM500.5 1501q-35.5 -35 -35.5 -85q0 -49 35.5 -84.5t84.5 -35.5q50 0 85 35t35 85t-35 85t-85 35
q-49 0 -84.5 -35zM1048 1080v-1080h-132v150q-60 -87 -153 -132t-210 -45q-153 0 -250 74t-140 190.5t-43 248.5v594h148v-551q0 -191 76 -303.5t237 -112.5q154 0 237 103t83 288v576h147z" />
    <glyph glyph-name="utilde" unicode="&#x169;" 
d="M309 1269q-8 34 -8 59q0 69 41.5 112t112.5 43q41 0 81.5 -16.5t92.5 -47.5q41 -24 69.5 -36.5t52.5 -12.5q26 0 40.5 17.5t14.5 45.5q0 17 -6 36h104q8 -34 8 -60q0 -69 -41.5 -113t-113.5 -44q-41 0 -79 16t-94 48q-41 24 -69 36.5t-52 12.5q-28 0 -42 -17t-14 -44
q0 -17 6 -35h-104zM1048 1080v-1080h-132v150q-60 -87 -153 -132t-210 -45q-153 0 -250 74t-140 190.5t-43 248.5v594h148v-551q0 -191 76 -303.5t237 -112.5q154 0 237 103t83 288v576h147z" />
    <glyph glyph-name="v" unicode="v" horiz-adv-x="1016" 
d="M40 1080h149l319 -888l317 888h151l-392 -1080h-152z" />
    <glyph glyph-name="w" unicode="w" horiz-adv-x="1535" 
d="M40 1081l147 -1l256 -839l257 839h134l257 -839l258 839h146l-330 -1080h-128l-270 860l-269 -860h-128z" />
    <glyph glyph-name="wacute" unicode="&#x1e83;" horiz-adv-x="1535" 
d="M700 1230l76 240h148l-76 -240h-148zM187 1080l256 -839l257 839h134l257 -839l258 839h146l-330 -1080h-128l-270 860l-269 -860h-128l-330 1081z" />
    <glyph glyph-name="wcircumflex" unicode="&#x175;" horiz-adv-x="1535" 
d="M483 1312l284 184l284 -184l-62 -100l-222 144l-221 -144zM187 1080l256 -839l257 839h134l257 -839l258 839h146l-330 -1080h-128l-270 860l-269 -860h-128l-330 1081z" />
    <glyph glyph-name="wdieresis" unicode="&#x1e85;" horiz-adv-x="1535" 
d="M497 1451h160v-160h-160v160zM878 1451h160v-160h-160v160zM187 1080l256 -839l257 839h134l257 -839l258 839h146l-330 -1080h-128l-270 860l-269 -860h-128l-330 1081z" />
    <glyph glyph-name="wgrave" unicode="&#x1e81;" horiz-adv-x="1535" 
d="M610 1470h148l76 -240h-148zM187 1080l256 -839l257 839h134l257 -839l258 839h146l-330 -1080h-128l-270 860l-269 -860h-128l-330 1081z" />
    <glyph glyph-name="x" unicode="x" horiz-adv-x="1054" 
d="M442 546l-413 534h176l323 -421l320 421h176l-413 -534l423 -546h-177l-329 433l-331 -433h-177z" />
    <glyph glyph-name="y" unicode="y" horiz-adv-x="1055" 
d="M871 1080h150l-580 -1560h-147l178 483l-439 1077h156l355 -888z" />
    <glyph glyph-name="yacute" unicode="&#xfd;" horiz-adv-x="1055" 
d="M675 1470l-76 -240h-148l76 240h148zM871 1080h150l-580 -1560h-147l178 483l-439 1077h156l355 -888z" />
    <glyph glyph-name="ycircumflex" unicode="&#x177;" horiz-adv-x="1055" 
d="M543 1356l-221 -144l-63 100l284 184l284 -184l-62 -100zM871 1080h150l-580 -1560h-147l178 483l-439 1077h156l355 -888z" />
    <glyph glyph-name="ydieresis" unicode="&#xff;" horiz-adv-x="1055" 
d="M427 1451v-160h-160v160h160zM808 1451v-160h-160v160h160zM871 1080h150l-580 -1560h-147l178 483l-439 1077h156l355 -888z" />
    <glyph glyph-name="uni1EF5" unicode="&#x1ef5;" horiz-adv-x="1055" 
d="M871 1080h150l-580 -1560h-147l178 483l-439 1077h156l355 -888zM715 -383v165h170v-165h-170z" />
    <glyph glyph-name="ygrave" unicode="&#x1ef3;" horiz-adv-x="1055" 
d="M621 1230h-148l-76 240h148zM871 1080h150l-580 -1560h-147l178 483l-439 1077h156l355 -888z" />
    <glyph glyph-name="uni1EF7" unicode="&#x1ef7;" horiz-adv-x="1055" 
d="M519 1518q-22 0 -46 -10.5t-45 -28.5l-48 77q31 31 70.5 48t80.5 17q43 0 80.5 -21t62.5 -64q25 -46 25 -91q0 -65 -44 -118t-109 -76l-48 68q45 21 71 52t26 65q0 22 -12 44q-21 38 -64 38zM871 1080h150l-580 -1560h-147l178 483l-439 1077h156l355 -888z" />
    <glyph glyph-name="uni1EF9" unicode="&#x1ef9;" horiz-adv-x="1055" 
d="M243 1269q-8 34 -8 60q0 68 41.5 111t112.5 43q41 0 79.5 -16.5t94.5 -47.5q41 -24 69 -36.5t52 -12.5q26 0 40.5 17t14.5 45q0 18 -6 37h104q8 -34 8 -60q0 -69 -41.5 -113t-113.5 -44q-41 0 -79 16t-94 48q-41 24 -69 36.5t-52 12.5q-27 0 -41 -17t-14 -43q0 -18 6 -36
h-104zM871 1080h150l-580 -1560h-147l178 483l-439 1077h156l355 -888z" />
    <glyph glyph-name="z" unicode="z" horiz-adv-x="1059" 
d="M40 31l697 912h-645v137h887v-34l-696 -909h658v-137h-901v31z" />
    <glyph glyph-name="zacute" unicode="&#x17a;" horiz-adv-x="1059" 
d="M486 1230l76 240h148l-76 -240h-148zM737 943h-645v137h887v-34l-696 -909h658v-137h-901v31z" />
    <glyph glyph-name="zcaron" unicode="&#x17e;" horiz-adv-x="1059" 
d="M269 1396l62 100l222 -144l221 144l63 -100l-284 -184zM737 943h-645v137h887v-34l-696 -909h658v-137h-901v31z" />
    <glyph glyph-name="zdotaccent" unicode="&#x17c;" horiz-adv-x="1059" 
d="M456 1480h171v-171h-171v171zM737 943h-645v137h887v-34l-696 -909h658v-137h-901v31z" />
    <glyph glyph-name="ordfeminine" unicode="&#xaa;" horiz-adv-x="1111" 
d="M991 671v-671h-131v179q-63 -103 -168 -156t-243 -53q-118 0 -201.5 43t-125.5 116t-42 161q0 126 73 203t202 111q79 19 176.5 34t225.5 32l90 12q-2 149 -69.5 219t-218.5 70q-114 0 -189.5 -51t-105.5 -157l-143 42q38 146 150.5 225.5t289.5 79.5q148 0 251.5 -56
t146.5 -160q32 -78 32 -223zM644 133.5q78 36.5 125.5 101t61.5 146.5q14 62 14 172q-39 -4 -56 -7q-136 -16 -221 -28.5t-154 -31.5q-187 -55 -187 -196q0 -50 24.5 -94t78.5 -71.5t136 -27.5q100 0 178 36.5z" />
    <glyph glyph-name="ordmasculine" unicode="&#xba;" horiz-adv-x="1183" 
d="M317.5 42.5q-115.5 72.5 -176.5 201.5t-61 297q0 169 62 298t177.5 200t271.5 71q159 0 274.5 -72t176.5 -201t61 -296q0 -170 -61.5 -299t-177 -200.5t-273.5 -71.5t-273.5 72.5zM788 164.5q80 53.5 119.5 150t39.5 226.5q0 200 -90.5 314t-265.5 114
q-176 0 -265.5 -115.5t-89.5 -312.5q0 -131 40.5 -228t120 -149.5t194.5 -52.5q117 0 197 53.5z" />
    <glyph glyph-name="uni0410" unicode="&#x410;" horiz-adv-x="1267" 
d="M1074 0l-121 349h-640l-120 -349h-153l496 1440h195l496 -1440h-153zM361 487h544l-273 787z" />
    <glyph glyph-name="uni0411" unicode="&#x411;" horiz-adv-x="1208" 
d="M1029 1440v-141h-742v-419h409q51 0 101 -7q108 -15 187.5 -75.5t121.5 -153.5t42 -204t-42 -204t-121.5 -153.5t-187.5 -75.5q-50 -7 -101 -7h-556v1440h889zM781 149q106 21 161 102.5t55 188.5t-55 188.5t-161 102.5q-40 8 -89 8h-405v-598h405q49 0 89 8z" />
    <glyph glyph-name="uni0412" unicode="&#x412;" horiz-adv-x="1226" 
d="M1104.5 621.5q62.5 -93.5 62.5 -217.5q0 -123 -53 -214.5t-149 -140.5t-223 -49h-602v1440h556q118 0 209 -49.5t141.5 -134.5t50.5 -187q0 -98 -45.5 -179t-123.5 -126q114 -49 176.5 -142.5zM288 826h407q69 0 126 31.5t90.5 87.5t33.5 126q0 67 -32 119.5t-89 81.5
t-129 29h-407v-475zM864 172.5q70 31.5 110.5 90.5t40.5 139q0 79 -37 144t-101 103t-144 38h-445v-546h418q88 0 158 31.5z" />
    <glyph glyph-name="uni0413" unicode="&#x413;" horiz-adv-x="1060" 
d="M140 1440h900v-141h-753v-1299h-147v1440z" />
    <glyph glyph-name="uni0403" unicode="&#x403;" horiz-adv-x="1060" 
d="M378 1590l76 240h148l-76 -240h-148zM1040 1440v-141h-753v-1299h-147v1440h900z" />
    <glyph glyph-name="uni0490" unicode="&#x490;" horiz-adv-x="1080" 
d="M140 1440h773v187h147v-328h-773v-1299h-147v1440z" />
    <glyph glyph-name="uni0414" unicode="&#x414;" horiz-adv-x="1475" 
d="M233.5 209q56.5 68 78.5 166.5t39 260.5q15 142 23.5 269.5t20.5 361.5l9 174l888 -1v-1299h103v-381h-146v240h-1029v-240h-147v381q104 0 160.5 68zM1145 1299l-604 1l-1 -30q-12 -240 -21 -379t-25 -299q-13 -129 -27.5 -209.5t-41 -140.5t-71.5 -101h791v1158z" />
    <glyph glyph-name="uni0415" unicode="&#x415;" horiz-adv-x="1140" 
d="M140 1440h900v-141h-753v-498h633v-141h-633v-519h753v-141h-900v1440z" />
    <glyph glyph-name="uni0400" unicode="&#x400;" horiz-adv-x="1140" 
d="M473 1830h148l76 -240h-148zM1040 1440v-141h-753v-498h633v-141h-633v-519h753v-141h-900v1440h900z" />
    <glyph glyph-name="uni0401" unicode="&#x401;" horiz-adv-x="1140" 
d="M299 1811h160v-160h-160v160zM680 1811h160v-160h-160v160zM1040 1440v-141h-753v-498h633v-141h-633v-519h753v-141h-900v1440h900z" />
    <glyph glyph-name="uni0416" unicode="&#x416;" horiz-adv-x="1781" 
d="M658 745l-583 695h185l557 -673v673h147v-673l557 673h185l-583 -695l638 -745h-188l-609 713v-713h-147v713l-608 -713h-189z" />
    <glyph glyph-name="uni0417" unicode="&#x417;" horiz-adv-x="1193" 
d="M352 11.5q-108 41.5 -178.5 111t-106.5 156.5l134 78q39 -109 142 -177.5t263 -68.5q116 0 197.5 36.5t124 103.5t42.5 157q0 136 -92.5 192t-256.5 62q-145 5 -164 5v142q114 0 155 2q144 6 225.5 74.5t81.5 184.5q0 80 -39 138.5t-109 89.5t-162 31q-240 0 -362 -226
l-120 89q70 127 195.5 202.5t290.5 75.5q126 0 231 -45t168 -134.5t63 -217.5q0 -114 -50 -202t-134 -133q112 -35 173.5 -118.5t61.5 -214.5t-65 -229.5t-184 -152t-276 -53.5q-141 0 -249 41.5z" />
    <glyph glyph-name="uni0418" unicode="&#x418;" horiz-adv-x="1369" 
d="M1229 0h-148v1181l-793 -1181h-148v1440h148v-1180l793 1180h148v-1440z" />
    <glyph glyph-name="uni0419" unicode="&#x419;" horiz-adv-x="1369" 
d="M566.5 1602.5q-59.5 34.5 -94 94t-34.5 129.5h122q0 -37 18.5 -68t49.5 -49.5t68 -18.5t68.5 18.5t49.5 49.5t18 68h122q0 -70 -34.5 -129.5t-94 -94t-129.5 -34.5t-129.5 34.5zM140 1440h148v-1180l793 1180h148v-1440h-148v1181l-793 -1181h-148v1440z" />
    <glyph glyph-name="uni040D" unicode="&#x40d;" horiz-adv-x="1369" 
d="M560 1830h148l76 -240h-148zM140 1440h148v-1180l793 1180h148v-1440h-148v1181l-793 -1181h-148v1440z" />
    <glyph glyph-name="uni041A" unicode="&#x41a;" horiz-adv-x="1187" 
d="M140 1440h147v-680l657 680h188l-671 -695l726 -745h-192l-708 720v-720h-147v1440z" />
    <glyph glyph-name="uni040C" unicode="&#x40c;" horiz-adv-x="1187" 
d="M542 1590l76 240h148l-76 -240h-148zM140 1440h147v-680l657 680h188l-671 -695l726 -745h-192l-708 720v-720h-147v1440z" />
    <glyph glyph-name="uni041B" unicode="&#x41b;" horiz-adv-x="1399" 
d="M81 129q57 0 88.5 27t51.5 94.5t42 206.5q35 220 54.5 451t32.5 532h909v-1440h-147v1299h-620l-6 -90q-16 -257 -32.5 -439t-47.5 -382q-21 -131 -47.5 -215t-79.5 -135.5t-141 -51.5q-40 0 -98 14v131q30 -2 41 -2z" />
    <glyph glyph-name="uni041C" unicode="&#x41c;" horiz-adv-x="1681" 
d="M140 1440h135l566 -1211l563 1211h137v-1439h-140v1111l-513 -1112h-95l-512 1112v-1112h-141v1440z" />
    <glyph glyph-name="uni041D" unicode="&#x41d;" horiz-adv-x="1369" 
d="M140 1440h147v-649h796v649h146v-1440h-146v650h-796v-650h-147v1440z" />
    <glyph glyph-name="uni041E" unicode="&#x41e;" horiz-adv-x="1447" 
d="M363 64q-149 94 -226 263.5t-77 392.5t77 392.5t226 263.5t360 94t360.5 -94t226.5 -263.5t77 -392.5t-77 -392.5t-226.5 -263.5t-360.5 -94t-360 94zM1002 187q114 76 171.5 213t57.5 320q0 182 -57.5 319t-171.5 213t-279 77q-165 0 -278 -76t-170 -213t-59 -320
q-2 -182 55.5 -319t172 -213t279.5 -77q165 0 279 76z" />
    <glyph glyph-name="uni041F" unicode="&#x41f;" horiz-adv-x="1383" 
d="M140 1440h1103v-1440h-147v1299h-809v-1299h-147v1440z" />
    <glyph glyph-name="uni0420" unicode="&#x420;" horiz-adv-x="1208" 
d="M696 1440q53 0 101 -8q110 -17 189.5 -78t120.5 -154.5t41 -206.5t-41.5 -206t-120.5 -154t-189 -78q-48 -8 -101 -8h-409v-547h-147v1440h556zM781 696q71 15 119.5 59t72.5 106.5t24 131.5t-24 131.5t-72.5 107t-119.5 59.5q-40 8 -89 8h-405v-612h405q50 0 89 9z" />
    <glyph glyph-name="uni0421" unicode="&#x421;" horiz-adv-x="1431" 
d="M363 64q-149 94 -226 263.5t-77 392.5t77 392.5t226 263.5t360 94q164 0 291.5 -57.5t212 -163.5t124.5 -252l-150 -39q-47 175 -168 273t-310 98q-165 0 -278.5 -76t-170.5 -213t-59 -320q-1 -182 56.5 -319.5t172 -213.5t279.5 -76q189 0 310 98t168 273l150 -39
q-40 -146 -124.5 -252t-212 -163.5t-291.5 -57.5q-211 0 -360 94z" />
    <glyph glyph-name="uni0422" unicode="&#x422;" horiz-adv-x="1193" 
d="M523 1299h-503v141h1153v-141h-503v-1299h-147v1299z" />
    <glyph glyph-name="uni0423" unicode="&#x423;" horiz-adv-x="1246" 
d="M545 341l-512 1099h163l426 -941l434 941h157l-670 -1440h-160z" />
    <glyph glyph-name="uni040E" unicode="&#x40e;" horiz-adv-x="1246" 
d="M488 1602.5q-59 34.5 -94 94t-35 129.5h122q0 -37 18.5 -68t50 -49.5t67.5 -18.5q37 0 68.5 18.5t49.5 49.5t18 68h122q0 -70 -34.5 -129.5t-94 -94t-129.5 -34.5t-129 34.5zM33 1440h163l426 -941l434 941h157l-670 -1440h-160l162 341z" />
    <glyph glyph-name="uni0424" unicode="&#x424;" horiz-adv-x="1421" 
d="M551 184q-133 0 -245.5 68.5t-179 200t-66.5 311.5t67 312t179.5 201.5t245.5 69.5q46 0 85 -7v100h146v-100q39 7 85 7q134 0 246.5 -69.5t179.5 -201.5t67 -312t-67 -311.5t-179.5 -200t-245.5 -68.5q-45 0 -86 7v-191h-146v191q-41 -7 -86 -7zM578 1207
q-109 0 -192 -56.5t-128.5 -157.5t-45.5 -229t45 -227t128 -154.5t191 -55.5q33 0 61 4v872q-27 4 -59 4zM844 327q108 0 191 55.5t128.5 154t45.5 224.5q0 127 -46 228.5t-129.5 159.5t-192.5 58q-31 0 -58 -4v-872q28 -4 61 -4z" />
    <glyph glyph-name="uni0425" unicode="&#x425;" horiz-adv-x="1212" 
d="M519 729l-486 711h178l395 -588l395 588h179l-486 -711l498 -729h-178l-408 605l-407 -605h-179z" />
    <glyph glyph-name="uni0427" unicode="&#x427;" horiz-adv-x="1293" 
d="M1153 1440v-1440h-147v587q-70 -40 -159.5 -62t-194.5 -22q-268 0 -390 143.5t-122 394.5v399h148v-348q0 -215 87 -330t292 -115q106 0 194 28t145 72v693h147z" />
    <glyph glyph-name="uni0426" unicode="&#x426;" horiz-adv-x="1433" 
d="M1266 0h-1126v1440h147v-1304h826v1291h147v-1291h153v-323h-147v187z" />
    <glyph glyph-name="uni0428" unicode="&#x428;" horiz-adv-x="1813" 
d="M140 1440h147v-1299h546v1299h147v-1299h547v1299h146v-1440h-1533v1440z" />
    <glyph glyph-name="uni0429" unicode="&#x429;" horiz-adv-x="1846" 
d="M1673 136h153v-323h-147v187h-1539v1440h147v-1299h546v1299h147v-1299h547v1299h146v-1304z" />
    <glyph glyph-name="uni040F" unicode="&#x40f;" horiz-adv-x="1467" 
d="M660 0h-520v1440h147v-1299h893v1299h147v-1440h-520v-240h-147v240z" />
    <glyph glyph-name="uni042C" unicode="&#x42c;" horiz-adv-x="1227" 
d="M286 1440v-547h409q53 0 102 -8q110 -17 189 -78t120 -154t41 -206t-41 -206.5t-120 -154.5t-189 -78q-49 -8 -102 -8h-556v1440h147zM781 149q71 15 119 59.5t72 107t24 131.5t-24 131.5t-72 106.5t-119 59q-40 9 -90 9h-405v-612h405q49 0 90 8z" />
    <glyph glyph-name="uni042A" unicode="&#x42a;" horiz-adv-x="1236" 
d="M-13 1314v126h333v-547h409q53 0 102 -8q110 -17 189 -78t120 -154t41 -206t-41 -206.5t-120 -154.5t-189 -78q-49 -8 -102 -8h-556v1314h-186zM815 149q71 15 119 59.5t72 107t24 131.5t-24 131.5t-72 106.5t-119 59q-40 9 -90 9h-405v-612h405q49 0 90 8z" />
    <glyph glyph-name="uni042B" unicode="&#x42b;" horiz-adv-x="1575" 
d="M286 1440v-547h409q53 0 102 -8q110 -17 189 -78t120 -154t41 -206t-41 -206.5t-120 -154.5t-189 -78q-49 -8 -102 -8h-556v1440h147zM781 149q71 15 119 59.5t72 107t24 131.5t-24 131.5t-72 106.5t-119 59q-40 9 -90 9h-405v-612h405q49 0 90 8zM1289 1440h147v-1440
h-147v1440z" />
    <glyph glyph-name="uni0409" unicode="&#x409;" horiz-adv-x="2179" 
d="M1938 807q79 -61 120 -154t41 -206t-41 -206.5t-120 -154.5t-189 -78q-49 -8 -102 -8h-556v1299h-619l-6 -90q-16 -257 -32.5 -439t-47.5 -382q-21 -131 -47.5 -215t-79.5 -135.5t-141 -51.5q-40 0 -98 14v131q30 -2 41 -2q57 0 88.5 27t51.5 94.5t42 206.5
q35 220 54.5 451t32.5 532h909v-547h408q53 0 102 -8q110 -17 189 -78zM1852 208.5q48 44.5 72 107t24 131.5t-24 131.5t-72 106.5t-119 59q-40 9 -90 9h-404v-612h404q49 0 90 8q71 15 119 59.5z" />
    <glyph glyph-name="uni040A" unicode="&#x40a;" horiz-adv-x="2117" 
d="M1875 807q79 -61 120.5 -154t41.5 -206t-41 -206.5t-120.5 -154.5t-189.5 -78q-49 -8 -101 -8h-556v752h-742v-752h-147v1440h147v-547h742v547h146v-547h410q52 0 101 -8q110 -17 189 -78zM1789 208.5q48 44.5 72 107t24 131.5t-24 131.5t-72 106.5t-119 59q-40 9 -89 9
h-406v-612h406q48 0 89 8q71 15 119 59.5z" />
    <glyph glyph-name="uni0405" unicode="&#x405;" horiz-adv-x="1233" 
d="M369 20.5q-121 50.5 -199.5 144t-102.5 220.5l150 25q24 -92 84.5 -159.5t149 -103.5t195.5 -36q106 0 190.5 34t132 96.5t47.5 145.5q0 99 -62 151.5t-159 81.5l-365 109q-307 91 -307 345q0 119 63.5 209t175 138t253.5 48q143 0 257.5 -51t188.5 -146t97 -223
l-154 -28q-14 92 -68.5 161.5t-138 107.5t-183.5 39q-95 0 -172 -32t-120.5 -89t-43.5 -128q0 -68 38 -112.5t91.5 -69t126.5 -45.5l282 -83q88 -25 161 -61t131 -113.5t58 -202.5q0 -131 -68 -226.5t-187.5 -146t-270.5 -50.5q-150 0 -271 50.5z" />
    <glyph glyph-name="uni0404" unicode="&#x404;" horiz-adv-x="1433" 
d="M390.5 66q-148.5 96 -226 262t-77.5 374q0 231 76.5 404t224.5 268.5t356 95.5q161 0 290.5 -58.5t216 -170t122.5 -268.5l-150 -22q-40 175 -164.5 274.5t-308.5 101.5q-152 2 -262 -65t-171 -188.5t-72 -282.5h528v-141h-528q6 -107 32 -194.5t86 -166.5
q67 -90 169 -134t225 -44q112 0 205.5 43t159 123.5t96.5 189.5l145 -38q-38 -145 -124.5 -248t-212.5 -157t-282 -54q-205 0 -353.5 96z" />
    <glyph glyph-name="uni042D" unicode="&#x42d;" horiz-adv-x="1406" 
d="M407 24q-126 54 -212.5 157t-124.5 248l145 38q31 -110 96.5 -190t159 -123t205.5 -43q123 0 225 44t169 134q60 79 86 167t31 194h-528v141h529q-11 161 -72 282.5t-171 188.5t-262 65q-184 -2 -308.5 -101.5t-165.5 -274.5l-149 22q36 157 122.5 268.5t216 170
t290.5 58.5q208 0 356 -95.5t224.5 -268.5t76.5 -404q0 -208 -77.5 -374t-226.5 -262t-353 -96q-156 0 -282 54z" />
    <glyph glyph-name="uni0406" unicode="&#x406;" horiz-adv-x="467" 
d="M160 1440h147v-1440h-147v1440z" />
    <glyph glyph-name="uni0407" unicode="&#x407;" horiz-adv-x="467" 
d="M-37 1811h160v-160h-160v160zM344 1811h160v-160h-160v160zM307 1440v-1440h-147v1440h147z" />
    <glyph glyph-name="uni0408" unicode="&#x408;" horiz-adv-x="927" 
d="M211.5 7q-79.5 36 -134 102.5t-77.5 155.5l147 35q12 -53 46 -96t84 -67.5t108 -24.5q61 0 117 29t87 87q20 39 24.5 84t4.5 131v997h148v-997v-55q0 -81 -8.5 -132.5t-38.5 -103.5q-51 -90 -138 -135.5t-195 -45.5q-95 0 -174.5 36z" />
    <glyph glyph-name="uni040B" unicode="&#x40b;" horiz-adv-x="1293" 
d="M1031 793.5q122 -143.5 122 -394.5v-399h-148v348q0 215 -87 330t-291 115q-107 0 -195 -28t-145 -72v-693h-147v1304h-140v136h600v-136h-313v-451q69 40 159 62t195 22q268 0 390 -143.5z" />
    <glyph glyph-name="uni042E" unicode="&#x42e;" horiz-adv-x="1835" 
d="M1513 1369q130 -100 196 -270t66 -379q0 -216 -65.5 -385.5t-196 -267t-316.5 -97.5q-174 0 -300 89t-195 242t-80 346h-335v-647h-147v1440h147v-647h335q11 193 80 346t195 241.5t300 88.5q186 0 316 -100zM1427.5 192q94.5 81 142 219.5t49.5 308.5q1 169 -47 307
t-143.5 219t-231.5 81q-137 0 -232 -82.5t-142 -222.5t-47 -312q0 -167 48.5 -303t143.5 -216t229 -80q136 0 230.5 81z" />
    <glyph glyph-name="uni042F" unicode="&#x42f;" horiz-adv-x="1262" 
d="M1121 1440v-1440h-146v547h-461l-265 -547h-169l284 583q-120 48 -185.5 157t-65.5 253q0 113 41 206.5t120.5 154.5t189.5 78q49 8 101 8h556zM975 1299h-406q-48 0 -89 -8q-71 -15 -119 -59.5t-72 -107t-24 -131.5t24 -131.5t72 -106.5t119 -59q40 -9 89 -9h406v612z
" />
    <glyph glyph-name="uni0402" unicode="&#x402;" horiz-adv-x="1292" 
d="M0 1304v136h600v-136h-321v-376q63 91 170 136.5t249 45.5q249 0 381.5 -137.5t132.5 -407.5q0 -172 -55.5 -299t-168.5 -196.5t-282 -69.5v148q176 0 267 112t91 313q0 204 -96.5 299t-282.5 95q-147 0 -240 -58t-127 -175q-15 -51 -19.5 -110t-4.5 -134v-490h-147v1304
h-147z" />
    <glyph glyph-name="uni04AE" unicode="&#x4ae;" horiz-adv-x="1112" 
d="M483 603l-483 837h170l387 -669l385 669h170l-481 -837v-603h-148v603z" />
    <glyph glyph-name="uni04BA" unicode="&#x4ba;" horiz-adv-x="1294" 
d="M1031 793.5q122 -143.5 122 -394.5v-399h-148v348q0 215 -87 330t-291 115q-107 0 -195 -28t-145 -72v-693h-147v1440h147v-587q69 40 159 62t195 22q268 0 390 -143.5z" />
    <glyph glyph-name="uni04E8" unicode="&#x4e8;" horiz-adv-x="1487" 
d="M1083.5 1376q149.5 -94 226.5 -263.5t77 -392.5t-77 -392.5t-226.5 -263.5t-360.5 -94t-360 94t-226 263.5t-77 392.5t77 392.5t226 263.5t360 94t360.5 -94zM460 1263q-109 -66 -169 -186.5t-72 -283.5h1010q-11 162 -71.5 282t-170.5 186.5t-264 67.5q-154 0 -263 -66z
M987 177q110 66 170.5 187t71.5 283h-1011q10 -162 70.5 -282t170.5 -186.5t264 -67.5q154 0 264 66z" />
    <glyph glyph-name="uni0414.loclBGR" horiz-adv-x="1459" 
d="M1272 141h114v-308h-141v167h-1038v-167h-140v308h115l447 1299h196zM336 141h782l-393 1132z" />
    <glyph glyph-name="uni0416.loclBGR" horiz-adv-x="1781" 
d="M658 745l-583 695h185l557 -673v673h147v-673l557 673h185l-583 -695l638 -745h-188l-609 713v-713h-147v713l-608 -713h-189z" />
    <glyph glyph-name="uni041A.loclBGR" horiz-adv-x="1187" 
d="M140 1440h147v-680l657 680h188l-671 -695l726 -745h-192l-708 720v-720h-147v1440z" />
    <glyph glyph-name="uni041B.loclBGR" horiz-adv-x="1207" 
d="M506 1440h195l496 -1440h-153l-442 1273l-439 -1273h-153z" />
    <glyph glyph-name="uni0430" unicode="&#x430;" horiz-adv-x="1111" 
d="M991 671v-671h-131v179q-63 -103 -168 -156t-243 -53q-118 0 -201.5 43t-125.5 116t-42 161q0 126 73 203t202 111q79 19 176.5 34t225.5 32l90 12q-2 149 -69.5 219t-218.5 70q-114 0 -189.5 -51t-105.5 -157l-143 42q38 146 150.5 225.5t289.5 79.5q148 0 251.5 -56
t146.5 -160q32 -78 32 -223zM644 133.5q78 36.5 125.5 101t61.5 146.5q14 62 14 172q-39 -4 -56 -7q-136 -16 -221 -28.5t-154 -31.5q-187 -55 -187 -196q0 -50 24.5 -94t78.5 -71.5t136 -27.5q100 0 178 36.5z" />
    <glyph glyph-name="uni0431" unicode="&#x431;" horiz-adv-x="1166" 
d="M216 118q-127 147 -134 433q-1 16 -1 49q0 126 18 263.5t45 212.5q26 75 75 139t112 105q55 37 127 60.5t143.5 36t181.5 26.5q121 15 179 27l16 -133q-48 -9 -149 -22q-153 -20 -254.5 -42t-168.5 -66q-79 -48 -123 -145t-55 -230q60 95 162 145t225 50
q143 0 249.5 -66.5t164 -186t57.5 -273.5q0 -160 -62.5 -280.5t-178.5 -186t-272 -65.5q-230 2 -357 149zM773.5 157.5q77.5 47.5 117.5 135t40 205.5q0 120 -41.5 207t-120 134t-187.5 47q-165 0 -254.5 -103t-89.5 -285q0 -183 89.5 -285.5t256.5 -102.5q112 0 189.5 47.5
z" />
    <glyph glyph-name="uni0432" unicode="&#x432;" horiz-adv-x="1071" 
d="M584 1080q39 0 86.5 -4.5t86.5 -14.5q92 -25 147 -99t55 -177q0 -112 -67 -182q-31 -34 -68 -50q33 -6 69 -28q118 -71 118 -231q0 -109 -52 -180t-143 -97q-60 -17 -174 -17h-503v1080h445zM704 619q50 17 75.5 60t25.5 98q0 58 -27.5 100.5t-78.5 59.5q-48 17 -130 17
h-282v-351h302q71 0 115 16zM690 128.5q31 3.5 55 9.5q56 14 85 58t29 102q0 70 -41.5 115.5t-110.5 56.5q-30 7 -93 7h-327v-352h348q24 0 55 3.5z" />
    <glyph glyph-name="uni0433" unicode="&#x433;" horiz-adv-x="930" 
d="M140 1080h740v-141h-593v-939h-147v1080z" />
    <glyph glyph-name="uni0453" unicode="&#x453;" horiz-adv-x="930" 
d="M364 1230l76 240h148l-76 -240h-148zM880 1080v-141h-593v-939h-147v1080h740z" />
    <glyph glyph-name="uni0491" unicode="&#x491;" horiz-adv-x="930" 
d="M140 1080h593v187h147v-328h-593v-939h-147v1080z" />
    <glyph glyph-name="uni0434" unicode="&#x434;" horiz-adv-x="1197" 
d="M157.5 151.5q37.5 25.5 60 79t39.5 145.5q24 121 37 274.5t25 429.5h714v-954h104v-366h-142v240h-794v-240h-141v366q60 0 97.5 25.5zM887 954h-432q-10 -202 -24 -362t-37 -259q-17 -81 -35 -128.5t-50 -78.5h578v828z" />
    <glyph glyph-name="uni0435" unicode="&#x435;" horiz-adv-x="1169" 
d="M338 212q92 -101 253 -101q115 0 202 53.5t137 154.5l137 -53q-64 -141 -188 -218.5t-282 -77.5q-156 0 -273 70t-180.5 197.5t-63.5 297.5q0 175 62.5 305t178 200t270.5 70t266.5 -69.5t171 -200t59.5 -310.5v-31h-851q9 -186 101 -287zM348.5 884
q-91.5 -91 -108.5 -262h694q-16 175 -102 264t-237 89q-155 0 -246.5 -91z" />
    <glyph glyph-name="uni0450" unicode="&#x450;" horiz-adv-x="1169" 
d="M681 1230h-148l-76 240h148zM338 212q92 -101 253 -101q115 0 202 53.5t137 154.5l137 -53q-64 -141 -188 -218.5t-282 -77.5q-156 0 -273 70t-180.5 197.5t-63.5 297.5q0 175 62.5 305t178 200t270.5 70t266.5 -69.5t171 -200t59.5 -310.5v-31h-851q9 -186 101 -287z
M348.5 884q-91.5 -91 -108.5 -262h694q-16 175 -102 264t-237 89q-155 0 -246.5 -91z" />
    <glyph glyph-name="uni0451" unicode="&#x451;" horiz-adv-x="1169" 
d="M481 1451v-160h-160v160h160zM862 1451v-160h-160v160h160zM338 212q92 -101 253 -101q115 0 202 53.5t137 154.5l137 -53q-64 -141 -188 -218.5t-282 -77.5q-156 0 -273 70t-180.5 197.5t-63.5 297.5q0 175 62.5 305t178 200t270.5 70t266.5 -69.5t171 -200t59.5 -310.5
v-31h-851q9 -186 101 -287zM348.5 884q-91.5 -91 -108.5 -262h694q-16 175 -102 264t-237 89q-155 0 -246.5 -91z" />
    <glyph glyph-name="uni0436" unicode="&#x436;" horiz-adv-x="1397" 
d="M476 540l-437 540h166l426 -533v533h136v-533l426 533h165l-437 -540l456 -540h-171l-439 533v-533h-136v533l-440 -533h-171z" />
    <glyph glyph-name="uni0437" unicode="&#x437;" horiz-adv-x="1013" 
d="M896.5 458q36.5 -72 36.5 -155q0 -101 -53 -176.5t-145 -116t-206 -40.5q-161 0 -283 70.5t-193 199.5l118 75q60 -100 148 -152t201 -52q79 0 138.5 25t92 71.5t32.5 109.5q0 97 -67 137.5t-209 40.5h-128v126h126q117 0 183 41.5t66 126.5q0 88 -65.5 134.5
t-166.5 46.5q-93 0 -178.5 -38.5t-146.5 -102.5l-94 99q82 89 190.5 135.5t239.5 46.5q105 0 189.5 -37.5t133.5 -108t49 -165.5q0 -148 -115 -235q70 -34 106.5 -106z" />
    <glyph glyph-name="uni0438" unicode="&#x438;" horiz-adv-x="1138" 
d="M998 0h-143v841l-592 -841h-124v1080h143v-834l593 834h123v-1080z" />
    <glyph glyph-name="uni0439" unicode="&#x439;" horiz-adv-x="1138" 
d="M458.5 1242.5q-59.5 34.5 -94 94t-34.5 129.5h122q0 -37 18.5 -68t49.5 -49.5t68 -18.5t68.5 18.5t49.5 49.5t18 68h122q0 -70 -34.5 -129.5t-94 -94t-129.5 -34.5t-129.5 34.5zM855 0v841l-592 -841h-124v1080h143v-834l593 834h123v-1080h-143z" />
    <glyph glyph-name="uni045D" unicode="&#x45d;" horiz-adv-x="1138" 
d="M498 1470h148l76 -240h-148zM855 0v841l-592 -841h-124v1080h143v-834l593 834h123v-1080h-143z" />
    <glyph glyph-name="uni043A" unicode="&#x43a;" horiz-adv-x="992" 
d="M140 1080h148v-520l482 520h196l-506 -540l572 -540h-214l-530 520v-520h-149z" />
    <glyph glyph-name="uni045C" unicode="&#x45c;" horiz-adv-x="992" 
d="M395 1230l76 240h148l-76 -240h-148zM288 1080v-520l482 520h196l-506 -540l572 -540h-214l-530 520v-520h-149l1 1080h148z" />
    <glyph glyph-name="uni043B" unicode="&#x43b;" horiz-adv-x="1151" 
d="M83 125q40 0 63.5 18.5t35 52.5t21.5 93q23 137 40 323.5t34 467.5h734v-1080h-146v939h-452q-37 -523 -78 -730q-15 -78 -37 -125t-60.5 -71t-100.5 -24q-39 0 -97 11v129q21 -4 43 -4z" />
    <glyph glyph-name="uni043C" unicode="&#x43c;" horiz-adv-x="1383" 
d="M139 1080h131l421 -884l422 884h130v-1080h-142v766l-363 -766h-93l-363 766v-766h-143v1080z" />
    <glyph glyph-name="uni043D" unicode="&#x43d;" horiz-adv-x="1182" 
d="M139 1080h147v-469h609v469h147v-1080h-147v470h-609v-470h-147v1080z" />
    <glyph glyph-name="uni043E" unicode="&#x43e;" horiz-adv-x="1183" 
d="M317.5 42.5q-115.5 72.5 -176.5 201.5t-61 297q0 169 62 298t177.5 200t271.5 71q159 0 274.5 -72t176.5 -201t61 -296q0 -170 -61.5 -299t-177 -200.5t-273.5 -71.5t-273.5 72.5zM788 164.5q80 53.5 119.5 150t39.5 226.5q0 200 -90.5 314t-265.5 114
q-176 0 -265.5 -115.5t-89.5 -312.5q0 -131 40.5 -228t120 -149.5t194.5 -52.5q117 0 197 53.5z" />
    <glyph glyph-name="uni043F" unicode="&#x43f;" horiz-adv-x="1138" 
d="M139 1080h859v-1080h-147v939h-565v-939h-147v1080z" />
    <glyph glyph-name="uni0440" unicode="&#x440;" horiz-adv-x="1184" 
d="M882.5 1036q107.5 -74 164.5 -203.5t57 -291.5q0 -163 -57 -293t-165.5 -204t-256.5 -74q-107 0 -192.5 41.5t-145.5 117.5v-609h-148v1560h132v-149q61 86 152 132.5t208 46.5q144 0 251.5 -74zM795 163q76 56 114.5 154.5t38.5 223.5t-37.5 222.5t-114.5 153.5t-189 56
q-110 0 -185.5 -54t-113 -151.5t-37.5 -226.5q0 -128 37.5 -225.5t113.5 -153t188 -55.5q109 0 185 56z" />
    <glyph glyph-name="uni0441" unicode="&#x441;" horiz-adv-x="1107" 
d="M314.5 42q-113.5 72 -173 201t-61.5 297q2 171 62 299.5t174 199.5t273 71q108 0 200 -36t157 -103.5t95 -159.5l-144 -46q-38 96 -120.5 150t-188.5 54q-173 0 -261.5 -116t-90.5 -313q2 -199 92 -314t260 -115q110 0 187.5 50.5t117.5 147.5l148 -44
q-61 -144 -177 -219.5t-276 -75.5t-273.5 72z" />
    <glyph glyph-name="uni0442" unicode="&#x442;" horiz-adv-x="1013" 
d="M433 944h-383v136h913v-136h-383v-944h-147v944z" />
    <glyph glyph-name="uni0443" unicode="&#x443;" horiz-adv-x="1055" 
d="M871 1080h150l-580 -1560h-147l178 483l-439 1077h156l355 -888z" />
    <glyph glyph-name="uni045E" unicode="&#x45e;" horiz-adv-x="1055" 
d="M439.5 1242.5q-59.5 34.5 -94 94t-34.5 129.5h122q0 -37 18.5 -68t49.5 -49.5t68 -18.5t68.5 18.5t49.5 49.5t18 68h122q0 -70 -35 -129.5t-94 -94t-129 -34.5t-129.5 34.5zM871 1080h150l-580 -1560h-147l178 483l-439 1077h156l355 -888z" />
    <glyph glyph-name="uni0444" unicode="&#x444;" horiz-adv-x="1440" 
d="M563 -28q-138 0 -247.5 68t-172.5 196t-63 303t63 303.5t172.5 197t247.5 68.5q47 0 89 -7v331h136v-331q42 7 89 7q138 0 247.5 -68.5t172.5 -197t63 -303.5t-63 -303t-172.5 -196t-247.5 -68q-47 0 -89 7v-429h-136v429q-42 -7 -89 -7zM584 969q-98 0 -177.5 -47.5
t-127 -144.5t-47.5 -238t48 -237.5t128 -144t177 -47.5q34 0 67 6v847q-35 6 -68 6zM856 110q97 0 177 47t127.5 143.5t47.5 238.5t-47.5 238.5t-127 144t-176.5 47.5q-35 0 -69 -6v-847q35 -6 68 -6z" />
    <glyph glyph-name="uni0445" unicode="&#x445;" horiz-adv-x="1054" 
d="M442 546l-413 534h176l323 -421l320 421h176l-413 -534l423 -546h-177l-329 433l-331 -433h-177z" />
    <glyph glyph-name="uni0447" unicode="&#x447;" horiz-adv-x="1088" 
d="M663.5 353.5q-79.5 -18.5 -165.5 -18.5q-164 0 -266.5 73t-132.5 211q-19 83 -19 223v238h148v-238q0 -100 11 -157q20 -111 91 -166t198 -55q79 0 151 20t122 56v540h147v-1080h-147v402q-58 -30 -137.5 -48.5z" />
    <glyph glyph-name="uni0446" unicode="&#x446;" horiz-adv-x="1235" 
d="M1068 0h-929v1080h147v-939h565v939h147v-944h217v-323h-147v187z" />
    <glyph glyph-name="uni0448" unicode="&#x448;" horiz-adv-x="1517" 
d="M139 1080h143v-944h405v944h143v-944h404v944h143v-1080h-1238v1080z" />
    <glyph glyph-name="uni0449" unicode="&#x449;" horiz-adv-x="1538" 
d="M1371 0h-1232v1080h143v-944h405v944h143v-944h404v944h143v-944h141v-323h-147v187z" />
    <glyph glyph-name="uni045F" unicode="&#x45f;" horiz-adv-x="1138" 
d="M517 0h-378v1080h147v-939h565v939h147v-1080h-334v-240h-147v240z" />
    <glyph glyph-name="uni044C" unicode="&#x44c;" horiz-adv-x="1069" 
d="M287 1080v-407h253q113 0 173 -10q129 -24 202.5 -103t73.5 -223q0 -134 -68.5 -216t-183.5 -107q-64 -14 -184 -14h-412l-2 1080h148zM697 139q61 17 100.5 65t39.5 133q0 166 -154 199q-51 11 -136 11h-260v-421h260q102 0 150 13z" />
    <glyph glyph-name="uni044A" unicode="&#x44a;" horiz-adv-x="1117" 
d="M40 954v126h295v-407h252q114 0 174 -10q128 -24 202 -103t74 -223q0 -134 -69 -216t-184 -107q-64 -14 -183 -14h-413l-1 954h-147zM744 139q61 17 101 64.5t40 133.5q0 166 -154 199q-53 11 -136 11h-260v-421h260q102 0 149 13z" />
    <glyph glyph-name="uni044B" unicode="&#x44b;" horiz-adv-x="1340" 
d="M287 1080v-407h188q113 0 173 -10q276 -56 276 -326q0 -134 -69 -216t-184 -107q-63 -14 -183 -14h-347l-2 1080h148zM1200 1080v-1080h-147v1080h147zM631 139q61 17 101 64.5t40 133.5q0 166 -154 199q-53 11 -136 11h-195v-421h195q102 0 149 13z" />
    <glyph glyph-name="uni0459" unicode="&#x459;" horiz-adv-x="1675" 
d="M83 125q40 0 62.5 18.5t34.5 52t23 93.5q24 136 40 319t34 472h681v-407h187q54 0 94 -1.5t80 -8.5q122 -22 199 -101.5t77 -222.5q0 -137 -70 -219t-183 -106q-65 -14 -183 -14h-348l-1 939h-397q-37 -523 -78 -730q-15 -78 -37 -125t-60.5 -71t-100.5 -24q-39 0 -97 11
v129q21 -4 43 -4zM1235.5 128.5q35.5 2.5 66.5 10.5q60 16 100.5 64t40.5 137q0 163 -154 196q-50 11 -136 11h-195v-421h195q47 0 82.5 2.5z" />
    <glyph glyph-name="uni045A" unicode="&#x45a;" horiz-adv-x="1609" 
d="M286 1080v-407h458v407h148v-407h187q55 0 94.5 -1.5t79.5 -8.5q122 -22 199 -101.5t77 -222.5q0 -137 -70 -219t-183 -106q-65 -14 -183 -14h-348l-1 547h-458v-547h-147v1080h147zM1169.5 128.5q35.5 2.5 66.5 10.5q60 16 100.5 64t40.5 137q0 163 -154 196
q-50 11 -136 11h-195v-421h195q47 0 82.5 2.5z" />
    <glyph glyph-name="uni0455" unicode="&#x455;" horiz-adv-x="1050" 
d="M319 8q-98 37 -159.5 106.5t-79.5 166.5l150 25q23 -93 109 -147t212 -54q123 0 194 51.5t71 140.5q0 52 -23.5 82.5t-88.5 56.5t-208 65q-149 40 -231 80.5t-117 92t-35 128.5q0 91 51.5 161t144.5 108.5t214 38.5t218 -39.5t156 -111t70 -164.5l-150 -27
q-16 97 -98 152.5t-208 55.5q-73 0 -129.5 -21t-88 -59t-31.5 -87q0 -45 26.5 -74.5t93 -56t196.5 -59.5q152 -39 235.5 -80.5t119.5 -98t36 -141.5q0 -101 -51 -175t-147 -113.5t-228 -39.5q-126 0 -224 37z" />
    <glyph glyph-name="uni0454" unicode="&#x454;" horiz-adv-x="1108" 
d="M315.5 41q-114.5 71 -175 199.5t-60.5 298.5t60 299.5t174 200.5t270 71q112 0 204.5 -36t157.5 -103.5t95 -159.5l-144 -46q-39 97 -121 150.5t-191 53.5q-156 0 -243.5 -98.5t-100.5 -267.5h483v-126h-483q15 -172 103 -269t244 -97q110 0 187.5 50.5t117.5 147.5
l148 -44q-61 -144 -177 -219.5t-277 -75.5q-157 0 -271.5 71z" />
    <glyph glyph-name="uni044D" unicode="&#x44d;" horiz-adv-x="1108" 
d="M244 45.5q-116 75.5 -177 219.5l148 44q40 -97 117.5 -147.5t187.5 -50.5q156 0 244 97t103 269h-483v126h483q-13 169 -100.5 267.5t-243.5 98.5q-109 0 -191 -53.5t-121 -150.5l-144 46q30 92 95 159.5t157.5 103.5t204.5 36q156 0 270 -71t174 -200.5t60 -299.5
t-60.5 -298.5t-175 -199.5t-271.5 -71q-161 0 -277 75.5z" />
    <glyph glyph-name="uni0456" unicode="&#x456;" horiz-adv-x="467" 
d="M160 1450h147v-165h-147v165zM160 1080h147v-1080h-147v1080z" />
    <glyph glyph-name="uni0457" unicode="&#x457;" horiz-adv-x="467" 
d="M-37 1451h160v-160h-160v160zM344 1451h160v-160h-160v160zM307 1080v-1080h-147v1080h147z" />
    <glyph glyph-name="uni0458" unicode="&#x458;" horiz-adv-x="501" 
d="M201 1450h146v-165h-146v165zM41 -338q160 0 160 163v1255h146v-1292q0 -135 -64.5 -201.5t-197.5 -66.5h-105v142h61z" />
    <glyph glyph-name="uni045B" unicode="&#x45b;" 
d="M885 1033q97 -74 140 -190.5t43 -248.5v-594h-148v551q0 191 -76 303.5t-237 112.5q-154 0 -237 -103t-83 -288v-576h-148v1187h-127v125h127v128h133v-128h241v-125h-241v-257q60 87 153 132t210 45q153 0 250 -74z" />
    <glyph glyph-name="uni044E" unicode="&#x44e;" horiz-adv-x="1582" 
d="M742 31q-107 61 -169.5 173t-75.5 263h-211v-467h-147v1080h147v-467h210q12 152 76 264t171 172.5t248 60.5q158 0 273.5 -72t176.5 -201t61 -295q0 -169 -61.5 -298.5t-177 -201.5t-273.5 -72q-141 0 -248 61zM1255 226q91 115 91 315q0 201 -91.5 314.5t-266.5 113.5
q-113 0 -192 -51t-120 -147t-41 -229q0 -131 40 -228t119 -150t193 -53q177 0 268 115z" />
    <glyph glyph-name="uni044F" unicode="&#x44f;" horiz-adv-x="1105" 
d="M817 0v407h-252q-34 0 -51 1l-273 -408h-161l283 426q-112 29 -180 108t-68 205q0 87 33.5 154.5t90.5 110.5t129 61q42 10 85.5 12.5t97.5 2.5h413l1 -1080h-148zM817 533v421h-260q-94 0 -148 -15q-57 -17 -99.5 -68t-42.5 -130q0 -78 42.5 -128t113.5 -68
q32 -8 63.5 -10t70.5 -2h260z" />
    <glyph glyph-name="uni0452" unicode="&#x452;" 
d="M867 -399q-54 0 -108 14v118q25 -4 53 -4q57 0 82.5 33t25.5 121v668q0 191 -76 303.5t-237 112.5q-154 0 -237 -103t-83 -288v-576h-147v1187h-128v125h128v128h132v-128h241v-125h-241v-260q58 89 152 134.5t211 45.5q153 0 250 -74t140 -190.5t43 -248.5v-779
q0 -181 -141 -208q-29 -6 -60 -6z" />
    <glyph glyph-name="uni04AF" unicode="&#x4af;" horiz-adv-x="1016" 
d="M432 0l-392 1080h151l317 -888l319 888h149l-392 -1080v-360h-152v360z" />
    <glyph glyph-name="uni04BB" unicode="&#x4bb;" horiz-adv-x="1115" 
d="M451.5 726.5q79.5 18.5 165.5 18.5q163 0 265.5 -73t133.5 -211q19 -83 19 -223v-238h-148v238q0 95 -12 157q-20 110 -91 165.5t-197 55.5q-79 0 -151 -20t-122 -56v-540h-147v1080h147v-402q58 30 137.5 48.5z" />
    <glyph glyph-name="uni04E9" unicode="&#x4e9;" horiz-adv-x="1183" 
d="M865.5 1038q115.5 -72 176.5 -201t61 -296q0 -170 -61.5 -299t-177 -200.5t-273.5 -71.5t-273.5 72.5t-176.5 201.5t-61 297q0 169 62 298t177.5 200t271.5 71q159 0 274.5 -72zM341 871q-89 -98 -103 -268h707q-14 172 -103.5 269t-250.5 97t-250 -98zM840.5 209
q89.5 98 103.5 268h-705q14 -172 104 -269t248 -97q160 0 249.5 98z" />
    <glyph glyph-name="uni0432.loclBGR" horiz-adv-x="1136" 
d="M923.5 724q67.5 -49 110.5 -132t43 -193q0 -127 -56.5 -224t-164 -151t-254.5 -54q-176 0 -293 77.5t-152 213.5q-18 67 -18 168v634q0 100 26 170q38 112 138 174.5t240 62.5q121 0 213.5 -46.5t143.5 -133t51 -203.5q0 -106 -43 -184.5t-126 -114.5q74 -15 141.5 -64z
M773.5 148q72.5 37 113 103.5t40.5 153.5q0 139 -101.5 215t-279.5 80v135q114 13 184 75.5t70 175.5q0 75 -32 130t-89.5 84t-132.5 29q-81 0 -143.5 -35.5t-88.5 -108.5q-22 -60 -22 -162v-601q0 -85 15 -135q17 -54 62 -93.5t108 -61t132 -21.5q92 0 164.5 37z" />
    <glyph glyph-name="uni0433.loclBGR" horiz-adv-x="1050" 
d="M279 10.5q-96 39.5 -147 113.5t-51 175q0 85 36 141.5t119.5 98t235.5 80.5q130 33 196.5 59.5t93 56t26.5 74.5q0 49 -31.5 87t-88 59t-129.5 21q-126 0 -208 -55.5t-98 -152.5l-150 27q11 93 70 164.5t156 111t218 39.5t214 -38.5t144.5 -108.5t51.5 -161
q0 -77 -35 -128.5t-117 -92t-231 -80.5q-143 -39 -208 -65t-88.5 -56.5t-23.5 -82.5q0 -89 71 -140.5t194 -51.5q126 0 212 54t109 147l150 -25q-18 -97 -79.5 -166.5t-159.5 -106.5t-224 -37q-132 0 -228 39.5z" />
    <glyph glyph-name="uni0434.loclBGR" horiz-adv-x="1184" 
d="M1044 1080v-1065q0 -99 -12 -172q-57 -353 -463 -353q-133 0 -246.5 59t-179.5 179l133 74q42 -85 121.5 -127t171.5 -42q172 0 250 95t77 289v111q-60 -76 -145 -117t-192 -41q-148 0 -256.5 74t-165.5 204t-57 293q0 162 57 291.5t164.5 203.5t251.5 74
q117 0 208 -46.5t152 -132.5v149h131zM762 162.5q76 55.5 113.5 153t37.5 225.5q0 129 -37.5 226.5t-113 151.5t-185.5 54q-112 0 -189 -56t-114.5 -153.5t-37.5 -222.5t38.5 -223.5t114.5 -154.5t185 -56q112 0 188 55.5z" />
    <glyph glyph-name="uni0436.loclBGR" horiz-adv-x="1412" 
d="M477 540l-436 540h165l425 -532v892h136v-892l424 532h166l-437 -540l456 -540h-171l-438 532v-532h-136v532l-438 -532h-172z" />
    <glyph glyph-name="uni0437.loclBGR" horiz-adv-x="1219" 
d="M365 -348.5q-108 41.5 -178.5 111t-106.5 156.5l134 78q39 -109 142 -177.5t263 -68.5q116 0 197.5 36.5t124 103.5t42.5 157q0 136 -92.5 192t-256.5 62q-145 5 -164 5v142q114 0 155 2q144 6 225.5 74.5t81.5 184.5q0 80 -39 138.5t-109 89.5t-162 31q-240 0 -362 -226
l-120 89q70 127 195.5 202.5t290.5 75.5q126 0 231 -45t168 -134.5t63 -217.5q0 -114 -50 -202t-134 -133q112 -35 173.5 -118.5t61.5 -214.5t-65 -229.5t-184 -152t-276 -53.5q-141 0 -249 41.5z" />
    <glyph glyph-name="uni0438.loclBGR" 
d="M1048 1080v-1080h-132v150q-60 -87 -153 -132t-210 -45q-153 0 -250 74t-140 190.5t-43 248.5v594h148v-551q0 -191 76 -303.5t237 -112.5q154 0 237 103t83 288v576h147z" />
    <glyph glyph-name="uni0439.loclBGR" 
d="M454 1242.5q-59 34.5 -94 94t-35 129.5h122q0 -37 18.5 -68t50 -49.5t67.5 -18.5q37 0 68.5 18.5t49.5 49.5t18 68h122q0 -70 -34.5 -129.5t-94 -94t-129.5 -34.5t-129 34.5zM1048 1080v-1080h-132v150q-60 -87 -153 -132t-210 -45q-153 0 -250 74t-140 190.5t-43 248.5
v594h148v-551q0 -191 76 -303.5t237 -112.5q154 0 237 103t83 288v576h147z" />
    <glyph glyph-name="uni045D.loclBGR" horiz-adv-x="1148" 
d="M722 1230h-148l-76 240h148zM1048 1080v-1080h-132v150q-60 -87 -153 -132t-210 -45q-153 0 -250 74t-140 190.5t-43 248.5v594h148v-551q0 -191 76 -303.5t237 -112.5q154 0 237 103t83 288v576h147z" />
    <glyph glyph-name="uni043A.loclBGR" horiz-adv-x="992" 
d="M140 1440h148v-880l482 520h196l-506 -540l572 -540h-214l-530 520v-520h-149z" />
    <glyph glyph-name="uni043B.loclBGR" horiz-adv-x="1016" 
d="M432 1080h152l392 -1080h-151l-317 888l-319 -888h-149z" />
    <glyph glyph-name="uni043D.loclBGR" horiz-adv-x="1182" 
d="M139 1080h147v-469h609v469h147v-1080h-147v470h-609v-470h-147v1080z" />
    <glyph glyph-name="uni043F.loclBGR" 
d="M885 1033q97 -74 140 -190.5t43 -248.5v-594h-148v551q0 191 -76 303.5t-237 112.5q-154 0 -237 -103t-83 -288v-576h-148v1080h133v-150q60 87 153 132t210 45q153 0 250 -74z" />
    <glyph glyph-name="uni0442.loclBGR" horiz-adv-x="1696" 
d="M1406.5 1063.5q81.5 -45.5 125.5 -129.5t44 -197l-1 -737h-147l1 709q0 82 -31.5 142.5t-87.5 93t-127 32.5q-66 0 -123 -29.5t-93 -92.5t-36 -158l-1 -697h-145l1 699q0 85 -31 148t-87.5 96.5t-130.5 33.5t-131 -34.5t-88 -98t-31 -147.5v-697h-148v1080h132v-114
q51 67 130 105t174 38q107 0 189.5 -47t125.5 -135q47 86 133 134t194 48t189.5 -45.5z" />
    <glyph glyph-name="uni0447.loclBGR" horiz-adv-x="1088" 
d="M663.5 353.5q-79.5 -18.5 -165.5 -18.5q-164 0 -266.5 73t-132.5 211q-19 83 -19 223v238h148v-238q0 -100 11 -157q20 -111 91 -166t198 -55q79 0 151 20t122 56v540h147v-1080h-147v402q-58 -30 -137.5 -48.5z" />
    <glyph glyph-name="uni0446.loclBGR" horiz-adv-x="1223" 
d="M1203 136v-303h-147v167h-140v150q-60 -87 -153 -132t-210 -45q-153 0 -250 74t-140 190.5t-43 248.5v594h148v-551q0 -191 76 -303.5t237 -112.5q154 0 237 103t83 288v576h147v-944h155z" />
    <glyph glyph-name="uni0448.loclBGR" horiz-adv-x="1696" 
d="M1557 1080v-1080h-132v114q-51 -67 -130 -105t-174 -38q-107 0 -189.5 47t-125.5 135q-47 -86 -133 -134t-194 -48t-189.5 45.5t-125.5 129.5t-44 197l1 737h147l-1 -709q0 -82 31.5 -142.5t87.5 -93t127 -32.5q66 0 123 29.5t93 92.5t36 158l1 697h145l-1 -699
q0 -85 31 -148t87.5 -96.5t130.5 -33.5t131 34.5t88 98t31 147.5v697h148z" />
    <glyph glyph-name="uni0449.loclBGR" horiz-adv-x="1731" 
d="M1711 136v-323h-147v187h-140v113q-51 -67 -129.5 -104.5t-173.5 -37.5q-107 0 -189.5 47t-125.5 135q-47 -86 -133 -134t-194 -48t-189.5 45.5t-125.5 129.5t-44 197l1 737h147l-1 -709q0 -82 31.5 -142.5t87.5 -93t127 -32.5q66 0 123 29.5t93 92.5t36 158l1 697h145
l-1 -699q0 -85 31 -148t87.5 -96.5t130.5 -33.5t131 34.5t88 98t31 147.5v697h148v-944h154z" />
    <glyph glyph-name="uni044C.loclBGR" horiz-adv-x="1069" 
d="M287 1080v-407h253q113 0 173 -10q129 -24 202.5 -103t73.5 -223q0 -134 -68.5 -216t-183.5 -107q-64 -14 -184 -14h-412l-2 1080h148zM697 139q61 17 100.5 65t39.5 133q0 166 -154 199q-51 11 -136 11h-260v-421h260q102 0 150 13z" />
    <glyph glyph-name="uni044E.loclBGR" horiz-adv-x="1579" 
d="M1264.5 1038q115.5 -72 176.5 -201t61 -295q0 -169 -61.5 -298.5t-177 -201.5t-273.5 -72q-141 0 -248 61t-169.5 173t-75.5 263h-210v-467h-148v1080h1v360h147v-827h209q12 152 76 264t171 172.5t248 60.5q158 0 273.5 -72zM1255 226q91 115 91 315q0 201 -91.5 314.5
t-266.5 113.5q-113 0 -192 -51t-120 -147t-41 -229q0 -131 40 -228t119 -150t193 -53q177 0 268 115z" />
    <glyph glyph-name="uni0431.loclSRB" horiz-adv-x="1166" 
d="M216 118q-127 147 -134 433q-1 16 -1 49q0 126 18 263.5t45 212.5q26 75 75 139t112 105q55 37 127 60.5t143.5 36t181.5 26.5q121 15 179 27l16 -133q-48 -9 -149 -22q-153 -20 -254.5 -42t-168.5 -66q-79 -48 -123 -145t-55 -230q60 95 162 145t225 50
q143 0 249.5 -66.5t164 -186t57.5 -273.5q0 -160 -62.5 -280.5t-178.5 -186t-272 -65.5q-230 2 -357 149zM773.5 157.5q77.5 47.5 117.5 135t40 205.5q0 120 -41.5 207t-120 134t-187.5 47q-165 0 -254.5 -103t-89.5 -285q0 -183 89.5 -285.5t256.5 -102.5q112 0 189.5 47.5
z" />
    <glyph glyph-name="Alpha" unicode="&#x391;" horiz-adv-x="1267" 
d="M1074 0l-121 349h-640l-120 -349h-153l496 1440h195l496 -1440h-153zM361 487h544l-273 787z" />
    <glyph glyph-name="Beta" unicode="&#x392;" horiz-adv-x="1226" 
d="M1104.5 621.5q62.5 -93.5 62.5 -217.5q0 -123 -53 -214.5t-149 -140.5t-223 -49h-602v1440h556q118 0 209 -49.5t141.5 -134.5t50.5 -187q0 -98 -45.5 -179t-123.5 -126q114 -49 176.5 -142.5zM288 826h407q69 0 126 31.5t90.5 87.5t33.5 126q0 67 -32 119.5t-89 81.5
t-129 29h-407v-475zM864 172.5q70 31.5 110.5 90.5t40.5 139q0 79 -37 144t-101 103t-144 38h-445v-546h418q88 0 158 31.5z" />
    <glyph glyph-name="Gamma" unicode="&#x393;" horiz-adv-x="1060" 
d="M140 1440h900v-141h-753v-1299h-147v1440z" />
    <glyph glyph-name="uni0394" unicode="&#x394;" horiz-adv-x="1267" 
d="M731 1440l496 -1440h-1187l496 1440h195zM242 141h783l-393 1132z" />
    <glyph glyph-name="Epsilon" unicode="&#x395;" horiz-adv-x="1140" 
d="M140 1440h900v-141h-753v-498h633v-141h-633v-519h753v-141h-900v1440z" />
    <glyph glyph-name="Zeta" unicode="&#x396;" horiz-adv-x="1228" 
d="M100 31l787 1268h-767v141h1008v-34l-783 -1266h776v-140h-1021v31z" />
    <glyph glyph-name="Eta" unicode="&#x397;" horiz-adv-x="1369" 
d="M140 1440h147v-649h796v649h146v-1440h-146v650h-796v-650h-147v1440z" />
    <glyph glyph-name="Theta" unicode="&#x398;" horiz-adv-x="1447" 
d="M363 64q-149 94 -226 263.5t-77 392.5t77 392.5t226 263.5t360 94t360.5 -94t226.5 -263.5t77 -392.5t-77 -392.5t-226.5 -263.5t-360.5 -94t-360 94zM1002 187q114 76 171.5 213t57.5 320q0 182 -57.5 319t-171.5 213t-279 77q-165 0 -278 -76t-170 -213t-59 -320
q-2 -182 55.5 -319t172 -213t279.5 -77q165 0 279 76zM473 783h501v-126h-501v126z" />
    <glyph glyph-name="Iota" unicode="&#x399;" horiz-adv-x="467" 
d="M160 1440h147v-1440h-147v1440z" />
    <glyph glyph-name="Kappa" unicode="&#x39a;" horiz-adv-x="1187" 
d="M140 1440h147v-680l657 680h188l-671 -695l726 -745h-192l-708 720v-720h-147v1440z" />
    <glyph glyph-name="Lambda" unicode="&#x39b;" horiz-adv-x="1207" 
d="M506 1440h195l496 -1440h-153l-442 1273l-439 -1273h-153z" />
    <glyph glyph-name="Mu" unicode="&#x39c;" horiz-adv-x="1681" 
d="M140 1440h135l566 -1211l563 1211h137v-1439h-140v1111l-513 -1112h-95l-512 1112v-1112h-141v1440z" />
    <glyph glyph-name="Nu" unicode="&#x39d;" horiz-adv-x="1369" 
d="M140 1440h148l793 -1180v1180h148v-1440h-148l-793 1181v-1181h-148v1440z" />
    <glyph glyph-name="Xi" unicode="&#x39e;" horiz-adv-x="1383" 
d="M140 1440h1103v-141h-1103v141zM240 791h903v-141h-903v141zM140 141h1103v-141h-1103v141z" />
    <glyph glyph-name="Omicron" unicode="&#x39f;" horiz-adv-x="1447" 
d="M363 64q-149 94 -226 263.5t-77 392.5t77 392.5t226 263.5t360 94t360.5 -94t226.5 -263.5t77 -392.5t-77 -392.5t-226.5 -263.5t-360.5 -94t-360 94zM1002 187q114 76 171.5 213t57.5 320q0 182 -57.5 319t-171.5 213t-279 77q-165 0 -278 -76t-170 -213t-59 -320
q-2 -182 55.5 -319t172 -213t279.5 -77q165 0 279 76z" />
    <glyph glyph-name="Pi" unicode="&#x3a0;" horiz-adv-x="1383" 
d="M140 1440h1103v-1440h-147v1299h-809v-1299h-147v1440z" />
    <glyph glyph-name="Rho" unicode="&#x3a1;" horiz-adv-x="1208" 
d="M696 1440q53 0 101 -8q110 -17 189.5 -78t120.5 -154.5t41 -206.5t-41.5 -206t-120.5 -154t-189 -78q-48 -8 -101 -8h-409v-547h-147v1440h556zM781 696q71 15 119.5 59t72.5 106.5t24 131.5t-24 131.5t-72.5 107t-119.5 59.5q-40 8 -89 8h-405v-612h405q50 0 89 9z" />
    <glyph glyph-name="Sigma" unicode="&#x3a3;" horiz-adv-x="1300" 
d="M140 135l576 585l-576 583v137h1020v-141h-813l556 -562v-34l-556 -562h788v-141h-995v135z" />
    <glyph glyph-name="Tau" unicode="&#x3a4;" horiz-adv-x="1193" 
d="M523 1299h-503v141h1153v-141h-503v-1299h-147v1299z" />
    <glyph glyph-name="Upsilon" unicode="&#x3a5;" horiz-adv-x="1112" 
d="M483 603l-483 837h170l387 -669l385 669h170l-481 -837v-603h-148v603z" />
    <glyph glyph-name="Phi" unicode="&#x3a6;" horiz-adv-x="1421" 
d="M551 184q-133 0 -245.5 68.5t-179 200t-66.5 311.5t67 312t179.5 201.5t245.5 69.5q46 0 85 -7v100h146v-100q39 7 85 7q134 0 246.5 -69.5t179.5 -201.5t67 -312t-67 -311.5t-179.5 -200t-245.5 -68.5q-45 0 -86 7v-191h-146v191q-41 -7 -86 -7zM578 1207
q-109 0 -192 -56.5t-128.5 -157.5t-45.5 -229t45 -227t128 -154.5t191 -55.5q33 0 61 4v872q-27 4 -59 4zM844 327q108 0 191 55.5t128.5 154t45.5 224.5q0 127 -46 228.5t-129.5 159.5t-192.5 58q-31 0 -58 -4v-872q28 -4 61 -4z" />
    <glyph glyph-name="Chi" unicode="&#x3a7;" horiz-adv-x="1212" 
d="M519 729l-486 711h178l395 -588l395 588h179l-486 -711l498 -729h-178l-408 605l-407 -605h-179z" />
    <glyph glyph-name="Psi" unicode="&#x3a8;" horiz-adv-x="1431" 
d="M342 441.5q-123 86.5 -172 239.5q-19 52 -24.5 98t-5.5 91v570h141v-492q0 -48 3 -93t14 -92q32 -129 122 -202t222 -74v953h147v-953q133 1 224.5 76.5t120.5 205.5q16 69 16 179v492h141v-570q0 -45 -5.5 -90.5t-24.5 -97.5q-50 -154 -173.5 -240.5t-298.5 -91.5v-350
h-147v350q-177 5 -300 91.5z" />
    <glyph glyph-name="uni03A9" unicode="&#x3a9;" horiz-adv-x="1447" 
d="M338 141q-131 105 -204.5 262t-73.5 352q0 202 80.5 364.5t231 256t351.5 93.5q202 0 352.5 -93.5t231 -256t80.5 -364.5q0 -195 -73.5 -352t-204.5 -262h270v-141h-472l1 141q80 41 154 124t121.5 204t47.5 268q0 161 -62 296t-177.5 214.5t-268.5 79.5q-154 0 -269 -81
t-176.5 -217.5t-61.5 -299.5q0 -148 49 -267.5t123 -199.5t153 -121v-141h-474v141h271z" />
    <glyph glyph-name="Alphatonos" unicode="&#x386;" horiz-adv-x="1267" 
d="M343 1460l-76 -240h-148l76 240h148zM1074 0l-121 349h-640l-120 -349h-153l496 1440h195l496 -1440h-153zM361 487h544l-273 787z" />
    <glyph glyph-name="Epsilontonos" unicode="&#x388;" horiz-adv-x="1416" 
d="M135 1460h148l-76 -240h-148zM1316 1440v-141h-753v-498h633v-141h-633v-519h753v-141h-900v1440h900z" />
    <glyph glyph-name="Etatonos" unicode="&#x389;" horiz-adv-x="1637" 
d="M135 1460h148l-76 -240h-148zM555 1440v-649h796v649h146v-1440h-146v650h-796v-650h-147v1440h147z" />
    <glyph glyph-name="Iotatonos" unicode="&#x38a;" horiz-adv-x="693" 
d="M135 1460h148l-76 -240h-148zM553 1440v-1440h-147v1440h147z" />
    <glyph glyph-name="Omicrontonos" unicode="&#x38c;" horiz-adv-x="1641" 
d="M557.5 64q-149.5 94 -226 263.5t-76.5 392.5t76.5 392.5t226 263.5t360.5 94t360.5 -94t226 -263.5t76.5 -392.5t-76.5 -392.5t-226 -263.5t-360.5 -94t-360.5 94zM153 1460h148l-76 -240h-148zM1197 187q114 76 171 213t57 320q0 182 -57 319t-171 213t-279 77
q-165 0 -278.5 -76t-170.5 -213t-58 -320q-2 -182 55.5 -319t172 -213t279.5 -77q165 0 279 76z" />
    <glyph glyph-name="Upsilontonos" unicode="&#x38e;" horiz-adv-x="1488" 
d="M161 1460h148l-76 -240h-148zM376 1440h170l387 -669l385 669h170l-481 -837v-603h-148v603z" />
    <glyph glyph-name="Omegatonos" unicode="&#x38f;" horiz-adv-x="1680" 
d="M340.5 403q-73.5 157 -73.5 352q0 202 80.5 364.5t230.5 256t352 93.5t352 -93.5t230.5 -256t80.5 -364.5q0 -195 -73.5 -352t-204.5 -262h270v-141h-472l2 141q80 41 153.5 124t121 205t47.5 269q0 161 -62 295.5t-177 213.5t-268 79q-154 0 -269 -81t-176.5 -217.5
t-61.5 -299.5q0 -148 49 -267.5t123 -199.5t153 -121v-141h-475v141h272q-131 105 -204.5 262zM153 1460h148l-76 -240h-148z" />
    <glyph glyph-name="Iotadieresis" unicode="&#x3aa;" horiz-adv-x="467" 
d="M-37 1811h160v-160h-160v160zM344 1811h160v-160h-160v160zM307 1440v-1440h-147v1440h147z" />
    <glyph glyph-name="Upsilondieresis" unicode="&#x3ab;" horiz-adv-x="1112" 
d="M286 1811h160v-160h-160v160zM667 1811h160v-160h-160v160zM0 1440h170l387 -669l385 669h170l-481 -837v-603h-148v603z" />
    <glyph glyph-name="alpha" unicode="&#x3b1;" horiz-adv-x="1218" 
d="M1078 1080v-1080h-132v210q-51 -114 -151 -177t-234 -63q-149 0 -258 74t-166 203.5t-57 292.5t57.5 292.5t167 203.5t260.5 74q134 0 232.5 -62t148.5 -175v207h132zM762 162.5q76 55.5 113.5 153t37.5 225.5q0 129 -37.5 226.5t-113 151.5t-185.5 54t-187 -54.5
t-115.5 -152t-38.5 -225.5q0 -125 38 -223t114.5 -154.5t187.5 -56.5q110 0 186 55.5z" />
    <glyph glyph-name="beta" unicode="&#x3b2;" horiz-adv-x="1135" 
d="M163 1233q39 112 138.5 174.5t239.5 62.5q121 0 213.5 -46.5t144 -133t51.5 -203.5q0 -107 -44 -186t-129 -112q74 -15 142.5 -63.5t112.5 -132t44 -194.5q0 -127 -56.5 -224t-164 -151t-254.5 -54q-100 0 -180 29t-136 81v-560h-146v1560q0 86 24 153zM772 148
q72 37 112.5 103.5t40.5 153.5q0 139 -101.5 215t-278.5 80v135q114 13 184 75.5t70 175.5q0 75 -32 130t-89.5 84t-132.5 29q-81 0 -143.5 -35.5t-88.5 -108.5q-13 -35 -17.5 -75t-4.5 -87v-601q0 -85 15 -135q17 -54 61.5 -93.5t107.5 -61t132 -21.5q93 0 165 37z" />
    <glyph glyph-name="gamma" unicode="&#x3b3;" horiz-adv-x="1016" 
d="M432 0l-392 1080h151l317 -888l319 888h149l-392 -1080v-360h-152v360z" />
    <glyph glyph-name="delta" unicode="&#x3b4;" horiz-adv-x="1183" 
d="M943 905q78 -71 119 -175t41 -230q0 -157 -61.5 -276.5t-177.5 -186t-275 -66.5q-157 0 -272 64.5t-176 181.5t-61 272q0 129 43.5 234t125.5 172t196 85q-98 41 -154 101.5t-56 152.5q0 83 48.5 146t148.5 81q29 6 55.5 7.5t63.5 1.5h371v-124h-338q-59 0 -102 -9
q-47 -12 -74.5 -39t-27.5 -69q0 -46 38.5 -80t101.5 -60t184 -66q17 -5 51 -17q110 -30 188 -101zM850 216.5q89 104.5 89 286.5q0 180 -89 282t-258 102q-171 0 -259 -104t-88 -283q0 -182 89.5 -285t257.5 -103q169 0 258 104.5z" />
    <glyph glyph-name="epsilon" unicode="&#x3b5;" horiz-adv-x="1013" 
d="M960 240q-71 -129 -193 -199.5t-283 -70.5q-114 0 -206 40.5t-145 116t-53 176.5q0 83 36.5 155t106.5 106q-115 87 -115 235q0 95 49 165.5t133.5 108t189.5 37.5q131 0 239.5 -46.5t190.5 -135.5l-94 -99q-61 64 -146.5 102.5t-178.5 38.5q-101 0 -166.5 -46.5
t-65.5 -134.5q0 -85 66 -126.5t183 -41.5h126v-126h-128q-142 0 -209 -40.5t-67 -137.5q0 -63 32.5 -109.5t92 -71.5t138.5 -25q113 0 201 52t148 152z" />
    <glyph glyph-name="zeta" unicode="&#x3b6;" horiz-adv-x="1009" 
d="M844 -205q0 94 -32.5 138t-93.5 55.5t-181 11.5q-137 0 -235.5 27.5t-160 108t-61.5 230.5q0 81 23 156t87 170t182 220l61 62q27 28 126.5 128.5t201.5 201.5h-621v136h842v-121l-50 -51q-126 -129 -216.5 -219t-198.5 -192q-110 -111 -171.5 -194t-86 -149.5
t-24.5 -134.5q0 -96 42 -148.5t122 -72.5t208 -20q36 0 88 -4t91 -13q91 -22 144 -90t53 -186q0 -40 -6 -85h-134q1 12 1 35z" />
    <glyph glyph-name="eta" unicode="&#x3b7;" 
d="M885 1033q97 -74 140 -190.5t43 -248.5v-594h-148v551q0 191 -76 303.5t-237 112.5q-154 0 -237 -103t-83 -288v-576h-148v1080h133v-150q60 87 153 132t210 45q153 0 250 -74z" />
    <glyph glyph-name="theta" unicode="&#x3b8;" horiz-adv-x="1315" 
d="M973 1369q130 -100 196 -270t66 -379q0 -216 -65.5 -385.5t-196 -267t-316.5 -97.5q-185 0 -315 100t-196 270.5t-66 379.5t66 379t196 270t315 100q186 0 316 -100zM439 1255.5q-91 -71.5 -141 -194.5t-60 -278h840q-8 155 -58.5 278t-142.5 194.5t-220 71.5
q-127 0 -218 -71.5zM876 182.5q91 71.5 141 195t60 279.5h-840q8 -155 58.5 -278.5t142.5 -195.5t219 -72q128 0 219 71.5z" />
    <glyph glyph-name="iota" unicode="&#x3b9;" horiz-adv-x="711" 
d="M196 127q-23 43 -29.5 88t-6.5 115v61v689h147v-683v-67q0 -46 4 -74.5t18 -54.5q21 -38 53 -56.5t77 -23.5q29 -3 60 -3q61 0 119 11v-129q-64 -15 -143 -15q-50 0 -89 6q-149 20 -210 136z" />
    <glyph glyph-name="kappa" unicode="&#x3ba;" horiz-adv-x="992" 
d="M140 1080h148v-520l482 520h196l-506 -540l572 -540h-214l-530 520v-520h-149z" />
    <glyph glyph-name="lambda" unicode="&#x3bb;" horiz-adv-x="1056" 
d="M405 1237.5q-25 48.5 -68 75.5t-118 27h-50v130h66q74 0 118 -11q69 -15 116.5 -65.5t78 -116.5t69.5 -177l7 -20l392 -1080h-151l-317 888l-319 -888h-149l392 1080q-42 109 -67 157.5z" />
    <glyph glyph-name="uni03BC" unicode="&#x3bc;" horiz-adv-x="1207" 
d="M287 1080v-551q0 -191 76 -303.5t238 -112.5q154 0 236.5 103t82.5 288v576h147v-1080h-132v153q-58 -89 -152 -134.5t-211 -45.5q-98 0 -174.5 36t-126.5 103v-592h-132v1560h148z" />
    <glyph glyph-name="nu" unicode="&#x3bd;" horiz-adv-x="1016" 
d="M40 1080h149l319 -888l317 888h151l-392 -1080h-152z" />
    <glyph glyph-name="xi" unicode="&#x3be;" horiz-adv-x="1101" 
d="M961 -190q0 88 -32.5 128t-96.5 51t-193 11q-291 0 -425 111.5t-134 308.5q0 136 60.5 225t174.5 123q-85 49 -134.5 133t-49.5 194q0 124 62.5 208.5t166.5 125.5t229 41q169 0 292.5 -74t197.5 -204l-120 -89q-62 111 -149.5 168.5t-220.5 57.5q-136 0 -219 -60.5
t-83 -177.5q0 -115 81 -179.5t226 -70.5q42 -2 155 -2v-142q-19 0 -164 -5q-112 -5 -188 -29t-118.5 -79t-42.5 -151q0 -155 116 -224.5t341 -70.5q7 0 75 -1.5t127 -15.5q92 -21 148.5 -87.5t56.5 -182.5q0 -47 -8 -91h-133q2 36 2 50z" />
    <glyph glyph-name="omicron" unicode="&#x3bf;" horiz-adv-x="1183" 
d="M317.5 42.5q-115.5 72.5 -176.5 201.5t-61 297q0 169 62 298t177.5 200t271.5 71q159 0 274.5 -72t176.5 -201t61 -296q0 -170 -61.5 -299t-177 -200.5t-273.5 -71.5t-273.5 72.5zM788 164.5q80 53.5 119.5 150t39.5 226.5q0 200 -90.5 314t-265.5 114
q-176 0 -265.5 -115.5t-89.5 -312.5q0 -131 40.5 -228t120 -149.5t194.5 -52.5q117 0 197 53.5z" />
    <glyph glyph-name="pi" unicode="&#x3c0;" horiz-adv-x="1308" 
d="M267 944h-214v136h1202v-136h-214v-944h-146v944h-482v-944h-146v944z" />
    <glyph glyph-name="rho" unicode="&#x3c1;" horiz-adv-x="1195" 
d="M147 649q14 136 74.5 240t163.5 162.5t241 58.5q155 0 265.5 -74t167 -202.5t56.5 -290.5q0 -164 -57.5 -294t-165.5 -204.5t-255 -74.5q-116 0 -207.5 48t-142.5 129v-627h-148v955q0 115 8 174zM809 162.5q77 55.5 116 154t39 225.5q0 128 -38 225t-115 151.5
t-190 54.5q-166 0 -250.5 -116t-84.5 -314q0 -130 37 -228t112 -153t186 -55t188 55.5z" />
    <glyph glyph-name="uni03C2" unicode="&#x3c2;" horiz-adv-x="1107" 
d="M858 -204q0 94 -33 135.5t-91.5 52t-190.5 16.5q-174 7 -277.5 84t-144.5 190t-41 241q0 187 60 320.5t173 204t271 70.5q168 0 289 -79t168 -220l-144 -46q-39 97 -121 150.5t-193 53.5q-114 0 -190 -56.5t-113 -155.5t-37 -229q0 -158 72.5 -273.5t264.5 -116.5
q67 0 121 -2.5t98 -14.5q92 -22 144.5 -90.5t52.5 -186.5q0 -39 -6 -84h-133q1 13 1 36z" />
    <glyph glyph-name="sigma" unicode="&#x3c3;" horiz-adv-x="1210" 
d="M1163 944h-220q75 -71 117.5 -179.5t42.5 -238.5q0 -160 -63.5 -286.5t-179.5 -198t-269 -71.5t-269 71.5t-179 198t-63 286.5q0 143 49.5 258.5t142 189.5t217.5 96q37 7 84.5 8.5t124.5 1.5h465v-136zM785.5 163q80.5 52 121 145.5t40.5 217.5q0 122 -40.5 215
t-121 145.5t-194.5 52.5q-115 1 -195 -52.5t-120 -147t-40 -213.5q0 -125 41.5 -219t121.5 -145t192 -51q114 0 194.5 52z" />
    <glyph glyph-name="tau" unicode="&#x3c4;" horiz-adv-x="1037" 
d="M469 127q-23 43 -29.5 88t-6.5 115v61v553h-383v136h913v-136h-383v-547v-67q0 -46 4 -74.5t18 -54.5q21 -38 53 -56.5t77 -23.5q29 -3 60 -3q61 0 119 11v-129q-64 -15 -143 -15q-50 0 -89 6q-149 20 -210 136z" />
    <glyph glyph-name="upsilon" unicode="&#x3c5;" horiz-adv-x="1163" 
d="M268 1080v-551q0 -191 76 -303.5t237 -112.5q162 0 238 112.5t76 303.5v551h148v-587q0 -229 -109 -374.5t-353 -145.5t-352.5 145.5t-108.5 374.5v587h148z" />
    <glyph glyph-name="phi" unicode="&#x3c6;" horiz-adv-x="1467" 
d="M563 -28q-138 0 -247.5 68t-172.5 196t-63 303t63 303.5t172.5 197t247.5 68.5q47 0 89 -7v331h136v-331q42 7 89 7q138 0 247.5 -68.5t172.5 -197t63 -303.5t-63 -303t-172.5 -196t-247.5 -68q-47 0 -89 7v-429h-136v429q-42 -7 -89 -7zM584 969q-98 0 -177.5 -47.5
t-127 -144.5t-47.5 -238t48 -237.5t128 -144t177 -47.5q34 0 67 6v847q-35 6 -68 6zM856 110q97 0 177 47t127.5 143.5t47.5 238.5t-47.5 238.5t-127 144t-176.5 47.5q-35 0 -69 -6v-847q35 -6 68 -6z" />
    <glyph glyph-name="chi" unicode="&#x3c7;" horiz-adv-x="1054" 
d="M442 546l-413 534h176l323 -421l320 421h176l-413 -534l423 -546h-177l-329 433l-331 -433h-177z" />
    <glyph glyph-name="psi" unicode="&#x3c8;" horiz-adv-x="1391" 
d="M324.5 53q-125.5 87 -174.5 238q-30 83 -30 190v599h141v-521q0 -115 17 -185q21 -84 71.5 -146t121.5 -95.5t153 -34.5v982h143v-982q82 1 154.5 35.5t123 98t69.5 147.5q16 68 16 180v521h141v-599q0 -103 -30 -188q-32 -98 -99 -171.5t-163 -115.5t-212 -45v-411h-143
v411q-174 5 -299.5 92z" />
    <glyph glyph-name="omega" unicode="&#x3c9;" horiz-adv-x="1553" 
d="M1473 485q0 -152 -46 -268.5t-137 -182t-220 -65.5q-103 0 -180.5 46t-113.5 141q-35 -95 -112.5 -141t-179.5 -46q-132 0 -222.5 66t-136 183t-45.5 268q0 431 351 624l92 -123q-152 -89 -219.5 -206t-67.5 -286q0 -112 29.5 -199t88.5 -136.5t144 -49.5q87 0 132.5 47
t61 124t15.5 188v218h139v-218q0 -111 15 -187.5t61 -124t133 -47.5t146 50.5t87.5 137.5t28.5 197q0 170 -68.5 286.5t-219.5 205.5l92 123q352 -193 352 -625z" />
    <glyph glyph-name="iotatonos" unicode="&#x3af;" horiz-adv-x="711" 
d="M237 1460h148l-76 -240h-148zM196 127q-23 43 -29.5 88t-6.5 115v61v689h147v-683v-67q0 -46 4 -74.5t18 -54.5q21 -38 53 -56.5t77 -23.5q29 -3 60 -3q61 0 119 11v-129q-64 -15 -143 -15q-50 0 -89 6q-149 20 -210 136z" />
    <glyph glyph-name="iotadieresis" unicode="&#x3ca;" horiz-adv-x="684" 
d="M-37 1451h160v-160h-160v160zM344 1451h160v-160h-160v160zM196 127q-23 43 -29.5 88t-6.5 115v61v689h147v-683v-67q0 -46 4 -74.5t18 -54.5q21 -38 53 -56.5t77 -23.5q29 -3 60 -3q61 0 119 11v-129q-64 -15 -143 -15q-50 0 -89 6q-149 20 -210 136z" />
    <glyph glyph-name="iotadieresistonos" unicode="&#x390;" horiz-adv-x="777" 
d="M299 1490h148l-76 -240h-148zM-2 1450h150v-160h-150v160zM515 1450h150v-160h-150v160zM262 127q-23 43 -29.5 88t-6.5 115v61v689h147v-683v-67q0 -46 4 -74.5t18 -54.5q21 -38 53 -56.5t77 -23.5q28 -3 60 -3q61 0 119 11v-129q-64 -15 -143 -15q-50 0 -89 6
q-149 20 -210 136z" />
    <glyph glyph-name="upsilontonos" unicode="&#x3cd;" horiz-adv-x="1163" 
d="M582 1460h148l-76 -240h-148zM268 529q0 -191 76 -303.5t237 -112.5q162 0 238 112.5t76 303.5v551h148v-587q0 -229 -109 -374.5t-353 -145.5t-352.5 145.5t-108.5 374.5v587h148v-551z" />
    <glyph glyph-name="upsilondieresis" unicode="&#x3cb;" horiz-adv-x="1163" 
d="M311 1451h160v-160h-160v160zM692 1451h160v-160h-160v160zM268 529q0 -191 76 -303.5t237 -112.5q162 0 238 112.5t76 303.5v551h148v-587q0 -229 -109 -374.5t-353 -145.5t-352.5 145.5t-108.5 374.5v587h148v-551z" />
    <glyph glyph-name="upsilondieresistonos" unicode="&#x3b0;" horiz-adv-x="1163" 
d="M549 1490h148l-76 -240h-148zM248 1450h150v-160h-150v160zM765 1450h150v-160h-150v160zM268 529q0 -191 76 -303.5t237 -112.5q162 0 238 112.5t76 303.5v551h148v-587q0 -229 -109 -374.5t-353 -145.5t-352.5 145.5t-108.5 374.5v587h148v-551z" />
    <glyph glyph-name="omicrontonos" unicode="&#x3cc;" horiz-adv-x="1183" 
d="M515 1230l76 240h148l-76 -240h-148zM317.5 42.5q-115.5 72.5 -176.5 201.5t-61 297q0 169 62 298t177.5 200t271.5 71q159 0 274.5 -72t176.5 -201t61 -296q0 -170 -61.5 -299t-177 -200.5t-273.5 -71.5t-273.5 72.5zM788 164.5q80 53.5 119.5 150t39.5 226.5
q0 200 -90.5 314t-265.5 114q-176 0 -265.5 -115.5t-89.5 -312.5q0 -131 40.5 -228t120 -149.5t194.5 -52.5q117 0 197 53.5z" />
    <glyph glyph-name="omegatonos" unicode="&#x3ce;" horiz-adv-x="1553" 
d="M929 1460l-76 -240h-148l76 240h148zM1473 485q0 -152 -46 -268.5t-137 -182t-220 -65.5q-103 0 -180.5 46t-113.5 141q-35 -95 -112.5 -141t-179.5 -46q-132 0 -222.5 66t-136 183t-45.5 268q0 431 351 624l92 -123q-152 -89 -219.5 -206t-67.5 -286q0 -112 29.5 -199
t88.5 -136.5t144 -49.5q87 0 132.5 47t61 124t15.5 188v218h139v-218q0 -111 15 -187.5t61 -124t133 -47.5t146 50.5t87.5 137.5t28.5 197q0 170 -68.5 286.5t-219.5 205.5l92 123q352 -193 352 -625z" />
    <glyph glyph-name="alphatonos" unicode="&#x3ac;" horiz-adv-x="1164" 
d="M773 1460l-76 -240h-148l76 240h148zM1078 1080v-1080h-132v210q-51 -114 -151 -177t-234 -63q-149 0 -258 74t-166 203.5t-57 292.5t57.5 292.5t167 203.5t260.5 74q134 0 232.5 -62t148.5 -175v207h132zM762 162.5q76 55.5 113.5 153t37.5 225.5q0 129 -37.5 226.5
t-113 151.5t-185.5 54t-187 -54.5t-115.5 -152t-38.5 -225.5q0 -125 38 -223t114.5 -154.5t187.5 -56.5q110 0 186 55.5z" />
    <glyph glyph-name="epsilontonos" unicode="&#x3ad;" horiz-adv-x="1013" 
d="M655 1460l-76 -240h-148l76 240h148zM960 240q-71 -129 -193 -199.5t-283 -70.5q-114 0 -206 40.5t-145 116t-53 176.5q0 83 36.5 155t106.5 106q-115 87 -115 235q0 95 49 165.5t133.5 108t189.5 37.5q131 0 239.5 -46.5t190.5 -135.5l-94 -99q-61 64 -146.5 102.5
t-178.5 38.5q-101 0 -166.5 -46.5t-65.5 -134.5q0 -85 66 -126.5t183 -41.5h126v-126h-128q-142 0 -209 -40.5t-67 -137.5q0 -63 32.5 -109.5t92 -71.5t138.5 -25q113 0 201 52t148 152z" />
    <glyph glyph-name="etatonos" unicode="&#x3ae;" 
d="M766 1470l-76 -240h-148l76 240h148zM885 1033q97 -74 140 -190.5t43 -248.5v-594h-148v551q0 191 -76 303.5t-237 112.5q-154 0 -237 -103t-83 -288v-576h-148v1080h133v-150q60 87 153 132t210 45q153 0 250 -74z" />
    <glyph glyph-name="zero" unicode="0" horiz-adv-x="1220" 
d="M370.5 31.5q-107.5 61.5 -169 169t-61.5 239.5v560q0 132 61.5 239.5t169 169t239.5 61.5t239.5 -61.5t169 -169t61.5 -239.5v-560q0 -132 -61.5 -239.5t-169 -169t-239.5 -61.5t-239.5 61.5zM771 155q74 43 117 117t43 161v574q0 88 -43 161.5t-117 117t-161 43.5
t-161 -43.5t-117 -117t-43 -161.5v-574q0 -87 43 -161t117 -117t161 -43t161 43z" />
    <glyph glyph-name="one" unicode="1" horiz-adv-x="780" 
d="M391 1276l-271 -163v165l271 162h149v-1440h-149v1276z" />
    <glyph glyph-name="two" unicode="2" horiz-adv-x="1140" 
d="M324 142h716v-141h-940l1 134l651 588q79 71 109 139t30 149q0 88 -41.5 160.5t-113.5 115t-159 42.5q-90 0 -163 -43.5t-114.5 -116.5t-40.5 -157h-150q0 129 61.5 234t169 164.5t239.5 59.5q129 0 234.5 -61t166 -166.5t60.5 -232.5q0 -89 -21.5 -156.5t-65 -125.5
t-117.5 -124z" />
    <glyph glyph-name="three" unicode="3" horiz-adv-x="1106" 
d="M776 837.5q100 -57.5 155 -161.5t55 -237q0 -136 -59 -242.5t-164 -166t-236 -59.5q-106 0 -196.5 38t-155.5 109t-95 168l140 42q35 -103 114.5 -159t182.5 -56q97 0 168.5 40.5t110 114.5t38.5 171t-39 171t-109.5 114.5t-162.5 40.5q-38 0 -81.5 -11t-80.5 -29
l-74 117l495 457h-645v141h832v-143l-422 -403q129 1 229 -56.5z" />
    <glyph glyph-name="four" unicode="4" horiz-adv-x="1179" 
d="M774 279h-674v140l482 1021h165l-482 -1021h509v420h148v-420h157v-140h-157v-279h-148v279z" />
    <glyph glyph-name="five" unicode="5" horiz-adv-x="1155" 
d="M820.5 865.5q108.5 -63.5 171.5 -172.5t63 -240q0 -130 -66.5 -241t-179.5 -176.5t-244 -65.5q-110 0 -206 45.5t-163.5 127t-95.5 186.5l141 38q19 -76 68.5 -133.5t117.5 -88.5t142 -31q94 0 171.5 46t122.5 124t45 169q0 93 -46.5 170.5t-124.5 122.5t-168 45
q-98 0 -172.5 -42t-121.5 -114l-134 56l44 749h769v-141h-635l-29 -479q60 52 135.5 80.5t156.5 28.5q130 0 238.5 -63.5z" />
    <glyph glyph-name="six" unicode="6" horiz-adv-x="1241" 
d="M881 864.5q109 -63.5 171.5 -172.5t62.5 -241q0 -131 -66 -241.5t-178.5 -175t-243.5 -64.5q-134 0 -245.5 65.5t-176.5 179.5t-65 252v499q0 142 65 257t178.5 180.5t254.5 65.5q123 0 228 -54t173 -151l-113 -93q-46 72 -123 115t-165 43q-99 0 -179 -48t-125 -128.5
t-45 -173.5v-221q65 79 157 124.5t195 45.5q131 0 240 -63.5zM798 158q78 45 123.5 123t45.5 170q0 93 -45.5 171t-123.5 123.5t-170 45.5t-170 -45.5t-123.5 -123.5t-45.5 -171q0 -92 45 -169.5t123 -123t170 -45.5q93 0 171 45z" />
    <glyph glyph-name="seven" unicode="7" horiz-adv-x="1004" 
d="M747 1297h-667v143h824v-143l-529 -1297h-158z" />
    <glyph glyph-name="eight" unicode="8" horiz-adv-x="1161" 
d="M989 617q52 -95 52 -213q0 -130 -58.5 -228t-163.5 -152t-240 -54q-134 0 -238.5 54t-162.5 152t-58 228q0 120 50.5 215t151.5 152q-82 49 -125 131t-43 181q0 118 54 205.5t150.5 134.5t220.5 47t220.5 -47t151 -134.5t54.5 -205.5q0 -100 -42.5 -182.5t-124.5 -130.5
q99 -58 151 -153zM382.5 1263q-72.5 -62 -72.5 -180t73 -181t196 -63q124 0 197 63t73 181t-73 180t-197 62t-196.5 -62zM740 145q69 34 107 100t38 159q0 141 -82.5 217t-223.5 76t-222.5 -76t-81.5 -217q0 -93 38 -159t106.5 -100t159.5 -34q92 0 161 34z" />
    <glyph glyph-name="nine" unicode="9" horiz-adv-x="1241" 
d="M859.5 1403.5q111.5 -65.5 176.5 -179.5t65 -252v-499q0 -142 -65 -257t-178.5 -180.5t-254.5 -65.5q-123 0 -228 54t-173 151l113 93q46 -72 123 -115t165 -43q99 0 179 48t125 128.5t45 173.5v221q-65 -79 -157 -124.5t-195 -45.5q-131 0 -240 63.5t-171.5 172.5
t-62.5 241q0 131 66 241.5t178.5 175t243.5 64.5q134 0 245.5 -65.5zM783 693.5q78 45.5 123.5 123.5t45.5 171q0 92 -45 169.5t-123 123t-170 45.5q-93 0 -171 -45t-123.5 -123t-45.5 -170q0 -93 45.5 -171t123.5 -123.5t170 -45.5t170 45.5z" />
    <glyph glyph-name="zero.tf" horiz-adv-x="1240" 
d="M383.5 31.5q-107.5 61.5 -169 169t-61.5 239.5v560q0 132 61.5 239.5t169 169t239.5 61.5q131 0 238.5 -61.5t169.5 -169t62 -239.5v-560q0 -132 -62 -239.5t-169.5 -169t-238.5 -61.5q-132 0 -239.5 61.5zM784 155q74 43 117 117t43 161v574q0 88 -43 161.5t-117 117
t-161 43.5q-88 0 -161.5 -43.5t-117 -117t-43.5 -161.5v-574q0 -87 43.5 -161t117 -117t161.5 -43q87 0 161 43z" />
    <glyph glyph-name="one.tf" horiz-adv-x="1240" 
d="M612 1276l-271 -163v165l271 162h149v-1440h-149v1276z" />
    <glyph glyph-name="two.tf" horiz-adv-x="1240" 
d="M373 142h716v-141h-940l1 134l651 588q79 71 109 139t30 149q0 88 -41.5 160.5t-113.5 115t-159 42.5q-90 0 -163 -43.5t-114.5 -116.5t-40.5 -157h-150q0 129 61.5 234t169 164.5t239.5 59.5q129 0 234.5 -61t166 -166.5t60.5 -232.5q0 -89 -21.5 -156.5t-65 -125.5
t-117.5 -124z" />
    <glyph glyph-name="three.tf" horiz-adv-x="1240" 
d="M843 837.5q100 -57.5 155 -161.5t55 -237q0 -136 -59 -242.5t-164 -166t-236 -59.5q-106 0 -196.5 38t-155.5 109t-95 168l140 42q35 -103 114.5 -159t182.5 -56q97 0 168.5 40.5t110 114.5t38.5 171t-39 171t-109.5 114.5t-162.5 40.5q-38 0 -81.5 -11t-80.5 -29
l-74 117l495 457h-645v141h832v-143l-422 -403q129 1 229 -56.5z" />
    <glyph glyph-name="four.tf" horiz-adv-x="1240" 
d="M820 279h-674v140l482 1021h165l-482 -1021h509v420h148v-420h157v-140h-157v-279h-148v279z" />
    <glyph glyph-name="five.tf" horiz-adv-x="1240" 
d="M863.5 865.5q108.5 -63.5 171.5 -172.5t63 -240q0 -130 -66.5 -241t-179.5 -176.5t-244 -65.5q-110 0 -206 45.5t-163.5 127t-95.5 186.5l141 38q19 -76 68.5 -133.5t117.5 -88.5t142 -31q94 0 171.5 46t122.5 124t45 169q0 93 -46.5 170.5t-124.5 122.5t-168 45
q-98 0 -172.5 -42t-121.5 -114l-134 56l44 749h769v-141h-635l-29 -479q60 52 135.5 80.5t156.5 28.5q130 0 238.5 -63.5z" />
    <glyph glyph-name="six.tf" horiz-adv-x="1240" 
d="M874 864.5q109 -63.5 171.5 -172.5t62.5 -241q0 -131 -66 -241.5t-178.5 -175t-243.5 -64.5q-134 0 -245.5 65.5t-176.5 179.5t-65 252v499q0 142 65 257t178.5 180.5t254.5 65.5q123 0 228 -54t173 -151l-113 -93q-46 72 -123 115t-165 43q-99 0 -179 -48t-125 -128.5
t-45 -173.5v-221q65 79 157 124.5t195 45.5q131 0 240 -63.5zM791 158q78 45 123.5 123t45.5 170q0 93 -45.5 171t-123.5 123.5t-170 45.5t-170 -45.5t-123.5 -123.5t-45.5 -171q0 -92 45 -169.5t123 -123t170 -45.5q93 0 171 45z" />
    <glyph glyph-name="seven.tf" horiz-adv-x="1240" 
d="M882 1297h-667v143h824v-143l-529 -1297h-158z" />
    <glyph glyph-name="eight.tf" horiz-adv-x="1240" 
d="M1029 617q52 -95 52 -213q0 -130 -58.5 -228t-163.5 -152t-240 -54q-134 0 -238.5 54t-162.5 152t-58 228q0 120 50.5 215t151.5 152q-82 49 -125 131t-43 181q0 118 54 205.5t150.5 134.5t220.5 47t220.5 -47t151 -134.5t54.5 -205.5q0 -100 -42.5 -182.5t-124.5 -130.5
q99 -58 151 -153zM422.5 1263q-72.5 -62 -72.5 -180t73 -181t196 -63q124 0 197 63t73 181t-73 180t-197 62t-196.5 -62zM780 145q69 34 107 100t38 159q0 141 -82.5 217t-223.5 76t-222.5 -76t-81.5 -217q0 -93 38 -159t106.5 -100t159.5 -34q92 0 161 34z" />
    <glyph glyph-name="nine.tf" horiz-adv-x="1240" 
d="M865.5 1404.5q111.5 -65.5 176.5 -179.5t65 -252v-499q0 -143 -64.5 -257.5t-178.5 -180t-255 -65.5q-123 0 -227.5 54t-172.5 151l112 93q47 -72 123.5 -115t164.5 -43q99 0 179 48t125.5 128.5t45.5 173.5v222q-65 -80 -157 -125.5t-196 -45.5q-131 0 -239.5 63.5
t-171 172.5t-62.5 241q0 131 66 241.5t178 175t243 64.5q134 0 245.5 -65.5zM789.5 694.5q78.5 45.5 124 124t45.5 170.5t-45.5 169.5t-123.5 123t-170 45.5q-93 0 -170.5 -45t-123 -123t-45.5 -170q0 -93 45 -171t123 -123.5t170 -45.5t170.5 45.5z" />
    <glyph glyph-name="uni2080" unicode="&#x2080;" horiz-adv-x="891" 
d="M287.5 16.5q-69.5 39.5 -108.5 110.5t-39 162v316q0 90 39 161.5t108.5 111.5t157.5 40t157.5 -39.5t109 -111t39.5 -162.5v-316q0 -91 -38.5 -162t-108.5 -110.5t-159 -39.5q-88 0 -157.5 39.5zM544 109.5q44 26.5 69 73t25 105.5v320q0 57 -25 103.5t-69 73t-99 26.5
q-54 0 -98 -26t-69 -72.5t-25 -104.5v-320q0 -57 24.5 -104t68.5 -74t99 -27t99 26.5z" />
    <glyph glyph-name="uni2081" unicode="&#x2081;" horiz-adv-x="642" 
d="M290 777l-170 -103v124l170 102h112v-900h-112v777z" />
    <glyph glyph-name="uni2082" unicode="&#x2082;" horiz-adv-x="800" 
d="M273 107h427v-107h-600l1 100l400 361q47 43 65.5 82.5t18.5 84.5q0 52 -24 94.5t-65 67.5t-92 25q-52 0 -95 -26t-67 -68.5t-23 -90.5h-115q0 84 39 150t107.5 103t154.5 37q83 0 150.5 -38.5t106 -105.5t38.5 -149q0 -57 -15 -99.5t-43.5 -78t-79.5 -80.5z" />
    <glyph glyph-name="uni2083" unicode="&#x2083;" horiz-adv-x="779" 
d="M538 517.5q58 -37.5 89.5 -100.5t31.5 -142q0 -86 -38.5 -153t-105.5 -105t-150 -38q-101 0 -179 55t-106 150l107 31q20 -62 66.5 -95t106.5 -33q84 0 134.5 51.5t50.5 136.5q0 84 -50.5 136t-131.5 52q-43 0 -94 -22l-54 87l293 266h-392v106h533v-107l-246 -234
q77 -4 135 -41.5z" />
    <glyph glyph-name="uni2084" unicode="&#x2084;" horiz-adv-x="820" 
d="M515 165h-415v107l297 628h127l-297 -628h288v253h112v-253h93v-107h-93v-165h-112v165z" />
    <glyph glyph-name="uni2085" unicode="&#x2085;" horiz-adv-x="801" 
d="M557 540q67 -39 105.5 -107t38.5 -151q0 -81 -42 -150.5t-113 -110.5t-154 -41q-69 0 -129 28.5t-102.5 79.5t-60.5 117l107 28q16 -65 69.5 -104.5t118.5 -39.5q53 0 97.5 26t70.5 70.5t26 96.5q0 53 -26.5 98t-71 71t-96.5 26q-56 0 -99 -23.5t-69 -62.5l-99 38l27 471
h484v-105h-387l-15 -275q35 29 79 44t92 15q82 0 149 -39z" />
    <glyph glyph-name="uni2086" unicode="&#x2086;" horiz-adv-x="886" 
d="M614 536q68 -39 106.5 -107t38.5 -151t-42 -153t-113 -110.5t-154 -40.5q-86 0 -157 41.5t-112 114t-41 161.5v302q0 95 41 169t113.5 115t164.5 41q75 0 140 -31t110 -87l-85 -75q-28 40 -71.5 63t-93.5 23q-58 0 -105 -28t-73 -75.5t-26 -102.5v-124q39 45 93 69.5
t115 24.5q83 0 151 -39zM548.5 107.5q44.5 26.5 70.5 71.5t26 99q0 53 -26 97.5t-70.5 70.5t-98.5 26t-98.5 -26t-70.5 -70.5t-26 -97.5t26 -98.5t71 -72t98 -26.5q54 0 98.5 26.5z" />
    <glyph glyph-name="uni2087" unicode="&#x2087;" horiz-adv-x="709" 
d="M490 793h-410v107h529v-107l-323 -793h-121z" />
    <glyph glyph-name="uni2088" unicode="&#x2088;" horiz-adv-x="833" 
d="M682 383q31 -59 31 -132q0 -82 -38 -145t-105.5 -97.5t-153.5 -34.5t-153 34.5t-105 97.5t-38 145q0 73 30 131.5t89 96.5q-47 32 -71.5 82t-24.5 109q0 75 34.5 131.5t96.5 86.5t142 30t142 -30t96.5 -86.5t34.5 -131.5q0 -60 -24.5 -109.5t-73.5 -81.5q60 -37 91 -96z
M304 774q-42 -36 -42 -104t42 -104t112 -36q72 0 113.5 36t41.5 104t-41.5 104t-113.5 36q-70 0 -112 -36zM545 125.5q48 44.5 48 125.5q0 83 -47.5 127.5t-129.5 44.5t-130 -45t-48 -127q0 -81 48.5 -125.5t129.5 -44.5t129 44.5z" />
    <glyph glyph-name="uni2089" unicode="&#x2089;" horiz-adv-x="886" 
d="M593 876.5q71 -41.5 112 -114t41 -161.5v-302q0 -95 -41 -169t-113.5 -115t-164.5 -41q-75 0 -140 31t-110 87l85 75q28 -40 71.5 -63t93.5 -23q58 0 105 28t73 75.5t26 102.5v124q-39 -45 -93 -69.5t-115 -24.5q-83 0 -151 39t-106.5 107t-38.5 151t42 153t113 110.5
t154 40.5q86 0 157 -41.5zM534.5 446q44.5 26 70.5 70.5t26 97.5t-26 98.5t-71 72t-98 26.5q-54 0 -98.5 -26.5t-70.5 -71.5t-26 -99q0 -53 26 -97.5t70.5 -70.5t98.5 -26t98.5 26z" />
    <glyph glyph-name="uni2070" unicode="&#x2070;" horiz-adv-x="891" 
d="M287.5 556.5q-69.5 39.5 -108.5 110.5t-39 162v316q0 90 39 161.5t108.5 111.5t157.5 40t157.5 -39.5t109 -111t39.5 -162.5v-316q0 -91 -38.5 -162t-108.5 -110.5t-159 -39.5q-88 0 -157.5 39.5zM544 649.5q44 26.5 69 73t25 105.5v320q0 57 -25 103.5t-69 73t-99 26.5
q-54 0 -98 -26t-69 -72.5t-25 -104.5v-320q0 -57 24.5 -104t68.5 -74t99 -27t99 26.5z" />
    <glyph glyph-name="uni00B9" unicode="&#xb9;" horiz-adv-x="642" 
d="M290 1317l-170 -103v124l170 102h112v-900h-112v777z" />
    <glyph glyph-name="uni00B2" unicode="&#xb2;" horiz-adv-x="800" 
d="M273 647h427v-107h-600l1 100l400 361q47 43 65.5 82.5t18.5 84.5q0 52 -24 94.5t-65 67.5t-92 25q-52 0 -95 -26t-67 -68.5t-23 -90.5h-115q0 84 39 150t107.5 103t154.5 37q83 0 150.5 -38.5t106 -105.5t38.5 -149q0 -57 -15 -99.5t-43.5 -78t-79.5 -80.5z" />
    <glyph glyph-name="uni00B3" unicode="&#xb3;" horiz-adv-x="779" 
d="M538 1057.5q58 -37.5 89.5 -100.5t31.5 -142q0 -86 -38.5 -153t-105.5 -105t-150 -38q-101 0 -179 55t-106 150l107 31q20 -62 66.5 -95t106.5 -33q84 0 134.5 51.5t50.5 136.5q0 84 -50.5 136t-131.5 52q-43 0 -94 -22l-54 87l293 266h-392v106h533v-107l-246 -234
q77 -4 135 -41.5z" />
    <glyph glyph-name="uni2074" unicode="&#x2074;" horiz-adv-x="820" 
d="M515 705h-415v107l297 628h127l-297 -628h288v253h112v-253h93v-107h-93v-165h-112v165z" />
    <glyph glyph-name="uni2075" unicode="&#x2075;" horiz-adv-x="801" 
d="M557 1080q67 -39 105.5 -107t38.5 -151q0 -81 -42 -150.5t-113 -110.5t-154 -41q-69 0 -129 28.5t-102.5 79.5t-60.5 117l107 28q16 -65 69.5 -104.5t118.5 -39.5q53 0 97.5 26t70.5 70.5t26 96.5q0 53 -26.5 98t-71 71t-96.5 26q-56 0 -99 -23.5t-69 -62.5l-99 38
l27 471h484v-105h-387l-15 -275q35 29 79 44t92 15q82 0 149 -39z" />
    </font>
</defs>
</svg>
