<?xml version="1.0" encoding="utf-8"?>
<!-- Generator: Adobe Illustrator 20.0.0, SVG Export Plug-In . SVG Version: 6.00 Build 0)  -->
<svg version="1.1" id="Layer_1" xmlns="http://www.w3.org/2000/svg" xmlns:xlink="http://www.w3.org/1999/xlink" x="0px" y="0px"
	 viewBox="0 0 163.7 112.9" style="enable-background:new 0 0 163.7 112.9;" xml:space="preserve">
<style type="text/css">
	.st0{clip-path:url(#SVGID_2_);}
</style>
<g>
	<g>
		<defs>
			<rect id="SVGID_1_" width="163.4" height="112.9"/>
		</defs>
		<clipPath id="SVGID_2_">
			<use xlink:href="#SVGID_1_"  style="overflow:visible;"/>
		</clipPath>
		<path class="st0" d="M82.1,65.7L82.1,65.7c1.3,0,2.5-0.4,3.5-1l0.3-0.2c0.1,0,0.1-0.1,0.2-0.1l3.1-2.6l74.4-61.4
			c-0.1-0.2-0.4-0.4-0.7-0.4H0.9C0.7,0,0.5,0.1,0.3,0.2l77.9,64.2C79.2,65.2,80.6,65.7,82.1,65.7L82.1,65.7z M0,8.7v91.1l55.8-45.1
			L0,8.7z M108,55l55.7,44.8V9L108,55z M90.3,69.6c-2.2,1.8-5.1,2.8-8.2,2.8c-3.1,0-6-1-8.2-2.8L61.1,59.1L0,108.5v0.2
			c0,0.5,0.4,0.9,0.9,0.9h162c0.5,0,0.9-0.4,0.9-0.9v-0.1l-61.1-49.1L90.3,69.6z M90.3,69.6"/>
	</g>
</g>
</svg>
